<svg xmlns="http://www.w3.org/2000/svg" xmlns:xlink="http://www.w3.org/1999/xlink" viewBox="0 0 200 200"><defs><style>.cls-1,.cls-4{fill:none;}.cls-2{fill:url(#Gradient_bez_nazwy_10);}.cls-3{clip-path:url(#clip-path);}.cls-4{stroke:#fff;stroke-miterlimit:10;stroke-width:3px;}.cls-5{fill:#004087;}</style><radialGradient id="Gradient_bez_nazwy_10" cx="-84.51" cy="99.9" r="66.64" gradientTransform="translate(207.23 -27.43) scale(1.27 1.28)" gradientUnits="userSpaceOnUse"><stop offset="0.39" stop-color="#fff"/><stop offset="1" stop-color="#636363"/></radialGradient><clipPath id="clip-path"><polygon class="cls-1" points="103.49 24.48 103.49 172.05 107.69 172.05 160.89 160.62 180.98 127.89 184.93 93.91 175.78 62.27 165.01 44.19 137.03 23.4 103.49 24.48"/></clipPath></defs><title>antibo</title><g id="Warstwa_5" data-name="Warstwa 5"><ellipse class="cls-2" cx="100.26" cy="100" rx="84.34" ry="85"/><path class="cls-1" d="M100,183.92c46.52,0,84.23-37.44,84.23-83.63S146.52,16.67,100,16.67,15.77,54.11,15.77,100.29,53.48,183.92,100,183.92"/><path class="cls-4" d="M100,184.68c46.94,0,85-37.78,85-84.39s-38.06-84.38-85-84.38S15,53.69,15,100.29s38.06,84.39,85,84.39"/><path class="cls-5" d="M80.93,55.81v.93H74.87l4.24-4.92H75.66v-.93h5.45L76.9,55.81Z"/><path class="cls-5" d="M84.21,54.85,86,50.44l1.82,4.41,1.74-4h1.13l-2.9,6.26L86,52.79l-1.8,4.36-2.87-6.26h1.13Z"/><path class="cls-5" d="M93,48.68a.72.72,0,0,1-.72.72.72.72,0,1,1,.72-.72Zm-.23,8.06h-1V50.89h1Z"/><path class="cls-5" d="M99.16,59.07a1.34,1.34,0,0,1-.75.2,1.18,1.18,0,0,1-1.24-1.15c0-.45.21-.78.82-1.31a3.05,3.05,0,1,1-.82-6A2.77,2.77,0,0,1,100,53.85V54H95.4a1.87,1.87,0,0,0,1.86,2c.77,0,1.24-.32,1.8-1.22l.85.47a5.31,5.31,0,0,1-1,1.24,2.7,2.7,0,0,0-.64.72A1.67,1.67,0,0,0,98,58a.57.57,0,0,0,.55.55,1.62,1.62,0,0,0,.74-.2Zm-.25-5.9a1.74,1.74,0,0,0-3.44,0Z"/><path class="cls-5" d="M102.49,53.05l2.12-2.16h1.33l-2.49,2.49,3,3.36H105.1l-2.35-2.66-.26.25v2.41h-1V46.47h1Z"/><path class="cls-5" d="M109.81,52.26a.88.88,0,0,0-.81-.58.7.7,0,0,0-.71.65c0,.34.2.52.95.83a5.13,5.13,0,0,1,1.11.56A1.54,1.54,0,0,1,111,55a1.94,1.94,0,0,1-2,1.91,2.08,2.08,0,0,1-2-1.5l.89-.36c.33.7.63.94,1.17.94a.92.92,0,0,0,1-.93c0-.44-.21-.65-1-1-1.35-.57-1.69-.93-1.69-1.7A1.64,1.64,0,0,1,109,50.77a1.68,1.68,0,0,1,1.6,1Z"/><path class="cls-5" d="M117.56,55.81v.93H111.5l4.24-4.92h-3.45v-.93h5.45l-4.21,4.92Z"/><path class="cls-5" d="M124.29,50.89v5.85h-1v-.82a2.47,2.47,0,0,1-2,1,2.88,2.88,0,0,1-2.81-3.12,2.83,2.83,0,0,1,2.78-3,2.51,2.51,0,0,1,2.05,1v-.83Zm-4.81,2.89A2,2,0,0,0,121.4,56a2,2,0,0,0,2-2.18,1.95,1.95,0,1,0-3.88,0Z"/><path class="cls-5" d="M65.68,76.83V67.25h2.25V68a2.32,2.32,0,0,1,2-.91,3.41,3.41,0,0,1,0,6.8,2.54,2.54,0,0,1-2-.83v3.82Zm2.18-6.4a1.49,1.49,0,0,0,1.47,1.47,1.46,1.46,0,1,0-1.47-1.47Z"/><path class="cls-5" d="M76.44,70.85c0,1,.46,1.44,1.36,1.44a1.14,1.14,0,0,0,1.12-.6h2.16a2.56,2.56,0,0,1-.56,1.12,3.54,3.54,0,0,1-2.72,1.07,3.3,3.3,0,0,1-3.64-3.39,3.51,3.51,0,0,1,7,.14v.22Zm2.64-1.31a1.28,1.28,0,0,0-1.32-1,1.2,1.2,0,0,0-1.27,1Z"/><path class="cls-5" d="M84.71,67.25v.8a2.73,2.73,0,0,1,3.89-.24,2.14,2.14,0,0,1,.59,1.76v4.06H86.94V70.4a1.88,1.88,0,0,0-.14-1,1,1,0,0,0-.9-.49,1.14,1.14,0,0,0-1.19,1.31v3.42H82.46V67.25Z"/><path class="cls-5" d="M92.75,70.85c0,1,.47,1.44,1.37,1.44a1.13,1.13,0,0,0,1.11-.6H97.4a2.67,2.67,0,0,1-.56,1.12,3.54,3.54,0,0,1-2.72,1.07,3.31,3.31,0,0,1-3.65-3.39,3.52,3.52,0,0,1,7,.14v.22Zm2.65-1.31a1.29,1.29,0,0,0-1.32-1,1.19,1.19,0,0,0-1.27,1Z"/><path class="cls-5" d="M101.3,73.63H99V69.12H98.3V67.25H99V65.33h2.26v1.92h1.28v1.87H101.3Z"/><path class="cls-5" d="M105.67,67.25v1a2.26,2.26,0,0,1,2.1-1.14l.44,0v2.15a1.88,1.88,0,0,0-1-.24c-1.06,0-1.58.61-1.58,1.81v2.73h-2.25V67.25Z"/><path class="cls-5" d="M116.4,67.25v6.38h-2.25v-.71a2.28,2.28,0,0,1-2,.92,3.41,3.41,0,0,1,0-6.8,2.54,2.54,0,0,1,2,.83v-.62Zm-5.1,3.17a1.47,1.47,0,0,0,1.47,1.48,1.46,1.46,0,0,0,0-2.92A1.47,1.47,0,0,0,111.3,70.42Z"/><path class="cls-5" d="M122.75,69.32a2,2,0,0,0-1.17-.4,1.54,1.54,0,1,0,0,3.08,1.77,1.77,0,0,0,1.17-.43v1.92a3.77,3.77,0,0,1-1.58.35,3.4,3.4,0,1,1,.06-6.79,3.15,3.15,0,0,1,1.52.35Z"/><path class="cls-5" d="M126.42,64.8a1.27,1.27,0,1,1-1.26-1.27A1.26,1.26,0,0,1,126.42,64.8Zm-.14,12H124V67.25h2.25Z"/><path class="cls-5" d="M129.84,70.85c0,1,.47,1.44,1.37,1.44a1.12,1.12,0,0,0,1.11-.6h2.17a2.68,2.68,0,0,1-1.69,1.92c-.73.34-1,.57-1,1a.55.55,0,0,0,.55.57,1.57,1.57,0,0,0,.71-.24l-.3,1.19a1.93,1.93,0,0,1-1,.26,1.2,1.2,0,0,1-1.25-1.13,1.71,1.71,0,0,1,.72-1.34,4.26,4.26,0,0,1-1.61-.25,3.2,3.2,0,0,1-2.1-3.13,3.52,3.52,0,0,1,7,.13v.22Zm2.65-1.31a1.29,1.29,0,0,0-1.32-1,1.19,1.19,0,0,0-1.27,1Z"/><path class="cls-5" d="M70.5,81.69a1.27,1.27,0,1,1-1.27-1.27A1.27,1.27,0,0,1,70.5,81.69Zm-.14,8.83H68.1V84.14h2.26Z"/><path class="cls-5" d="M79.65,85.79a2.73,2.73,0,0,0-1.23-.31c-.39,0-.69.2-.69.45s.17.37,1,.55c1.25.25,1.86.86,1.86,1.89,0,1.45-1.2,2.39-3,2.39A4.93,4.93,0,0,1,75,90l.82-1.59a3.58,3.58,0,0,0,1.8.64c.41,0,.71-.21.71-.49s-.2-.42-1-.59c-1.35-.28-1.87-.77-1.87-1.77,0-1.43,1.08-2.31,2.84-2.31a5,5,0,0,1,2.06.4Z"/><path class="cls-5" d="M84.26,90.52H82V86h-.75V84.14H82V82.23h2.25v1.91h1.29V86H84.26Z"/><path class="cls-5" d="M88.42,87.75c0,1,.46,1.43,1.36,1.43a1.12,1.12,0,0,0,1.11-.6h2.17a2.71,2.71,0,0,1-1.69,1.93c-.73.34-1,.56-1,1A.54.54,0,0,0,91,92a1.42,1.42,0,0,0,.71-.24l-.3,1.2a1.93,1.93,0,0,1-1,.25,1.2,1.2,0,0,1-1.25-1.13,1.75,1.75,0,0,1,.72-1.34,4.29,4.29,0,0,1-1.61-.25,3.2,3.2,0,0,1-2.1-3.12,3.52,3.52,0,0,1,7,.12v.23Zm2.64-1.31a1.28,1.28,0,0,0-1.32-1,1.19,1.19,0,0,0-1.27,1Z"/><path class="cls-5" d="M100.41,88.65v1.87H94L97,86h-2.6V84.14h6.35l-3,4.51Zm-1.7-6.78a1.29,1.29,0,1,1-1.28-1.28A1.29,1.29,0,0,1,98.71,81.87Z"/><path class="cls-5" d="M103.8,87.75c0,1,.47,1.43,1.37,1.43a1.13,1.13,0,0,0,1.11-.6h2.17a2.67,2.67,0,0,1-.56,1.12,3.54,3.54,0,0,1-2.72,1.07c-2.21,0-3.65-1.33-3.65-3.39a3.52,3.52,0,0,1,7,.14v.23Zm2.65-1.31a1.29,1.29,0,0,0-1.32-1,1.19,1.19,0,0,0-1.27,1Z"/><path class="cls-5" d="M112.08,84.14v.8a2.36,2.36,0,0,1,2-.94,2.4,2.4,0,0,1,1.85.71,2.12,2.12,0,0,1,.59,1.76v4H114.3V87.3c0-.65,0-.78-.14-1a1,1,0,0,0-.9-.49,1.29,1.29,0,0,0-.94.42,1.35,1.35,0,0,0-.24.89v3.42h-2.25V84.14Z"/><path class="cls-5" d="M120.48,81.69a1.27,1.27,0,1,1-1.26-1.27A1.26,1.26,0,0,1,120.48,81.69Zm-.14,8.83h-2.25V84.14h2.25Z"/><path class="cls-5" d="M123.9,87.75c0,1,.47,1.43,1.37,1.43a1.12,1.12,0,0,0,1.11-.6h2.17A2.56,2.56,0,0,1,128,89.7a3.54,3.54,0,0,1-2.72,1.07c-2.21,0-3.65-1.33-3.65-3.39a3.52,3.52,0,0,1,7,.14v.23Zm2.65-1.31a1.29,1.29,0,0,0-1.32-1,1.19,1.19,0,0,0-1.27,1Z"/><path class="cls-5" d="M61.76,101v6.38H59.51v-.7a2.29,2.29,0,0,1-2,.91,3.4,3.4,0,0,1,0-6.8,2.57,2.57,0,0,1,2,.83V101Zm-5.09,3.17a1.46,1.46,0,1,0,1.45-1.43A1.46,1.46,0,0,0,56.67,104.2Z"/><path class="cls-5" d="M65.55,101v.79a2.66,2.66,0,0,1,2.07-.88,2.29,2.29,0,0,1,2.15,1.18,2.45,2.45,0,0,1,2.17-1.2,2.22,2.22,0,0,1,1.81.86,2.69,2.69,0,0,1,.35,1.49v4.14H71.84v-3.15a2.06,2.06,0,0,0-.12-1,.86.86,0,0,0-.82-.57,1.07,1.07,0,0,0-.93.59,2.27,2.27,0,0,0-.15,1v3.15H67.56v-3.15a2.3,2.3,0,0,0-.1-1,.94.94,0,0,0-.87-.61,1.1,1.1,0,0,0-.89.53,2.53,2.53,0,0,0-.15,1.09v3.15H63.29V101Z"/><path class="cls-5" d="M83.06,104.22c0,2-1.59,3.43-3.87,3.43a3.45,3.45,0,1,1,0-6.86C81.47,100.79,83.06,102.22,83.06,104.22Zm-5.29,0a1.46,1.46,0,1,0,2.91,0,1.45,1.45,0,0,0-1.46-1.46A1.46,1.46,0,0,0,77.77,104.19Z"/><path class="cls-5" d="M86.61,103.33,89,101h3.09l-3.2,3,3.39,3.43H89.09l-2.48-2.59v2.59H84.35V97.09h2.26Z"/><path class="cls-5" d="M97.28,102.68a2.73,2.73,0,0,0-1.23-.31c-.39,0-.69.2-.69.45s.17.37,1,.55c1.25.25,1.86.86,1.86,1.89,0,1.45-1.2,2.39-3,2.39a5,5,0,0,1-2.55-.73l.82-1.59a3.6,3.6,0,0,0,1.8.65c.41,0,.71-.21.71-.5s-.2-.42-1-.59c-1.35-.28-1.87-.77-1.87-1.77,0-1.42,1.08-2.31,2.84-2.31a4.83,4.83,0,0,1,2.06.41Z"/><path class="cls-5" d="M98.6,101h2.62l1.7,3.27,1.66-3.27h2.58L102,110.61H99.51l2.17-4.06Z"/><path class="cls-5" d="M112.75,103.1a2,2,0,0,0-1.17-.39,1.54,1.54,0,1,0,0,3.07,1.81,1.81,0,0,0,1.17-.42v1.91a3.77,3.77,0,0,1-1.58.35,3.39,3.39,0,1,1,.06-6.78,3.15,3.15,0,0,1,1.52.35Z"/><path class="cls-5" d="M113.25,101h2.62l1.71,3.27,1.66-3.27h2.58l-5.13,9.58h-2.52l2.17-4.06Z"/><path class="cls-5" d="M124.84,107.41h-2.25V97.09h2.25Z"/><path class="cls-5" d="M128.77,98.58a1.27,1.27,0,1,1-1.27-1.26A1.26,1.26,0,0,1,128.77,98.58Zm-.14,8.83h-2.26V101h2.26Z"/><path class="cls-5" d="M132.41,101v.81a2.35,2.35,0,0,1,2.05-1,2.39,2.39,0,0,1,1.84.71,2.12,2.12,0,0,1,.59,1.76v4h-2.25v-3.22a1.9,1.9,0,0,0-.14-1,1,1,0,0,0-.9-.49,1.31,1.31,0,0,0-.95.42,1.35,1.35,0,0,0-.24.89v3.42h-2.25V101Z"/><path class="cls-5" d="M137.65,101h2.62l1.7,3.27,1.66-3.27h2.58l-5.13,9.58h-2.52l2.17-4.06Z"/><path class="cls-5" d="M65.53,122.42,67.36,118l1.82,4.41,1.74-4h1.13l-2.9,6.25-1.81-4.35-1.8,4.35-2.87-6.25H63.8Z"/><path class="cls-5" d="M78.65,122.42,80.48,118l1.81,4.41,1.75-4h1.13l-2.9,6.25-1.81-4.35-1.8,4.35-2.87-6.25h1.13Z"/><path class="cls-5" d="M85.39,118.46h1.15l2.07,4.18,1.89-4.18h1.14l-4.32,9.14H86.19l1.89-3.84Z"/><path class="cls-5" d="M98.17,114v10.27h-1v-.81a2.41,2.41,0,0,1-2,1,2.88,2.88,0,0,1-2.81-3.1,2.85,2.85,0,0,1,2.79-3,2.53,2.53,0,0,1,2,1V114Zm-4.8,7.31a2,2,0,0,0,1.92,2.21,2.27,2.27,0,0,0,1.35-3.77,2,2,0,0,0-1.34-.54A2,2,0,0,0,93.37,121.35Z"/><path class="cls-5" d="M105.3,123.38v.93H99.24l4.24-4.92H100v-.93h5.45l-4.21,4.92Z"/><path class="cls-5" d="M107.79,116.25a.72.72,0,1,1-1.44,0,.72.72,0,0,1,.72-.71A.73.73,0,0,1,107.79,116.25Zm-.23,8.06h-1v-5.85h1Z"/><path class="cls-5" d="M110.17,121.59a1.86,1.86,0,0,0,1.85,2c.78,0,1.24-.32,1.81-1.23l.84.48a2.9,2.9,0,0,1-2.69,1.67,3.08,3.08,0,0,1,0-6.15,2.78,2.78,0,0,1,2.79,3.09v.17Zm3.5-.85a1.74,1.74,0,0,0-1.72-1.5,1.76,1.76,0,0,0-1.71,1.5Z"/><path class="cls-5" d="M117.26,124.31h-1V114h1Z"/><path class="cls-5" d="M120.4,116.25a.72.72,0,0,1-.72.72.72.72,0,1,1,0-1.44A.72.72,0,0,1,120.4,116.25Zm-.23,8.06h-1v-5.85h1Z"/><path class="cls-5" d="M123.1,118.46v.71a2,2,0,0,1,1.69-.85,2,2,0,0,1,1.68.8,2.9,2.9,0,0,1,.32,1.57v3.62h-1v-3.45a2,2,0,0,0-.2-1.15,1.18,1.18,0,0,0-1-.47c-1,0-1.45.64-1.45,2.15v2.92h-1v-5.85Z"/><path class="cls-5" d="M129.93,116.25a.72.72,0,1,1-.72-.72A.73.73,0,0,1,129.93,116.25Zm-.23,8.06h-1v-5.85h1Z"/><path class="cls-5" d="M132.31,121.59a1.86,1.86,0,0,0,1.86,2c.77,0,1.24-.32,1.8-1.23l.84.48a2.89,2.89,0,0,1-2.69,1.67,3.08,3.08,0,0,1,0-6.15,2.78,2.78,0,0,1,2.79,3.09v.17Zm3.5-.85a1.73,1.73,0,0,0-1.71-1.5,1.76,1.76,0,0,0-1.72,1.5Z"/><path class="cls-5" d="M47.94,130.93V141.2h-1v-.8a2.42,2.42,0,0,1-2,1,2.87,2.87,0,0,1-2.8-3.1,2.83,2.83,0,0,1,2.79-3,2.53,2.53,0,0,1,2,1v-5.25Zm-4.8,7.31a2,2,0,0,0,1.91,2.21,2.27,2.27,0,0,0,1.35-3.77,1.93,1.93,0,0,0-3.26,1.56Z"/><path class="cls-5" d="M50.85,135.35V136c.52-.62.77-.78,1.32-.78a1.57,1.57,0,0,1,.89.26l-.46.9a1,1,0,0,0-.6-.2,1.06,1.06,0,0,0-.93.54,3,3,0,0,0-.22,1.4v3.09h-1v-5.85Z"/><path class="cls-5" d="M59.8,138.3a3.09,3.09,0,1,1-3.08-3.07A3,3,0,0,1,59.8,138.3Zm-5.15,0a2.07,2.07,0,1,0,2.06-2.13A2.06,2.06,0,0,0,54.65,138.27Zm2-3.93L56,134l1.47-2,1,.46Z"/><path class="cls-5" d="M66.8,141.07a3.46,3.46,0,0,1-.56,2.3,2.82,2.82,0,0,1-2.33,1.08,2.62,2.62,0,0,1-2.84-2.67h1a2,2,0,0,0,.29,1,1.87,1.87,0,0,0,1.59.78c1.22,0,1.87-.79,1.87-2.3v-.86a2.65,2.65,0,0,1-2.07,1,3.08,3.08,0,0,1,.06-6.14,2.49,2.49,0,0,1,2,1v-.83h1ZM62,138.28a1.94,1.94,0,1,0,1.92-2.15A2,2,0,0,0,62,138.28Z"/><path class="cls-5" d="M78.05,138.3A3.09,3.09,0,1,1,75,135.23,3,3,0,0,1,78.05,138.3Zm-5.16,0A2.07,2.07,0,1,0,75,136.14,2,2,0,0,0,72.89,138.27Z"/><path class="cls-5" d="M85,130.93V141.2H84v-.8a2.43,2.43,0,0,1-2,1,2.88,2.88,0,0,1-2.81-3.1,2.84,2.84,0,0,1,2.79-3,2.52,2.52,0,0,1,2,1v-5.25Zm-4.8,7.31a2,2,0,0,0,1.92,2.21,2.27,2.27,0,0,0,1.35-3.77,2,2,0,0,0-1.34-.54A2,2,0,0,0,80.24,138.24Z"/><path class="cls-5" d="M92.42,130.93V141.2h-1v-.8a2.43,2.43,0,0,1-2,1,2.88,2.88,0,0,1-2.8-3.1,2.83,2.83,0,0,1,2.79-3,2.53,2.53,0,0,1,2,1v-5.25Zm-4.8,7.31a2,2,0,0,0,1.91,2.21,2.16,2.16,0,0,0,0-4.31A2,2,0,0,0,87.62,138.24Z"/><path class="cls-5" d="M95,138.48a1.86,1.86,0,0,0,1.86,2c.77,0,1.24-.32,1.8-1.22l.84.48a2.88,2.88,0,0,1-2.69,1.66,3.08,3.08,0,0,1,0-6.14,2.77,2.77,0,0,1,2.79,3.08v.17Zm3.5-.84a1.73,1.73,0,0,0-1.71-1.51,1.76,1.76,0,0,0-1.72,1.51Z"/><path class="cls-5" d="M105.65,137.1a2.29,2.29,0,0,0-1.84-1,2.09,2.09,0,0,0-2.06,2.16,2.06,2.06,0,0,0,2,2.15,2.36,2.36,0,0,0,1.9-1v1.32a3.15,3.15,0,0,1-1.87.61,3.07,3.07,0,1,1,1.83-5.59Z"/><path class="cls-5" d="M108.23,130.93V136a2,2,0,0,1,1.67-.81,2,2,0,0,1,1.68.8,2.64,2.64,0,0,1,.34,1.55v3.62h-1v-3.55c0-1.07-.36-1.51-1.21-1.51a1.31,1.31,0,0,0-1.24.69,3.16,3.16,0,0,0-.24,1.45v2.92h-1V130.93Z"/><path class="cls-5" d="M119.63,138.3a3.09,3.09,0,1,1-3.08-3.07A3,3,0,0,1,119.63,138.3Zm-5.15,0a2.06,2.06,0,1,0,2-2.13A2,2,0,0,0,114.48,138.27Z"/><path class="cls-5" d="M123.18,139.31,125,134.9l1.81,4.41,1.75-4h1.13l-2.91,6.26-1.8-4.36-1.8,4.36-2.87-6.26h1.12Z"/><path class="cls-5" d="M129.92,135.35h1.15l2.07,4.19,1.89-4.19h1.14l-4.32,9.14h-1.13l1.89-3.84Z"/><path class="cls-5" d="M141.79,137.1a2.31,2.31,0,0,0-1.85-1,2.09,2.09,0,0,0-2.05,2.16,2.06,2.06,0,0,0,2,2.15,2.36,2.36,0,0,0,1.9-1v1.32a3.19,3.19,0,0,1-1.87.61,3.07,3.07,0,1,1,1.83-5.59Z"/><path class="cls-5" d="M144.36,130.93V136a2,2,0,0,1,1.68-.81,2,2,0,0,1,1.67.8,2.64,2.64,0,0,1,.34,1.55v3.62h-1v-3.55c0-1.07-.35-1.51-1.21-1.51a1.31,1.31,0,0,0-1.24.69,3.16,3.16,0,0,0-.24,1.45v2.92h-1V130.93Z"/><path class="cls-5" d="M150.89,130.73a10.4,10.4,0,0,0,0,7l-.52.24a10.68,10.68,0,0,1,0-7.5Z"/><path class="cls-5" d="M154.63,131.24,153.36,133a1.42,1.42,0,0,1,.51-.08,1.77,1.77,0,0,1,1.75,1.8,1.89,1.89,0,0,1-3.77,0,2.21,2.21,0,0,1,.45-1.26l1.87-2.59Zm-2.18,3.51a1.29,1.29,0,1,0,2.57,0,1.29,1.29,0,1,0-2.57,0Z"/><path class="cls-5" d="M156.59,137.75a10.4,10.4,0,0,0,0-7l.52-.24a10.68,10.68,0,0,1,0,7.5Z"/></g></svg>