<?xml version="1.0" encoding="utf-8"?>
<!-- Generator: Adobe Illustrator 23.1.1, SVG Export Plug-In . SVG Version: 6.00 Build 0)  -->
<svg version="1.1" id="Warstwa_1" xmlns="http://www.w3.org/2000/svg" xmlns:xlink="http://www.w3.org/1999/xlink" x="0px" y="0px"
	 viewBox="0 0 10 10" style="enable-background:new 0 0 10 10;" xml:space="preserve">
<style type="text/css">
	.st0{fill:#FFFFFF;}
</style>
<path class="st0" d="M3.2,7.7L2.5,7c-0.1-0.1-0.1-0.2,0-0.3l4.2-4.2c0.1-0.1,0.2-0.1,0.3,0l0.7,0.7c0.1,0.1,0.1,0.2,0,0.3L3.5,7.7
	C3.4,7.7,3.3,7.7,3.2,7.7z"/>
<path class="st0" d="M7.7,7L7,7.7c-0.1,0.1-0.2,0.1-0.3,0L2.5,3.4c-0.1-0.1-0.1-0.2,0-0.3l0.7-0.7c0.1-0.1,0.2-0.1,0.3,0l4.2,4.2
	C7.8,6.8,7.8,6.9,7.7,7z"/>
</svg>
