<?xml version="1.0" encoding="utf-8"?>
<!-- Generator: Adobe Illustrator 23.1.1, SVG Export Plug-In . SVG Version: 6.00 Build 0)  -->
<svg version="1.1" id="Warstwa_1" xmlns="http://www.w3.org/2000/svg" xmlns:xlink="http://www.w3.org/1999/xlink" x="0px" y="0px"
	 viewBox="0 0 350 210" style="enable-background:new 0 0 350 210;" xml:space="preserve">
<style type="text/css">
	.st0{fill:#FFFFFF;}
	.st1{fill:#C11380;}
	.st2{fill:#F4C0D9;}
	.st3{fill:none;stroke:#FFFFFF;stroke-width:1.31;stroke-miterlimit:10;}
	.st4{fill:none;stroke:#FFFFFF;stroke-width:1.42;stroke-miterlimit:10;}
	.st5{fill:#1D1E1C;}
	.st6{clip-path:url(#SVGID_2_);}
</style>
<title>Dawkowanie_Petit</title>
<g>
	<g>
		
			<image style="overflow:visible;opacity:0.75;enable-background:new    ;" width="1164" height="540" xlink:href="710D7156560831EA.png"  transform="matrix(0.2396 0 0 0.2396 35.6187 57.08)">
		</image>
		<rect x="50.6" y="61.1" class="st0" width="249" height="99.1"/>
	</g>
	<g>
		<path class="st1" d="M50.6,134.2h249v26h-249L50.6,134.2z M180,61.2h119.6V80H180L180,61.2z M50.6,61.2H180V80H50.6L50.6,61.2z"/>
		<path class="st2" d="M50.6,80H180v25.7H50.6V80z"/>
		<path class="st2" d="M50.6,107.2H180v25.7H50.6V107.2z"/>
		<path class="st2" d="M181.1,80h117.4v25.7H181.1V80z"/>
		<path class="st2" d="M181.1,107.2h117.4v25.7H181.1V107.2z"/>
		<line class="st3" x1="50.6" y1="80" x2="50.6" y2="61.7"/>
		<line class="st4" x1="50.1" y1="61.1" x2="180" y2="61.1"/>
		<line class="st3" x1="299.6" y1="80" x2="299.6" y2="61.7"/>
		<line class="st4" x1="180" y1="61.1" x2="300.1" y2="61.1"/>
		<line class="st3" x1="50.6" y1="97.9" x2="50.6" y2="80"/>
		<line class="st4" x1="51.1" y1="80" x2="180" y2="80"/>
		<line class="st3" x1="299.6" y1="97.9" x2="299.6" y2="80"/>
		<line class="st4" x1="180" y1="80" x2="299.1" y2="80"/>
		<line class="st3" x1="50.6" y1="115.8" x2="50.6" y2="97.9"/>
		<line class="st3" x1="50.6" y1="133.6" x2="50.6" y2="115.8"/>
		<line class="st3" x1="50.6" y1="159.7" x2="50.6" y2="133.6"/>
		<line class="st3" x1="299.6" y1="115.8" x2="299.6" y2="97.9"/>
		<line class="st3" x1="299.6" y1="133.6" x2="299.6" y2="115.8"/>
		<line class="st3" x1="299.6" y1="159.7" x2="299.6" y2="133.6"/>
		<line class="st4" x1="50.1" y1="160.2" x2="180" y2="160.2"/>
		<line class="st4" x1="180" y1="160.2" x2="300.1" y2="160.2"/>
		<path class="st5" d="M65.6,97.1l-2-3.9l0,0c0.1,0.9,0.1,1.4,0.1,1.4v2.4h-1.3v-6.7l1-0.1l2,4l0,0c0-0.9,0-1.4,0-1.4v-2.6h1.2v6.8
			L65.6,97.1z"/>
		<path class="st5" d="M68.5,91.5c-0.4,0-0.7-0.4-0.7-0.8c0-0.4,0.3-0.7,0.7-0.8c0,0,0,0,0,0c0.4,0,0.7,0.4,0.7,0.8
			C69.2,91.1,68.9,91.5,68.5,91.5C68.5,91.5,68.5,91.5,68.5,91.5z M67.9,97.1v-5l1.2-0.1v5.2L67.9,97.1z"/>
		<path class="st5" d="M71.4,95c0.1,0.8,0.4,1.1,0.9,1.1c0.4,0,0.8-0.1,1.2-0.3l0.4,1c-0.5,0.3-1,0.4-1.6,0.4
			c-1.6,0-2.1-1.4-2.1-2.6s0.5-2.6,1.9-2.6s1.9,1.4,1.9,2.6v0.3L71.4,95z M72.1,93c-0.3,0-0.6,0.1-0.7,1h1.3
			C72.7,93.3,72.5,93,72.1,93z"/>
		<path class="st5" d="M77.2,97.1v-3.2c0-0.6-0.1-0.8-0.4-0.8s-0.4,0.2-0.6,0.4v3.6h-1.2v-5h1v0.4l0,0c0.2-0.3,0.5-0.5,0.9-0.6
			c0.5,0,0.9,0.2,1.2,0.7c0.2-0.4,0.6-0.6,1.1-0.7c1,0,1.4,0.9,1.4,1.8v3.3h-1.2v-3.3c0-0.6-0.1-0.8-0.4-0.8c-0.3,0-0.5,0.2-0.7,0.4
			c0,0.1,0,0.2,0,0.3v3.3L77.2,97.1z"/>
		<path class="st5" d="M83.4,97.2c-1.5,0-2-1.4-2-2.6s0.5-2.6,2-2.6s2,1.4,2,2.6S84.9,97.2,83.4,97.2z M83.4,93
			c-0.5,0-0.7,0.5-0.7,1.5s0.2,1.5,0.7,1.5s0.7-0.6,0.7-1.5S83.9,93,83.4,93L83.4,93z"/>
		<path class="st5" d="M90.9,97.1h-1.2l-0.4-2c0,0-0.1-0.6-0.2-1.2l0,0c-0.1,0.6-0.2,1.2-0.2,1.2l-0.4,2H87l-1.2-5L87,92l0.5,2.2
			c0,0,0.1,0.4,0.2,1.2l0,0c0.1-0.8,0.2-1.2,0.2-1.2l0.5-2.1h1l0.6,2.1c0.1,0.4,0.2,0.8,0.2,1.2l0,0c0.1-0.8,0.2-1.2,0.2-1.2
			l0.5-2.1h1.3L90.9,97.1z"/>
		<path class="st5" d="M92.8,97.1v-7l1.2-0.2v7.2L92.8,97.1z"/>
		<path class="st5" d="M96.2,95c0.1,0.8,0.4,1.1,0.9,1.1c0.4,0,0.8-0.1,1.2-0.3l0.4,1c-0.9,0.6-1.1,1.1-1.1,1.4
			c0,0.1,0.1,0.2,0.2,0.2c0,0,0,0,0.1,0c0.2,0,0.3,0,0.4-0.1l0.2,0.7c-0.2,0.1-0.5,0.2-0.8,0.2c-0.5,0-0.9-0.4-0.9-0.8
			c0-0.1,0-0.1,0-0.2c0-0.4,0.2-0.7,0.5-1H97c-1.6,0-2.1-1.4-2.1-2.6s0.5-2.6,1.9-2.6s1.9,1.4,1.9,2.6v0.3L96.2,95z M96.9,93.1
			c-0.3,0-0.6,0.1-0.7,1l1.3-0.1C97.5,93.3,97.3,93,96.9,93.1L96.9,93.1z"/>
		<path class="st5" d="M101.4,97.2c-0.7,0.1-1.3-0.4-1.4-1.1c0-0.1,0-0.2,0-0.3V93h-0.7v-0.9h0.7v-1.3l1.2-0.2v1.5h1l-0.1,0.9h-0.9
			v2.6c0,0.4,0.1,0.5,0.4,0.5c0.2,0,0.3,0,0.4-0.1l0.3,1C102,97.1,101.7,97.2,101.4,97.2z"/>
		<path class="st5" d="M105.3,97.1v-0.4l0,0c-0.2,0.3-0.6,0.5-1,0.5c-0.8,0-1.4-0.6-1.4-1.4c0,0,0,0,0-0.1c0-1.1,0.8-1.4,1.6-1.5
			h0.7v-0.3c0-0.6-0.1-0.8-0.6-0.8c-0.4,0-0.7,0.1-1.1,0.3l-0.4-1c0.4-0.3,1-0.5,1.5-0.5c1.2,0,1.8,0.7,1.8,2v3.2L105.3,97.1z
			 M105.1,95h-0.5c-0.5,0-0.6,0.3-0.6,0.6s0.1,0.5,0.4,0.5c0.2,0,0.5-0.1,0.6-0.3L105.1,95z"/>
		<path class="st5" d="M111.3,97.2c-1.5,0-2-1.4-2-2.6s0.5-2.6,2-2.6s2,1.4,2,2.6S112.8,97.2,111.3,97.2z M111.3,93
			c-0.5,0-0.7,0.5-0.7,1.5s0.2,1.5,0.7,1.5s0.7-0.6,0.7-1.5S111.8,93,111.3,93L111.3,93z"/>
		<path class="st5" d="M116.6,97.1v-0.4c-0.2,0.3-0.6,0.6-1,0.6c-1.3,0-1.7-1.5-1.7-2.6s0.6-2.6,1.9-2.6c0.2,0,0.4,0,0.7,0.1V90h1.2
			v7.1L116.6,97.1z M116.5,93.1c-0.1-0.1-0.3-0.1-0.5-0.1c-0.5,0-0.8,0.5-0.8,1.5s0.2,1.5,0.7,1.5c0.3,0,0.5-0.2,0.6-0.4V93.1z"/>
		<path class="st5" d="M122.8,97.2c-1.5,0-2.1-1.4-2.1-3.1c0-1.4,0.6-3.7,2.5-3.7c0.5,0,1,0.2,1.4,0.4l-0.4,1
			c-0.3-0.2-0.6-0.3-1-0.3c-0.8,0-1.1,0.9-1.2,1.5l0,0c0.2-0.3,0.6-0.4,0.9-0.4c1.2,0,1.8,1,1.8,2.3c0.1,1.2-0.8,2.2-2,2.2
			C122.9,97.2,122.8,97.2,122.8,97.2z M122.9,93.8c-0.4,0-0.7,0.3-0.9,0.6c0.1,1.2,0.4,1.6,0.8,1.6s0.8-0.5,0.8-1.1
			C123.6,94.3,123.4,93.8,122.9,93.8z"/>
		<path class="st5" d="M130.4,97.1v-0.4c-0.2,0.3-0.6,0.5-1,0.6c-1.3,0-1.7-1.5-1.7-2.6s0.6-2.6,1.9-2.6c0.2,0,0.4,0,0.6,0.1V90h1.2
			v7.1L130.4,97.1z M130.2,93.1c-0.1-0.1-0.3-0.1-0.5-0.1c-0.5,0-0.8,0.5-0.8,1.5s0.2,1.5,0.7,1.5c0.3,0,0.5-0.2,0.6-0.4V93.1z"/>
		<path class="st5" d="M134.3,97.2c-1.5,0-2-1.4-2-2.6s0.5-2.6,2-2.6s2,1.4,2,2.6S135.8,97.2,134.3,97.2z M134.3,93
			c-0.5,0-0.7,0.5-0.7,1.5s0.2,1.5,0.7,1.5s0.7-0.6,0.7-1.5S134.8,93,134.3,93L134.3,93z"/>
		<path class="st5" d="M141,97.1V92l-1,0.4l-0.4-1.1l1.8-0.7h0.8v6.5L141,97.1z"/>
		<path class="st5" d="M143.9,97.1V96c1.5-1.3,2.5-2.3,2.5-3.4c0-0.5-0.2-1-0.8-1c-0.4,0-0.9,0.2-1.2,0.5l-0.5-0.9
			c0.5-0.5,1.1-0.7,1.8-0.7c1.1,0,2,0.9,2,2c0,0.1,0,0.1,0,0.2c0,1.1-1,2.3-2,3.3l0,0h2.1V97L143.9,97.1z"/>
		<path class="st5" d="M153.2,97.1v-3.2c0-0.6-0.1-0.8-0.4-0.8s-0.4,0.2-0.6,0.4v3.6h-1.2v-5h1.1v0.4l0,0c0.2-0.3,0.5-0.5,0.9-0.6
			c0.5,0,0.9,0.2,1.2,0.7c0.3-0.4,0.7-0.6,1.1-0.7c1,0,1.4,0.9,1.4,1.8v3.3h-1.2v-3.3c0-0.6-0.1-0.8-0.4-0.8c-0.3,0-0.5,0.2-0.7,0.4
			c0,0.1,0,0.2,0,0.3v3.3L153.2,97.1z"/>
		<path class="st5" d="M158.4,97.2c-0.5,0.1-0.9-0.3-1-0.8s0.3-0.9,0.8-1c0.5-0.1,0.9,0.3,1,0.8c0,0,0,0.1,0,0.1
			C159.2,96.8,158.9,97.2,158.4,97.2z"/>
		<path class="st5" d="M159.8,97.1v-0.6l1.7-3.3l0,0H160v-1.1h3l0.1,0.5l-1.8,3.4l0,0h1.7v1.1L159.8,97.1z M161.5,91.2
			c-0.4,0-0.8-0.2-0.8-0.7c0-0.4,0.2-0.8,0.7-0.8s0.8,0.2,0.8,0.7c0,0,0,0.1,0,0.1C162.2,90.9,161.9,91.2,161.5,91.2
			C161.5,91.2,161.5,91.2,161.5,91.2L161.5,91.2z"/>
		<path class="st5" d="M164.5,97.2c-0.5,0.1-0.9-0.3-1-0.8s0.3-0.9,0.8-1c0.5-0.1,0.9,0.3,1,0.8c0,0,0,0.1,0,0.1
			C165.3,96.8,165,97.2,164.5,97.2z"/>
		<path class="st5" d="M236.2,97.2c-0.6,0-1.2-0.2-1.7-0.6l0.4-1c0.4,0.2,0.9,0.4,1.3,0.4c0.8,0,1.1-0.6,1.1-1.2
			c0.1-0.5-0.3-0.9-0.8-1c-0.1,0-0.1,0-0.2,0c-0.3,0-0.6,0.1-0.8,0.2l-0.5-0.6l0.1-2.9h3.2l-0.1,1.2H236v1.1
			c0.2-0.1,0.4-0.1,0.7-0.1c1,0,1.8,0.9,1.8,2c0,0,0,0,0,0c0.1,1.3-0.8,2.4-2.1,2.5C236.3,97.2,236.3,97.2,236.2,97.2z"/>
		<path class="st5" d="M244,97.1v-3.2c0-0.6-0.1-0.8-0.4-0.8c-0.3,0-0.5,0.2-0.6,0.4v3.6h-1.2v-5h1v0.4l0,0c0.2-0.3,0.5-0.5,0.9-0.6
			c0.5,0,0.9,0.2,1.2,0.7c0.2-0.4,0.6-0.6,1.1-0.7c1,0,1.4,0.9,1.4,1.8v3.3h-1.1v-3.3c0-0.6-0.1-0.8-0.4-0.8c-0.3,0-0.5,0.2-0.7,0.4
			c0,0.1,0,0.2,0,0.3v3.3L244,97.1z"/>
		<path class="st5" d="M248.4,97.1v-7l1.2-0.2v7.2L248.4,97.1z"/>
		<path class="st5" d="M64.5,123.2h-2v-6.8h2c1.9,0,2.5,1.8,2.5,3.4S66.3,123.2,64.5,123.2z M64.4,117.6h-0.6v4.5h0.6
			c1,0,1.3-1,1.3-2.2S65.3,117.6,64.4,117.6z"/>
		<path class="st5" d="M67.5,123.2v-0.6l1.7-3.3l0,0h-1.5v-1.1h3l0.1,0.5l-1.8,3.4l0,0h1.7v1.1L67.5,123.2z"/>
		<path class="st5" d="M72.1,117.6c-0.4,0-0.7-0.4-0.7-0.8c0-0.4,0.3-0.7,0.7-0.8c0,0,0,0,0,0c0.4,0,0.7,0.4,0.7,0.8
			C72.8,117.3,72.5,117.6,72.1,117.6z M71.5,123.2v-5l1.2-0.1v5.2L71.5,123.2z"/>
		<path class="st5" d="M75,121.2c0.1,0.8,0.4,1.1,0.9,1.1c0.4,0,0.8-0.1,1.2-0.3l0.4,1c-0.5,0.3-1,0.4-1.6,0.4
			c-1.6,0-2.1-1.4-2.1-2.6s0.5-2.6,2-2.6s1.9,1.4,1.9,2.6v0.3L75,121.2z M75.7,119.2c-0.3,0-0.6,0.1-0.7,1l1.3-0.1
			C76.3,119.5,76.1,119.2,75.7,119.2L75.7,119.2z"/>
		<path class="st5" d="M80.6,123.4c-1.6,0-2.3-1.3-2.3-2.6c-0.2-1.3,0.7-2.4,2-2.6c0.1,0,0.2,0,0.3,0c0.5,0,0.9,0.1,1.3,0.4l-0.4,1
			c-0.3-0.1-0.6-0.2-0.9-0.3c-0.8,0-1,0.6-1,1.5s0.3,1.5,1,1.5c0.3,0,0.7-0.1,1-0.2l0.3,1C81.5,123.2,81,123.3,80.6,123.4z"/>
		<path class="st5" d="M83.2,117.6c-0.4,0-0.7-0.4-0.7-0.8c0-0.4,0.3-0.7,0.7-0.8c0,0,0,0,0,0c0.4,0,0.7,0.4,0.7,0.8
			C84,117.3,83.7,117.6,83.2,117.6z M82.7,123.2v-5l1.2-0.1v5.2L82.7,123.2z"/>
		<path class="st5" d="M89.2,123.4c-0.2,0-0.4-0.1-0.7-0.1v2.1h-1.2v-7.1h1v0.4c0.2-0.3,0.6-0.6,1-0.6c1.2,0,1.7,1.5,1.7,2.6
			S90.5,123.4,89.2,123.4z M89.2,119.2c-0.3,0-0.5,0.2-0.6,0.5v2.5c0.1,0.1,0.3,0.1,0.5,0.1c0.5,0,0.8-0.5,0.8-1.5
			S89.6,119.2,89.2,119.2L89.2,119.2z"/>
		<path class="st5" d="M93.7,123.4c-1.5,0-2-1.4-2-2.6s0.5-2.6,2-2.6s2,1.4,2,2.6S95.2,123.4,93.7,123.4z M93.7,119.2
			c-0.5,0-0.7,0.5-0.7,1.5s0.2,1.5,0.7,1.5s0.7-0.6,0.7-1.5S94.2,119.2,93.7,119.2L93.7,119.2z"/>
		<path class="st5" d="M101.2,123.2h-1.2l-0.4-2c0,0-0.1-0.6-0.2-1.2l0,0c-0.1,0.6-0.2,1.2-0.2,1.2l-0.4,2h-1.3l-1.2-5l1.2-0.1
			l0.5,2.2c0,0,0.1,0.4,0.2,1.2l0,0c0.1-0.4,0.1-0.8,0.2-1.2l0.5-2.1h1.1l0.5,2.1c0.1,0.4,0.2,0.8,0.2,1.2l0,0
			c0.1-0.8,0.2-1.2,0.2-1.2l0.5-2.1h1.3L101.2,123.2z"/>
		<path class="st5" d="M104.4,125.4l-1.2-0.1l0.8-2.4l-1.5-4.6l1.2-0.1l1,3.3l0,0l0.9-3.2h1.2L104.4,125.4z"/>
		<path class="st5" d="M107,123.2v-0.6l1.7-3.3l0,0h-1.5v-1.1h3l0.1,0.5l-1.7,3.4l0,0h1.7v1.1H107z M108.7,117.4
			c-0.4,0-0.7-0.4-0.6-0.8c0-0.3,0.3-0.6,0.6-0.6c0.4,0,0.7,0.4,0.6,0.8C109.3,117.1,109,117.3,108.7,117.4z"/>
		<path class="st5" d="M112,121.2c0.1,0.8,0.4,1.1,0.9,1.1c0.4,0,0.8-0.1,1.2-0.3l0.4,1c-0.5,0.3-1,0.4-1.6,0.4
			c-1.6,0-2.1-1.4-2.1-2.6s0.5-2.6,2-2.6s1.9,1.4,1.9,2.6v0.3L112,121.2z M112.7,119.2c-0.3,0-0.6,0.1-0.7,1l1.3-0.1
			C113.3,119.5,113.1,119.2,112.7,119.2L112.7,119.2z"/>
		<path class="st5" d="M116.8,123.8c0,0.9-0.4,1.6-1.3,1.6c-0.3,0-0.6-0.1-0.9-0.2l0.2-1c0.2,0.1,0.3,0.1,0.5,0.1
			c0.2,0,0.3-0.2,0.3-0.4v-5.7l1.2-0.1L116.8,123.8z M116.9,116.8c0,0.4-0.3,0.7-0.7,0.7c-0.4,0-0.7-0.3-0.7-0.7c0,0,0,0,0,0
			c0-0.4,0.3-0.7,0.7-0.8C116.6,116.1,116.9,116.4,116.9,116.8C116.9,116.9,116.9,116.9,116.9,116.8L116.9,116.8z"/>
		<path class="st5" d="M121.9,123.2v-5.1l-1,0.4l-0.4-1.1l1.8-0.7h0.8v6.5H121.9z"/>
		<path class="st5" d="M129.6,119.3c-0.1-0.1-0.3-0.1-0.4-0.1c-0.3,0-0.7,0.2-0.8,0.5v3.5h-1.2v-5h1v0.7l0,0
			c0.2-0.4,0.6-0.7,1.1-0.8c0.2,0,0.4,0.1,0.6,0.2L129.6,119.3z"/>
		<path class="st5" d="M131.2,123.4c-0.5,0.1-0.9-0.3-1-0.8s0.3-0.9,0.8-1c0.5-0.1,0.9,0.3,1,0.8c0,0,0,0.1,0,0.1
			C132,122.9,131.6,123.3,131.2,123.4z"/>
		<path class="st5" d="M132.5,123.2v-0.6l1.7-3.3l0,0h-1.5l-0.1-1.1h3l0.1,0.5l-1.7,3.4l0,0h1.7v1.1H132.5z M134.2,117.4
			c-0.4,0-0.8-0.2-0.8-0.7c0-0.4,0.2-0.8,0.7-0.8s0.8,0.2,0.8,0.7c0,0,0,0.1,0,0.1C134.9,117,134.6,117.3,134.2,117.4z"/>
		<path class="st5" d="M137.2,123.4c-0.5,0.1-0.9-0.3-1-0.8s0.3-0.9,0.8-1c0.5-0.1,0.9,0.3,1,0.8c0,0,0,0.1,0,0.1
			C138,122.9,137.7,123.3,137.2,123.4z"/>
		<path class="st5" d="M234.1,123.2v-5.1l-1,0.4l-0.4-1.1l1.8-0.7h0.8v6.5H234.1z"/>
		<path class="st5" d="M239,123.4c-1.6,0-2.1-1.9-2.1-3.4s0.4-3.4,2.1-3.4s2.1,1.9,2.1,3.4S240.6,123.4,239,123.4z M239,117.8
			c-0.6,0-0.8,0.8-0.8,2.2s0.2,2.2,0.8,2.2s0.9-0.8,0.9-2.2S239.6,117.8,239,117.8z"/>
		<path class="st5" d="M246.3,123.2V120c0-0.6-0.1-0.8-0.4-0.8s-0.4,0.2-0.6,0.4v3.6h-1.2v-5h1.1v0.4l0,0c0.2-0.3,0.5-0.5,0.9-0.6
			c0.5,0,0.9,0.2,1.2,0.7c0.3-0.4,0.7-0.6,1.1-0.7c1,0,1.4,0.9,1.4,1.8v3.3h-1.2V120c0-0.6-0.1-0.8-0.4-0.8c-0.3,0-0.5,0.2-0.7,0.4
			c0,0.1,0,0.2,0,0.3v3.3L246.3,123.2z"/>
		<path class="st5" d="M250.8,123.2v-7l1.2-0.2v7.2L250.8,123.2z"/>
		<path class="st0" d="M80.9,145.5h-1.4l-0.7-3.4l-0.2-0.9l0,0l-0.2,0.9l-0.7,3.4h-1.4l-1.2-6.5l1.2-0.1l0.6,3.6c0,0,0,0.3,0.1,1.2
			l0,0c0-0.4,0.1-0.8,0.2-1.2l0.7-3h1.2l0.7,3c0,0,0.1,0.3,0.2,1.2l0,0c0.1-0.9,0.2-1.2,0.2-1.2l0.6-3.6h1.2L80.9,145.5z"/>
		<path class="st0" d="M87.1,141.7c-0.1-0.1-0.3-0.1-0.4-0.1c-0.3,0-0.6,0.2-0.8,0.5v3.3h-1.1v-4.8h1v0.6l0,0c0.2-0.4,0.6-0.7,1-0.8
			c0.2,0,0.4,0,0.5,0.1L87.1,141.7z"/>
		<path class="st0" d="M90,145.5v-0.4l0,0c-0.2,0.3-0.6,0.5-0.9,0.5c-0.7,0-1.3-0.6-1.3-1.4c0,0,0,0,0-0.1c0-1,0.8-1.4,1.6-1.4h0.6
			v-0.3c0-0.6-0.1-0.8-0.6-0.8c-0.4,0-0.7,0.1-1,0.3l-0.4-0.9c0.4-0.3,0.9-0.5,1.4-0.5c1.1,0,1.7,0.7,1.7,1.9v3L90,145.5z
			 M89.8,143.5h-0.4c-0.3,0-0.5,0.2-0.6,0.5c0,0,0,0,0,0.1c0,0.2,0.1,0.5,0.4,0.5c0.2,0,0.4-0.1,0.6-0.3V143.5z"/>
		<path class="st0" d="M91.7,145.5v-0.6l1.6-3.2h-1.5v-1h2.8l0.1,0.5l-1.6,3.2l0,0h1.6v1H91.7z"/>
		<path class="st0" d="M96.1,140.1c-0.4,0-0.7-0.4-0.7-0.7c0-0.4,0.3-0.7,0.6-0.7c0,0,0,0,0,0c0.4,0,0.7,0.3,0.7,0.7
			C96.8,139.8,96.5,140.2,96.1,140.1L96.1,140.1z M95.5,145.5v-4.8l1.1-0.1v4.9H95.5z"/>
		<path class="st0" d="M98.8,143.5c0.1,0.8,0.3,1.1,0.8,1.1c0.4,0,0.8-0.1,1.1-0.3l0.3,1c-0.5,0.3-1,0.4-1.5,0.4c-1.5,0-2-1.3-2-2.5
			s0.4-2.5,1.8-2.5s1.8,1.3,1.8,2.5v0.3L98.8,143.5z M99.5,141.6c-0.3,0-0.6,0.1-0.7,0.9l1.2-0.1C100.1,141.9,99.9,141.6,99.5,141.6
			z"/>
		<path class="st0" d="M106,145.6c-0.2,0-0.4,0-0.6-0.1v2h-1.1v-6.7h1v0.4c0.2-0.3,0.6-0.5,0.9-0.5c1.2,0,1.6,1.4,1.6,2.5
			S107.2,145.6,106,145.6z M106,141.6c-0.3,0-0.5,0.2-0.6,0.4v2.4c0.1,0.1,0.3,0.1,0.4,0.1c0.5,0,0.8-0.5,0.8-1.4
			S106.4,141.6,106,141.6L106,141.6z"/>
		<path class="st0" d="M110.3,145.6c-1.4,0-1.9-1.3-1.9-2.5s0.5-2.5,1.9-2.5s1.9,1.3,1.9,2.5S111.7,145.6,110.3,145.6z M110.3,141.6
			c-0.5,0-0.7,0.5-0.7,1.4s0.2,1.4,0.7,1.4s0.7-0.5,0.7-1.4S110.8,141.6,110.3,141.6L110.3,141.6z"/>
		<path class="st0" d="M114.6,145.6c-0.7,0.1-1.2-0.4-1.3-1.1c0-0.1,0-0.2,0-0.3v-2.6h-0.7v-0.9h0.7v-1.2l1.1-0.2v1.4h1l-0.1,0.9
			h-0.8v2.4c0,0.4,0.1,0.5,0.3,0.5c0.2,0,0.3-0.1,0.4-0.1l0.3,0.9C115.2,145.5,114.9,145.6,114.6,145.6z"/>
		<path class="st0" d="M118.5,141.7c-0.4-0.2-0.9-0.1-1.1,0.3c0,0,0,0,0,0.1v3.3h-1.1v-4.8h1v0.6l0,0c0.2-0.4,0.6-0.7,1-0.8
			c0.2,0,0.4,0.1,0.5,0.1L118.5,141.7z"/>
		<path class="st0" d="M118.9,145.5v-0.6l1.6-3.2H119v-1h2.8l0.1,0.5l-1.6,3.2l0,0h1.6v1H118.9z"/>
		<path class="st0" d="M123.6,143.5c0.1,0.8,0.4,1.1,0.8,1.1c0.4,0,0.8-0.1,1.1-0.3l0.4,1c-0.5,0.3-1,0.4-1.5,0.4
			c-1.5,0-2-1.3-2-2.5s0.4-2.5,1.8-2.5s1.8,1.3,1.8,2.5v0.3L123.6,143.5z M124.3,141.6c-0.2,0-0.6,0.1-0.7,0.9l1.3-0.1
			C124.8,141.9,124.6,141.6,124.3,141.6z"/>
		<path class="st0" d="M128.5,145.6c-0.6,0-1.1-0.2-1.6-0.5v-6.2l1.1-0.2v2.3l0,0c0.2-0.2,0.5-0.3,0.8-0.3c1.1,0,1.6,1.4,1.6,2.5
			S129.9,145.6,128.5,145.6z M128.6,141.6c-0.2,0-0.4,0.1-0.6,0.3v2.5c0.1,0.1,0.3,0.1,0.4,0.1c0.5,0,0.8-0.6,0.8-1.5
			S129.1,141.6,128.6,141.6L128.6,141.6z"/>
		<path class="st0" d="M132.5,147.5l-1.1-0.1l0.8-2.3l-1.5-4.4l1.1-0.1l0.9,3.1l0,0l0.9-3h1.2L132.5,147.5z"/>
		<path class="st0" d="M139.5,145.5v-3.1c0-0.6-0.1-0.8-0.4-0.8s-0.4,0.1-0.6,0.4v3.4h-1.1v-4.8h1v0.4l0,0c0.2-0.3,0.5-0.5,0.9-0.5
			c0.5,0,0.9,0.2,1.1,0.6c0.2-0.3,0.6-0.6,1-0.6c0.9,0,1.4,0.8,1.4,1.7v3.1h-1.1v-3.1c0-0.6-0.1-0.8-0.4-0.8c-0.3,0-0.5,0.2-0.6,0.4
			c0,0.1,0,0.2,0,0.3v3.1H139.5z"/>
		<path class="st0" d="M145.4,145.6c-1.4,0-1.9-1.3-1.9-2.5s0.5-2.5,1.9-2.5s1.9,1.3,1.9,2.5S146.9,145.6,145.4,145.6z M145.4,141.6
			c-0.5,0-0.7,0.5-0.7,1.4s0.2,1.4,0.7,1.4s0.7-0.5,0.7-1.4S145.9,141.6,145.4,141.6L145.4,141.6z"/>
		<path class="st0" d="M147.8,145.5v-0.6l1.6-3.2H148l-0.1-1h2.8l0.1,0.5l-1.6,3.2l0,0h1.6v1H147.8z M149.4,139.9
			c-0.4,0-0.7-0.2-0.8-0.6c0-0.4,0.2-0.7,0.6-0.8c0.4,0,0.7,0.2,0.8,0.6c0,0,0,0.1,0,0.1C150,139.6,149.8,139.9,149.4,139.9
			C149.4,139.9,149.4,139.9,149.4,139.9z"/>
		<path class="st0" d="M153.8,145.5v-3c0-0.6-0.1-0.8-0.5-0.8c-0.3,0-0.5,0.2-0.7,0.4v3.4h-1.1v-4.8h1v0.4l0,0
			c0.2-0.3,0.6-0.5,1-0.5c1,0,1.4,0.8,1.4,1.7v3.1L153.8,145.5z"/>
		<path class="st0" d="M158.1,145.5v-0.4l0,0c-0.2,0.3-0.6,0.5-0.9,0.5c-0.7,0-1.4-0.6-1.4-1.3c0,0,0-0.1,0-0.1c0-1,0.8-1.4,1.6-1.4
			h0.6v-0.3c0-0.6-0.1-0.8-0.6-0.8c-0.4,0-0.7,0.1-1,0.3l-0.4-0.9c0.4-0.3,0.9-0.5,1.4-0.5c1.1,0,1.7,0.7,1.7,1.9v3L158.1,145.5z
			 M157.9,143.5h-0.4c-0.3,0-0.5,0.2-0.6,0.5c0,0,0,0.1,0,0.1c0,0.2,0.1,0.5,0.4,0.5c0.2,0,0.4-0.1,0.6-0.3L157.9,143.5z"/>
		<path class="st0" d="M163.9,145.6c-0.2,0-0.4,0-0.6-0.1v2h-1.1v-6.7h1v0.4c0.2-0.3,0.6-0.5,0.9-0.5c1.2,0,1.6,1.4,1.6,2.5
			S165.1,145.6,163.9,145.6z M163.9,141.6c-0.3,0-0.5,0.2-0.6,0.4v2.4c0.1,0.1,0.3,0.1,0.4,0.1c0.5,0,0.8-0.5,0.8-1.4
			S164.3,141.6,163.9,141.6L163.9,141.6z"/>
		<path class="st0" d="M168.2,145.6c-1.4,0-1.9-1.3-1.9-2.5s0.5-2.5,1.9-2.5s1.9,1.3,1.9,2.5S169.6,145.6,168.2,145.6z M168.2,141.6
			c-0.5,0-0.7,0.5-0.7,1.4s0.2,1.4,0.7,1.4s0.7-0.5,0.7-1.4S168.6,141.6,168.2,141.6L168.2,141.6z"/>
		<path class="st0" d="M173.2,145.5v-0.4c-0.2,0.3-0.6,0.5-0.9,0.5c-1.2,0-1.6-1.4-1.6-2.5s0.5-2.5,1.8-2.5c0.2,0,0.4,0,0.6,0.1v-2
			h1.1v6.7L173.2,145.5z M173.1,141.7c-0.1-0.1-0.3-0.1-0.4-0.1c-0.5,0-0.8,0.5-0.8,1.4s0.2,1.4,0.6,1.4c0.3,0,0.5-0.2,0.6-0.4
			V141.7z"/>
		<path class="st0" d="M177.4,145.5v-0.4l0,0c-0.2,0.3-0.6,0.5-0.9,0.5c-0.7,0-1.3-0.6-1.3-1.4c0,0,0,0,0-0.1c0-1,0.8-1.4,1.6-1.4
			h0.6v-0.3c0-0.6-0.1-0.8-0.6-0.8c-0.4,0-0.7,0.1-1,0.3l-0.4-0.9c0.4-0.3,0.9-0.5,1.4-0.5c1.1,0,1.7,0.7,1.7,1.9v3L177.4,145.5z
			 M177.2,143.5h-0.4c-0.3,0-0.5,0.2-0.6,0.5c0,0,0,0,0,0.1c0,0.2,0.1,0.5,0.4,0.5c0.2,0,0.4-0.1,0.6-0.3V143.5z"/>
		<path class="st0" d="M181.3,145.6c-1.6,0-2.1-1.3-2.1-2.5c-0.1-1.2,0.7-2.3,1.9-2.5c0.1,0,0.2,0,0.3,0c0.4,0,0.8,0.1,1.2,0.4
			l-0.4,0.9c-0.3-0.1-0.6-0.2-0.9-0.2c-0.7,0-1,0.6-1,1.4s0.3,1.5,1,1.5c0.3,0,0.7-0.1,1-0.2l0.3,1
			C182.2,145.5,181.8,145.6,181.3,145.6z M180.6,140.2l-0.5-0.6l1.4-1.5l0.6,0.7L180.6,140.2z"/>
		<path class="st0" d="M186.9,145.6c-1.4,0-1.9-1.3-1.9-2.5s0.5-2.5,1.9-2.5s1.9,1.3,1.9,2.5S188.3,145.6,186.9,145.6z M186.9,141.6
			c-0.5,0-0.7,0.5-0.7,1.4s0.2,1.4,0.7,1.4s0.7-0.5,0.7-1.4S187.4,141.6,186.9,141.6L186.9,141.6z"/>
		<path class="st0" d="M192,145.5v-0.4c-0.2,0.3-0.6,0.5-0.9,0.5c-1.2,0-1.6-1.4-1.6-2.5s0.6-2.5,1.8-2.5c0.2,0,0.4,0,0.6,0.1v-2
			h1.1v6.7L192,145.5z M191.9,141.7c-0.1-0.1-0.3-0.1-0.4-0.1c-0.5,0-0.8,0.5-0.8,1.4s0.2,1.4,0.6,1.4c0.3,0,0.5-0.2,0.6-0.4V141.7z
			"/>
		<path class="st0" d="M197.4,145.6c-0.6,0-1.1-0.2-1.6-0.5l0.4-1c0.4,0.2,0.8,0.4,1.2,0.4c0.4,0,0.8-0.3,0.9-0.8c0,0,0-0.1,0-0.1
			c0-0.6-0.3-1-0.8-1h-0.4v-0.9h0.4c0.4,0,0.7-0.3,0.7-0.7c0,0,0,0,0-0.1c0-0.4-0.3-0.7-0.6-0.7c0,0,0,0-0.1,0c-0.3,0-0.7,0.1-1,0.3
			l-0.3-1c0.4-0.2,0.9-0.4,1.4-0.4c1,0,1.8,0.7,1.8,1.6c0,0,0,0,0,0.1c0,0.6-0.3,1.1-0.9,1.2c0.6,0.2,1,0.8,1,1.5c0.1,1-0.7,2-1.8,2
			C197.6,145.6,197.5,145.6,197.4,145.6z"/>
		<path class="st0" d="M205,145.5v-0.4c-0.2,0.3-0.6,0.5-0.9,0.5c-1.2,0-1.6-1.4-1.6-2.5s0.5-2.5,1.8-2.5c0.2,0,0.4,0,0.6,0.1v-2
			h1.1v6.7L205,145.5z M204.9,141.7c-0.1-0.1-0.3-0.1-0.4-0.1c-0.5,0-0.8,0.5-0.8,1.4s0.2,1.4,0.6,1.4c0.3,0,0.5-0.2,0.6-0.4V141.7z
			"/>
		<path class="st0" d="M208.7,145.6c-1.4,0-1.9-1.3-1.9-2.5s0.5-2.5,1.9-2.5s1.9,1.3,1.9,2.5S210.1,145.6,208.7,145.6z M208.7,141.6
			c-0.5,0-0.7,0.5-0.7,1.4s0.2,1.4,0.7,1.4s0.7-0.5,0.7-1.4S209.2,141.6,208.7,141.6L208.7,141.6z"/>
		<path class="st0" d="M216.5,144.2v1.2l-1.1,0.1v-1.4h-2.2l-0.1-0.7l2.1-4.2h1.3v3.9h0.7v1L216.5,144.2z M215.4,140.8L215.4,140.8
			l-1.1,2.4h1.1L215.4,140.8z"/>
		<path class="st0" d="M222.4,145.5v-0.4c-0.2,0.3-0.6,0.5-0.9,0.5c-1.2,0-1.6-1.4-1.6-2.5s0.5-2.5,1.8-2.5c0.2,0,0.4,0,0.6,0.1v-2
			h1.1v6.7L222.4,145.5z M222.2,141.7c-0.1-0.1-0.3-0.1-0.4-0.1c-0.5,0-0.8,0.5-0.8,1.4s0.2,1.4,0.6,1.4c0.3,0,0.5-0.2,0.6-0.4
			V141.7z"/>
		<path class="st0" d="M226.5,145.5v-0.4l0,0c-0.2,0.3-0.6,0.5-0.9,0.5c-0.7,0-1.3-0.6-1.3-1.4c0,0,0,0,0-0.1c0-1,0.8-1.4,1.6-1.4
			h0.6v-0.3c0-0.6-0.1-0.8-0.6-0.8c-0.4,0-0.7,0.1-1,0.3l-0.4-0.9c0.4-0.3,0.9-0.5,1.4-0.5c1.1,0,1.7,0.7,1.7,1.9v3L226.5,145.5z
			 M226.4,143.5H226c-0.3,0-0.5,0.2-0.6,0.5c0,0,0,0.1,0,0.1c0,0.2,0.1,0.5,0.4,0.5c0.2,0,0.4-0.1,0.6-0.3L226.4,143.5z"/>
		<path class="st0" d="M232.9,145.5h-1.2l-0.4-1.9c0,0-0.1-0.6-0.2-1.2l0,0c-0.1,0.6-0.2,1.2-0.2,1.2l-0.4,1.9h-1.2l-1.2-4.7
			l1.2-0.1l0.5,2.1c0,0,0.1,0.4,0.2,1.2l0,0c0-0.4,0.1-0.8,0.2-1.2l0.5-2h1l0.5,2c0.1,0.4,0.2,0.8,0.2,1.2l0,0
			c0.1-0.8,0.2-1.2,0.2-1.2l0.4-2h1.2L232.9,145.5z"/>
		<path class="st0" d="M235.7,143.5c0.1,0.8,0.4,1.1,0.8,1.1c0.4,0,0.8-0.1,1.1-0.3l0.4,1c-0.5,0.3-1,0.4-1.5,0.4
			c-1.5,0-2-1.3-2-2.5s0.4-2.5,1.8-2.5s1.8,1.3,1.8,2.5v0.3L235.7,143.5z M236.3,141.6c-0.2,0-0.6,0.1-0.6,0.9l1.2-0.1
			C236.9,141.9,236.7,141.6,236.3,141.6L236.3,141.6z"/>
		<path class="st0" d="M241.5,145.5l-1-2.3l0,0l-0.3,0.4v1.9H239v-6.7h1.1v3.3l0,0l1-1.4h1.4l-1.4,1.7l1.5,3.1H241.5z"/>
		<path class="st0" d="M247.6,145.5v-3c0-0.6-0.1-0.8-0.5-0.8c-0.3,0-0.6,0.2-0.7,0.4v3.4h-1.1v-4.8h1v0.4l0,0
			c0.2-0.3,0.6-0.5,1-0.5c1,0,1.4,0.8,1.4,1.7v3.1L247.6,145.5z"/>
		<path class="st0" d="M251.8,145.5v-0.4l0,0c-0.2,0.3-0.6,0.5-0.9,0.5c-0.7,0-1.3-0.6-1.3-1.3c0,0,0-0.1,0-0.1c0-1,0.8-1.4,1.6-1.4
			h0.6v-0.3c0-0.6-0.1-0.8-0.6-0.8c-0.4,0-0.7,0.1-1,0.3l-0.4-0.9c0.4-0.3,0.9-0.5,1.4-0.5c1.1,0,1.7,0.7,1.7,1.9v3L251.8,145.5z
			 M251.7,143.5h-0.4c-0.3,0-0.5,0.2-0.6,0.5c0,0,0,0.1,0,0.1c0,0.2,0.1,0.5,0.4,0.5c0.2,0,0.4-0.1,0.6-0.3V143.5z"/>
		<path class="st0" d="M258.2,145.5v-0.4c-0.2,0.3-0.6,0.5-0.9,0.5c-1.2,0-1.6-1.4-1.6-2.5s0.5-2.5,1.8-2.5c0.2,0,0.4,0,0.6,0.1v-2
			h1.1v6.7L258.2,145.5z M258.1,141.7c-0.1-0.1-0.3-0.1-0.4-0.1c-0.5,0-0.8,0.5-0.8,1.4s0.2,1.4,0.6,1.4c0.3,0,0.5-0.2,0.6-0.4
			L258.1,141.7z"/>
		<path class="st0" d="M261.9,145.6c-1.4,0-1.9-1.3-1.9-2.5s0.5-2.5,1.9-2.5s1.9,1.3,1.9,2.5S263.4,145.6,261.9,145.6z M261.9,141.6
			c-0.5,0-0.7,0.5-0.7,1.4s0.2,1.4,0.7,1.4s0.7-0.5,0.7-1.4S262.4,141.6,261.9,141.6L261.9,141.6z"/>
		<path class="st0" d="M266.2,145.6c-0.6,0-1.1-0.2-1.6-0.5v-6.2l1.1-0.2v2.3l0,0c0.2-0.2,0.5-0.3,0.8-0.3c1.1,0,1.6,1.4,1.6,2.5
			S267.6,145.6,266.2,145.6z M266.4,141.6c-0.2,0-0.4,0.1-0.6,0.3v2.5c0.1,0.1,0.3,0.1,0.4,0.1c0.5,0,0.8-0.6,0.8-1.5
			S266.8,141.6,266.4,141.6L266.4,141.6z"/>
		<path class="st0" d="M270,143.5c0.1,0.8,0.4,1.1,0.8,1.1c0.4,0,0.8-0.1,1.1-0.3l0.4,1c-0.8,0.6-1.1,1-1.1,1.3
			c0,0.1,0.1,0.2,0.2,0.2c0,0,0,0,0,0c0.1,0,0.3,0,0.4-0.1l0.2,0.6c-0.2,0.1-0.5,0.2-0.8,0.2c-0.5,0-0.8-0.3-0.9-0.8
			c0,0,0-0.1,0-0.1c0-0.4,0.2-0.8,0.5-1h-0.1c-1.5,0-2-1.3-2-2.5s0.5-2.5,1.9-2.5s1.8,1.3,1.8,2.5v0.3L270,143.5z M270.7,141.6
			c-0.3,0-0.6,0.1-0.7,0.9l1.3-0.1C271.2,141.9,271,141.6,270.7,141.6L270.7,141.6z"/>
		<path class="st0" d="M274,145.6c-0.5,0-0.9-0.3-0.9-0.7c0-0.5,0.3-0.9,0.7-0.9c0.5,0,0.9,0.3,0.9,0.7c0,0,0,0.1,0,0.1
			C274.8,145.2,274.4,145.5,274,145.6C274,145.6,274,145.6,274,145.6z"/>
		<path class="st0" d="M72.9,153.7c-0.3,0-0.6-0.1-0.8-0.2l0.2-0.7c0.2,0.1,0.3,0.1,0.5,0.1c0.3,0,0.4-0.2,0.4-0.7v-3.3h0.9v3.4
			C74.1,153.1,73.8,153.7,72.9,153.7z"/>
		<path class="st0" d="M75.7,152.2c0,0.6,0.3,0.8,0.6,0.8c0.3,0,0.6-0.1,0.8-0.2l0.3,0.7c-0.3,0.2-0.7,0.3-1.1,0.3
			c-1.1,0-1.5-1-1.5-1.8s0.3-1.9,1.4-1.9s1.3,1,1.3,1.9v0.2L75.7,152.2z M76.1,150.8c-0.2,0-0.4,0.1-0.5,0.7h0.9
			C76.6,151,76.4,150.8,76.1,150.8z"/>
		<path class="st0" d="M77.8,153.7v-0.4l1.2-2.3h-1v-0.8h2l0.1,0.4l-1.2,2.4h1.2v0.8H77.8z M79,149.5c-0.3,0-0.5-0.2-0.6-0.5
			c0-0.3,0.2-0.5,0.5-0.6c0.3,0,0.5,0.2,0.6,0.5c0,0,0,0,0,0C79.5,149.3,79.3,149.5,79,149.5z"/>
		<path class="st0" d="M81.3,152.2c0,0.6,0.3,0.8,0.6,0.8c0.3,0,0.6-0.1,0.8-0.2l0.3,0.7c-0.3,0.2-0.7,0.3-1.1,0.3
			c-1.1,0-1.5-1-1.5-1.8s0.3-1.9,1.4-1.9s1.3,1,1.3,1.9v0.2L81.3,152.2z M81.8,150.8c-0.2,0-0.4,0.1-0.5,0.7h0.9
			C82.2,151,82.1,150.8,81.8,150.8z"/>
		<path class="st0" d="M83.8,153.7v-4.9l0.8-0.1v5.1H83.8z"/>
		<path class="st0" d="M85.9,149.7c-0.3,0-0.5-0.3-0.5-0.5c0-0.3,0.2-0.5,0.5-0.5c0.3,0,0.5,0.2,0.5,0.5
			C86.5,149.5,86.2,149.7,85.9,149.7L85.9,149.7z M85.5,153.7v-3.6l0.8-0.1v3.6L85.5,153.7z"/>
		<path class="st0" d="M90,153.7c-1,0-1.4-1-1.4-1.8s0.4-1.9,1.4-1.9s1.4,1,1.4,1.9S91.1,153.7,90,153.7z M90,150.8
			c-0.4,0-0.5,0.4-0.5,1.1s0.1,1.1,0.5,1.1s0.5-0.4,0.5-1.1S90.4,150.8,90,150.8z"/>
		<path class="st0" d="M93.2,153.7c-0.4,0-0.8-0.1-1.2-0.4v-4.6l0.8-0.1v1.7l0,0c0.2-0.2,0.4-0.2,0.6-0.2c0.8,0,1.2,1,1.2,1.8
			S94.2,153.7,93.2,153.7z M93.3,150.8c-0.2,0-0.3,0.1-0.4,0.2v1.9c0.1,0,0.2,0.1,0.3,0.1c0.3,0,0.6-0.4,0.6-1.1
			S93.6,150.8,93.3,150.8z"/>
		<path class="st0" d="M96.2,154.1c0,0.6-0.3,1.1-1,1.1c-0.2,0-0.4-0.1-0.7-0.2l0.2-0.7c0.1,0,0.2,0.1,0.4,0.1
			c0.2,0,0.2-0.1,0.2-0.3v-4l0.8-0.1L96.2,154.1z M96.2,149.2c0,0.3-0.2,0.5-0.5,0.5s-0.5-0.2-0.5-0.5c0-0.3,0.2-0.5,0.5-0.5
			C96,148.7,96.2,148.9,96.2,149.2z"/>
		<path class="st0" d="M98.6,153.7v-0.3l0,0c-0.2,0.2-0.4,0.4-0.7,0.4c-0.6,0-1-0.4-1-1c0,0,0,0,0-0.1c0-0.8,0.6-1,1.2-1h0.4v-0.2
			c0-0.4-0.1-0.6-0.4-0.6c-0.3,0-0.5,0.1-0.7,0.2l-0.3-0.7c0.3-0.2,0.7-0.3,1.1-0.4c0.8,0,1.2,0.5,1.2,1.4v2.2L98.6,153.7z
			 M98.5,152.2h-0.3c-0.3,0-0.4,0.2-0.4,0.4s0.1,0.4,0.3,0.4c0.2,0,0.3-0.1,0.4-0.2L98.5,152.2z"/>
		<path class="st0" d="M103.4,153.7h-0.9l-0.3-1.4c0,0-0.1-0.4-0.2-0.9l0,0c0,0.4-0.2,0.9-0.2,0.9l-0.3,1.4h-0.9l-0.9-3.5l0.9-0.1
			l0.3,1.5c0,0,0.1,0.3,0.2,0.9l0,0c0.1-0.6,0.2-0.9,0.2-0.9l0.3-1.5h0.7l0.3,1.5c0,0,0.1,0.3,0.2,0.9l0,0c0.1-0.6,0.2-0.9,0.2-0.9
			l0.3-1.5h0.9L103.4,153.7z"/>
		<path class="st0" d="M105.6,155.2l-0.8-0.1l0.6-1.7l-1.1-3.2l0.8-0.1l0.7,2.3l0,0l0.6-2.3h0.9L105.6,155.2z"/>
		<path class="st0" d="M111.1,153.7v-0.3l0,0c-0.2,0.2-0.5,0.4-0.8,0.4c-0.7,0-1-0.6-1-1.3v-2.3h0.8v2.2c0,0.4,0.1,0.6,0.3,0.6
			c0.2,0,0.4-0.1,0.5-0.3v-2.5h0.8v3.6L111.1,153.7z"/>
		<path class="st0" d="M113.8,153.7c-0.5,0.1-0.9-0.3-1-0.7c0-0.1,0-0.2,0-0.3v-2h-0.5v-0.6h0.5v-0.9l0.8-0.1v1h0.7l-0.1,0.6h-0.6
			v1.8c0,0.3,0.1,0.4,0.2,0.4c0.1,0,0.2,0,0.3-0.1l0.2,0.7C114.2,153.6,114,153.7,113.8,153.7z"/>
		<path class="st0" d="M116.7,150.9c-0.1,0-0.2-0.1-0.3-0.1c-0.2,0-0.5,0.2-0.6,0.4v2.5H115v-3.6h0.7v0.5l0,0
			c0.1-0.3,0.4-0.5,0.8-0.6c0.1,0,0.3,0,0.4,0.1L116.7,150.9z"/>
		<path class="st0" d="M117,153.7v-0.4l1.2-2.4h-1.1v-0.8h2.1l0.1,0.4l-1.2,2.4h1.2v0.8L117,153.7z"/>
		<path class="st0" d="M120.7,155.2l-0.8-0.1l0.6-1.7l-1.1-3.2l0.8-0.1l0.7,2.3l0,0l0.6-2.3h0.9L120.7,155.2z"/>
		<path class="st0" d="M124.4,153.7v-2.3c0-0.4-0.1-0.6-0.3-0.6s-0.3,0.1-0.4,0.3v2.5h-0.8v-3.6h0.7v0.3l0,0
			c0.1-0.2,0.4-0.4,0.6-0.4c0.3,0,0.7,0.2,0.8,0.5c0.2-0.3,0.5-0.4,0.8-0.5c0.7,0,1,0.6,1,1.3v2.3h-0.8v-2.3c0-0.4-0.1-0.6-0.3-0.6
			c-0.2,0-0.4,0.1-0.5,0.3c0,0.1,0,0.1,0,0.2v2.3L124.4,153.7z"/>
		<path class="st0" d="M129.3,153.7v-0.3l0,0c-0.2,0.2-0.5,0.4-0.8,0.4c-0.7,0-1-0.6-1-1.3v-2.3h0.8v2.2c0,0.4,0.1,0.6,0.3,0.6
			c0.2,0,0.4-0.1,0.5-0.3v-2.5h0.8v3.6L129.3,153.7z"/>
		<path class="st0" d="M131.8,154.1c0,0.6-0.3,1.1-0.9,1.1c-0.2,0-0.4-0.1-0.6-0.2l0.2-0.7c0.1,0,0.2,0.1,0.4,0.1
			c0.1,0,0.2-0.1,0.2-0.3v-4l0.8-0.1L131.8,154.1z M131.9,149.2c0,0.3-0.2,0.5-0.5,0.5s-0.5-0.2-0.5-0.5c0-0.3,0.2-0.5,0.5-0.5
			C131.6,148.7,131.9,148.9,131.9,149.2z"/>
		<path class="st0" d="M134.4,154.4c0,0.1,0.1,0.2,0.1,0.2c0,0,0,0,0,0c0.1,0,0.2,0,0.3-0.1l0.1,0.5c-0.2,0.1-0.4,0.2-0.6,0.2
			c-0.3,0-0.6-0.3-0.7-0.6c0,0,0,0,0-0.1c0-0.3,0.2-0.6,0.5-0.8v-0.3l0,0c-0.2,0.2-0.4,0.4-0.7,0.4c-0.6,0-1-0.4-1-1c0,0,0,0,0-0.1
			c0-0.8,0.6-1,1.2-1h0.4v-0.2c0-0.4-0.1-0.6-0.4-0.6c-0.3,0-0.5,0.1-0.7,0.2l-0.3-0.7c0.3-0.2,0.7-0.3,1.1-0.4
			c0.8,0,1.2,0.5,1.2,1.4v2.2C134.4,154.1,134.4,154.2,134.4,154.4z M134.1,152.2h-0.3c-0.2,0-0.4,0.1-0.4,0.3c0,0,0,0,0,0.1
			c0,0.2,0.1,0.4,0.3,0.4c0.2,0,0.3-0.1,0.4-0.2L134.1,152.2z"/>
		<path class="st0" d="M139,151c-0.2-0.1-0.4-0.2-0.6-0.2c-0.1,0-0.3,0.1-0.3,0.3c0,0.5,1.2,0.4,1.2,1.6c0,0.6-0.5,1.1-1.1,1.1
			c0,0-0.1,0-0.1,0c-0.4,0-0.8-0.2-1.1-0.4l0.3-0.7c0.2,0.2,0.5,0.3,0.8,0.3c0.2,0,0.3-0.1,0.3-0.3c0,0,0,0,0-0.1
			c0-0.5-1.2-0.4-1.2-1.5c0-0.6,0.5-1.1,1.1-1.1c0,0,0,0,0.1,0c0.3,0,0.7,0.1,0.9,0.3L139,151z"/>
		<path class="st0" d="M140.3,149.7c-0.3,0-0.5-0.3-0.5-0.5c0-0.3,0.2-0.5,0.5-0.5c0.3,0,0.5,0.2,0.5,0.5
			C140.9,149.5,140.6,149.7,140.3,149.7L140.3,149.7z M139.9,153.7v-3.6l0.8-0.1v3.6L139.9,153.7z"/>
		<path class="st0" d="M142.4,152.2c0,0.6,0.3,0.8,0.6,0.8c0.3,0,0.6-0.1,0.8-0.2l0.3,0.7c-0.6,0.4-0.8,0.8-0.8,1
			c0,0.1,0.1,0.2,0.1,0.2c0,0,0,0,0,0c0.1,0,0.2,0,0.3-0.1l0.1,0.5c-0.2,0.1-0.4,0.2-0.6,0.2c-0.3,0-0.6-0.2-0.7-0.6
			c0,0,0-0.1,0-0.1c0-0.3,0.2-0.5,0.4-0.7H143c-1.1,0-1.5-1-1.5-1.8s0.3-1.9,1.4-1.9s1.3,1,1.3,1.9v0.2L142.4,152.2z M142.9,150.8
			c-0.2,0-0.4,0.1-0.5,0.7h0.9C143.3,151,143.1,150.8,142.9,150.8z"/>
		<path class="st0" d="M147.7,153.7c-0.2,0-0.3,0-0.5-0.1v1.5h-0.8v-5h0.7v0.3c0.2-0.2,0.4-0.4,0.7-0.4c0.9,0,1.2,1,1.2,1.9
			S148.6,153.7,147.7,153.7z M147.7,150.8c-0.2,0-0.4,0.1-0.4,0.3v1.8c0.1,0,0.2,0.1,0.3,0.1c0.4,0,0.6-0.4,0.6-1.1
			S148,150.8,147.7,150.8L147.7,150.8z"/>
		<path class="st0" d="M151.3,150.9c-0.1,0-0.2-0.1-0.3-0.1c-0.2,0-0.5,0.2-0.6,0.4v2.5h-0.9v-3.6h0.7v0.5l0,0
			c0.1-0.3,0.4-0.5,0.8-0.6c0.1,0,0.3,0,0.4,0.1L151.3,150.9z"/>
		<path class="st0" d="M151.6,153.7v-0.4l1.2-2.4h-1.1v-0.8h2.1l0.1,0.4l-1.2,2.4h1.2v0.8L151.6,153.7z"/>
		<path class="st0" d="M155.1,152.2c0,0.6,0.3,0.8,0.6,0.8c0.3,0,0.6-0.1,0.8-0.2l0.3,0.7c-0.3,0.2-0.7,0.3-1.1,0.3
			c-1.1,0-1.5-1-1.5-1.8s0.3-1.9,1.4-1.9s1.3,1,1.3,1.9v0.2L155.1,152.2z M155.6,150.8c-0.2,0-0.4,0.1-0.5,0.7h0.9
			C156,151,155.9,150.8,155.6,150.8z"/>
		<path class="st0" d="M157.3,153.7v-0.4l1.2-2.4h-1.1v-0.8h2.1l0.1,0.4l-1.2,2.4h1.2v0.8L157.3,153.7z"/>
		<path class="st0" d="M162.9,153.7c-0.2,0-0.3,0-0.5-0.1v1.5h-0.8v-5h0.7v0.3c0.2-0.2,0.4-0.4,0.7-0.4c0.9,0,1.2,1,1.2,1.9
			S163.9,153.7,162.9,153.7z M162.9,150.8c-0.2,0-0.4,0.1-0.4,0.3v1.8c0.1,0,0.2,0.1,0.3,0.1c0.4,0,0.6-0.4,0.6-1.1
			S163.2,150.8,162.9,150.8L162.9,150.8z"/>
		<path class="st0" d="M166.1,153.7c-1,0-1.4-1-1.4-1.8s0.4-1.9,1.4-1.9s1.4,1,1.4,1.9S167.1,153.7,166.1,153.7z M166.1,150.8
			c-0.4,0-0.5,0.4-0.5,1.1s0.1,1.1,0.5,1.1s0.5-0.4,0.5-1.1S166.5,150.8,166.1,150.8L166.1,150.8z"/>
		<path class="st0" d="M169.8,153.7v-2.2c0-0.4-0.1-0.6-0.3-0.6c-0.2,0-0.4,0.1-0.5,0.3v2.5h-0.8v-3.6h0.7v0.3l0,0
			c0.2-0.2,0.5-0.4,0.8-0.4c0.7,0,1,0.6,1,1.3v2.3L169.8,153.7z"/>
		<path class="st0" d="M172.9,153.7v-0.3l0,0c-0.2,0.2-0.4,0.4-0.7,0.4c-0.6,0-1-0.4-1-1c0,0,0,0,0-0.1c0-0.8,0.6-1,1.2-1h0.5v-0.2
			c0-0.4-0.1-0.6-0.4-0.6c-0.3,0-0.5,0.1-0.7,0.2l-0.3-0.7c0.3-0.2,0.7-0.3,1.1-0.4c0.8,0,1.2,0.5,1.2,1.4v2.2L172.9,153.7z
			 M172.8,152.2h-0.3c-0.3,0-0.4,0.2-0.4,0.4s0.1,0.4,0.3,0.4c0.2,0,0.3-0.1,0.4-0.2L172.8,152.2z"/>
		<path class="st0" d="M176.2,153.7v-0.3c-0.2,0.2-0.4,0.4-0.7,0.4c-0.9,0-1.2-1-1.2-1.8s0.4-1.9,1.4-1.9c0.2,0,0.3,0,0.5,0.1v-1.5
			h0.8v5L176.2,153.7z M176,150.9c-0.1,0-0.2-0.1-0.3-0.1c-0.4,0-0.6,0.4-0.6,1.1s0.1,1.1,0.5,1.1c0.2,0,0.4-0.1,0.4-0.3V150.9z"/>
		<path class="st0" d="M185.8,153.7v-0.3c-0.2,0.2-0.4,0.4-0.7,0.4c-0.9,0-1.2-1-1.2-1.8s0.4-1.9,1.4-1.9c0.2,0,0.3,0,0.5,0.1v-1.5
			h0.8v5L185.8,153.7z M185.7,150.9c-0.1,0-0.2-0.1-0.3-0.1c-0.4,0-0.6,0.4-0.6,1.1s0.1,1.1,0.5,1.1c0.2,0,0.4-0.1,0.4-0.3V150.9z"
			/>
		<path class="st0" d="M189,153.7v-2.2c0-0.4-0.1-0.6-0.3-0.6c-0.2,0-0.4,0.1-0.5,0.3v2.5h-0.9v-3.6h0.7v0.3l0,0
			c0.2-0.2,0.5-0.4,0.8-0.4c0.7,0,1,0.6,1,1.3v2.3L189,153.7z"/>
		<path class="st0" d="M191.1,149.7c-0.3,0-0.5-0.3-0.5-0.5c0-0.3,0.2-0.5,0.5-0.5c0.3,0,0.5,0.2,0.5,0.5
			C191.6,149.5,191.4,149.7,191.1,149.7L191.1,149.7z M190.7,153.7v-3.6l0.8-0.1v3.6L190.7,153.7z"/>
		<path class="st0" d="M192.8,154.9l-0.3-0.2c0.2-0.2,0.4-0.6,0.4-0.9c-0.3-0.1-0.4-0.3-0.4-0.6c0-0.3,0.2-0.6,0.5-0.6c0,0,0,0,0,0
			c0.3,0,0.6,0.3,0.6,0.7C193.5,153.8,193.2,154.4,192.8,154.9z"/>
		<path class="st0" d="M195.5,153.7v-0.4l1.2-2.4h-1.1v-0.8h2.1l0.1,0.4l-1.2,2.4h1.2v0.8L195.5,153.7z"/>
		<path class="st0" d="M199.8,153.7v-0.3l0,0c-0.2,0.2-0.4,0.4-0.7,0.4c-0.6,0-1-0.4-1-1c0,0,0,0,0-0.1c0-0.8,0.6-1,1.2-1h0.5v-0.2
			c0-0.4-0.1-0.6-0.4-0.6c-0.3,0-0.5,0.1-0.8,0.2l-0.3-0.7c0.3-0.2,0.7-0.3,1.1-0.4c0.8,0,1.2,0.5,1.2,1.4v2.2L199.8,153.7z
			 M199.7,152.2h-0.3c-0.3,0-0.4,0.2-0.4,0.4s0.1,0.4,0.3,0.4c0.2,0,0.3-0.1,0.4-0.2L199.7,152.2z"/>
		<path class="st0" d="M201.3,153.7v-4.9l0.8-0.1v5.1H201.3z"/>
		<path class="st0" d="M203.7,152.2c0,0.6,0.3,0.8,0.6,0.8c0.3,0,0.6-0.1,0.8-0.2l0.3,0.7c-0.3,0.2-0.7,0.3-1.1,0.3
			c-1.1,0-1.5-1-1.5-1.8s0.3-1.9,1.4-1.9s1.3,1,1.3,1.9v0.2L203.7,152.2z M204.2,150.8c-0.2,0-0.4,0.1-0.5,0.7h0.9
			C204.6,151,204.4,150.8,204.2,150.8z"/>
		<path class="st0" d="M207.6,153.7c-1.1,0-1.6-0.9-1.6-1.9c-0.1-0.9,0.5-1.7,1.4-1.8c0.1,0,0.1,0,0.2,0c0.3,0,0.6,0.1,0.9,0.3
			l-0.3,0.7c-0.2-0.1-0.4-0.2-0.6-0.2c-0.5,0-0.7,0.4-0.7,1.1s0.2,1.1,0.7,1.1c0.2,0,0.5-0.1,0.7-0.2l0.2,0.7
			C208.2,153.7,207.9,153.7,207.6,153.7z"/>
		<path class="st0" d="M210.5,153.7v-0.3l0,0c-0.2,0.2-0.4,0.4-0.7,0.4c-0.6,0-1-0.4-1-1c0,0,0,0,0-0.1c0-0.8,0.6-1,1.2-1h0.5v-0.2
			c0-0.4-0.1-0.6-0.4-0.6c-0.3,0-0.5,0.1-0.7,0.2l-0.3-0.7c0.3-0.2,0.7-0.3,1.1-0.4c0.8,0,1.2,0.5,1.2,1.4v2.2L210.5,153.7z
			 M210.4,152.2h-0.3c-0.3,0-0.4,0.2-0.4,0.4s0.1,0.4,0.3,0.4c0.2,0,0.3-0.1,0.4-0.2L210.4,152.2z"/>
		<path class="st0" d="M215.2,151c-0.2-0.1-0.4-0.2-0.6-0.2c-0.1,0-0.3,0.1-0.3,0.3c0,0.5,1.2,0.4,1.2,1.6c0,0.6-0.5,1.1-1.1,1.1
			c0,0-0.1,0-0.1,0c-0.4,0-0.7-0.2-1.1-0.4l0.3-0.7c0.2,0.2,0.5,0.3,0.7,0.3c0.2,0,0.3-0.1,0.3-0.3c0,0,0,0,0-0.1
			c0-0.5-1.2-0.4-1.2-1.5c0-0.6,0.5-1.1,1.1-1.1c0,0,0,0,0.1,0c0.3,0,0.7,0.1,0.9,0.3L215.2,151z"/>
		<path class="st0" d="M216.6,149.7c-0.3,0-0.5-0.3-0.5-0.5c0-0.3,0.2-0.5,0.5-0.5c0.3,0,0.5,0.2,0.5,0.5
			C217.1,149.5,216.9,149.7,216.6,149.7L216.6,149.7L216.6,149.7z M216.2,153.7v-3.6l0.8-0.1v3.6L216.2,153.7z"/>
		<path class="st0" d="M218.6,152.2c0.1,0.6,0.3,0.8,0.6,0.8c0.3,0,0.6-0.1,0.8-0.2l0.3,0.7c-0.6,0.4-0.8,0.8-0.8,1s0,0.2,0.2,0.2
			c0.1,0,0.2,0,0.3-0.1l0.1,0.5c-0.2,0.1-0.4,0.2-0.6,0.2c-0.3,0-0.6-0.2-0.7-0.6c0,0,0-0.1,0-0.1c0-0.3,0.2-0.5,0.4-0.7h-0.1
			c-1.1,0-1.5-1-1.5-1.8s0.3-1.9,1.4-1.9s1.3,1,1.3,1.9v0.2L218.6,152.2z M219.1,150.8c-0.2,0-0.4,0.1-0.5,0.7h0.9
			C219.6,151,219.4,150.8,219.1,150.8z"/>
		<path class="st0" d="M223.9,153.7c-0.2,0-0.3,0-0.5-0.1v1.5h-0.8v-5h0.7v0.3c0.2-0.2,0.4-0.4,0.7-0.4c0.9,0,1.2,1,1.2,1.9
			S224.9,153.7,223.9,153.7z M223.9,150.8c-0.2,0-0.4,0.1-0.4,0.3v1.8c0.1,0,0.2,0.1,0.3,0.1c0.4,0,0.6-0.4,0.6-1.1
			S224.2,150.8,223.9,150.8L223.9,150.8z"/>
		<path class="st0" d="M227.1,153.7c-1,0-1.4-1-1.4-1.8s0.4-1.9,1.4-1.9s1.4,1,1.4,1.9S228.1,153.7,227.1,153.7z M227.1,150.8
			c-0.4,0-0.5,0.4-0.5,1.1s0.1,1.1,0.5,1.1s0.5-0.4,0.5-1.1S227.5,150.8,227.1,150.8z"/>
		<path class="st0" d="M230.8,153.7v-2.2c0-0.4-0.1-0.6-0.3-0.6c-0.2,0-0.4,0.1-0.5,0.3v2.5h-0.8v-3.6h0.7v0.3l0,0
			c0.2-0.2,0.5-0.4,0.8-0.4c0.7,0,1,0.6,1,1.3v2.3L230.8,153.7z"/>
		<path class="st0" d="M233.6,153.7c-1,0-1.4-1-1.4-1.8s0.4-1.9,1.4-1.9s1.4,1,1.4,1.9S234.6,153.7,233.6,153.7z M233.6,150.8
			c-0.4,0-0.5,0.4-0.5,1.1s0.1,1.1,0.5,1.1s0.5-0.4,0.5-1.1S234,150.8,233.6,150.8z"/>
		<path class="st0" d="M238.9,153.7H238l-0.3-1.4c0,0-0.1-0.4-0.2-0.9l0,0c-0.1,0.4-0.1,0.9-0.1,0.9l-0.3,1.4h-0.9l-0.9-3.5l0.9-0.1
			l0.3,1.5c0,0,0.1,0.3,0.1,0.9l0,0c0.1-0.6,0.1-0.9,0.1-0.9l0.3-1.5h0.7l0.3,1.5c0.1,0.3,0.1,0.6,0.2,0.9l0,0
			c0.1-0.6,0.1-0.9,0.1-0.9l0.3-1.5h0.9L238.9,153.7z"/>
		<path class="st0" d="M241.9,153.7v-2.2c0-0.4-0.1-0.6-0.3-0.6c-0.2,0-0.4,0.1-0.5,0.3v2.5h-0.9v-3.6h0.7v0.3l0,0
			c0.2-0.2,0.5-0.4,0.8-0.4c0.7,0,1,0.6,1,1.3v2.3L241.9,153.7z"/>
		<path class="st0" d="M245.1,154.4c0,0.1,0,0.2,0.2,0.2c0.1,0,0.2,0,0.3-0.1l0.1,0.5c-0.2,0.1-0.4,0.2-0.6,0.2
			c-0.3,0-0.6-0.2-0.6-0.6c0,0,0,0,0-0.1c0-0.3,0.2-0.6,0.5-0.8v-0.3l0,0c-0.2,0.2-0.4,0.4-0.7,0.4c-0.6,0-1-0.4-1-1c0,0,0,0,0-0.1
			c0-0.8,0.6-1,1.2-1h0.5v-0.2c0-0.4-0.1-0.6-0.4-0.6c-0.3,0-0.5,0.1-0.7,0.2l-0.3-0.7c0.3-0.2,0.7-0.3,1.1-0.4
			c0.8,0,1.2,0.5,1.2,1.4v2.2C245.2,154.1,245.1,154.2,245.1,154.4z M244.9,152.2h-0.3c-0.2,0-0.4,0.1-0.4,0.3c0,0,0,0,0,0.1
			c0,0.2,0.1,0.4,0.3,0.4c0.2,0,0.3-0.1,0.4-0.2L244.9,152.2z"/>
		<path class="st0" d="M249.9,153.7l-0.8-1.7l0,0l-0.2,0.3v1.4H248v-5h0.8v2.5l0,0l0.8-1h1.1l-1.1,1.2l1.1,2.3L249.9,153.7z"/>
		<path class="st0" d="M252.4,153.7c-1,0-1.4-1-1.4-1.8s0.4-1.9,1.4-1.9s1.4,1,1.4,1.9S253.4,153.7,252.4,153.7z M252.4,150.8
			c-0.4,0-0.5,0.4-0.5,1.1s0.1,1.1,0.5,1.1s0.5-0.4,0.5-1.1S252.8,150.8,252.4,150.8L252.4,150.8z"/>
		<path class="st0" d="M256.1,153.7v-2.2c0-0.4-0.1-0.6-0.3-0.6c-0.2,0-0.4,0.1-0.5,0.3v2.5h-0.8v-3.6h0.7v0.3l0,0
			c0.2-0.2,0.5-0.4,0.8-0.4c0.7,0,1,0.6,1,1.3v2.3L256.1,153.7z"/>
		<path class="st0" d="M259.4,151c-0.2-0.1-0.4-0.2-0.6-0.2c-0.2,0-0.3,0.1-0.3,0.3c0,0.5,1.2,0.4,1.2,1.6c0,0.6-0.5,1.1-1.1,1.1
			c0,0-0.1,0-0.1,0c-0.4,0-0.7-0.2-1-0.4l0.3-0.7c0.2,0.2,0.5,0.3,0.7,0.3c0.2,0,0.3-0.1,0.3-0.3c0,0,0,0,0-0.1
			c0-0.5-1.2-0.4-1.2-1.5c0-0.6,0.5-1.1,1.1-1.1c0,0,0,0,0.1,0c0.3,0,0.7,0.1,0.9,0.3L259.4,151z"/>
		<path class="st0" d="M262.1,153.7v-0.3l0,0c-0.2,0.2-0.5,0.4-0.8,0.4c-0.7,0-1-0.6-1-1.3v-2.3h0.8v2.2c0,0.4,0.1,0.6,0.4,0.6
			c0.2,0,0.4-0.1,0.5-0.3v-2.5h0.8v3.6L262.1,153.7z"/>
		<path class="st0" d="M263.6,153.7v-4.9l0.9-0.1v5.1H263.6z"/>
		<path class="st0" d="M266.5,153.7c-0.5,0-0.9-0.3-1-0.8c0-0.1,0-0.1,0-0.2v-2H265v-0.6h0.5v-0.9l0.8-0.1v1h0.7l-0.1,0.6h-0.6v1.8
			c0,0.3,0.1,0.4,0.2,0.4c0.1,0,0.2,0,0.3-0.1l0.2,0.7C266.9,153.6,266.7,153.7,266.5,153.7z"/>
		<path class="st0" d="M269.2,153.7v-0.3l0,0c-0.2,0.2-0.4,0.4-0.7,0.4c-0.6,0-1-0.4-1-1c0,0,0,0,0-0.1c0-0.8,0.6-1,1.2-1h0.5v-0.2
			c0-0.4-0.1-0.6-0.4-0.6c-0.3,0-0.5,0.1-0.8,0.2l-0.3-0.7c0.3-0.2,0.7-0.3,1.1-0.4c0.8,0,1.2,0.5,1.2,1.4v2.2L269.2,153.7z
			 M269.1,152.2h-0.3c-0.3,0-0.4,0.2-0.4,0.4s0.1,0.4,0.3,0.4c0.2,0,0.3-0.1,0.4-0.2L269.1,152.2z"/>
		<path class="st0" d="M272.1,153.7c-1-0.1-1.7-1.1-1.6-2.1c0.1-0.8,0.8-1.5,1.6-1.6c0.3,0,0.6,0.1,0.9,0.3l-0.3,0.7
			c-0.2-0.1-0.4-0.2-0.6-0.2c-0.5,0-0.7,0.4-0.7,1.1s0.2,1.1,0.7,1.1c0.2,0,0.5-0.1,0.7-0.2l0.2,0.7
			C272.7,153.7,272.4,153.7,272.1,153.7z"/>
		<path class="st0" d="M274.4,154.1c0,0.6-0.3,1.1-0.9,1.1c-0.2,0-0.5-0.1-0.7-0.2l0.2-0.7c0.1,0,0.2,0.1,0.4,0.1
			c0.1,0,0.2-0.1,0.2-0.3v-4l0.8-0.1V154.1z M274.5,149.2c0,0.3-0.2,0.5-0.5,0.5c0,0,0,0,0,0c-0.3,0-0.5-0.3-0.5-0.5
			c0-0.3,0.2-0.5,0.5-0.5c0,0,0,0,0,0C274.3,148.7,274.5,148.9,274.5,149.2C274.5,149.2,274.5,149.2,274.5,149.2z"/>
		<path class="st0" d="M276,152.2c0,0.6,0.3,0.8,0.6,0.8c0.3,0,0.6-0.1,0.8-0.2l0.3,0.7c-0.6,0.4-0.8,0.8-0.8,1
			c0,0.1,0.1,0.2,0.1,0.2c0,0,0,0,0,0c0.1,0,0.2,0,0.3-0.1l0.2,0.5c-0.2,0.1-0.4,0.2-0.6,0.2c-0.3,0-0.6-0.2-0.7-0.6
			c0,0,0-0.1,0-0.1c0-0.3,0.2-0.5,0.4-0.7h-0.1c-1.1,0-1.5-1-1.5-1.8s0.3-1.9,1.4-1.9s1.3,1,1.3,1.9v0.2L276,152.2z M276.5,150.8
			c-0.2,0-0.4,0.1-0.5,0.7h0.9C277,151,276.8,150.8,276.5,150.8L276.5,150.8z"/>
		<path class="st0" d="M137.1,71.9c0,0.4,0,0.8-0.1,1.1c-0.2,1.8-1.8,3.1-3.7,3h-3.7V65.4h3.7c1.8-0.2,3.5,1.2,3.7,3
			c0.1,0.4,0.1,0.7,0.1,1.1L137.1,71.9z M134.6,67.9c-0.4-0.4-0.9-0.7-1.5-0.7h-1.5v7h1.5c0.6,0,1.1-0.2,1.5-0.7
			c0.4-0.9,0.5-1.9,0.4-2.9C135.2,69.7,135,68.8,134.6,67.9L134.6,67.9z"/>
		<path class="st0" d="M145,76.1l-0.6-1.9h-3.7l-0.6,1.9H138l3.8-10.7h1.6l3.8,10.7H145z M142.6,68.5l-1.3,3.9h2.6L142.6,68.5z"/>
		<path class="st0" d="M157.2,76.1h-1.7l-1.9-6.5l-1.9,6.5H150l-2.8-10.7h2.1l1.6,6.7l1.9-6.8h1.5l1.9,6.8l1.6-6.8h2.1L157.2,76.1z"
			/>
		<path class="st0" d="M167.2,76.1l-2.6-4.9l-1.3,1.7v3.2h-2V65.4h2V70l3.6-4.7h2.4l-3.4,4.2l3.7,6.4L167.2,76.1z"/>
		<path class="st0" d="M178.1,71.4c0,0.2,0,0.4,0,0.6c0,0.4-0.1,0.8-0.1,1.1c-0.1,0.7-0.4,1.3-0.9,1.8c-1.5,1.5-4,1.6-5.5,0.1
			c0,0-0.1-0.1-0.1-0.1c-0.5-0.5-0.8-1.1-0.9-1.8c-0.1-0.4-0.1-0.8-0.1-1.1c0-0.2,0-0.4,0-0.6v-1.4c0-0.2,0-0.4,0-0.6
			c0-0.4,0-0.8,0.1-1.1c0.1-0.7,0.4-1.3,0.9-1.8c1.5-1.5,4-1.6,5.5-0.1c0,0,0,0,0.1,0.1c0.5,0.5,0.8,1.2,0.9,1.8
			c0.1,0.4,0.1,0.8,0.1,1.1c0,0.2,0,0.4,0,0.6L178.1,71.4z M175.9,68.6c0-0.3-0.2-0.6-0.4-0.9c-0.3-0.4-0.8-0.6-1.3-0.6
			c-0.5,0-1,0.2-1.3,0.6c-0.2,0.3-0.3,0.6-0.4,0.9c-0.1,0.7-0.1,1.4-0.1,2.1c0,0.7,0,1.4,0.1,2.1c0,0.3,0.2,0.6,0.4,0.9
			c0.3,0.4,0.8,0.6,1.3,0.6c0.5,0,1-0.2,1.3-0.6c0.2-0.3,0.4-0.6,0.4-0.9c0.1-0.7,0.1-1.4,0.1-2.1C176.1,70,176,69.3,175.9,68.6z"/>
		<path class="st0" d="M188.8,76.1h-1.7l-1.9-6.5l-1.9,6.5h-1.7l-2.8-10.7h2.1l1.6,6.8l1.9-6.8h1.5l1.9,6.8l1.6-6.8h2.1L188.8,76.1z
			"/>
		<path class="st0" d="M198.7,76.1l-0.6-1.9h-3.7l-0.6,1.9h-2.1l3.8-10.7h1.6l3.8,10.7H198.7z M196.3,68.5l-1.3,3.9h2.6L196.3,68.5z
			"/>
		<path class="st0" d="M208.2,76.1l-4.1-6.6v6.6h-2V65.4h1.8l4.1,6.6v-6.6h2v10.7L208.2,76.1z"/>
		<path class="st0" d="M212.4,76.1V65.4h2v10.7L212.4,76.1z"/>
		<path class="st0" d="M216.8,76.1V65.4h6.8v1.9h-4.8v2.5h4.1v1.9h-4.1v2.6h4.8v1.9H216.8z"/>
		<g>
			<defs>
				<rect id="SVGID_1_" x="262.6" y="19.7" width="53.1" height="199.9"/>
			</defs>
			<clipPath id="SVGID_2_">
				<use xlink:href="#SVGID_1_"  style="overflow:visible;"/>
			</clipPath>
			<g class="st6">
				
					<image style="overflow:visible;enable-background:new    ;" width="163" height="610" xlink:href="710D7156560831EE.png"  transform="matrix(-0.33 0 0 0.33 315.78 19.69)">
				</image>
			</g>
		</g>
	</g>
</g>
<path class="st0" d="M180.6,153.7c-0.4,0-0.9-0.1-1.3-0.4l0.3-0.8c0.3,0.2,0.6,0.3,0.9,0.3c0.4,0,0.7-0.2,0.7-0.6c0,0,0-0.1,0-0.1
	c0-0.5-0.2-0.8-0.7-0.8h-0.3v-0.7h0.3c0.3,0,0.5-0.2,0.5-0.5c0,0,0,0,0,0c0-0.3-0.2-0.5-0.5-0.5c0,0,0,0,0,0c-0.3,0-0.5,0.1-0.8,0.2
	l-0.3-0.8c0.3-0.2,0.7-0.3,1.1-0.3c0.8,0,1.4,0.5,1.4,1.3c0,0,0,0,0,0c0,0.4-0.3,0.8-0.7,1c0.5,0.2,0.8,0.7,0.8,1.2
	c0.1,0.8-0.6,1.5-1.4,1.6C180.8,153.7,180.7,153.7,180.6,153.7z"/>
</svg>
