<svg id="Warstwa_2" data-name="Warstwa 2" xmlns="http://www.w3.org/2000/svg" viewBox="0 0 42.4 42.4"><defs><style>.cls-1{fill:#fff;}.cls-2{fill:#b02d70;}</style></defs><title>info</title><path class="cls-1" d="M9.73,31.17a7.75,7.75,0,0,1-3-.48v-18a9.58,9.58,0,0,0,3,.42,12.32,12.32,0,0,0,4.41-1.29,10.53,10.53,0,0,1,3.32-1,13.78,13.78,0,0,1,3.49.54V29.35a14,14,0,0,0-3.49-.5A10.82,10.82,0,0,0,13.75,30,11.91,11.91,0,0,1,9.73,31.17Z"/><path class="cls-2" d="M17.46,11.24a12.76,12.76,0,0,1,3,.42V28.71a14.15,14.15,0,0,0-3-.36,11,11,0,0,0-3.9,1.16,11.76,11.76,0,0,1-3.83,1.17,8.49,8.49,0,0,1-2.49-.33v-17a11.29,11.29,0,0,0,2.49.26,12.59,12.59,0,0,0,4.6-1.33,10.52,10.52,0,0,1,3.13-1m0-1c-2,0-5.32,2.33-7.73,2.33a7.09,7.09,0,0,1-3.49-.67V31a7.09,7.09,0,0,0,3.49.67c2.41,0,5.73-2.33,7.73-2.33a14.64,14.64,0,0,1,4,.66V10.91a14.45,14.45,0,0,0-4-.67Z"/><path class="cls-1" d="M33.17,31.17a11.91,11.91,0,0,1-4-1.2,10.82,10.82,0,0,0-3.71-1.12,14,14,0,0,0-3.49.5V11.28a13.78,13.78,0,0,1,3.49-.54,10.53,10.53,0,0,1,3.32,1,12.32,12.32,0,0,0,4.41,1.29,9.58,9.58,0,0,0,3-.42v18A8,8,0,0,1,33.17,31.17Z"/><path class="cls-2" d="M25.44,11.24a10.52,10.52,0,0,1,3.13,1,12.59,12.59,0,0,0,4.6,1.33,11.29,11.29,0,0,0,2.49-.26v17a8.19,8.19,0,0,1-2.49.34,11.69,11.69,0,0,1-3.83-1.17,11,11,0,0,0-3.9-1.16,14.15,14.15,0,0,0-3,.36v-17a12.68,12.68,0,0,1,3-.42m0-1a14.35,14.35,0,0,0-4,.67V30a14.55,14.55,0,0,1,4-.66c2,0,5.32,2.33,7.73,2.33A7.09,7.09,0,0,0,36.66,31V11.9a7.09,7.09,0,0,1-3.49.67c-2.41,0-5.73-2.33-7.73-2.33Z"/><path class="cls-2" d="M27.35,24.46a1,1,0,0,0,.44-.16.76.76,0,0,0,.17-.57V20.21a.76.76,0,0,0-.12-.5.87.87,0,0,0-.49-.2v-.29h2.3v4.56a.7.7,0,0,0,.12.5.87.87,0,0,0,.44.18v.29H27.35Zm.8-7.73a.93.93,0,0,1,1.31,0,.92.92,0,0,1,0,1.32.93.93,0,0,1-1.31-1.32Z"/></svg>