<?xml version="1.0" encoding="utf-8"?>
<!-- Generator: Adobe Illustrator 23.1.1, SVG Export Plug-In . SVG Version: 6.00 Build 0)  -->
<svg version="1.1" id="Warstwa_1" xmlns="http://www.w3.org/2000/svg" xmlns:xlink="http://www.w3.org/1999/xlink" x="0px" y="0px"
	 viewBox="0 0 100 100" style="enable-background:new 0 0 100 100;" xml:space="preserve">
<style type="text/css">
	.st0{fill:url(#SVGID_1_);}
	.st1{fill:url(#SVGID_2_);}
	.st2{fill:#FFFFFF;}
</style>
<g>
	<g>
		
			<radialGradient id="SVGID_1_" cx="56.0719" cy="37.3518" r="40.0336" gradientTransform="matrix(0.7071 0.7071 0.7071 -0.7071 -16.0574 36.7605)" gradientUnits="userSpaceOnUse">
			<stop  offset="0.7828" style="stop-color:#FFFFFF"/>
			<stop  offset="1" style="stop-color:#BBBBBB"/>
		</radialGradient>
		<circle class="st0" cx="50" cy="50" r="40"/>
		
			<linearGradient id="SVGID_2_" gradientUnits="userSpaceOnUse" x1="16.0444" y1="335.4112" x2="96.0995" y2="335.4112" gradientTransform="matrix(0.7071 0.7071 0.7071 -0.7071 -226.7752 247.4783)">
			<stop  offset="0" style="stop-color:#5F5F5F"/>
			<stop  offset="0.5301" style="stop-color:#FFFFFF"/>
			<stop  offset="1" style="stop-color:#353535"/>
		</linearGradient>
		<path class="st1" d="M77,23c14.9,14.9,14.9,39.2,0,54s-39.2,14.9-54,0S8,37.9,22.9,23S62.1,8.1,77,23 M78.3,21.7
			C62.7,6,37.4,6,21.7,21.7s-15.6,41,0,56.6s41,15.6,56.6,0S94,37.3,78.3,21.7L78.3,21.7z"/>
	</g>
</g>
<g>
	<g>
		<polygon class="st2" points="27.8,74.7 22.5,79.5 17.1,85.4 22.8,79.9 		"/>
		<polygon class="st2" points="24.1,74.8 22.5,79.3 21.5,84.5 23,79.5 		"/>
		<polygon class="st2" points="21.5,74.8 22.5,79.5 24.1,84.5 22.9,79.4 		"/>
		<polygon class="st2" points="17.7,74.6 22.2,79.5 27.7,84.5 22.5,79.2 		"/>
		<polygon class="st2" points="18,78.3 22.5,79.9 27.7,81 22.6,79.5 		"/>
		<polygon class="st2" points="18,81 22.6,80 27.7,78.3 22.5,79.6 		"/>
	</g>
	<g>
		<polygon class="st2" points="85.2,18.2 79.9,23.1 74.5,28.9 80.2,23.4 		"/>
		<polygon class="st2" points="81.5,18.4 79.9,22.9 78.9,28.1 80.4,23 		"/>
		<polygon class="st2" points="78.9,18.4 79.9,23.1 81.5,28.1 80.3,22.9 		"/>
		<polygon class="st2" points="75.1,18.2 79.6,23.1 85.1,28.1 79.9,22.8 		"/>
		<polygon class="st2" points="75.4,21.9 79.9,23.4 85.1,24.5 80,23 		"/>
		<polygon class="st2" points="75.4,24.5 80,23.6 85.1,21.9 79.9,23.2 		"/>
	</g>
</g>
</svg>
