<?xml version="1.0" encoding="utf-8"?>
<!-- Generator: Adobe Illustrator 23.1.1, SVG Export Plug-In . SVG Version: 6.00 Build 0)  -->
<svg version="1.1" xmlns="http://www.w3.org/2000/svg" xmlns:xlink="http://www.w3.org/1999/xlink" x="0px" y="0px"
	 viewBox="0 0 100 100" style="enable-background:new 0 0 100 100;" xml:space="preserve">
<style type="text/css">
	.st0{fill:url(#SVGID_1_);}
	.st1{fill:url(#SVGID_2_);}
	.st2{fill:#FFFFFF;}
	.st3{display:none;}
	.st4{display:inline;fill:#B02D70;}
	.st5{font-family:'OpenSans-ExtraBold';}
	.st6{font-size:9px;}
	.st7{font-size:5.247px;}
	.st8{fill:#B02D70;}
</style>
<g id="Warstwa_1">
	<g>
		<g>
			<g>
				
					<radialGradient id="SVGID_1_" cx="135.6167" cy="-156.6641" r="40.0004" gradientTransform="matrix(0.7071 0.7071 0.7071 -0.7071 64.8826 -156.6717)" gradientUnits="userSpaceOnUse">
					<stop  offset="0.7828" style="stop-color:#FFFFFF"/>
					<stop  offset="1" style="stop-color:#BBBBBB"/>
				</radialGradient>
				<circle class="st0" cx="50" cy="50" r="40"/>
				
					<linearGradient id="SVGID_2_" gradientUnits="userSpaceOnUse" x1="95.594" y1="141.3389" x2="175.6393" y2="141.3389" gradientTransform="matrix(0.7071 0.7071 0.7071 -0.7071 -145.8352 54.0461)">
					<stop  offset="0" style="stop-color:#5F5F5F"/>
					<stop  offset="0.5301" style="stop-color:#FFFFFF"/>
					<stop  offset="1" style="stop-color:#353535"/>
				</linearGradient>
				<path class="st1" d="M77,23c14.9,14.9,14.9,39.2,0,54s-39.2,14.9-54,0S8,37.9,22.9,23S62.1,8.1,77,23 M78.3,21.7
					C62.7,6,37.4,6,21.7,21.7s-15.6,41,0,56.6s41,15.6,56.6,0S94,37.3,78.3,21.7L78.3,21.7z"/>
			</g>
		</g>
		<g>
			<g>
				<polygon class="st2" points="27.8,74.7 22.5,79.5 17.1,85.4 22.8,79.9 				"/>
				<polygon class="st2" points="24.1,74.8 22.5,79.3 21.5,84.5 23,79.5 				"/>
				<polygon class="st2" points="21.5,74.8 22.5,79.5 24.1,84.5 22.9,79.4 				"/>
				<polygon class="st2" points="17.7,74.6 22.2,79.5 27.7,84.5 22.5,79.2 				"/>
				<polygon class="st2" points="18,78.3 22.5,79.9 27.7,81 22.6,79.5 				"/>
				<polygon class="st2" points="18,81 22.6,80 27.7,78.3 22.5,79.6 				"/>
			</g>
			<g>
				<polygon class="st2" points="85.2,18.2 79.9,23.1 74.5,28.9 80.2,23.4 				"/>
				<polygon class="st2" points="81.5,18.4 79.9,22.9 78.9,28.1 80.4,23 				"/>
				<polygon class="st2" points="78.9,18.4 79.9,23.1 81.5,28.1 80.3,22.9 				"/>
				<polygon class="st2" points="75.1,18.2 79.6,23.1 85.1,28.1 79.9,22.8 				"/>
				<polygon class="st2" points="75.4,21.9 79.9,23.4 85.1,24.5 80,23 				"/>
				<polygon class="st2" points="75.4,24.5 80,23.6 85.1,21.9 79.9,23.2 				"/>
			</g>
		</g>
	</g>
	<g class="st3">
		<text transform="matrix(1 0 0 1 43.2963 40.4409)" class="st4 st5 st6">już</text>
		<text transform="matrix(1 0 0 1 18.6738 51.2407)" class="st4 st5 st6">od 6 miesiąca</text>
		<text transform="matrix(1 0 0 1 36.9238 62.0405)" class="st4 st5 st6">życia</text>
		<text transform="matrix(1 0 0 1 60.3594 59.043)" class="st4 st5 st7">*</text>
	</g>
</g>
<g id="Warstwa_2">
	<g>
		<path class="st8" d="M29,42.8c0.4,0,0.8,0.2,1.1,0.6c0.3,0.4,0.4,0.9,0.4,1.5c0,0.7-0.1,1.2-0.4,1.6c-0.3,0.4-0.6,0.6-1.1,0.6
			c-0.2,0-0.3,0-0.4,0c-0.1,0-0.2-0.1-0.3-0.1s-0.2-0.2-0.3-0.3h-0.1L27.6,47h-1.1v-5.6H28v1.3c0,0.2,0,0.4-0.1,0.8H28
			c0.1-0.2,0.3-0.4,0.5-0.5S28.8,42.8,29,42.8z M28.5,44c-0.2,0-0.3,0.1-0.4,0.2C28,44.3,28,44.5,28,44.8V45c0,0.3,0,0.6,0.1,0.7
			c0.1,0.1,0.2,0.2,0.4,0.2c0.2,0,0.3-0.1,0.4-0.3c0.1-0.2,0.1-0.4,0.1-0.7C29.1,44.3,28.9,44,28.5,44z"/>
		<path class="st8" d="M33.3,47.1c-0.7,0-1.2-0.2-1.6-0.5c-0.4-0.4-0.6-0.9-0.6-1.5c0-0.7,0.2-1.2,0.5-1.6c0.3-0.4,0.8-0.6,1.5-0.6
			c0.6,0,1.1,0.2,1.4,0.5s0.5,0.8,0.5,1.4v0.6h-2.5c0,0.2,0.1,0.4,0.3,0.5c0.2,0.1,0.4,0.2,0.6,0.2c0.2,0,0.5,0,0.7-0.1
			s0.4-0.1,0.7-0.2v1c-0.2,0.1-0.4,0.2-0.7,0.2C33.9,47.1,33.6,47.1,33.3,47.1z M33.2,43.8c-0.2,0-0.3,0.1-0.4,0.2s-0.2,0.3-0.2,0.5
			h1.2c0-0.2-0.1-0.4-0.2-0.5C33.5,43.9,33.4,43.8,33.2,43.8z"/>
		<path class="st8" d="M38.9,47h-3.4v-0.8l1.7-2.2h-1.6v-1.1h3.2v0.9l-1.6,2.1h1.7V47z"/>
		<path class="st8" d="M44.2,47l-0.3-0.5h0c-0.2,0.2-0.4,0.4-0.6,0.5c-0.2,0.1-0.5,0.1-0.8,0.1c-0.4,0-0.7-0.1-0.9-0.3
			c-0.2-0.2-0.3-0.6-0.3-1c0-0.4,0.2-0.8,0.5-1s0.7-0.3,1.3-0.4l0.7,0v-0.1c0-0.3-0.2-0.5-0.5-0.5c-0.3,0-0.7,0.1-1.1,0.3l-0.4-0.9
			c0.5-0.2,1.1-0.4,1.8-0.4c0.5,0,0.9,0.1,1.2,0.4s0.4,0.6,0.4,1.1V47H44.2z M43.1,46.1c0.2,0,0.3-0.1,0.4-0.2
			c0.1-0.1,0.2-0.2,0.2-0.4v-0.3l-0.3,0c-0.5,0-0.7,0.2-0.7,0.5C42.7,46,42.9,46.1,43.1,46.1z"/>
		<path class="st8" d="M47.5,47h-1.4v-5.6h1.4V47z"/>
		<path class="st8" d="M49.9,44.7c0.2-0.3,0.3-0.5,0.4-0.6l0.9-1.2h1.6l-1.4,1.7l1.5,2.3h-1.6l-0.9-1.5l-0.5,0.4V47h-1.4v-5.6h1.4
			v2.2C49.9,44,49.9,44.4,49.9,44.7L49.9,44.7z"/>
		<path class="st8" d="M57.3,45c0,0.7-0.2,1.2-0.5,1.6c-0.4,0.4-0.9,0.6-1.5,0.6c-0.6,0-1.1-0.2-1.5-0.6c-0.4-0.4-0.5-0.9-0.5-1.6
			c0-0.7,0.2-1.2,0.5-1.6s0.9-0.6,1.5-0.6c0.4,0,0.8,0.1,1.1,0.3c0.3,0.2,0.5,0.4,0.7,0.7C57.2,44.2,57.3,44.5,57.3,45z M54.6,45
			c0,0.4,0,0.6,0.1,0.8S55,46,55.3,46c0.2,0,0.4-0.1,0.5-0.3c0.1-0.2,0.1-0.5,0.1-0.8c0-0.3,0-0.6-0.1-0.8c-0.1-0.2-0.2-0.3-0.5-0.3
			c-0.2,0-0.4,0.1-0.5,0.3C54.7,44.3,54.6,44.6,54.6,45z"/>
		<path class="st8" d="M60.7,47v-2.2c0-0.5-0.2-0.8-0.5-0.8c-0.2,0-0.4,0.1-0.5,0.3c-0.1,0.2-0.2,0.5-0.2,1V47h-1.4v-5.6h1.4v0.8
			c0,0.4,0,0.8-0.1,1.2h0.1c0.1-0.2,0.3-0.4,0.5-0.4c0.2-0.1,0.4-0.1,0.6-0.1c0.5,0,0.8,0.1,1.1,0.4c0.3,0.3,0.4,0.6,0.4,1.1V47
			H60.7z"/>
		<path class="st8" d="M67,45c0,0.7-0.2,1.2-0.5,1.6c-0.4,0.4-0.9,0.6-1.5,0.6c-0.6,0-1.1-0.2-1.5-0.6c-0.4-0.4-0.5-0.9-0.5-1.6
			c0-0.7,0.2-1.2,0.5-1.6c0.4-0.4,0.9-0.6,1.5-0.6c0.4,0,0.8,0.1,1.1,0.3c0.3,0.2,0.5,0.4,0.7,0.7C66.9,44.2,67,44.5,67,45z
			 M64.3,45c0,0.4,0,0.6,0.1,0.8s0.3,0.3,0.5,0.3c0.2,0,0.4-0.1,0.5-0.3s0.1-0.5,0.1-0.8c0-0.3,0-0.6-0.1-0.8
			c-0.1-0.2-0.2-0.3-0.5-0.3c-0.2,0-0.4,0.1-0.5,0.3C64.4,44.3,64.3,44.6,64.3,45z"/>
		<path class="st8" d="M69.2,47h-1.4v-5.6h1.4V47z"/>
		<path class="st8" d="M73.1,47l-0.2-0.5h-0.1c-0.1,0.2-0.3,0.3-0.5,0.4c-0.2,0.1-0.5,0.1-0.7,0.1c-0.5,0-0.8-0.1-1-0.4
			s-0.4-0.6-0.4-1.1v-2.7h1.4v2.2c0,0.3,0,0.5,0.1,0.6c0.1,0.1,0.2,0.2,0.4,0.2c0.2,0,0.4-0.1,0.5-0.3c0.1-0.2,0.2-0.5,0.2-1v-1.8
			h1.4V47H73.1z"/>
	</g>
	<g>
		<path class="st8" d="M34.7,54.7c0.4,0,0.8,0.2,1.1,0.6c0.3,0.4,0.4,0.9,0.4,1.5c0,0.7-0.1,1.2-0.4,1.6c-0.3,0.4-0.6,0.6-1.1,0.6
			c-0.2,0-0.3,0-0.4,0c-0.1,0-0.2-0.1-0.3-0.1s-0.2-0.2-0.3-0.3h-0.1l-0.2,0.4h-1.1v-5.6h1.4v1.3c0,0.2,0,0.4-0.1,0.8h0.1
			c0.1-0.2,0.3-0.4,0.5-0.5S34.5,54.7,34.7,54.7z M34.2,55.8c-0.2,0-0.3,0.1-0.4,0.2c-0.1,0.1-0.1,0.4-0.1,0.6v0.2
			c0,0.3,0,0.6,0.1,0.7c0.1,0.1,0.2,0.2,0.4,0.2c0.2,0,0.3-0.1,0.4-0.3s0.1-0.4,0.1-0.7C34.7,56.1,34.5,55.8,34.2,55.8z"/>
		<path class="st8" d="M38.9,58.9c-0.7,0-1.2-0.2-1.6-0.5c-0.4-0.4-0.6-0.9-0.6-1.5c0-0.7,0.2-1.2,0.5-1.6c0.3-0.4,0.8-0.6,1.5-0.6
			c0.6,0,1.1,0.2,1.4,0.5s0.5,0.8,0.5,1.4v0.6h-2.5c0,0.2,0.1,0.4,0.3,0.5c0.2,0.1,0.4,0.2,0.6,0.2c0.2,0,0.5,0,0.7-0.1
			s0.4-0.1,0.7-0.2v1c-0.2,0.1-0.4,0.2-0.7,0.2S39.3,58.9,38.9,58.9z M38.9,55.6c-0.2,0-0.3,0.1-0.4,0.2s-0.2,0.3-0.2,0.5h1.2
			c0-0.2-0.1-0.4-0.2-0.5C39.2,55.7,39,55.6,38.9,55.6z"/>
		<path class="st8" d="M44.6,58.8h-3.4V58l1.7-2.2h-1.6v-1.1h3.2v0.9l-1.6,2.1h1.7V58.8z"/>
		<path class="st8" d="M49.1,58.9c-0.7,0-1.2-0.2-1.5-0.5C47.2,58,47,57.5,47,56.8c0-0.7,0.2-1.2,0.6-1.6s0.9-0.6,1.6-0.6
			c0.5,0,0.9,0.1,1.3,0.3l-0.4,1c-0.2-0.1-0.3-0.1-0.5-0.2c-0.1,0-0.3-0.1-0.5-0.1c-0.2,0-0.4,0.1-0.5,0.3s-0.2,0.4-0.2,0.8
			c0,0.7,0.2,1,0.7,1c0.4,0,0.8-0.1,1.2-0.4v1.1C50,58.8,49.6,58.9,49.1,58.9z"/>
		<path class="st8" d="M54.1,58.8l-0.2-0.5h-0.1c-0.1,0.2-0.3,0.3-0.5,0.4c-0.2,0.1-0.5,0.2-0.7,0.2c-0.4,0-0.8-0.1-1-0.4
			c-0.2-0.3-0.4-0.6-0.4-1.1v-2.7h1.4V57c0,0.3,0,0.5,0.1,0.6c0.1,0.1,0.2,0.2,0.4,0.2c0.2,0,0.4-0.1,0.5-0.3c0.1-0.2,0.2-0.5,0.2-1
			v-1.8h1.4v4.1H54.1z"/>
		<path class="st8" d="M57.5,56.5c0.2-0.3,0.3-0.5,0.4-0.6l0.9-1.2h1.6L59,56.5l1.5,2.3h-1.6L58,57.3l-0.5,0.4v1.1h-1.4v-5.6h1.4
			v2.2C57.6,55.8,57.5,56.2,57.5,56.5L57.5,56.5z"/>
		<path class="st8" d="M63.5,54.7c0.1,0,0.2,0,0.4,0l0.1,0L63.8,56c-0.1,0-0.3,0-0.5,0c-0.3,0-0.5,0.1-0.7,0.2s-0.2,0.3-0.2,0.6v2
			H61v-4.1h1l0.2,0.7h0.1c0.1-0.2,0.3-0.4,0.5-0.5C63.1,54.7,63.3,54.7,63.5,54.7z"/>
		<path class="st8" d="M67.4,58.8l-0.2-0.5h-0.1c-0.1,0.2-0.3,0.3-0.5,0.4c-0.2,0.1-0.5,0.2-0.7,0.2c-0.5,0-0.8-0.1-1-0.4
			c-0.2-0.3-0.4-0.6-0.4-1.1v-2.7h1.4V57c0,0.3,0,0.5,0.1,0.6c0.1,0.1,0.2,0.2,0.4,0.2c0.2,0,0.4-0.1,0.5-0.3s0.2-0.5,0.2-1v-1.8
			h1.4v4.1H67.4z"/>
	</g>
</g>
</svg>
