<svg xmlns="http://www.w3.org/2000/svg" xmlns:xlink="http://www.w3.org/1999/xlink" viewBox="0 0 100 100"><defs><style>.cls-1{fill:url(#Gradient_bez_nazwy);}.cls-2{fill:url(#Gradient_bez_nazwy_2);}.cls-3{fill:#fff;}.cls-4{fill:#b02d70;}</style><radialGradient id="Gradient_bez_nazwy" cx="135.62" cy="-156.66" r="40" gradientTransform="matrix(0.71, 0.71, 0.71, -0.71, 64.88, -156.67)" gradientUnits="userSpaceOnUse"><stop offset="0.78" stop-color="#fff"/><stop offset="1" stop-color="#bbb"/></radialGradient><linearGradient id="Gradient_bez_nazwy_2" x1="95.59" y1="141.34" x2="175.64" y2="141.34" gradientTransform="matrix(0.71, 0.71, 0.71, -0.71, -145.84, 54.05)" gradientUnits="userSpaceOnUse"><stop offset="0" stop-color="#5f5f5f"/><stop offset="0.53" stop-color="#fff"/><stop offset="1" stop-color="#353535"/></linearGradient></defs><title>kolko_WHO</title><g id="Warstwa_1" data-name="Warstwa 1"><circle class="cls-1" cx="50" cy="50" r="40"/><path class="cls-2" d="M77,23a38.18,38.18,0,1,1-54.1,0A38.2,38.2,0,0,1,77,23m1.3-1.3a40,40,0,1,0,0,56.6,39.9,39.9,0,0,0,0-56.6Z"/><polygon class="cls-3" points="27.8 74.7 22.5 79.5 17.1 85.4 22.8 79.9 27.8 74.7"/><polygon class="cls-3" points="24.1 74.8 22.5 79.3 21.5 84.5 23 79.5 24.1 74.8"/><polygon class="cls-3" points="21.5 74.8 22.5 79.5 24.1 84.5 22.9 79.4 21.5 74.8"/><polygon class="cls-3" points="17.7 74.6 22.2 79.5 27.7 84.5 22.5 79.2 17.7 74.6"/><polygon class="cls-3" points="18 78.3 22.5 79.9 27.7 81 22.6 79.5 18 78.3"/><polygon class="cls-3" points="18 81 22.6 80 27.7 78.3 22.5 79.6 18 81"/><polygon class="cls-3" points="85.2 18.2 79.9 23.1 74.5 28.9 80.2 23.4 85.2 18.2"/><polygon class="cls-3" points="81.5 18.4 79.9 22.9 78.9 28.1 80.4 23 81.5 18.4"/><polygon class="cls-3" points="78.9 18.4 79.9 23.1 81.5 28.1 80.3 22.9 78.9 18.4"/><polygon class="cls-3" points="75.1 18.2 79.6 23.1 85.1 28.1 79.9 22.8 75.1 18.2"/><polygon class="cls-3" points="75.4 21.9 79.9 23.4 85.1 24.5 80 23 75.4 21.9"/><polygon class="cls-3" points="75.4 24.5 80 23.6 85.1 21.9 79.9 23.2 75.4 24.5"/></g><g id="Warstwa_2" data-name="Warstwa 2"><path class="cls-4" d="M24.13,38.11V40H22.7V34.75h1.73c1.43,0,2.15.52,2.15,1.56a1.57,1.57,0,0,1-.89,1.42L27.22,40H25.61l-1.12-1.92Zm0-1.07h.26c.5,0,.75-.23.75-.66s-.24-.55-.73-.55h-.28Z"/><path class="cls-4" d="M29.59,40.1A2.18,2.18,0,0,1,28,39.56,2.05,2.05,0,0,1,27.44,38,2.23,2.23,0,0,1,28,36.42a1.94,1.94,0,0,1,1.49-.55,2,2,0,0,1,1.43.48,1.85,1.85,0,0,1,.5,1.39v.62H28.87a.7.7,0,0,0,.25.54,1,1,0,0,0,.64.2,2.9,2.9,0,0,0,1.36-.31v1a2.48,2.48,0,0,1-.68.23A4.22,4.22,0,0,1,29.59,40.1Zm-.08-3.27a.64.64,0,0,0-.42.15.77.77,0,0,0-.19.5h1.21a.69.69,0,0,0-.17-.48A.53.53,0,0,0,29.51,36.83Z"/><path class="cls-4" d="M33.56,37.73a7.68,7.68,0,0,1,.43-.64l.92-1.15h1.57l-1.41,1.74L36.57,40H35l-.89-1.47-.46.35V40H32.19V34.41h1.42v2.21a8.05,8.05,0,0,1-.08,1.11Z"/><path class="cls-4" d="M41,38a2.19,2.19,0,0,1-.54,1.57,2,2,0,0,1-1.51.56,2,2,0,0,1-1.49-.57A2.2,2.2,0,0,1,36.88,38a2.13,2.13,0,0,1,.54-1.55,2,2,0,0,1,1.52-.55,2.16,2.16,0,0,1,1.06.25,1.69,1.69,0,0,1,.71.74A2.33,2.33,0,0,1,41,38Zm-2.65,0a1.79,1.79,0,0,0,.14.81.48.48,0,0,0,.47.27.47.47,0,0,0,.46-.27,1.93,1.93,0,0,0,.14-.81,1.8,1.8,0,0,0-.14-.79.49.49,0,0,0-.47-.26.47.47,0,0,0-.46.26A1.67,1.67,0,0,0,38.32,38Z"/><path class="cls-4" d="M46.79,40V37.8a1.43,1.43,0,0,0-.11-.62.39.39,0,0,0-.36-.21.52.52,0,0,0-.48.28,1.94,1.94,0,0,0-.15.87V40H44.27V37.8a1.45,1.45,0,0,0-.1-.62.37.37,0,0,0-.35-.21.52.52,0,0,0-.49.3,2.3,2.3,0,0,0-.15,1V40H41.77V35.94h1.06l.18.5h.08a1.12,1.12,0,0,1,.48-.43,1.71,1.71,0,0,1,.7-.14,1.39,1.39,0,0,1,1.24.53h.11A1.24,1.24,0,0,1,46.1,36a1.56,1.56,0,0,1,.68-.14,1.38,1.38,0,0,1,1.07.37,1.56,1.56,0,0,1,.35,1.13V40Z"/><path class="cls-4" d="M51.13,40.1a2.19,2.19,0,0,1-1.58-.54A2.05,2.05,0,0,1,49,38a2.23,2.23,0,0,1,.53-1.59A1.94,1.94,0,0,1,51,35.87a2,2,0,0,1,1.43.48,1.85,1.85,0,0,1,.5,1.39v.62H50.41a.7.7,0,0,0,.25.54,1,1,0,0,0,.64.2A3.66,3.66,0,0,0,52,39a4,4,0,0,0,.68-.24v1A2.67,2.67,0,0,1,52,40,4.22,4.22,0,0,1,51.13,40.1Zm-.08-3.27a.64.64,0,0,0-.42.15.77.77,0,0,0-.19.5h1.21a.69.69,0,0,0-.17-.48A.53.53,0,0,0,51.05,36.83Z"/><path class="cls-4" d="M56.31,40V37.8a1.26,1.26,0,0,0-.12-.62.39.39,0,0,0-.37-.21.56.56,0,0,0-.52.29,2.09,2.09,0,0,0-.16,1V40H53.73V35.94h1.06l.18.5h.08a1.17,1.17,0,0,1,.5-.43,1.75,1.75,0,0,1,.74-.14,1.39,1.39,0,0,1,1.05.39,1.54,1.54,0,0,1,.38,1.11V40Z"/><path class="cls-4" d="M60,40.1a1.2,1.2,0,0,1-.76-.25,1.6,1.6,0,0,1-.51-.73A3.27,3.27,0,0,1,58.5,38a2.68,2.68,0,0,1,.4-1.56,1.28,1.28,0,0,1,1.1-.56,1.33,1.33,0,0,1,.61.13,1.46,1.46,0,0,1,.47.46h0a6,6,0,0,1-.07-1v-1.1h1.42V40H61.39l-.3-.52H61A1.22,1.22,0,0,1,60,40.1ZM60.53,39a.55.55,0,0,0,.48-.21,1.34,1.34,0,0,0,.15-.66V38a1.45,1.45,0,0,0-.16-.77.54.54,0,0,0-.49-.23.49.49,0,0,0-.43.26,1.56,1.56,0,0,0-.15.75,1.38,1.38,0,0,0,.15.72A.51.51,0,0,0,60.53,39Z"/><path class="cls-4" d="M66.1,40l-.27-.54h0a1.66,1.66,0,0,1-.58.48,1.85,1.85,0,0,1-.76.13,1.24,1.24,0,0,1-.92-.35,1.34,1.34,0,0,1-.33-1,1.11,1.11,0,0,1,.46-1A2.36,2.36,0,0,1,65,37.45l.68,0v-.05a.45.45,0,0,0-.5-.51,2.88,2.88,0,0,0-1.14.31l-.41-.94a4,4,0,0,1,1.81-.36,1.77,1.77,0,0,1,1.22.39,1.41,1.41,0,0,1,.43,1.09V40Zm-1-.93a.63.63,0,0,0,.44-.16.54.54,0,0,0,.18-.42V38.2l-.32,0c-.46,0-.7.18-.7.51S64.79,39.1,65.05,39.1Z"/><path class="cls-4" d="M69.9,40.1a2,2,0,0,1-1.52-.54A2.15,2.15,0,0,1,67.86,38,1.95,1.95,0,0,1,70,35.87a2.93,2.93,0,0,1,1.34.31l-.41,1a3.25,3.25,0,0,0-.48-.18A1.63,1.63,0,0,0,70,37a.61.61,0,0,0-.53.27,1.35,1.35,0,0,0-.19.76c0,.65.25,1,.73,1a2.2,2.2,0,0,0,1.19-.36v1.12A2.32,2.32,0,0,1,69.9,40.1Z"/><path class="cls-4" d="M71.92,41.8l-.4,0a2.08,2.08,0,0,1-.36-.07v-1.1a1.75,1.75,0,0,0,.43.07c.29,0,.43-.21.43-.62V35.94h1.41v4.42A1.43,1.43,0,0,1,73,41.42,1.58,1.58,0,0,1,71.92,41.8ZM72,34.92a.58.58,0,0,1,.17-.47.83.83,0,0,1,.57-.16.89.89,0,0,1,.58.16.6.6,0,0,1,.18.47c0,.41-.25.62-.76.62S72,35.33,72,34.92Z"/><path class="cls-4" d="M77.09,40l-.27-.54h0a1.76,1.76,0,0,1-.58.48,1.9,1.9,0,0,1-.77.13,1.2,1.2,0,0,1-.91-.35,1.34,1.34,0,0,1-.33-1,1.1,1.1,0,0,1,.45-1A2.41,2.41,0,0,1,76,37.45l.68,0v-.05a.44.44,0,0,0-.5-.51,2.88,2.88,0,0,0-1.13.31l-.41-.94a4,4,0,0,1,1.8-.36,1.75,1.75,0,0,1,1.22.39,1.38,1.38,0,0,1,.43,1.09V40Zm-1-.93a.63.63,0,0,0,.44-.16.54.54,0,0,0,.18-.42V38.2l-.33,0q-.69,0-.69.51C75.64,39,75.77,39.1,76,39.1Z"/><path class="cls-4" d="M34.45,47.29a1.56,1.56,0,0,1-.25.88,1.61,1.61,0,0,1-.71.59,2.7,2.7,0,0,1-1.1.21,4.37,4.37,0,0,1-.89-.08,3.4,3.4,0,0,1-.74-.25V47.37a4.8,4.8,0,0,0,.85.32,3,3,0,0,0,.8.12.81.81,0,0,0,.47-.11.33.33,0,0,0,.15-.28.29.29,0,0,0-.06-.19.65.65,0,0,0-.19-.17c-.09-.05-.32-.17-.7-.34a3,3,0,0,1-.78-.45,1.42,1.42,0,0,1-.38-.51,1.7,1.7,0,0,1-.13-.67A1.36,1.36,0,0,1,31.32,44a2.37,2.37,0,0,1,1.46-.41,4.09,4.09,0,0,1,1.67.38L34,45a3.3,3.3,0,0,0-1.28-.34.67.67,0,0,0-.4.1.3.3,0,0,0-.13.24.33.33,0,0,0,.16.28,7.13,7.13,0,0,0,.87.45,2.31,2.31,0,0,1,.95.66A1.39,1.39,0,0,1,34.45,47.29ZM31.94,43.2v-.11c.37-.39.6-.65.7-.77s.18-.22.25-.31h1.54v.08c-.19.15-.45.35-.79.59s-.59.41-.77.52Z"/><path class="cls-4" d="M38.71,48.9,38.24,47l-.11-.59-.07-.47h0c-.12.67-.2,1.09-.24,1.27l-.41,1.74H35.9l-1.11-4.09h1.39l.33,1.57a8,8,0,0,1,.18,1.34h0a7.78,7.78,0,0,1,.2-1.26l.37-1.65h1.56l.35,1.67c.11.53.18.94.21,1.24h0c0-.18,0-.41.07-.68s.07-.5.11-.66L40,44.81h1.36L40.21,48.9Z"/><path class="cls-4" d="M41.88,43.79a.58.58,0,0,1,.18-.47.83.83,0,0,1,.57-.16.87.87,0,0,1,.58.16.6.6,0,0,1,.18.47c0,.41-.26.62-.76.62S41.88,44.2,41.88,43.79Zm1.45,5.11H41.92V44.81h1.41Z"/><path class="cls-4" d="M47,48.9l-.27-.55h0a1.6,1.6,0,0,1-.58.49,2,2,0,0,1-.76.13,1.2,1.2,0,0,1-.91-.35,1.34,1.34,0,0,1-.33-1,1.13,1.13,0,0,1,.45-1,2.45,2.45,0,0,1,1.32-.35l.68,0v0a.45.45,0,0,0-.5-.51,3,3,0,0,0-1.13.3l-.41-.93a4,4,0,0,1,1.8-.37,1.75,1.75,0,0,1,1.22.39A1.39,1.39,0,0,1,48,46.21V48.9Zm-1-.93a.65.65,0,0,0,.44-.16.54.54,0,0,0,.18-.42v-.32h-.33c-.46,0-.69.19-.69.52S45.67,48,45.94,48Z"/><path class="cls-4" d="M50.92,47.85a2,2,0,0,0,.69-.14v1a3.51,3.51,0,0,1-.55.18,3.45,3.45,0,0,1-.6,0,1.33,1.33,0,0,1-1-.35,1.55,1.55,0,0,1-.31-1.07V45.86h-.5v-.57l.63-.44.37-.86h.92v.82h1v1h-1v1.6A.34.34,0,0,0,50.92,47.85Z"/><path class="cls-4" d="M56.22,46.84a2.23,2.23,0,0,1-.53,1.57,2,2,0,0,1-1.52.56,1.94,1.94,0,0,1-1.48-.58,2.17,2.17,0,0,1-.55-1.55,2.13,2.13,0,0,1,.54-1.55,2,2,0,0,1,1.52-.56,2.16,2.16,0,0,1,1.06.26,1.69,1.69,0,0,1,.71.74A2.3,2.3,0,0,1,56.22,46.84Zm-2.64,0a1.79,1.79,0,0,0,.14.81.48.48,0,0,0,.47.27.47.47,0,0,0,.46-.27,1.93,1.93,0,0,0,.14-.81,1.8,1.8,0,0,0-.14-.79.48.48,0,0,0-.47-.27.48.48,0,0,0-.46.27A1.67,1.67,0,0,0,53.58,46.84Z"/><path class="cls-4" d="M60.55,48.9,60.09,47,60,46.36l-.07-.47h0c-.11.67-.19,1.09-.23,1.27l-.42,1.74H57.75l-1.12-4.09H58l.33,1.57a9.47,9.47,0,0,1,.19,1.34h0a9.16,9.16,0,0,1,.2-1.26l.38-1.65H60.7L61,46.48c.11.53.18.94.21,1.24h0c0-.18,0-.41.08-.68a5,5,0,0,1,.11-.66l.36-1.57h1.36L62.06,48.9Z"/><path class="cls-4" d="M65.73,49a2.18,2.18,0,0,1-1.59-.55,2,2,0,0,1-.56-1.54,2.22,2.22,0,0,1,.52-1.59A2.3,2.3,0,0,1,67,45.22a1.8,1.8,0,0,1,.51,1.38v.63H65a.7.7,0,0,0,.26.54,1,1,0,0,0,.64.19,2.84,2.84,0,0,0,.68-.07,2.65,2.65,0,0,0,.68-.24v1a2.48,2.48,0,0,1-.68.23A4.22,4.22,0,0,1,65.73,49Zm-.08-3.28a.61.61,0,0,0-.42.16.76.76,0,0,0-.2.49h1.22a.73.73,0,0,0-.17-.47A.55.55,0,0,0,65.65,45.69Z"/><path class="cls-4" d="M68.22,50.67l-.4,0a2.22,2.22,0,0,1-.36-.06v-1.1a1.78,1.78,0,0,0,.44.06c.28,0,.43-.2.43-.61V44.81h1.41v4.42a1.43,1.43,0,0,1-.4,1.06A1.57,1.57,0,0,1,68.22,50.67Zm.07-6.88a.58.58,0,0,1,.18-.47.79.79,0,0,1,.57-.16.83.83,0,0,1,.57.16.6.6,0,0,1,.18.47c0,.41-.25.62-.75.62S68.29,44.2,68.29,43.79Z"/><path class="cls-4" d="M34.38,55.12a2.81,2.81,0,0,1-.66,2,2.46,2.46,0,0,1-1.91.7,2.51,2.51,0,0,1-1.9-.7,2.83,2.83,0,0,1-.66-2,2.8,2.8,0,0,1,.65-2,2.53,2.53,0,0,1,1.92-.69,2.54,2.54,0,0,1,1.91.68A2.88,2.88,0,0,1,34.38,55.12Zm-3.63,0c0,1,.35,1.53,1.06,1.53a.9.9,0,0,0,.8-.37,2.65,2.65,0,0,0,0-2.33.9.9,0,0,0-.79-.37C31.1,53.58,30.75,54.09,30.75,55.12Z"/><path class="cls-4" d="M37.71,53.6a1.9,1.9,0,0,1,.35,0l.08,0L38,55a2.09,2.09,0,0,0-.48,0,.91.91,0,0,0-.67.21.81.81,0,0,0-.21.6v2H35.25V53.68h1l.22.65h.06a1.49,1.49,0,0,1,.5-.53A1.2,1.2,0,0,1,37.71,53.6Z"/><path class="cls-4" d="M42.57,53.68v.68l-.56.2a1,1,0,0,1,.12.49,1.25,1.25,0,0,1-.47,1,2.23,2.23,0,0,1-1.38.36,1.73,1.73,0,0,1-.36,0,.41.41,0,0,0-.05.18c0,.07.06.12.17.16a1.36,1.36,0,0,0,.44,0h.68c.92,0,1.38.39,1.38,1.16a1.31,1.31,0,0,1-.64,1.16,3.25,3.25,0,0,1-1.79.42,2.59,2.59,0,0,1-1.34-.29.93.93,0,0,1-.47-.84c0-.48.3-.8.91-.94a.75.75,0,0,1-.33-.26.58.58,0,0,1-.14-.35.55.55,0,0,1,.11-.33,1.4,1.4,0,0,1,.43-.35,1.18,1.18,0,0,1-.5-.44A1.41,1.41,0,0,1,38.6,55a1.25,1.25,0,0,1,.46-1,2,2,0,0,1,1.3-.37l.38,0,.41,0Zm-3.08,4.59a.31.31,0,0,0,.19.28,1,1,0,0,0,.5.11,2.1,2.1,0,0,0,.82-.13c.21-.08.31-.19.31-.33s-.06-.18-.19-.23a1.82,1.82,0,0,0-.54-.06H40a.65.65,0,0,0-.38.1A.3.3,0,0,0,39.49,58.27ZM39.93,55c0,.42.15.63.44.63a.35.35,0,0,0,.31-.15.78.78,0,0,0,.11-.47q0-.63-.42-.63C40.08,54.39,39.93,54.6,39.93,55Z"/><path class="cls-4" d="M45.86,57.76l-.27-.54h0a1.6,1.6,0,0,1-.58.49,2.05,2.05,0,0,1-.77.13,1.23,1.23,0,0,1-.91-.35,1.36,1.36,0,0,1-.33-1,1.11,1.11,0,0,1,.46-1,2.52,2.52,0,0,1,1.31-.36l.69,0v0a.45.45,0,0,0-.5-.51,3,3,0,0,0-1.14.3L43.38,54a4,4,0,0,1,1.81-.37,1.77,1.77,0,0,1,1.22.39,1.43,1.43,0,0,1,.43,1.09v2.68Zm-1-.92a.63.63,0,0,0,.44-.16.54.54,0,0,0,.18-.42v-.32h-.32c-.47,0-.7.19-.7.52S44.55,56.84,44.81,56.84Z"/><path class="cls-4" d="M50.38,57.76V55.53a1.24,1.24,0,0,0-.12-.61.4.4,0,0,0-.38-.21.54.54,0,0,0-.51.29,2.07,2.07,0,0,0-.16,1v1.79H47.8V53.68h1.06l.18.5h.08a1.1,1.1,0,0,1,.5-.43,1.72,1.72,0,0,1,.74-.15,1.39,1.39,0,0,1,1,.4,1.54,1.54,0,0,1,.38,1.11v2.65Z"/><path class="cls-4" d="M52.72,52.66a.58.58,0,0,1,.18-.47.79.79,0,0,1,.57-.16.83.83,0,0,1,.57.16.58.58,0,0,1,.18.47c0,.41-.25.62-.75.62S52.72,53.07,52.72,52.66Zm1.45,5.1H52.76V53.68h1.41Z"/><path class="cls-4" d="M58.23,57.76H54.84V57l1.69-2.21H54.94V53.68h3.21v.87l-1.62,2.14h1.7Z"/><path class="cls-4" d="M61.56,57.76l-.27-.54h0a1.6,1.6,0,0,1-.58.49,2,2,0,0,1-.76.13,1.2,1.2,0,0,1-.91-.35,1.36,1.36,0,0,1-.33-1,1.13,1.13,0,0,1,.45-1,2.53,2.53,0,0,1,1.32-.36l.68,0v0a.45.45,0,0,0-.5-.51,3,3,0,0,0-1.13.3L59.09,54a4,4,0,0,1,1.8-.37,1.75,1.75,0,0,1,1.22.39,1.39,1.39,0,0,1,.43,1.09v2.68Zm-1-.92a.65.65,0,0,0,.44-.16.54.54,0,0,0,.18-.42v-.32h-.33c-.46,0-.69.19-.69.52S60.25,56.84,60.52,56.84Z"/><path class="cls-4" d="M65.37,57.84a2,2,0,0,1-1.53-.54,2.2,2.2,0,0,1-.51-1.56,2.12,2.12,0,0,1,.56-1.58,2.15,2.15,0,0,1,1.59-.56,3.1,3.1,0,0,1,1.34.31L66.4,55a3.16,3.16,0,0,0-.47-.18,1.41,1.41,0,0,0-.45-.07A.6.6,0,0,0,65,55a1.26,1.26,0,0,0-.19.75c0,.66.24,1,.72,1a2.18,2.18,0,0,0,1.19-.36v1.13A2.28,2.28,0,0,1,65.37,57.84Z"/><path class="cls-4" d="M67.38,59.54l-.4,0a2.22,2.22,0,0,1-.36-.06v-1.1a1.78,1.78,0,0,0,.44.06c.28,0,.43-.2.43-.61V53.68H68.9V58.1a1.39,1.39,0,0,1-.4,1.06A1.55,1.55,0,0,1,67.38,59.54Zm.07-6.88a.58.58,0,0,1,.18-.47A.81.81,0,0,1,68.2,52a.83.83,0,0,1,.57.16.58.58,0,0,1,.18.47c0,.41-.25.62-.75.62S67.45,53.07,67.45,52.66Z"/><path class="cls-4" d="M69.85,52.66a.58.58,0,0,1,.18-.47,1.1,1.1,0,0,1,1.14,0,.59.59,0,0,1,.19.47c0,.41-.26.62-.76.62S69.85,53.07,69.85,52.66Zm1.45,5.1H69.89V53.68H71.3Z"/><path class="cls-4" d="M37.26,66.63H33.15v-.88l2.28-3.24H33.2V61.36h4v.87l-2.29,3.25h2.35Z"/><path class="cls-4" d="M39.2,66.71a1.29,1.29,0,0,1-.77-.25,1.64,1.64,0,0,1-.5-.74,3.23,3.23,0,0,1-.18-1.13,2.6,2.6,0,0,1,.4-1.55,1.27,1.27,0,0,1,2.17,0h0a7.75,7.75,0,0,1-.07-1V61h1.43v5.61H40.64l-.3-.51h-.06A1.19,1.19,0,0,1,39.2,66.71Zm.57-1.12a.53.53,0,0,0,.48-.21,1.15,1.15,0,0,0,.15-.66v-.11a1.46,1.46,0,0,0-.15-.77.57.57,0,0,0-.49-.23.47.47,0,0,0-.43.26,1.5,1.5,0,0,0-.15.75,1.43,1.43,0,0,0,.15.72A.48.48,0,0,0,39.77,65.59Z"/><path class="cls-4" d="M45.15,62.47a2,2,0,0,1,.35,0l.08,0-.13,1.33A2,2,0,0,0,45,63.8a.91.91,0,0,0-.67.21.85.85,0,0,0-.21.61v2H42.68V62.54h1l.22.66H44a1.47,1.47,0,0,1,.49-.53A1.2,1.2,0,0,1,45.15,62.47Z"/><path class="cls-4" d="M50.05,64.58a2.14,2.14,0,0,1-.54,1.56,2.23,2.23,0,0,1-3,0,2.48,2.48,0,0,1,0-3.1A2,2,0,0,1,48,62.47a2.17,2.17,0,0,1,1.07.26,1.72,1.72,0,0,1,.71.73A2.34,2.34,0,0,1,50.05,64.58Zm-2.65,0a1.85,1.85,0,0,0,.14.8.5.5,0,0,0,.48.28.46.46,0,0,0,.46-.28,1.85,1.85,0,0,0,.14-.8,1.8,1.8,0,0,0-.14-.79.48.48,0,0,0-.47-.27.49.49,0,0,0-.47.27A1.77,1.77,0,0,0,47.4,64.58Z"/><path class="cls-4" d="M54.38,66.63l-.47-1.95-.11-.58-.07-.48h0c-.12.68-.2,1.1-.24,1.28l-.41,1.73H51.57l-1.11-4.09h1.39l.33,1.57a8.13,8.13,0,0,1,.18,1.35h0a8.71,8.71,0,0,1,.19-1.27L53,62.54h1.56l.35,1.67c.11.54.18,1,.21,1.25h0c0-.19,0-.41.07-.69s.07-.49.11-.66l.36-1.57H57l-1.13,4.09Z"/><path class="cls-4" d="M57.55,61.53a.6.6,0,0,1,.18-.48.88.88,0,0,1,.57-.15.87.87,0,0,1,.58.16.58.58,0,0,1,.18.47c0,.41-.26.62-.76.62S57.55,61.94,57.55,61.53ZM59,66.63H57.59V62.54H59Z"/><path class="cls-4" d="M62.65,66.63l-.27-.54h0a1.6,1.6,0,0,1-.58.49,2,2,0,0,1-.76.13,1.2,1.2,0,0,1-.91-.35,1.37,1.37,0,0,1-.33-1,1.11,1.11,0,0,1,.45-1,2.53,2.53,0,0,1,1.32-.36l.68,0V64a.44.44,0,0,0-.5-.5,3,3,0,0,0-1.14.3l-.4-.93a3.82,3.82,0,0,1,1.8-.37,1.75,1.75,0,0,1,1.22.39A1.38,1.38,0,0,1,63.63,64v2.68Zm-1-.92a.6.6,0,0,0,.43-.16.53.53,0,0,0,.19-.43v-.31H61.9q-.69,0-.69.51C61.21,65.58,61.34,65.71,61.61,65.71Z"/><path class="cls-4" d="M64.22,62.17a2.35,2.35,0,0,1,.11-.71,1.76,1.76,0,0,1,.32-.57H65a1.9,1.9,0,0,0-.31.6,2.33,2.33,0,0,0,0,1.35,2.05,2.05,0,0,0,.3.59h-.35a1.59,1.59,0,0,1-.32-.57A2.17,2.17,0,0,1,64.22,62.17Z"/><path class="cls-4" d="M66.3,63h-.44V61.35l-.16.14-.23.2-.22-.27.67-.53h.37Z"/><path class="cls-4" d="M67.63,62.17a2.28,2.28,0,0,1-.11.7,1.82,1.82,0,0,1-.32.56h-.35a2.32,2.32,0,0,0,.29-.59,2.19,2.19,0,0,0,.11-.67,2.54,2.54,0,0,0-.1-.68,1.9,1.9,0,0,0-.31-.6h.36a1.81,1.81,0,0,1,.32.58A2.28,2.28,0,0,1,67.63,62.17Z"/></g></svg>