<?xml version="1.0" encoding="utf-8"?>
<!-- Generator: Adobe Illustrator 23.1.1, SVG Export Plug-In . SVG Version: 6.00 Build 0)  -->
<svg version="1.1" xmlns="http://www.w3.org/2000/svg" xmlns:xlink="http://www.w3.org/1999/xlink" x="0px" y="0px"
	 viewBox="0 0 100 100" style="enable-background:new 0 0 100 100;" xml:space="preserve">
<style type="text/css">
	.st0{fill:url(#SVGID_1_);}
	.st1{fill:url(#SVGID_2_);}
	.st2{fill:#FFFFFF;}
	.st3{display:none;}
	.st4{display:inline;}
	.st5{fill:#B02D70;}
	.st6{font-family:'OpenSans-ExtraBold';}
	.st7{font-size:9px;}
</style>
<g id="Warstwa_1">
	<g>
		<g>
			
				<radialGradient id="SVGID_1_" cx="135.6167" cy="256.664" r="40.0004" gradientTransform="matrix(0.7071 0.7071 -0.7071 0.7071 135.5926 -227.3817)" gradientUnits="userSpaceOnUse">
				<stop  offset="0.7828" style="stop-color:#FFFFFF"/>
				<stop  offset="1" style="stop-color:#BBBBBB"/>
			</radialGradient>
			<circle class="st0" cx="50" cy="50" r="40"/>
			
				<linearGradient id="SVGID_2_" gradientUnits="userSpaceOnUse" x1="95.5941" y1="-41.3389" x2="175.6393" y2="-41.3389" gradientTransform="matrix(0.7071 0.7071 -0.7071 0.7071 -75.1252 -16.6639)">
				<stop  offset="0" style="stop-color:#5F5F5F"/>
				<stop  offset="0.5301" style="stop-color:#FFFFFF"/>
				<stop  offset="1" style="stop-color:#353535"/>
			</linearGradient>
			<path class="st1" d="M77,23c14.9,14.9,14.9,39.2,0,54s-39.2,14.9-54,0S8,37.9,22.9,23S62.1,8.1,77,23 M78.3,21.7
				C62.7,6,37.4,6,21.7,21.7s-15.6,41,0,56.6s41,15.6,56.6,0S94,37.3,78.3,21.7L78.3,21.7z"/>
		</g>
	</g>
	<g>
		<g>
			<polygon class="st2" points="27.8,74.7 22.5,79.5 17.1,85.4 22.8,79.9 			"/>
			<polygon class="st2" points="24.1,74.8 22.5,79.3 21.5,84.5 23,79.5 			"/>
			<polygon class="st2" points="21.5,74.8 22.5,79.5 24.1,84.5 22.9,79.4 			"/>
			<polygon class="st2" points="17.7,74.6 22.2,79.5 27.7,84.5 22.5,79.2 			"/>
			<polygon class="st2" points="18,78.3 22.5,79.9 27.7,81 22.6,79.5 			"/>
			<polygon class="st2" points="18,81 22.6,80 27.7,78.3 22.5,79.6 			"/>
		</g>
		<g>
			<polygon class="st2" points="85.2,18.2 79.9,23.1 74.5,28.9 80.2,23.4 			"/>
			<polygon class="st2" points="81.5,18.4 79.9,22.9 78.9,28.1 80.4,23 			"/>
			<polygon class="st2" points="78.9,18.4 79.9,23.1 81.5,28.1 80.3,22.9 			"/>
			<polygon class="st2" points="75.1,18.2 79.6,23.1 85.1,28.1 79.9,22.8 			"/>
			<polygon class="st2" points="75.4,21.9 79.9,23.4 85.1,24.5 80,23 			"/>
			<polygon class="st2" points="75.4,24.5 80,23.6 85.1,21.9 79.9,23.2 			"/>
		</g>
	</g>
</g>
<g id="Warstwa_2" class="st3">
	<text transform="matrix(1 0 0 1 30.6289 47.5905)" class="st4"><tspan x="0" y="0" class="st5 st6 st7">na dzień</tspan><tspan x="1.5" y="10.8" class="st5 st6 st7">i na noc</tspan></text>
</g>
<g id="Warstwa_2_kopia">
	<g>
		<path class="st5" d="M34.4,47.6v-2.7c0-0.3,0-0.6-0.1-0.7c-0.1-0.2-0.2-0.3-0.5-0.3c-0.3,0-0.5,0.1-0.6,0.3s-0.2,0.6-0.2,1.2v2.2
			h-1.7v-5h1.3l0.2,0.6h0.1c0.1-0.2,0.3-0.4,0.6-0.5c0.3-0.1,0.6-0.2,0.9-0.2c0.6,0,1,0.2,1.3,0.5s0.5,0.8,0.5,1.3v3.2H34.4z"/>
		<path class="st5" d="M40.5,47.6l-0.3-0.7h0c-0.2,0.3-0.5,0.5-0.7,0.6s-0.6,0.2-0.9,0.2c-0.5,0-0.8-0.1-1.1-0.4S37,46.6,37,46.1
			c0-0.5,0.2-0.9,0.6-1.2c0.4-0.3,0.9-0.4,1.6-0.4l0.8,0v-0.1c0-0.4-0.2-0.6-0.6-0.6c-0.4,0-0.8,0.1-1.4,0.4L37.5,43
			c0.6-0.3,1.3-0.4,2.2-0.4c0.6,0,1.1,0.2,1.5,0.5c0.3,0.3,0.5,0.8,0.5,1.3v3.3H40.5z M39.2,46.5c0.2,0,0.4-0.1,0.5-0.2
			c0.1-0.1,0.2-0.3,0.2-0.5v-0.4l-0.4,0c-0.6,0-0.8,0.2-0.8,0.6C38.7,46.3,38.9,46.5,39.2,46.5z"/>
		<path class="st5" d="M46.7,47.7c-0.4,0-0.7-0.1-0.9-0.3c-0.3-0.2-0.5-0.5-0.6-0.9c-0.1-0.4-0.2-0.9-0.2-1.4c0-0.8,0.2-1.4,0.5-1.9
			s0.8-0.7,1.3-0.7c0.3,0,0.5,0.1,0.7,0.2s0.4,0.3,0.6,0.6h0c-0.1-0.4-0.1-0.8-0.1-1.2v-1.3h1.7v6.8h-1.3L48.1,47h-0.1
			C47.8,47.4,47.3,47.7,46.7,47.7z M47.4,46.3c0.3,0,0.5-0.1,0.6-0.3c0.1-0.2,0.2-0.4,0.2-0.8v-0.1c0-0.4-0.1-0.8-0.2-0.9
			s-0.3-0.3-0.6-0.3c-0.2,0-0.4,0.1-0.5,0.3c-0.1,0.2-0.2,0.5-0.2,0.9c0,0.4,0.1,0.7,0.2,0.9S47.2,46.3,47.4,46.3z"/>
		<path class="st5" d="M54.7,47.6h-4.1v-1l2.1-2.7h-1.9v-1.3h3.9v1.1l-2,2.6h2.1V47.6z"/>
		<path class="st5" d="M55.5,41.4c0-0.3,0.1-0.4,0.2-0.6s0.4-0.2,0.7-0.2s0.6,0.1,0.7,0.2s0.2,0.3,0.2,0.6c0,0.5-0.3,0.8-0.9,0.8
			C55.8,42.1,55.5,41.9,55.5,41.4z M57.3,47.6h-1.7v-5h1.7V47.6z"/>
		<path class="st5" d="M60.9,47.7c-0.8,0-1.5-0.2-1.9-0.7c-0.5-0.4-0.7-1.1-0.7-1.9c0-0.8,0.2-1.5,0.6-1.9c0.4-0.4,1-0.7,1.8-0.7
			c0.8,0,1.3,0.2,1.7,0.6c0.4,0.4,0.6,1,0.6,1.7v0.8H60c0,0.3,0.1,0.5,0.3,0.7c0.2,0.2,0.5,0.2,0.8,0.2c0.3,0,0.6,0,0.8-0.1
			c0.3-0.1,0.5-0.2,0.8-0.3v1.2c-0.3,0.1-0.5,0.2-0.8,0.3S61.3,47.7,60.9,47.7z M60.8,43.7c-0.2,0-0.4,0.1-0.5,0.2
			c-0.1,0.1-0.2,0.3-0.2,0.6h1.5c0-0.2-0.1-0.4-0.2-0.6C61.2,43.8,61,43.7,60.8,43.7z"/>
		<path class="st5" d="M67.2,47.6v-2.7c0-0.3,0-0.6-0.1-0.7c-0.1-0.2-0.2-0.3-0.5-0.3c-0.3,0-0.5,0.1-0.6,0.3s-0.2,0.6-0.2,1.2v2.2
			H64v-5h1.3l0.2,0.6h0.1c0.1-0.2,0.3-0.4,0.6-0.5c0.3-0.1,0.6-0.2,0.9-0.2c0.6,0,1,0.2,1.3,0.5s0.5,0.8,0.5,1.3v3.2H67.2z
			 M65.5,42.1V42c0.5-0.5,0.7-0.8,0.9-0.9c0.1-0.1,0.2-0.3,0.3-0.4h1.9v0.1c-0.2,0.2-0.6,0.4-1,0.7s-0.7,0.5-0.9,0.6H65.5z"/>
		<path class="st5" d="M32.7,52.2c0-0.3,0.1-0.4,0.2-0.6s0.4-0.2,0.7-0.2s0.6,0.1,0.7,0.2s0.2,0.3,0.2,0.6c0,0.5-0.3,0.8-0.9,0.8
			C33,52.9,32.7,52.7,32.7,52.2z M34.4,58.4h-1.7v-5h1.7V58.4z"/>
		<path class="st5" d="M41.1,58.4v-2.7c0-0.3,0-0.6-0.1-0.7c-0.1-0.2-0.2-0.3-0.5-0.3c-0.3,0-0.5,0.1-0.6,0.3s-0.2,0.6-0.2,1.2v2.2
			H38v-5h1.3l0.2,0.6h0.1c0.1-0.2,0.3-0.4,0.6-0.5c0.3-0.1,0.6-0.2,0.9-0.2c0.6,0,1,0.2,1.3,0.5s0.5,0.8,0.5,1.3v3.2H41.1z"/>
		<path class="st5" d="M47.3,58.4l-0.3-0.7h0c-0.2,0.3-0.5,0.5-0.7,0.6s-0.6,0.2-0.9,0.2c-0.5,0-0.8-0.1-1.1-0.4s-0.4-0.7-0.4-1.2
			c0-0.5,0.2-0.9,0.6-1.2c0.4-0.3,0.9-0.4,1.6-0.4l0.8,0v-0.1c0-0.4-0.2-0.6-0.6-0.6c-0.4,0-0.8,0.1-1.4,0.4l-0.5-1.1
			c0.6-0.3,1.3-0.4,2.2-0.4c0.6,0,1.1,0.2,1.5,0.5c0.3,0.3,0.5,0.8,0.5,1.3v3.3H47.3z M46,57.3c0.2,0,0.4-0.1,0.5-0.2
			c0.1-0.1,0.2-0.3,0.2-0.5v-0.4l-0.4,0c-0.6,0-0.8,0.2-0.8,0.6C45.5,57.1,45.7,57.3,46,57.3z"/>
		<path class="st5" d="M55.1,58.4v-2.7c0-0.3,0-0.6-0.1-0.7c-0.1-0.2-0.2-0.3-0.5-0.3c-0.3,0-0.5,0.1-0.6,0.3s-0.2,0.6-0.2,1.2v2.2
			H52v-5h1.3l0.2,0.6h0.1c0.1-0.2,0.3-0.4,0.6-0.5c0.3-0.1,0.6-0.2,0.9-0.2c0.6,0,1,0.2,1.3,0.5c0.3,0.3,0.5,0.8,0.5,1.3v3.2H55.1z"
			/>
		<path class="st5" d="M62.7,55.9c0,0.8-0.2,1.5-0.7,1.9c-0.4,0.5-1.1,0.7-1.8,0.7c-0.8,0-1.4-0.2-1.8-0.7c-0.4-0.5-0.7-1.1-0.7-1.9
			c0-0.8,0.2-1.4,0.7-1.9c0.4-0.4,1.1-0.7,1.8-0.7c0.5,0,0.9,0.1,1.3,0.3s0.7,0.5,0.9,0.9C62.6,54.9,62.7,55.4,62.7,55.9z
			 M59.5,55.9c0,0.4,0.1,0.8,0.2,1c0.1,0.2,0.3,0.3,0.6,0.3c0.3,0,0.5-0.1,0.6-0.3c0.1-0.2,0.2-0.6,0.2-1c0-0.4-0.1-0.7-0.2-1
			s-0.3-0.3-0.6-0.3c-0.3,0-0.5,0.1-0.6,0.3C59.6,55.1,59.5,55.5,59.5,55.9z"/>
		<path class="st5" d="M66,58.5c-0.8,0-1.4-0.2-1.9-0.7c-0.4-0.4-0.6-1.1-0.6-1.9c0-0.8,0.2-1.5,0.7-1.9s1.1-0.7,1.9-0.7
			c0.6,0,1.1,0.1,1.6,0.4L67.2,55c-0.2-0.1-0.4-0.2-0.6-0.2c-0.2-0.1-0.4-0.1-0.5-0.1c-0.3,0-0.5,0.1-0.6,0.3s-0.2,0.5-0.2,0.9
			c0,0.8,0.3,1.2,0.9,1.2c0.5,0,1-0.1,1.5-0.4V58C67.1,58.3,66.6,58.5,66,58.5z"/>
	</g>
</g>
</svg>
