<?xml version="1.0" encoding="utf-8"?>
<!-- Generator: Adobe Illustrator 23.1.1, SVG Export Plug-In . SVG Version: 6.00 Build 0)  -->
<svg version="1.1" xmlns="http://www.w3.org/2000/svg" xmlns:xlink="http://www.w3.org/1999/xlink" x="0px" y="0px"
	 viewBox="0 0 100 100" style="enable-background:new 0 0 100 100;" xml:space="preserve">
<style type="text/css">
	.st0{fill:url(#SVGID_1_);}
	.st1{fill:url(#SVGID_2_);}
	.st2{fill:#FFFFFF;}
	.st3{display:none;}
	.st4{display:inline;fill:#B02D70;}
	.st5{font-family:'OpenSans-ExtraBold';}
	.st6{font-size:9px;}
	.st7{font-size:5.247px;}
	.st8{fill:#B02D70;}
</style>
<g id="Warstwa_1">
	<g>
		<g>
			<g>
				
					<radialGradient id="SVGID_1_" cx="135.6167" cy="-156.6641" r="40.0004" gradientTransform="matrix(0.7071 0.7071 0.7071 -0.7071 64.8826 -156.6717)" gradientUnits="userSpaceOnUse">
					<stop  offset="0.7828" style="stop-color:#FFFFFF"/>
					<stop  offset="1" style="stop-color:#BBBBBB"/>
				</radialGradient>
				<circle class="st0" cx="50" cy="50" r="40"/>
				
					<linearGradient id="SVGID_2_" gradientUnits="userSpaceOnUse" x1="95.594" y1="141.3389" x2="175.6393" y2="141.3389" gradientTransform="matrix(0.7071 0.7071 0.7071 -0.7071 -145.8352 54.0461)">
					<stop  offset="0" style="stop-color:#5F5F5F"/>
					<stop  offset="0.5301" style="stop-color:#FFFFFF"/>
					<stop  offset="1" style="stop-color:#353535"/>
				</linearGradient>
				<path class="st1" d="M77,23c14.9,14.9,14.9,39.2,0,54s-39.2,14.9-54,0S8,37.9,22.9,23S62.1,8.1,77,23 M78.3,21.7
					C62.7,6,37.4,6,21.7,21.7s-15.6,41,0,56.6s41,15.6,56.6,0S94,37.3,78.3,21.7L78.3,21.7z"/>
			</g>
		</g>
		<g>
			<g>
				<polygon class="st2" points="27.8,74.7 22.5,79.5 17.1,85.4 22.8,79.9 				"/>
				<polygon class="st2" points="24.1,74.8 22.5,79.3 21.5,84.5 23,79.5 				"/>
				<polygon class="st2" points="21.5,74.8 22.5,79.5 24.1,84.5 22.9,79.4 				"/>
				<polygon class="st2" points="17.7,74.6 22.2,79.5 27.7,84.5 22.5,79.2 				"/>
				<polygon class="st2" points="18,78.3 22.5,79.9 27.7,81 22.6,79.5 				"/>
				<polygon class="st2" points="18,81 22.6,80 27.7,78.3 22.5,79.6 				"/>
			</g>
			<g>
				<polygon class="st2" points="85.2,18.2 79.9,23.1 74.5,28.9 80.2,23.4 				"/>
				<polygon class="st2" points="81.5,18.4 79.9,22.9 78.9,28.1 80.4,23 				"/>
				<polygon class="st2" points="78.9,18.4 79.9,23.1 81.5,28.1 80.3,22.9 				"/>
				<polygon class="st2" points="75.1,18.2 79.6,23.1 85.1,28.1 79.9,22.8 				"/>
				<polygon class="st2" points="75.4,21.9 79.9,23.4 85.1,24.5 80,23 				"/>
				<polygon class="st2" points="75.4,24.5 80,23.6 85.1,21.9 79.9,23.2 				"/>
			</g>
		</g>
	</g>
	<g class="st3">
		<text transform="matrix(1 0 0 1 43.2963 40.4409)" class="st4 st5 st6">już</text>
		<text transform="matrix(1 0 0 1 18.6738 51.2407)" class="st4 st5 st6">od 6 miesiąca</text>
		<text transform="matrix(1 0 0 1 36.9238 62.0405)" class="st4 st5 st6">życia</text>
		<text transform="matrix(1 0 0 1 60.3594 59.043)" class="st4 st5 st7">*</text>
	</g>
</g>
<g id="Warstwa_2">
	<g>
		<path class="st8" d="M34.5,46.9c-0.3,0-0.5-0.1-0.8-0.2s-0.4-0.4-0.5-0.7c-0.1-0.3-0.2-0.7-0.2-1.1c0-0.7,0.1-1.2,0.4-1.6
			c0.3-0.4,0.6-0.6,1.1-0.6c0.2,0,0.4,0,0.6,0.1c0.2,0.1,0.3,0.2,0.5,0.5h0c0-0.3-0.1-0.6-0.1-1v-1.1H37v5.6H36l-0.3-0.5h-0.1
			C35.4,46.7,35,46.9,34.5,46.9z M35.1,45.8c0.2,0,0.4-0.1,0.5-0.2s0.1-0.4,0.1-0.7v-0.1c0-0.4-0.1-0.6-0.2-0.8s-0.3-0.2-0.5-0.2
			c-0.2,0-0.3,0.1-0.4,0.3c-0.1,0.2-0.2,0.4-0.2,0.7c0,0.3,0.1,0.6,0.2,0.7C34.8,45.7,34.9,45.8,35.1,45.8z"/>
		<path class="st8" d="M41.1,46.8h-3.4V46l1.7-2.2h-1.6v-1.1H41v0.9l-1.6,2.1h1.7V46.8z"/>
		<path class="st8" d="M41.7,41.7c0-0.2,0.1-0.4,0.2-0.5c0.1-0.1,0.3-0.2,0.6-0.2s0.5,0.1,0.6,0.2c0.1,0.1,0.2,0.3,0.2,0.5
			c0,0.4-0.3,0.6-0.8,0.6C42,42.4,41.7,42.2,41.7,41.7z M43.2,46.8h-1.4v-4.1h1.4V46.8z"/>
		<path class="st8" d="M46.8,46.8l-0.3-0.5h0c-0.2,0.2-0.4,0.4-0.6,0.5c-0.2,0.1-0.5,0.1-0.8,0.1c-0.4,0-0.7-0.1-0.9-0.3
			c-0.2-0.2-0.3-0.6-0.3-1c0-0.4,0.2-0.8,0.5-1s0.7-0.3,1.3-0.4l0.7,0v-0.1c0-0.3-0.2-0.5-0.5-0.5c-0.3,0-0.7,0.1-1.1,0.3l-0.4-0.9
			c0.5-0.2,1.1-0.4,1.8-0.4c0.5,0,0.9,0.1,1.2,0.4s0.4,0.6,0.4,1.1v2.7H46.8z M45.8,45.9c0.2,0,0.3-0.1,0.4-0.2
			c0.1-0.1,0.2-0.2,0.2-0.4V45l-0.3,0c-0.5,0-0.7,0.2-0.7,0.5C45.4,45.8,45.5,45.9,45.8,45.9z"/>
		<path class="st8" d="M50.5,43.3l0.4-0.2l0.5,0.9l-0.9,0.6v2.3h-1.4v-1.5l-0.4,0.2l-0.5-0.9l1-0.5v-3h1.4V43.3z"/>
		<path class="st8" d="M54.5,46.8l-0.3-0.5h0c-0.2,0.2-0.4,0.4-0.6,0.5c-0.2,0.1-0.5,0.1-0.8,0.1c-0.4,0-0.7-0.1-0.9-0.3
			s-0.3-0.6-0.3-1c0-0.4,0.2-0.8,0.5-1c0.3-0.2,0.7-0.3,1.3-0.4l0.7,0v-0.1c0-0.3-0.2-0.5-0.5-0.5c-0.3,0-0.7,0.1-1.1,0.3L52,43.1
			c0.5-0.2,1.1-0.4,1.8-0.4c0.5,0,0.9,0.1,1.2,0.4c0.3,0.3,0.4,0.6,0.4,1.1v2.7H54.5z M53.5,45.9c0.2,0,0.3-0.1,0.4-0.2
			c0.1-0.1,0.2-0.2,0.2-0.4V45l-0.3,0c-0.5,0-0.7,0.2-0.7,0.5C53.1,45.8,53.2,45.9,53.5,45.9z"/>
		<path class="st8" d="M59,46.8v-2.2c0-0.3,0-0.5-0.1-0.6c-0.1-0.1-0.2-0.2-0.4-0.2c-0.2,0-0.4,0.1-0.5,0.3c-0.1,0.2-0.2,0.5-0.2,1
			v1.8h-1.4v-4.1h1.1l0.2,0.5h0.1c0.1-0.2,0.3-0.3,0.5-0.4s0.5-0.1,0.7-0.1c0.5,0,0.8,0.1,1.1,0.4c0.3,0.3,0.4,0.6,0.4,1.1v2.7H59z"
			/>
		<path class="st8" d="M61.4,41.7c0-0.2,0.1-0.4,0.2-0.5c0.1-0.1,0.3-0.2,0.6-0.2c0.3,0,0.5,0.1,0.6,0.2c0.1,0.1,0.2,0.3,0.2,0.5
			c0,0.4-0.3,0.6-0.8,0.6C61.6,42.4,61.4,42.2,61.4,41.7z M62.8,46.8h-1.4v-4.1h1.4V46.8z"/>
		<path class="st8" d="M65.8,46.9c-0.7,0-1.2-0.2-1.6-0.5c-0.4-0.4-0.6-0.9-0.6-1.5c0-0.7,0.2-1.2,0.5-1.6c0.3-0.4,0.8-0.6,1.5-0.6
			c0.6,0,1.1,0.2,1.4,0.5s0.5,0.8,0.5,1.4v0.6h-2.5c0,0.2,0.1,0.4,0.3,0.5c0.2,0.1,0.4,0.2,0.6,0.2c0.2,0,0.5,0,0.7-0.1
			s0.4-0.1,0.7-0.2v1c-0.2,0.1-0.5,0.2-0.7,0.2C66.4,46.9,66.1,46.9,65.8,46.9z M65.7,43.6c-0.2,0-0.3,0.1-0.4,0.2
			c-0.1,0.1-0.2,0.3-0.2,0.5h1.2c0-0.2-0.1-0.4-0.2-0.5C66,43.7,65.9,43.6,65.7,43.6z"/>
		<path class="st8" d="M29,55.7v-2.2c0-0.3,0-0.5-0.1-0.6c-0.1-0.1-0.2-0.2-0.4-0.2c-0.2,0-0.4,0.1-0.5,0.3s-0.2,0.5-0.2,0.9v1.9
			h-1.4v-2.2c0-0.3,0-0.5-0.1-0.6s-0.2-0.2-0.4-0.2c-0.2,0-0.4,0.1-0.5,0.3s-0.2,0.5-0.2,1v1.8h-1.4v-4.1H25l0.2,0.5h0.1
			c0.1-0.2,0.3-0.3,0.5-0.4c0.2-0.1,0.4-0.1,0.7-0.1c0.6,0,1,0.2,1.2,0.5h0.1c0.1-0.2,0.3-0.3,0.5-0.4s0.4-0.1,0.7-0.1
			c0.5,0,0.8,0.1,1.1,0.4c0.2,0.2,0.3,0.6,0.3,1.1v2.7H29z"/>
		<path class="st8" d="M33.3,55.8c-0.7,0-1.2-0.2-1.6-0.5c-0.4-0.4-0.6-0.9-0.6-1.5c0-0.7,0.2-1.2,0.5-1.6c0.3-0.4,0.8-0.6,1.5-0.6
			c0.6,0,1.1,0.2,1.4,0.5s0.5,0.8,0.5,1.4V54h-2.5c0,0.2,0.1,0.4,0.3,0.5c0.2,0.1,0.4,0.2,0.6,0.2c0.2,0,0.5,0,0.7-0.1
			s0.4-0.1,0.7-0.2v1c-0.2,0.1-0.4,0.2-0.7,0.2C33.9,55.8,33.6,55.8,33.3,55.8z M33.2,52.5c-0.2,0-0.3,0.1-0.4,0.2s-0.2,0.3-0.2,0.5
			h1.2c0-0.2-0.1-0.4-0.2-0.5C33.6,52.6,33.4,52.5,33.2,52.5z"/>
		<path class="st8" d="M37.8,55.8c-0.7,0-1.2-0.2-1.5-0.5c-0.3-0.4-0.5-0.9-0.5-1.6c0-0.7,0.2-1.2,0.6-1.6s0.9-0.6,1.6-0.6
			c0.5,0,0.9,0.1,1.3,0.3l-0.4,1c-0.2-0.1-0.3-0.1-0.5-0.2c-0.1,0-0.3-0.1-0.5-0.1c-0.2,0-0.4,0.1-0.5,0.3s-0.2,0.4-0.2,0.8
			c0,0.7,0.2,1,0.7,1c0.4,0,0.8-0.1,1.2-0.4v1.1C38.7,55.7,38.3,55.8,37.8,55.8z"/>
		<path class="st8" d="M42.5,55.7v-2.2c0-0.5-0.2-0.8-0.5-0.8c-0.2,0-0.4,0.1-0.5,0.3c-0.1,0.2-0.2,0.5-0.2,1v1.8h-1.4v-5.6h1.4v0.8
			c0,0.4,0,0.8-0.1,1.2h0.1c0.1-0.2,0.3-0.4,0.5-0.4c0.2-0.1,0.4-0.1,0.6-0.1c0.5,0,0.8,0.1,1.1,0.4c0.3,0.3,0.4,0.6,0.4,1.1v2.7
			H42.5z"/>
		<path class="st8" d="M47.5,55.7l-0.3-0.5h0c-0.2,0.2-0.4,0.4-0.6,0.5s-0.5,0.1-0.8,0.1c-0.4,0-0.7-0.1-0.9-0.3
			c-0.2-0.2-0.3-0.6-0.3-1c0-0.4,0.2-0.8,0.5-1s0.7-0.3,1.3-0.4l0.7,0v-0.1c0-0.3-0.2-0.5-0.5-0.5c-0.3,0-0.7,0.1-1.1,0.3L45,51.9
			c0.5-0.2,1.1-0.4,1.8-0.4c0.5,0,0.9,0.1,1.2,0.4s0.4,0.6,0.4,1.1v2.7H47.5z M46.5,54.8c0.2,0,0.3-0.1,0.4-0.2
			c0.1-0.1,0.2-0.2,0.2-0.4v-0.3l-0.3,0c-0.5,0-0.7,0.2-0.7,0.5C46.1,54.7,46.2,54.8,46.5,54.8z"/>
		<path class="st8" d="M52,55.7v-2.2c0-0.3,0-0.5-0.1-0.6s-0.2-0.2-0.4-0.2c-0.2,0-0.4,0.1-0.5,0.3c-0.1,0.2-0.2,0.5-0.2,1v1.8h-1.4
			v-4.1h1.1l0.2,0.5h0.1c0.1-0.2,0.3-0.3,0.5-0.4c0.2-0.1,0.5-0.1,0.7-0.1c0.5,0,0.8,0.1,1.1,0.4c0.3,0.3,0.4,0.6,0.4,1.1v2.7H52z"
			/>
		<path class="st8" d="M54.4,50.6c0-0.2,0.1-0.4,0.2-0.5c0.1-0.1,0.3-0.2,0.6-0.2c0.3,0,0.5,0.1,0.6,0.2c0.1,0.1,0.2,0.3,0.2,0.5
			c0,0.4-0.3,0.6-0.8,0.6C54.6,51.2,54.4,51,54.4,50.6z M55.8,55.7h-1.4v-4.1h1.4V55.7z"/>
		<path class="st8" d="M58.7,55.8c-0.7,0-1.2-0.2-1.5-0.5c-0.3-0.4-0.5-0.9-0.5-1.6c0-0.7,0.2-1.2,0.6-1.6c0.4-0.4,0.9-0.6,1.6-0.6
			c0.5,0,0.9,0.1,1.3,0.3l-0.4,1c-0.2-0.1-0.3-0.1-0.5-0.2c-0.1,0-0.3-0.1-0.5-0.1c-0.2,0-0.4,0.1-0.5,0.3s-0.2,0.4-0.2,0.8
			c0,0.7,0.2,1,0.7,1c0.4,0,0.8-0.1,1.2-0.4v1.1C59.6,55.7,59.2,55.8,58.7,55.8z"/>
		<path class="st8" d="M63.9,55.7h-3.4v-0.8l1.7-2.2h-1.6v-1.1h3.2v0.9l-1.6,2.1h1.7V55.7z"/>
		<path class="st8" d="M67.1,55.7v-2.2c0-0.3,0-0.5-0.1-0.6s-0.2-0.2-0.4-0.2c-0.2,0-0.4,0.1-0.5,0.3c-0.1,0.2-0.2,0.5-0.2,1v1.8
			h-1.4v-4.1h1.1l0.2,0.5h0.1c0.1-0.2,0.3-0.3,0.5-0.4c0.2-0.1,0.5-0.1,0.7-0.1c0.5,0,0.8,0.1,1.1,0.4c0.3,0.3,0.4,0.6,0.4,1.1v2.7
			H67.1z"/>
		<path class="st8" d="M71.5,55.8c-0.7,0-1.2-0.2-1.6-0.5c-0.4-0.4-0.6-0.9-0.6-1.5c0-0.7,0.2-1.2,0.5-1.6c0.3-0.4,0.8-0.6,1.5-0.6
			c0.6,0,1.1,0.2,1.4,0.5s0.5,0.8,0.5,1.4V54h-2.5c0,0.2,0.1,0.4,0.3,0.5c0.2,0.1,0.4,0.2,0.6,0.2c0.2,0,0.5,0,0.7-0.1
			s0.4-0.1,0.7-0.2v1c-0.2,0.1-0.5,0.2-0.7,0.2C72.1,55.8,71.8,55.8,71.5,55.8z M71.4,52.5c-0.2,0-0.3,0.1-0.4,0.2
			c-0.1,0.1-0.2,0.3-0.2,0.5H72c0-0.2-0.1-0.4-0.2-0.5C71.7,52.6,71.6,52.5,71.4,52.5z"/>
		<path class="st8" d="M73.7,51.2c0-0.3,0-0.5,0.1-0.7c0.1-0.2,0.2-0.4,0.3-0.6h0.4c-0.1,0.2-0.2,0.4-0.3,0.6
			c-0.1,0.2-0.1,0.4-0.1,0.7c0,0.2,0,0.5,0.1,0.7c0.1,0.2,0.2,0.4,0.3,0.6h-0.4c-0.1-0.2-0.2-0.3-0.3-0.6
			C73.7,51.7,73.7,51.5,73.7,51.2z"/>
		<path class="st8" d="M76.1,52h-1.5v-0.3l0.5-0.5c0.2-0.2,0.3-0.3,0.3-0.3c0-0.1,0.1-0.1,0.1-0.2c0-0.1,0-0.1,0-0.2
			c0-0.1,0-0.1-0.1-0.2s-0.1-0.1-0.2-0.1c-0.1,0-0.2,0-0.2,0.1s-0.2,0.1-0.2,0.2l-0.2-0.3c0.1-0.1,0.2-0.1,0.3-0.2
			c0.1,0,0.1-0.1,0.2-0.1c0.1,0,0.2,0,0.3,0c0.1,0,0.2,0,0.3,0.1c0.1,0,0.2,0.1,0.2,0.2c0.1,0.1,0.1,0.2,0.1,0.3c0,0.1,0,0.2,0,0.3
			c0,0.1-0.1,0.2-0.2,0.3c-0.1,0.1-0.2,0.2-0.4,0.4l-0.3,0.3v0h0.9V52z"/>
		<path class="st8" d="M77.1,51.2c0,0.2,0,0.5-0.1,0.7c-0.1,0.2-0.2,0.4-0.3,0.6h-0.4c0.1-0.2,0.2-0.4,0.3-0.6
			c0.1-0.2,0.1-0.4,0.1-0.7c0-0.2,0-0.5-0.1-0.7c-0.1-0.2-0.2-0.4-0.3-0.6h0.4c0.1,0.2,0.2,0.4,0.3,0.6S77.1,51,77.1,51.2z"/>
	</g>
</g>
</svg>
