<svg id="Warstwa_1" data-name="Warstwa 1" xmlns="http://www.w3.org/2000/svg" xmlns:xlink="http://www.w3.org/1999/xlink" viewBox="0 0 100 100"><defs><style>.cls-1,.cls-7,.cls-8{fill:none;}.cls-2{fill:url(#Gradient_bez_nazwy);}.cls-3{fill:url(#Gradient_bez_nazwy_2);}.cls-4{fill:#fff;}.cls-5{clip-path:url(#clip-path);}.cls-6{isolation:isolate;}.cls-7,.cls-8{stroke:#b02d70;}.cls-7{stroke-miterlimit:10;}.cls-8{stroke-miterlimit:5.8;stroke-width:0.58px;}</style><radialGradient id="Gradient_bez_nazwy" cx="186.58" cy="-231.31" r="40" gradientTransform="matrix(0.71, 0.71, 0.71, -0.71, 81.7, -245.85)" gradientUnits="userSpaceOnUse"><stop offset="0.78" stop-color="#fff"/><stop offset="1" stop-color="#bbb"/></radialGradient><linearGradient id="Gradient_bez_nazwy_2" x1="146.55" y1="66.12" x2="226.6" y2="66.12" gradientTransform="matrix(0.71, 0.71, 0.71, -0.71, -129.02, -35.13)" gradientUnits="userSpaceOnUse"><stop offset="0" stop-color="#5f5f5f"/><stop offset="0.53" stop-color="#fff"/><stop offset="1" stop-color="#353535"/></linearGradient><clipPath id="clip-path"><circle class="cls-1" cx="49.9" cy="49.8" r="38"/></clipPath></defs><title>kolko_od_6_mies</title><circle class="cls-2" cx="50" cy="50" r="40"/><path class="cls-3" d="M77,23a38.18,38.18,0,1,1-54.1,0A38.21,38.21,0,0,1,77,23h0m1.3-1.3a39.81,39.81,0,1,0,.2.2Z"/><polygon class="cls-4" points="27.8 74.7 22.5 79.5 17.1 85.4 22.8 79.9 27.8 74.7"/><polygon class="cls-4" points="24.1 74.8 22.5 79.3 21.5 84.5 23 79.5 24.1 74.8"/><polygon class="cls-4" points="21.5 74.8 22.5 79.5 24.1 84.5 22.9 79.4 21.5 74.8"/><polygon class="cls-4" points="17.7 74.6 22.2 79.5 27.7 84.5 22.5 79.2 17.7 74.6"/><polygon class="cls-4" points="18 78.3 22.5 79.9 27.7 81 22.6 79.5 18 78.3"/><polygon class="cls-4" points="18 81 22.6 80 27.7 78.3 22.5 79.6 18 81"/><polygon class="cls-4" points="85.2 18.2 79.9 23.1 74.5 28.9 80.2 23.4 85.2 18.2"/><polygon class="cls-4" points="81.5 18.4 79.9 22.9 78.9 28.1 80.4 23 81.5 18.4"/><polygon class="cls-4" points="78.9 18.4 79.9 23.1 81.5 28.1 80.3 22.9 78.9 18.4"/><polygon class="cls-4" points="75.1 18.2 79.6 23.1 85.1 28.1 79.9 22.8 75.1 18.2"/><polygon class="cls-4" points="75.4 21.9 79.9 23.4 85.1 24.5 80 23 75.4 21.9"/><polygon class="cls-4" points="75.4 24.5 80 23.6 85.1 21.9 79.9 23.2 75.4 24.5"/><g id="Warstwa_3" data-name="Warstwa 3"><g class="cls-5"><image class="cls-6" width="5033" height="3367" transform="translate(-40.12 -17.53) scale(0.03)" xlink:href="A51BFFDC2F3C5351.jpeg"/></g></g><g class="cls-6"><path class="cls-7" d="M28.8,63.9h-.4c-.2,0-.3,0-.4-.1V62.7c.2,0,.3.1.4.1.3,0,.4-.2.4-.6V58.1h1.4v4.4a1.37,1.37,0,0,1-.4,1.1A1.33,1.33,0,0,1,28.8,63.9Zm0-6.9a.76.76,0,0,1,.2-.5,1,1,0,0,1,1.2,0,.76.76,0,0,1,.2.5c0,.4-.3.6-.8.6A.61.61,0,0,1,28.8,57Z"/><path class="cls-7" d="M34.2,62.1l-.2-.5h-.1a1,1,0,0,1-.5.4,1.7,1.7,0,0,1-.7.1,1.5,1.5,0,0,1-1.1-.4,1.82,1.82,0,0,1-.4-1.1V57.9h1.4v2.2c0,.3,0,.5.1.6a.52.52,0,0,0,.4.2.55.55,0,0,0,.5-.3,2.15,2.15,0,0,0,.2-1V57.8h1.4v4.1h-1Z"/><path class="cls-7" d="M39.3,62.1H35.9v-.8l1.7-2.2H36V58h3.2v.9L37.6,61h1.7ZM36.8,57a.76.76,0,0,1,.2-.5,1,1,0,0,1,1.2,0,.76.76,0,0,1,.2.5c0,.4-.3.6-.8.6A.61.61,0,0,1,36.8,57Z"/></g><g class="cls-6"><path class="cls-7" d="M32.8,69a2.54,2.54,0,0,1-.5,1.6,2.18,2.18,0,0,1-3,0,2.11,2.11,0,0,1-.6-1.6,2.54,2.54,0,0,1,.5-1.6,2.17,2.17,0,0,1,2.6-.3,2.34,2.34,0,0,1,.7.7A2.13,2.13,0,0,1,32.8,69Zm-2.7,0a1.72,1.72,0,0,0,.1.8.57.57,0,0,0,1,0,3.25,3.25,0,0,0,0-1.6.46.46,0,0,0-.5-.3.55.55,0,0,0-.5.3A5.38,5.38,0,0,0,30.1,69Z"/><path class="cls-7" d="M34.9,71.1a2.35,2.35,0,0,1-.8-.2c-.3-.1-.4-.4-.5-.7a3.59,3.59,0,0,1-.2-1.1,2.54,2.54,0,0,1,.4-1.6,1.25,1.25,0,0,1,1.1-.6,1.27,1.27,0,0,1,.6.1,1.18,1.18,0,0,1,.5.5h0c0-.3-.1-.6-.1-1V65.4h1.4V71H36.2l-.2-.5h-.1A1.1,1.1,0,0,1,34.9,71.1Zm.5-1.1a.76.76,0,0,0,.5-.2c.1-.1.1-.4.1-.7V69a1.55,1.55,0,0,0-.2-.8c-.1-.2-.3-.2-.5-.2s-.3.1-.4.3a1.45,1.45,0,0,0-.2.7,1.17,1.17,0,0,0,.2.7A.85.85,0,0,0,35.4,70Z"/><path class="cls-7" d="M40,68.8a4.84,4.84,0,0,1,.3-1.8,1.79,1.79,0,0,1,.9-1,3.34,3.34,0,0,1,1.5-.3,2.49,2.49,0,0,1,.8.1v1.1c-.2,0-.5-.1-.8-.1a1.8,1.8,0,0,0-1.1.3,1.53,1.53,0,0,0-.4,1h0a1.1,1.1,0,0,1,1-.6,1.43,1.43,0,0,1,1.1.5,1.7,1.7,0,0,1,.4,1.3,2.17,2.17,0,0,1-.5,1.4,2,2,0,0,1-1.4.5,2,2,0,0,1-1.5-.6C39.9,70.2,40,69.5,40,68.8ZM42,70a.52.52,0,0,0,.4-.2.75.75,0,0,0,.1-.5c0-.4-.2-.6-.5-.6a.71.71,0,0,0-.6.6,1.27,1.27,0,0,0,.1.6C41.7,69.9,41.8,70,42,70Z"/><path class="cls-7" d="M51.5,71V68.8c0-.3,0-.5-.1-.6s-.2-.2-.3-.2a.55.55,0,0,0-.5.3,2,2,0,0,0-.2.9V71H49V68.8c0-.3,0-.5-.1-.6s-.2-.2-.3-.2a.55.55,0,0,0-.5.3,2.15,2.15,0,0,0-.2,1V71H46.5V66.9h1.1l.2.5h.1a1,1,0,0,1,.5-.4,1.48,1.48,0,0,1,.7-.1,1.36,1.36,0,0,1,1.2.5h.1a1,1,0,0,1,.5-.4,1.48,1.48,0,0,1,.7-.1,1.37,1.37,0,0,1,1.1.4,1.61,1.61,0,0,1,.3,1.1V71Z"/><path class="cls-7" d="M53.9,65.9a.76.76,0,0,1,.2-.5,1,1,0,0,1,1.2,0,.76.76,0,0,1,.2.5c0,.4-.3.6-.8.6S53.9,66.3,53.9,65.9ZM55.3,71H53.9V66.9h1.4Z"/><path class="cls-7" d="M58.3,71.1a2.54,2.54,0,0,1-1.6-.5,1.89,1.89,0,0,1-.6-1.5,2.54,2.54,0,0,1,.5-1.6,1.75,1.75,0,0,1,1.5-.6A1.74,1.74,0,0,1,60,68.8v.6H57.5a.55.55,0,0,0,.3.5,1.42,1.42,0,0,0,.6.2,1.7,1.7,0,0,0,.7-.1,6.37,6.37,0,0,1,.7-.2v1a1.85,1.85,0,0,1-.7.2A2,2,0,0,1,58.3,71.1Zm-.1-3.3a.52.52,0,0,0-.4.2.76.76,0,0,0-.2.5h1.2a.76.76,0,0,0-.2-.5A.52.52,0,0,0,58.2,67.8Z"/><path class="cls-7" d="M64,69.8a1.16,1.16,0,0,1-.4,1,2.27,2.27,0,0,1-1.3.3h-.8a1.85,1.85,0,0,1-.7-.2V69.8a1.85,1.85,0,0,0,.7.2,2,2,0,0,0,.7.1c.3,0,.5-.1.5-.2s0-.1-.1-.2a1.54,1.54,0,0,0-.7-.3,2.77,2.77,0,0,1-.8-.5.84.84,0,0,1-.2-.7,1,1,0,0,1,.4-.9,2.13,2.13,0,0,1,1.2-.3,2.2,2.2,0,0,1,.8.1c.2.1.5.1.7.3l-.4.9a1.42,1.42,0,0,0-.6-.2,1.09,1.09,0,0,0-.5-.1c-.2,0-.3.1-.3.2s0,.1.1.2a2.6,2.6,0,0,1,.7.3,1.63,1.63,0,0,1,.6.3,1.38,1.38,0,0,1,.3.4C64,69.3,64,69.5,64,69.8Z"/><path class="cls-7" d="M64.8,65.9a.76.76,0,0,1,.2-.5,1,1,0,0,1,1.2,0,.76.76,0,0,1,.2.5c0,.4-.3.6-.8.6S64.8,66.3,64.8,65.9ZM66.2,71H64.8V66.9h1.4Z"/><path class="cls-7" d="M69.9,71l-.3-.5h0a2.65,2.65,0,0,1-.6.5,2,2,0,0,1-.8.1,1.22,1.22,0,0,1-.9-.3,1.49,1.49,0,0,1-.3-1,1.23,1.23,0,0,1,.5-1,3.32,3.32,0,0,1,1.3-.4h.7v-.1a.47.47,0,0,0-.5-.5,2.61,2.61,0,0,0-1.1.3l-.4-.9a4.78,4.78,0,0,1,1.8-.4,1.59,1.59,0,0,1,1.2.4,1.37,1.37,0,0,1,.4,1.1V71Zm-1.1-.9a.71.71,0,0,0,.6-.6v-.3h-.3c-.5,0-.7.2-.7.5A.37.37,0,0,0,68.8,70.1Zm1.4,1.6c0,.2.1.2.3.2s.3,0,.4-.1v.8a1.27,1.27,0,0,1-.6.1,1.45,1.45,0,0,1-.7-.2.86.86,0,0,1-.3-.6.9.9,0,0,1,.1-.5c.1-.2.3-.3.5-.5h.8l-.4.4A.76.76,0,0,0,70.2,71.7Z"/><path class="cls-7" d="M73.7,71.1a2.07,2.07,0,0,1-1.5-.5,2.54,2.54,0,0,1-.5-1.6,2.06,2.06,0,0,1,2.2-2.2,2.77,2.77,0,0,1,1.3.3l-.4,1c-.2-.1-.3-.1-.5-.2a4.33,4.33,0,0,0-.5-.1.55.55,0,0,0-.5.3,1.55,1.55,0,0,0-.2.8c0,.7.2,1,.7,1a1.92,1.92,0,0,0,1.2-.4v1.1A1.66,1.66,0,0,1,73.7,71.1Z"/><path class="cls-7" d="M78.5,71l-.3-.5h0a2.65,2.65,0,0,1-.6.5,2,2,0,0,1-.8.1,1.22,1.22,0,0,1-.9-.3,1.49,1.49,0,0,1-.3-1,1.23,1.23,0,0,1,.5-1,3.32,3.32,0,0,1,1.3-.4h.7v-.1a.47.47,0,0,0-.5-.5,2.61,2.61,0,0,0-1.1.3l-.5-.9a4.78,4.78,0,0,1,1.8-.4,1.59,1.59,0,0,1,1.2.4,1.37,1.37,0,0,1,.4,1.1V71Zm-1.1-.9a.71.71,0,0,0,.6-.6v-.3h-.3c-.5,0-.7.2-.7.5A.37.37,0,0,0,77.4,70.1Z"/></g><g class="cls-6"><path class="cls-7" d="M32,79.9H28.6v-.8l1.7-2.2H28.7V75.8h3.2v.9l-1.6,2.1H32Zm-2.5-5.1a.76.76,0,0,1,.2-.5,1,1,0,0,1,1.2,0,.76.76,0,0,1,.2.5c0,.4-.3.6-.8.6S29.5,75.2,29.5,74.8Z"/><path class="cls-7" d="M32.1,75.8h1.5l.7,2.3c0,.1.1.3.1.4h0c0-.2,0-.3.1-.4l.7-2.4h1.4L35,80.1a2.8,2.8,0,0,1-.8,1.2,2.13,2.13,0,0,1-1.2.3,1.27,1.27,0,0,1-.6-.1V80.4h.4a.37.37,0,0,0,.3-.1.22.22,0,0,0,.2-.2c0-.1.1-.2.2-.4Z"/><path class="cls-7" d="M39,80a2.07,2.07,0,0,1-1.5-.5,2.35,2.35,0,0,1-.5-1.6,2.06,2.06,0,0,1,2.2-2.2,2.77,2.77,0,0,1,1.3.3l-.4,1c-.2-.1-.3-.1-.5-.2a4.33,4.33,0,0,0-.5-.1.55.55,0,0,0-.5.3,1.55,1.55,0,0,0-.2.8c0,.7.2,1,.7,1a1.92,1.92,0,0,0,1.2-.4v1.1A2.11,2.11,0,0,1,39,80Z"/><path class="cls-7" d="M41.1,74.8a.76.76,0,0,1,.2-.5,1,1,0,0,1,1.2,0,.76.76,0,0,1,.2.5c0,.4-.3.6-.8.6S41.1,75.2,41.1,74.8Zm1.4,5.1H41.1V75.8h1.4Z"/><path class="cls-7" d="M46.2,79.9l-.3-.5h0a2.65,2.65,0,0,1-.6.5,1.72,1.72,0,0,1-.8.1,1.22,1.22,0,0,1-.9-.3,1.49,1.49,0,0,1-.3-1,1.23,1.23,0,0,1,.5-1,3.32,3.32,0,0,1,1.3-.4h.7v-.1a.47.47,0,0,0-.5-.5,2.61,2.61,0,0,0-1.1.3l-.4-.9a4.78,4.78,0,0,1,1.8-.4,1.59,1.59,0,0,1,1.2.4,1.37,1.37,0,0,1,.4,1.1v2.7ZM45.1,79a.71.71,0,0,0,.6-.6v-.3h-.3c-.5,0-.7.2-.7.5A.43.43,0,0,0,45.1,79Z"/></g><g class="cls-6"><path class="cls-8" d="M49.1,74.2l-.1.7.7-.2.1.6h-.7l.4.6-.5.3-.3-.6-.3.6-.6-.3.4-.6-.7-.1.1-.6.7.2-.1-.7h.9Z"/></g><g id="Warstwa_2_kopia" data-name="Warstwa 2 kopia"><g class="cls-6"><path class="cls-4" d="M28.8,63.9h-.4c-.2,0-.3,0-.4-.1V62.7c.2,0,.3.1.4.1.3,0,.4-.2.4-.6V58.1h1.4v4.4a1.37,1.37,0,0,1-.4,1.1A1.33,1.33,0,0,1,28.8,63.9Zm0-6.9a.76.76,0,0,1,.2-.5,1,1,0,0,1,1.2,0,.76.76,0,0,1,.2.5c0,.4-.3.6-.8.6A.61.61,0,0,1,28.8,57Z"/><path class="cls-4" d="M34.2,62.1l-.2-.5h-.1a1,1,0,0,1-.5.4,1.7,1.7,0,0,1-.7.1,1.5,1.5,0,0,1-1.1-.4,1.82,1.82,0,0,1-.4-1.1V57.9h1.4v2.2c0,.3,0,.5.1.6a.52.52,0,0,0,.4.2.55.55,0,0,0,.5-.3,2.15,2.15,0,0,0,.2-1V57.8h1.4v4.1h-1Z"/><path class="cls-4" d="M39.3,62.1H35.9v-.8l1.7-2.2H36V58h3.2v.9L37.6,61h1.7ZM36.8,57a.76.76,0,0,1,.2-.5,1,1,0,0,1,1.2,0,.76.76,0,0,1,.2.5c0,.4-.3.6-.8.6A.61.61,0,0,1,36.8,57Z"/></g><g class="cls-6"><path class="cls-4" d="M32.8,69a2.54,2.54,0,0,1-.5,1.6,2.18,2.18,0,0,1-3,0,2.11,2.11,0,0,1-.6-1.6,2.54,2.54,0,0,1,.5-1.6,2.17,2.17,0,0,1,2.6-.3,2.34,2.34,0,0,1,.7.7A2.13,2.13,0,0,1,32.8,69Zm-2.7,0a1.72,1.72,0,0,0,.1.8.57.57,0,0,0,1,0,3.25,3.25,0,0,0,0-1.6.46.46,0,0,0-.5-.3.55.55,0,0,0-.5.3A5.38,5.38,0,0,0,30.1,69Z"/><path class="cls-4" d="M34.9,71.1a2.35,2.35,0,0,1-.8-.2c-.3-.1-.4-.4-.5-.7a3.59,3.59,0,0,1-.2-1.1,2.54,2.54,0,0,1,.4-1.6,1.25,1.25,0,0,1,1.1-.6,1.27,1.27,0,0,1,.6.1,1.18,1.18,0,0,1,.5.5h0c0-.3-.1-.6-.1-1V65.4h1.4V71H36.2l-.2-.5h-.1A1.1,1.1,0,0,1,34.9,71.1Zm.5-1.1a.76.76,0,0,0,.5-.2c.1-.1.1-.4.1-.7V69a1.55,1.55,0,0,0-.2-.8c-.1-.2-.3-.2-.5-.2s-.3.1-.4.3a1.45,1.45,0,0,0-.2.7,1.17,1.17,0,0,0,.2.7A.85.85,0,0,0,35.4,70Z"/><path class="cls-4" d="M40,68.8a4.84,4.84,0,0,1,.3-1.8,1.79,1.79,0,0,1,.9-1,3.34,3.34,0,0,1,1.5-.3,2.49,2.49,0,0,1,.8.1v1.1c-.2,0-.5-.1-.8-.1a1.8,1.8,0,0,0-1.1.3,1.53,1.53,0,0,0-.4,1h0a1.1,1.1,0,0,1,1-.6,1.43,1.43,0,0,1,1.1.5,1.7,1.7,0,0,1,.4,1.3,2.17,2.17,0,0,1-.5,1.4,2,2,0,0,1-1.4.5,2,2,0,0,1-1.5-.6C39.9,70.2,40,69.5,40,68.8ZM42,70a.52.52,0,0,0,.4-.2.75.75,0,0,0,.1-.5c0-.4-.2-.6-.5-.6a.71.71,0,0,0-.6.6,1.27,1.27,0,0,0,.1.6C41.7,69.9,41.8,70,42,70Z"/><path class="cls-4" d="M51.5,71V68.8c0-.3,0-.5-.1-.6s-.2-.2-.3-.2a.55.55,0,0,0-.5.3,2,2,0,0,0-.2.9V71H49V68.8c0-.3,0-.5-.1-.6s-.2-.2-.3-.2a.55.55,0,0,0-.5.3,2.15,2.15,0,0,0-.2,1V71H46.5V66.9h1.1l.2.5h.1a1,1,0,0,1,.5-.4,1.48,1.48,0,0,1,.7-.1,1.36,1.36,0,0,1,1.2.5h.1a1,1,0,0,1,.5-.4,1.48,1.48,0,0,1,.7-.1,1.37,1.37,0,0,1,1.1.4,1.61,1.61,0,0,1,.3,1.1V71Z"/><path class="cls-4" d="M53.9,65.9a.76.76,0,0,1,.2-.5,1,1,0,0,1,1.2,0,.76.76,0,0,1,.2.5c0,.4-.3.6-.8.6S53.9,66.3,53.9,65.9ZM55.3,71H53.9V66.9h1.4Z"/><path class="cls-4" d="M58.3,71.1a2.54,2.54,0,0,1-1.6-.5,1.89,1.89,0,0,1-.6-1.5,2.54,2.54,0,0,1,.5-1.6,1.75,1.75,0,0,1,1.5-.6A1.74,1.74,0,0,1,60,68.8v.6H57.5a.55.55,0,0,0,.3.5,1.42,1.42,0,0,0,.6.2,1.7,1.7,0,0,0,.7-.1,6.37,6.37,0,0,1,.7-.2v1a1.85,1.85,0,0,1-.7.2A2,2,0,0,1,58.3,71.1Zm-.1-3.3a.52.52,0,0,0-.4.2.76.76,0,0,0-.2.5h1.2a.76.76,0,0,0-.2-.5A.52.52,0,0,0,58.2,67.8Z"/><path class="cls-4" d="M64,69.8a1.16,1.16,0,0,1-.4,1,2.27,2.27,0,0,1-1.3.3h-.8a1.85,1.85,0,0,1-.7-.2V69.8a1.85,1.85,0,0,0,.7.2,2,2,0,0,0,.7.1c.3,0,.5-.1.5-.2s0-.1-.1-.2a1.54,1.54,0,0,0-.7-.3,2.77,2.77,0,0,1-.8-.5.84.84,0,0,1-.2-.7,1,1,0,0,1,.4-.9,2.13,2.13,0,0,1,1.2-.3,2.2,2.2,0,0,1,.8.1c.2.1.5.1.7.3l-.4.9a1.42,1.42,0,0,0-.6-.2,1.09,1.09,0,0,0-.5-.1c-.2,0-.3.1-.3.2s0,.1.1.2a2.6,2.6,0,0,1,.7.3,1.63,1.63,0,0,1,.6.3,1.38,1.38,0,0,1,.3.4C64,69.3,64,69.5,64,69.8Z"/><path class="cls-4" d="M64.8,65.9a.76.76,0,0,1,.2-.5,1,1,0,0,1,1.2,0,.76.76,0,0,1,.2.5c0,.4-.3.6-.8.6S64.8,66.3,64.8,65.9ZM66.2,71H64.8V66.9h1.4Z"/><path class="cls-4" d="M69.9,71l-.3-.5h0a2.65,2.65,0,0,1-.6.5,2,2,0,0,1-.8.1,1.22,1.22,0,0,1-.9-.3,1.49,1.49,0,0,1-.3-1,1.23,1.23,0,0,1,.5-1,3.32,3.32,0,0,1,1.3-.4h.7v-.1a.47.47,0,0,0-.5-.5,2.61,2.61,0,0,0-1.1.3l-.4-.9a4.78,4.78,0,0,1,1.8-.4,1.59,1.59,0,0,1,1.2.4,1.37,1.37,0,0,1,.4,1.1V71Zm-1.1-.9a.71.71,0,0,0,.6-.6v-.3h-.3c-.5,0-.7.2-.7.5A.37.37,0,0,0,68.8,70.1Zm1.4,1.6c0,.2.1.2.3.2s.3,0,.4-.1v.8a1.27,1.27,0,0,1-.6.1,1.45,1.45,0,0,1-.7-.2.86.86,0,0,1-.3-.6.9.9,0,0,1,.1-.5c.1-.2.3-.3.5-.5h.8l-.4.4A.76.76,0,0,0,70.2,71.7Z"/><path class="cls-4" d="M73.7,71.1a2.07,2.07,0,0,1-1.5-.5,2.54,2.54,0,0,1-.5-1.6,2.06,2.06,0,0,1,2.2-2.2,2.77,2.77,0,0,1,1.3.3l-.4,1c-.2-.1-.3-.1-.5-.2a4.33,4.33,0,0,0-.5-.1.55.55,0,0,0-.5.3,1.55,1.55,0,0,0-.2.8c0,.7.2,1,.7,1a1.92,1.92,0,0,0,1.2-.4v1.1A1.66,1.66,0,0,1,73.7,71.1Z"/><path class="cls-4" d="M78.5,71l-.3-.5h0a2.65,2.65,0,0,1-.6.5,2,2,0,0,1-.8.1,1.22,1.22,0,0,1-.9-.3,1.49,1.49,0,0,1-.3-1,1.23,1.23,0,0,1,.5-1,3.32,3.32,0,0,1,1.3-.4h.7v-.1a.47.47,0,0,0-.5-.5,2.61,2.61,0,0,0-1.1.3l-.5-.9a4.78,4.78,0,0,1,1.8-.4,1.59,1.59,0,0,1,1.2.4,1.37,1.37,0,0,1,.4,1.1V71Zm-1.1-.9a.71.71,0,0,0,.6-.6v-.3h-.3c-.5,0-.7.2-.7.5A.37.37,0,0,0,77.4,70.1Z"/></g><g class="cls-6"><path class="cls-4" d="M32,79.9H28.6v-.8l1.7-2.2H28.7V75.8h3.2v.9l-1.6,2.1H32Zm-2.5-5.1a.76.76,0,0,1,.2-.5,1,1,0,0,1,1.2,0,.76.76,0,0,1,.2.5c0,.4-.3.6-.8.6S29.5,75.2,29.5,74.8Z"/><path class="cls-4" d="M32.1,75.8h1.5l.7,2.3c0,.1.1.3.1.4h0c0-.2,0-.3.1-.4l.7-2.4h1.4L35,80.1a2.8,2.8,0,0,1-.8,1.2,2.13,2.13,0,0,1-1.2.3,1.27,1.27,0,0,1-.6-.1V80.4h.4a.37.37,0,0,0,.3-.1.22.22,0,0,0,.2-.2c0-.1.1-.2.2-.4Z"/><path class="cls-4" d="M39,80a2.07,2.07,0,0,1-1.5-.5,2.35,2.35,0,0,1-.5-1.6,2.06,2.06,0,0,1,2.2-2.2,2.77,2.77,0,0,1,1.3.3l-.4,1c-.2-.1-.3-.1-.5-.2a4.33,4.33,0,0,0-.5-.1.55.55,0,0,0-.5.3,1.55,1.55,0,0,0-.2.8c0,.7.2,1,.7,1a1.92,1.92,0,0,0,1.2-.4v1.1A2.11,2.11,0,0,1,39,80Z"/><path class="cls-4" d="M41.1,74.8a.76.76,0,0,1,.2-.5,1,1,0,0,1,1.2,0,.76.76,0,0,1,.2.5c0,.4-.3.6-.8.6S41.1,75.2,41.1,74.8Zm1.4,5.1H41.1V75.8h1.4Z"/><path class="cls-4" d="M46.2,79.9l-.3-.5h0a2.65,2.65,0,0,1-.6.5,1.72,1.72,0,0,1-.8.1,1.22,1.22,0,0,1-.9-.3,1.49,1.49,0,0,1-.3-1,1.23,1.23,0,0,1,.5-1,3.32,3.32,0,0,1,1.3-.4h.7v-.1a.47.47,0,0,0-.5-.5,2.61,2.61,0,0,0-1.1.3l-.4-.9a4.78,4.78,0,0,1,1.8-.4,1.59,1.59,0,0,1,1.2.4,1.37,1.37,0,0,1,.4,1.1v2.7ZM45.1,79a.71.71,0,0,0,.6-.6v-.3h-.3c-.5,0-.7.2-.7.5A.43.43,0,0,0,45.1,79Z"/></g><g class="cls-6"><path class="cls-4" d="M49.1,74.2l-.1.7.7-.2.1.6h-.7l.4.6-.5.3-.3-.6-.3.6-.6-.3.4-.6-.7-.1.1-.6.7.2-.1-.7h.9Z"/></g></g></svg>