<svg xmlns="http://www.w3.org/2000/svg" xmlns:xlink="http://www.w3.org/1999/xlink" viewBox="0 0 100 100"><defs><style>.cls-1{fill:url(#Gradient_bez_nazwy);}.cls-2{fill:url(#Gradient_bez_nazwy_2);}.cls-3{fill:#fff;}.cls-4{fill:#b02d70;}</style><radialGradient id="Gradient_bez_nazwy" cx="135.62" cy="-156.66" r="40" gradientTransform="matrix(0.71, 0.71, 0.71, -0.71, 64.88, -156.67)" gradientUnits="userSpaceOnUse"><stop offset="0.78" stop-color="#fff"/><stop offset="1" stop-color="#bbb"/></radialGradient><linearGradient id="Gradient_bez_nazwy_2" x1="95.59" y1="141.34" x2="175.64" y2="141.34" gradientTransform="matrix(0.71, 0.71, 0.71, -0.71, -145.84, 54.05)" gradientUnits="userSpaceOnUse"><stop offset="0" stop-color="#5f5f5f"/><stop offset="0.53" stop-color="#fff"/><stop offset="1" stop-color="#353535"/></linearGradient></defs><title>kolko_bezy</title><g id="Warstwa_1" data-name="Warstwa 1"><circle class="cls-1" cx="50" cy="50" r="40"/><path class="cls-2" d="M77,23a38.18,38.18,0,1,1-54.1,0A38.2,38.2,0,0,1,77,23m1.3-1.3a40,40,0,1,0,0,56.6,39.9,39.9,0,0,0,0-56.6Z"/><polygon class="cls-3" points="27.8 74.7 22.5 79.5 17.1 85.4 22.8 79.9 27.8 74.7"/><polygon class="cls-3" points="24.1 74.8 22.5 79.3 21.5 84.5 23 79.5 24.1 74.8"/><polygon class="cls-3" points="21.5 74.8 22.5 79.5 24.1 84.5 22.9 79.4 21.5 74.8"/><polygon class="cls-3" points="17.7 74.6 22.2 79.5 27.7 84.5 22.5 79.2 17.7 74.6"/><polygon class="cls-3" points="18 78.3 22.5 79.9 27.7 81 22.6 79.5 18 78.3"/><polygon class="cls-3" points="18 81 22.6 80 27.7 78.3 22.5 79.6 18 81"/><polygon class="cls-3" points="85.2 18.2 79.9 23.1 74.5 28.9 80.2 23.4 85.2 18.2"/><polygon class="cls-3" points="81.5 18.4 79.9 22.9 78.9 28.1 80.4 23 81.5 18.4"/><polygon class="cls-3" points="78.9 18.4 79.9 23.1 81.5 28.1 80.3 22.9 78.9 18.4"/><polygon class="cls-3" points="75.1 18.2 79.6 23.1 85.1 28.1 79.9 22.8 75.1 18.2"/><polygon class="cls-3" points="75.4 21.9 79.9 23.4 85.1 24.5 80 23 75.4 21.9"/><polygon class="cls-3" points="75.4 24.5 80 23.6 85.1 21.9 79.9 23.2 75.4 24.5"/></g><g id="Warstwa_2" data-name="Warstwa 2"><path class="cls-4" d="M24.26,30.2a1.23,1.23,0,0,1,1,.56,2.62,2.62,0,0,1,.4,1.55,2.68,2.68,0,0,1-.4,1.56,1.26,1.26,0,0,1-1.1.57,1.62,1.62,0,0,1-.4,0,1.15,1.15,0,0,1-.32-.14,1.32,1.32,0,0,1-.32-.29h-.09l-.22.41h-1.1V28.75h1.41V30c0,.15,0,.41-.05.78h.05a1.25,1.25,0,0,1,.47-.45A1.26,1.26,0,0,1,24.26,30.2Zm-.52,1.11a.47.47,0,0,0-.43.21,1.19,1.19,0,0,0-.14.64v.2a1.4,1.4,0,0,0,.14.72.47.47,0,0,0,.44.22.42.42,0,0,0,.39-.25,1.65,1.65,0,0,0,.13-.75C24.27,31.64,24.09,31.31,23.74,31.31Z"/><path class="cls-4" d="M28.48,34.44a2.16,2.16,0,0,1-1.58-.55,2,2,0,0,1-.57-1.54,2.23,2.23,0,0,1,.53-1.59,2.3,2.3,0,0,1,2.92-.07,1.84,1.84,0,0,1,.5,1.38v.63H27.76a.7.7,0,0,0,.25.54,1,1,0,0,0,.64.19,3,3,0,0,0,.69-.07,2.79,2.79,0,0,0,.68-.24v1a2.55,2.55,0,0,1-.69.23A4.22,4.22,0,0,1,28.48,34.44Zm-.08-3.28a.6.6,0,0,0-.41.16.72.72,0,0,0-.2.49H29a.68.68,0,0,0-.17-.47A.54.54,0,0,0,28.4,31.16Z"/><path class="cls-4" d="M34.15,34.37H30.77v-.81l1.69-2.2H30.87V30.28h3.21v.87l-1.62,2.14h1.69Z"/><path class="cls-4" d="M39.2,34.44a1.43,1.43,0,0,1-.56-.11,1.3,1.3,0,0,1-.48-.37h-.07c0,.29.07.47.07.54v1.64H36.75V30.28h1.14l.2.52h.07a1.28,1.28,0,0,1,2.15,0,2.74,2.74,0,0,1,.38,1.54,2.65,2.65,0,0,1-.4,1.56A1.27,1.27,0,0,1,39.2,34.44Zm-.47-3.13a.48.48,0,0,0-.44.22,1.42,1.42,0,0,0-.13.66v.11a1.5,1.5,0,0,0,.14.77.48.48,0,0,0,.44.23.41.41,0,0,0,.39-.23,1.64,1.64,0,0,0,.13-.77,1.59,1.59,0,0,0-.13-.76A.42.42,0,0,0,38.73,31.31Z"/><path class="cls-4" d="M44.17,34.37l-.28-.55h0a1.62,1.62,0,0,1-.59.49,2,2,0,0,1-.76.13,1.2,1.2,0,0,1-.91-.35,1.34,1.34,0,0,1-.33-1,1.13,1.13,0,0,1,.45-1,2.5,2.5,0,0,1,1.32-.35l.68,0v-.05a.44.44,0,0,0-.5-.51,3,3,0,0,0-1.13.3l-.41-.93a4,4,0,0,1,1.8-.37,1.75,1.75,0,0,1,1.22.39,1.39,1.39,0,0,1,.43,1.09v2.69Zm-1.05-.93a.63.63,0,0,0,.44-.16.54.54,0,0,0,.18-.42v-.32h-.33c-.46,0-.69.19-.69.52S42.85,33.44,43.12,33.44Z"/><path class="cls-4" d="M48.57,30.2a2,2,0,0,1,.35,0l.08,0-.13,1.33a2,2,0,0,0-.48,0,.93.93,0,0,0-.67.21.81.81,0,0,0-.21.6v2H46.1V30.28h1l.22.65h.07a1.47,1.47,0,0,1,.49-.53A1.26,1.26,0,0,1,48.57,30.2Z"/><path class="cls-4" d="M52.24,34.37,52,33.82h0a1.68,1.68,0,0,1-.58.49,2.05,2.05,0,0,1-.77.13,1.21,1.21,0,0,1-.91-.35,1.34,1.34,0,0,1-.33-1,1.11,1.11,0,0,1,.46-1,2.44,2.44,0,0,1,1.31-.35l.68,0v-.05c0-.34-.16-.51-.49-.51a3,3,0,0,0-1.14.3l-.41-.93a4,4,0,0,1,1.81-.37,1.73,1.73,0,0,1,1.21.39,1.4,1.4,0,0,1,.44,1.09v2.69Zm-1.05-.93a.63.63,0,0,0,.44-.16.54.54,0,0,0,.18-.42v-.32h-.32c-.47,0-.7.19-.7.52S50.92,33.44,51.19,33.44Z"/><path class="cls-4" d="M56.67,30.2a1.23,1.23,0,0,1,1.06.56,3.3,3.3,0,0,1,0,3.11,1.27,1.27,0,0,1-1.1.57,1.56,1.56,0,0,1-.4,0,1,1,0,0,1-.32-.14,1.32,1.32,0,0,1-.32-.29H55.5l-.22.41h-1.1V28.75h1.41V30c0,.15,0,.41-.05.78h.05a1.18,1.18,0,0,1,.47-.45A1.23,1.23,0,0,1,56.67,30.2Zm-.51,1.11a.5.5,0,0,0-.44.21,1.2,1.2,0,0,0-.13.64v.2a1.41,1.41,0,0,0,.13.72.49.49,0,0,0,.45.22.41.41,0,0,0,.38-.25,1.64,1.64,0,0,0,.14-.75C56.69,31.64,56.51,31.31,56.16,31.31Z"/><path class="cls-4" d="M60.9,34.44a2.14,2.14,0,0,1-1.58-.55,2,2,0,0,1-.57-1.54,2.23,2.23,0,0,1,.53-1.59,1.93,1.93,0,0,1,1.49-.56,2,2,0,0,1,1.43.49,1.84,1.84,0,0,1,.5,1.38v.63H60.18a.7.7,0,0,0,.25.54,1,1,0,0,0,.64.19,3,3,0,0,0,.69-.07,2.73,2.73,0,0,0,.67-.24v1a2.48,2.48,0,0,1-.68.23A4.22,4.22,0,0,1,60.9,34.44Zm-.08-3.28a.61.61,0,0,0-.42.16.76.76,0,0,0-.19.49h1.21a.73.73,0,0,0-.17-.47A.55.55,0,0,0,60.82,31.16Z"/><path class="cls-4" d="M66.08,34.37V32.14a1.26,1.26,0,0,0-.12-.62.4.4,0,0,0-.38-.21.53.53,0,0,0-.51.29,2.09,2.09,0,0,0-.16,1v1.79H63.5V30.28h1.06l.18.5h.08a1.1,1.1,0,0,1,.5-.43,1.72,1.72,0,0,1,.74-.15,1.39,1.39,0,0,1,1,.4,1.54,1.54,0,0,1,.38,1.11v2.66Z"/><path class="cls-4" d="M72.35,32.31a2.19,2.19,0,0,1-.54,1.57,2,2,0,0,1-1.51.56,1.94,1.94,0,0,1-1.48-.58,2.17,2.17,0,0,1-.55-1.55,2.13,2.13,0,0,1,.54-1.55,2,2,0,0,1,1.51-.56,2.17,2.17,0,0,1,1.07.26,1.78,1.78,0,0,1,.71.73A2.37,2.37,0,0,1,72.35,32.31Zm-2.89-2.42v-.11c.37-.39.61-.65.71-.77s.18-.22.25-.31H72v.08l-.79.59c-.34.24-.6.41-.77.52Zm.24,2.42a1.85,1.85,0,0,0,.14.8.5.5,0,0,0,.48.28.46.46,0,0,0,.46-.28,1.85,1.85,0,0,0,.14-.8,1.8,1.8,0,0,0-.14-.79.48.48,0,0,0-.47-.27.49.49,0,0,0-.47.27A1.8,1.8,0,0,0,69.7,32.31Z"/><path class="cls-4" d="M76.68,34.37l-.47-1.95-.1-.59L76,31.36h0c-.12.67-.2,1.09-.24,1.27l-.41,1.74H73.88l-1.12-4.09h1.39l.33,1.57a9.47,9.47,0,0,1,.19,1.34h0a7.78,7.78,0,0,1,.2-1.26l.37-1.65h1.56L77.17,32c.11.53.18.94.21,1.24h0c0-.18,0-.41.07-.69s.07-.49.11-.65L78,30.28h1.36l-1.13,4.09Z"/><path class="cls-4" d="M24.74,42.09a1.23,1.23,0,0,1,1.06.56,2.67,2.67,0,0,1,.4,1.55,2.73,2.73,0,0,1-.4,1.56,1.25,1.25,0,0,1-1.1.56,1.64,1.64,0,0,1-.4,0,1.34,1.34,0,0,1-.32-.14,1.57,1.57,0,0,1-.32-.29h-.09l-.22.4h-1.1V40.64h1.41v1.27c0,.15,0,.41-.05.78h.05a1.18,1.18,0,0,1,1.08-.6Zm-.51,1.11a.49.49,0,0,0-.43.2,1.14,1.14,0,0,0-.14.65v.2a1.34,1.34,0,0,0,.14.72.49.49,0,0,0,.44.22.43.43,0,0,0,.39-.26,1.8,1.8,0,0,0,.13-.75C24.76,43.53,24.58,43.2,24.23,43.2Z"/><path class="cls-4" d="M29,46.32a2.18,2.18,0,0,1-1.58-.54,2,2,0,0,1-.57-1.55,2.19,2.19,0,0,1,.53-1.58,2,2,0,0,1,1.49-.56,2,2,0,0,1,1.43.48,1.86,1.86,0,0,1,.5,1.39v.63H28.25a.7.7,0,0,0,.25.54,1,1,0,0,0,.64.19,3,3,0,0,0,.69-.07A3.64,3.64,0,0,0,30.5,45v1a2.21,2.21,0,0,1-.68.24A5.21,5.21,0,0,1,29,46.32Zm-.08-3.27a.58.58,0,0,0-.42.16.74.74,0,0,0-.19.49h1.21a.71.71,0,0,0-.17-.47A.55.55,0,0,0,28.89,43.05Z"/><path class="cls-4" d="M34.64,46.25H31.26v-.8L33,43.24H31.36V42.16h3.2V43l-1.62,2.13h1.7Z"/><path class="cls-4" d="M40.39,45a1.17,1.17,0,0,1-.45,1,2.1,2.1,0,0,1-1.28.33,6.11,6.11,0,0,1-.79,0,5,5,0,0,1-.69-.18V45a6.07,6.07,0,0,0,.72.24,3.2,3.2,0,0,0,.7.09c.31,0,.46-.07.46-.21a.22.22,0,0,0-.13-.19,4.58,4.58,0,0,0-.74-.33A1.87,1.87,0,0,1,37.4,44a1.16,1.16,0,0,1-.22-.74,1,1,0,0,1,.44-.89,2.1,2.1,0,0,1,1.24-.32,3.1,3.1,0,0,1,.76.09,4.11,4.11,0,0,1,.74.26l-.38.91a3.89,3.89,0,0,0-.6-.22,2,2,0,0,0-.51-.09c-.23,0-.35.06-.35.17a.21.21,0,0,0,.12.18,6.66,6.66,0,0,0,.7.3A2.76,2.76,0,0,1,40,44a1,1,0,0,1,.31.4A1.34,1.34,0,0,1,40.39,45Z"/><path class="cls-4" d="M44.25,46.25H40.86v-.8l1.7-2.21H41V42.16h3.21V43l-1.62,2.13h1.7Z"/><path class="cls-4" d="M46.92,45.21a2.28,2.28,0,0,0,.69-.14v1a2.64,2.64,0,0,1-.55.17,2.69,2.69,0,0,1-.6,0,1.33,1.33,0,0,1-1-.34,1.57,1.57,0,0,1-.31-1.07V43.22h-.5v-.57l.63-.45.37-.86h.92v.82h1v1.06h-1v1.59C46.54,45.08,46.67,45.21,46.92,45.21Z"/><path class="cls-4" d="M51.23,46.25l-.17-.51H51a1.14,1.14,0,0,1-.49.43,1.72,1.72,0,0,1-.74.15,1.39,1.39,0,0,1-1.05-.39,1.53,1.53,0,0,1-.38-1.1V42.16h1.41V44.4a1.2,1.2,0,0,0,.12.6.38.38,0,0,0,.37.21.55.55,0,0,0,.52-.29,2.21,2.21,0,0,0,.16-1V42.16H52.3v4.09Z"/><path class="cls-4" d="M55.13,46.32a2,2,0,0,1-1.52-.54,2.18,2.18,0,0,1-.52-1.55,2.14,2.14,0,0,1,.56-1.58,2.19,2.19,0,0,1,1.6-.56,2.89,2.89,0,0,1,1.33.31l-.41,1a4.61,4.61,0,0,0-.47-.17,1.41,1.41,0,0,0-.45-.07.63.63,0,0,0-.54.27,1.32,1.32,0,0,0-.18.75c0,.65.24,1,.72,1a2.18,2.18,0,0,0,1.19-.36V46A2.32,2.32,0,0,1,55.13,46.32Z"/><path class="cls-4" d="M60.33,46.25H57v-.8l1.69-2.21H57V42.16h3.21V43l-1.62,2.13h1.7Z"/><path class="cls-4" d="M63.58,46.25V44a1.22,1.22,0,0,0-.12-.61.38.38,0,0,0-.37-.21.55.55,0,0,0-.52.28,2.12,2.12,0,0,0-.16,1v1.79H61V42.16h1.07l.17.51h.09a1.05,1.05,0,0,1,.5-.43,1.67,1.67,0,0,1,.73-.15,1.43,1.43,0,0,1,1.06.39A1.57,1.57,0,0,1,65,43.59v2.66Z"/><path class="cls-4" d="M65.46,42.16h1.48l.7,2.35a3.71,3.71,0,0,1,.07.44h0a2.31,2.31,0,0,1,.09-.43l.71-2.36H70l-1.61,4.35a2.56,2.56,0,0,1-.77,1.17,1.88,1.88,0,0,1-1.18.35,2.93,2.93,0,0,1-.58-.06V46.86a2,2,0,0,0,.44,0,.72.72,0,0,0,.33-.07.91.91,0,0,0,.24-.2,1.91,1.91,0,0,0,.23-.44Z"/><path class="cls-4" d="M72.32,46.32a2,2,0,0,1-1.52-.54,2.18,2.18,0,0,1-.52-1.55,2.14,2.14,0,0,1,.56-1.58,2.17,2.17,0,0,1,1.59-.56,2.93,2.93,0,0,1,1.34.31l-.41,1a4,4,0,0,0-.48-.17,1.33,1.33,0,0,0-.45-.07.62.62,0,0,0-.53.27,1.32,1.32,0,0,0-.18.75c0,.65.24,1,.72,1a2.2,2.2,0,0,0,1.19-.36V46A2.32,2.32,0,0,1,72.32,46.32Z"/><path class="cls-4" d="M77,46.25V44c0-.55-.17-.82-.49-.82a.55.55,0,0,0-.51.29,2,2,0,0,0-.16,1v1.8H74.44V40.64h1.42v.79c0,.37,0,.78-.06,1.24h.06a1.27,1.27,0,0,1,.48-.45,1.48,1.48,0,0,1,.65-.13,1.37,1.37,0,0,1,1.06.4,1.49,1.49,0,0,1,.39,1.1v2.66Z"/><path class="cls-4" d="M31.71,49.09a1.23,1.23,0,0,1,1.06.56,2.67,2.67,0,0,1,.39,1.55,2.73,2.73,0,0,1-.39,1.56,1.26,1.26,0,0,1-1.1.56,1.73,1.73,0,0,1-.41,0,1.46,1.46,0,0,1-.31-.14,1.88,1.88,0,0,1-.33-.29h-.08l-.23.4h-1.1V47.64h1.41v1.27a7.53,7.53,0,0,1-.05.78h.05a1.39,1.39,0,0,1,.48-.46A1.34,1.34,0,0,1,31.71,49.09ZM31.2,50.2a.5.5,0,0,0-.44.2,1.23,1.23,0,0,0-.14.65v.2a1.45,1.45,0,0,0,.14.72.5.5,0,0,0,.45.22.42.42,0,0,0,.38-.26,1.64,1.64,0,0,0,.14-.75C31.73,50.53,31.55,50.2,31.2,50.2Z"/><path class="cls-4" d="M36.63,53.25l-.27-.54h0a1.47,1.47,0,0,1-.58.48,1.82,1.82,0,0,1-.76.13,1.19,1.19,0,0,1-.91-.34,1.37,1.37,0,0,1-.33-1,1.11,1.11,0,0,1,.45-1,2.53,2.53,0,0,1,1.32-.36l.68,0v-.06a.44.44,0,0,0-.5-.5,3,3,0,0,0-1.13.3l-.41-.93a3.84,3.84,0,0,1,1.8-.37,1.75,1.75,0,0,1,1.22.39,1.38,1.38,0,0,1,.43,1.09v2.68Zm-1-.92a.7.7,0,0,0,.44-.16.55.55,0,0,0,.18-.43v-.31h-.33q-.69,0-.69.51C35.19,52.2,35.32,52.33,35.59,52.33Z"/><path class="cls-4" d="M41,49.09a2,2,0,0,1,.35,0h.08l-.13,1.34a1.9,1.9,0,0,0-.48,0,.93.93,0,0,0-.67.21.84.84,0,0,0-.21.61v2H38.57V49.16h1l.22.66h.07a1.39,1.39,0,0,1,.49-.53A1.23,1.23,0,0,1,41,49.09Z"/><path class="cls-4" d="M45.56,53.25l-.46-2L45,50.71l-.07-.47h0c-.11.68-.19,1.1-.23,1.28l-.42,1.73H42.76l-1.12-4.09H43l.33,1.57a9.58,9.58,0,0,1,.19,1.35h0a9,9,0,0,1,.2-1.27l.38-1.65h1.56l.34,1.67c.11.54.18,1,.21,1.25h0c0-.19,0-.42.08-.69a5.61,5.61,0,0,1,.11-.66l.36-1.57h1.36l-1.12,4.09Z"/><path class="cls-4" d="M51.35,53.25V51a1.22,1.22,0,0,0-.12-.61.41.41,0,0,0-.38-.21.53.53,0,0,0-.51.28,2.12,2.12,0,0,0-.16,1v1.79H48.77V49.16h1.06l.18.51h.08a1.1,1.1,0,0,1,.5-.43,1.7,1.7,0,0,1,.73-.15,1.4,1.4,0,0,1,1.06.39,1.57,1.57,0,0,1,.38,1.11v2.66Z"/><path class="cls-4" d="M53.69,48.15a.6.6,0,0,1,.18-.48,1.13,1.13,0,0,1,1.14,0,.58.58,0,0,1,.18.47c0,.41-.25.62-.76.62S53.69,48.56,53.69,48.15Zm1.44,5.1H53.72V49.16h1.41Z"/><path class="cls-4" d="M57.49,51a5.41,5.41,0,0,1,.44-.63l.91-1.16h1.58L59,50.9l1.51,2.35H58.89L58,51.79l-.46.35v1.11H56.12V47.64h1.42v2.21a8,8,0,0,1-.08,1.1Z"/><path class="cls-4" d="M64.9,51.2a2.14,2.14,0,0,1-.54,1.56,2,2,0,0,1-1.51.56,2,2,0,0,1-1.48-.57,2.49,2.49,0,0,1,0-3.1,2,2,0,0,1,1.52-.56,2.16,2.16,0,0,1,1.06.26,1.75,1.75,0,0,1,.72.73A2.47,2.47,0,0,1,64.9,51.2ZM62,48.77v-.1c.37-.4.6-.65.7-.77l.25-.31H64.5v.08c-.19.15-.45.35-.79.58s-.59.42-.77.52Zm.24,2.43a1.71,1.71,0,0,0,.14.8.53.53,0,0,0,.94,0,1.87,1.87,0,0,0,.13-.8,1.67,1.67,0,0,0-.14-.79.54.54,0,0,0-.93,0A1.64,1.64,0,0,0,62.25,51.2Z"/><path class="cls-4" d="M69.22,53.25l-.46-2-.11-.59-.07-.47h0c-.12.68-.2,1.1-.24,1.28l-.42,1.73H66.42L65.3,49.16h1.39L67,50.73a11,11,0,0,1,.18,1.35h0a10.86,10.86,0,0,1,.2-1.27l.38-1.65h1.56l.34,1.67a8.91,8.91,0,0,1,.21,1.25h0c0-.19,0-.42.07-.69a5.61,5.61,0,0,1,.11-.66l.36-1.57h1.36l-1.12,4.09Z"/><path class="cls-4" d="M29,61a1.22,1.22,0,0,1,1.06.56,3.26,3.26,0,0,1,0,3.11,1.27,1.27,0,0,1-1.1.56,1.25,1.25,0,0,1-.4,0,1.53,1.53,0,0,1-.32-.13,1.94,1.94,0,0,1-.32-.29h-.09l-.22.4h-1.1V59.52H28v1.27c0,.16,0,.42-.05.79H28A1.21,1.21,0,0,1,29,61Zm-.52,1.11a.46.46,0,0,0-.43.2,1.21,1.21,0,0,0-.14.65v.2a1.45,1.45,0,0,0,.14.72.49.49,0,0,0,.45.21.41.41,0,0,0,.38-.25,1.65,1.65,0,0,0,.13-.75C29.05,62.41,28.87,62.09,28.52,62.09Z"/><path class="cls-4" d="M33.27,65.21a2.22,2.22,0,0,1-1.59-.54,2,2,0,0,1-.56-1.55,2.22,2.22,0,0,1,.52-1.59A2,2,0,0,1,33.13,61a2,2,0,0,1,1.43.48,1.81,1.81,0,0,1,.5,1.39v.63H32.54a.69.69,0,0,0,.25.53,1,1,0,0,0,.65.2,3.64,3.64,0,0,0,.68-.07,4,4,0,0,0,.68-.24v1a2.82,2.82,0,0,1-.69.24A5.08,5.08,0,0,1,33.27,65.21Zm-.09-3.27a.59.59,0,0,0-.41.15.72.72,0,0,0-.2.5h1.21a.64.64,0,0,0-.17-.47A.54.54,0,0,0,33.18,61.94Z"/><path class="cls-4" d="M38.94,65.14H35.55v-.81l1.69-2.2H35.65V61.05h3.21v.87l-1.62,2.14h1.7Z"/><path class="cls-4" d="M44.19,65.14l-.27-.54h0a1.66,1.66,0,0,1-.58.48,1.82,1.82,0,0,1-.76.13,1.16,1.16,0,0,1-.91-.35,1.34,1.34,0,0,1-.33-1,1.11,1.11,0,0,1,.45-1,2.44,2.44,0,0,1,1.32-.36l.68,0v-.06a.45.45,0,0,0-.5-.51,3,3,0,0,0-1.13.31l-.41-.93a3.84,3.84,0,0,1,1.8-.37,1.75,1.75,0,0,1,1.22.39,1.38,1.38,0,0,1,.43,1.09v2.68Zm-1-.93a.65.65,0,0,0,.44-.16.54.54,0,0,0,.18-.42v-.32l-.33,0q-.69,0-.69.51C42.75,64.09,42.88,64.21,43.15,64.21Z"/><path class="cls-4" d="M47.54,65.14H46.13V59.52h1.41Z"/><path class="cls-4" d="M49.89,62.84a7.25,7.25,0,0,1,.43-.63l.92-1.16h1.57L51.4,62.79l1.5,2.35H51.29l-.89-1.47-.46.35v1.12H48.52V59.52h1.42v2.21a8.05,8.05,0,0,1-.08,1.11Z"/><path class="cls-4" d="M57.3,63.09a2.16,2.16,0,0,1-.54,1.56,2,2,0,0,1-1.51.56,2,2,0,0,1-1.48-.57,2.15,2.15,0,0,1-.55-1.55,2.18,2.18,0,0,1,.53-1.56A2,2,0,0,1,55.27,61a2.13,2.13,0,0,1,1.06.25,1.83,1.83,0,0,1,.72.74A2.47,2.47,0,0,1,57.3,63.09Zm-2.65,0a1.88,1.88,0,0,0,.14.8.49.49,0,0,0,.47.28.5.5,0,0,0,.47-.28,1.9,1.9,0,0,0,.13-.8,1.71,1.71,0,0,0-.14-.8.55.55,0,0,0-.93,0A1.82,1.82,0,0,0,54.65,63.09Z"/><path class="cls-4" d="M60.67,65.14V62.91c0-.55-.16-.82-.48-.82a.54.54,0,0,0-.51.29,2,2,0,0,0-.17,1v1.8H58.1V59.52h1.41v.8c0,.36,0,.77,0,1.24h.06a1,1,0,0,1,.48-.45,1.45,1.45,0,0,1,.65-.13,1.41,1.41,0,0,1,1.06.39,1.51,1.51,0,0,1,.38,1.11v2.66Z"/><path class="cls-4" d="M67,63.09a2.16,2.16,0,0,1-.54,1.56,2,2,0,0,1-1.51.56,2,2,0,0,1-1.48-.57,2.49,2.49,0,0,1,0-3.11A2,2,0,0,1,64.93,61a2.13,2.13,0,0,1,1.06.25,1.83,1.83,0,0,1,.72.74A2.47,2.47,0,0,1,67,63.09Zm-2.65,0a1.88,1.88,0,0,0,.14.8.53.53,0,0,0,.94,0,1.9,1.9,0,0,0,.13-.8,1.71,1.71,0,0,0-.14-.8.48.48,0,0,0-.46-.26.49.49,0,0,0-.47.26A1.82,1.82,0,0,0,64.31,63.09Z"/><path class="cls-4" d="M69.17,65.14H67.76V59.52h1.41Z"/><path class="cls-4" d="M73.06,65.14l-.17-.51H72.8a1.09,1.09,0,0,1-.49.43,1.72,1.72,0,0,1-.74.15,1.39,1.39,0,0,1-1-.39,1.54,1.54,0,0,1-.38-1.11V61.05h1.41v2.23a1.24,1.24,0,0,0,.12.61.38.38,0,0,0,.37.21.54.54,0,0,0,.52-.29,2.1,2.1,0,0,0,.16-1V61.05h1.41v4.09Z"/><path class="cls-4" d="M34.71,73.3a1.21,1.21,0,0,1,1.06.56,2.67,2.67,0,0,1,.39,1.55A2.73,2.73,0,0,1,35.77,77a1.29,1.29,0,0,1-1.1.56,1.7,1.7,0,0,1-.41,0,1.44,1.44,0,0,1-.31-.13,1.94,1.94,0,0,1-.32-.29h-.09l-.22.4H32.21V71.84h1.42v1.27c0,.16,0,.42-.05.79h.05a1.18,1.18,0,0,1,1.08-.6Zm-.51,1.11a.48.48,0,0,0-.44.2,1.22,1.22,0,0,0-.13.65v.2a1.46,1.46,0,0,0,.13.72.49.49,0,0,0,.45.21.41.41,0,0,0,.38-.25,1.64,1.64,0,0,0,.14-.75C34.73,74.73,34.55,74.41,34.2,74.41Z"/><path class="cls-4" d="M38.94,77.53A2.22,2.22,0,0,1,37.35,77a2.07,2.07,0,0,1-.56-1.55,2.22,2.22,0,0,1,.52-1.59,2.33,2.33,0,0,1,2.92-.07,1.81,1.81,0,0,1,.51,1.39v.62H38.22a.7.7,0,0,0,.25.54,1,1,0,0,0,.64.2,3.47,3.47,0,0,0,.68-.07,3.72,3.72,0,0,0,.68-.24v1a2.9,2.9,0,0,1-.68.24A5.21,5.21,0,0,1,38.94,77.53Zm-.08-3.27a.57.57,0,0,0-.42.16.72.72,0,0,0-.2.49h1.22a.73.73,0,0,0-.17-.48A.58.58,0,0,0,38.86,74.26Z"/><path class="cls-4" d="M44.61,77.46H41.23v-.81l1.69-2.2h-1.6V73.37h3.21v.87l-1.62,2.14h1.7Z"/><path class="cls-4" d="M49.06,77.53A2,2,0,0,1,47.54,77,2.19,2.19,0,0,1,47,75.43a1.95,1.95,0,0,1,2.16-2.13,2.89,2.89,0,0,1,1.33.31l-.41,1-.47-.18a1.74,1.74,0,0,0-.45-.06.61.61,0,0,0-.53.26,1.28,1.28,0,0,0-.19.76c0,.65.24,1,.72,1a2.18,2.18,0,0,0,1.19-.36v1.12A2.32,2.32,0,0,1,49.06,77.53Z"/><path class="cls-4" d="M54.1,77.46,53.92,77h-.08a1.14,1.14,0,0,1-.49.43,1.76,1.76,0,0,1-.75.15,1.39,1.39,0,0,1-1.05-.39A1.54,1.54,0,0,1,51.18,76V73.37h1.41V75.6a1.38,1.38,0,0,0,.11.61.4.4,0,0,0,.38.21.56.56,0,0,0,.52-.29,2.27,2.27,0,0,0,.15-1V73.37h1.41v4.09Z"/><path class="cls-4" d="M57.5,75.16c.17-.27.32-.48.44-.64l.92-1.15h1.57L59,75.11l1.51,2.35H58.91L58,76l-.46.35v1.12H56.14V71.84h1.41v2.21a8.07,8.07,0,0,1-.07,1.11Z"/><path class="cls-4" d="M63.48,73.3a2,2,0,0,1,.35,0h.08l-.13,1.33a2,2,0,0,0-.48,0,.91.91,0,0,0-.67.21.82.82,0,0,0-.21.61v2H61V73.37h1.05l.22.65h.07a1.44,1.44,0,0,1,.49-.52A1.12,1.12,0,0,1,63.48,73.3Z"/><path class="cls-4" d="M67.39,77.46,67.21,77h-.08a1.14,1.14,0,0,1-.49.43,1.73,1.73,0,0,1-.75.15,1.39,1.39,0,0,1-1-.39A1.54,1.54,0,0,1,64.47,76V73.37h1.41V75.6a1.38,1.38,0,0,0,.11.61.4.4,0,0,0,.38.21.56.56,0,0,0,.52-.29,2.27,2.27,0,0,0,.15-1V73.37h1.41v4.09Z"/></g></svg>