<svg xmlns="http://www.w3.org/2000/svg" xmlns:xlink="http://www.w3.org/1999/xlink" viewBox="0 0 100 100"><defs><style>.cls-1{fill:url(#Gradient_bez_nazwy);}.cls-2{fill:url(#Gradient_bez_nazwy_2);}.cls-3{fill:#fff;}.cls-4{fill:#b02d70;}</style><radialGradient id="Gradient_bez_nazwy" cx="135.62" cy="-156.66" r="40" gradientTransform="matrix(0.71, 0.71, 0.71, -0.71, 64.88, -156.67)" gradientUnits="userSpaceOnUse"><stop offset="0.78" stop-color="#fff"/><stop offset="1" stop-color="#bbb"/></radialGradient><linearGradient id="Gradient_bez_nazwy_2" x1="95.59" y1="141.34" x2="175.64" y2="141.34" gradientTransform="matrix(0.71, 0.71, 0.71, -0.71, -145.84, 54.05)" gradientUnits="userSpaceOnUse"><stop offset="0" stop-color="#5f5f5f"/><stop offset="0.53" stop-color="#fff"/><stop offset="1" stop-color="#353535"/></linearGradient></defs><title>kolko_PTP</title><g id="Warstwa_1" data-name="Warstwa 1"><circle class="cls-1" cx="50" cy="50" r="40"/><path class="cls-2" d="M77,23a38.18,38.18,0,1,1-54.1,0A38.2,38.2,0,0,1,77,23m1.3-1.3a40,40,0,1,0,0,56.6,39.9,39.9,0,0,0,0-56.6Z"/><polygon class="cls-3" points="27.8 74.7 22.5 79.5 17.1 85.4 22.8 79.9 27.8 74.7"/><polygon class="cls-3" points="24.1 74.8 22.5 79.3 21.5 84.5 23 79.5 24.1 74.8"/><polygon class="cls-3" points="21.5 74.8 22.5 79.5 24.1 84.5 22.9 79.4 21.5 74.8"/><polygon class="cls-3" points="17.7 74.6 22.2 79.5 27.7 84.5 22.5 79.2 17.7 74.6"/><polygon class="cls-3" points="18 78.3 22.5 79.9 27.7 81 22.6 79.5 18 78.3"/><polygon class="cls-3" points="18 81 22.6 80 27.7 78.3 22.5 79.6 18 81"/><polygon class="cls-3" points="85.2 18.2 79.9 23.1 74.5 28.9 80.2 23.4 85.2 18.2"/><polygon class="cls-3" points="81.5 18.4 79.9 22.9 78.9 28.1 80.4 23 81.5 18.4"/><polygon class="cls-3" points="78.9 18.4 79.9 23.1 81.5 28.1 80.3 22.9 78.9 18.4"/><polygon class="cls-3" points="75.1 18.2 79.6 23.1 85.1 28.1 79.9 22.8 75.1 18.2"/><polygon class="cls-3" points="75.4 21.9 79.9 23.4 85.1 24.5 80 23 75.4 21.9"/><polygon class="cls-3" points="75.4 24.5 80 23.6 85.1 21.9 79.9 23.2 75.4 24.5"/></g><g id="Warstwa_2" data-name="Warstwa 2"><path class="cls-4" d="M24.13,38.11V40H22.7V34.75h1.73c1.43,0,2.15.52,2.15,1.56a1.57,1.57,0,0,1-.89,1.42L27.22,40H25.61l-1.12-1.92Zm0-1.07h.26c.5,0,.75-.23.75-.66s-.24-.55-.73-.55h-.28Z"/><path class="cls-4" d="M29.59,40.1A2.18,2.18,0,0,1,28,39.56,2.05,2.05,0,0,1,27.44,38,2.23,2.23,0,0,1,28,36.42a1.94,1.94,0,0,1,1.49-.55,2,2,0,0,1,1.43.48,1.85,1.85,0,0,1,.5,1.39v.62H28.87a.7.7,0,0,0,.25.54,1,1,0,0,0,.64.2,2.9,2.9,0,0,0,1.36-.31v1a2.48,2.48,0,0,1-.68.23A4.22,4.22,0,0,1,29.59,40.1Zm-.08-3.27a.64.64,0,0,0-.42.15.77.77,0,0,0-.19.5h1.21a.69.69,0,0,0-.17-.48A.53.53,0,0,0,29.51,36.83Z"/><path class="cls-4" d="M33.56,37.73a7.68,7.68,0,0,1,.43-.64l.92-1.15h1.57l-1.41,1.74L36.57,40H35l-.89-1.47-.46.35V40H32.19V34.41h1.42v2.21a8.05,8.05,0,0,1-.08,1.11Z"/><path class="cls-4" d="M41,38a2.19,2.19,0,0,1-.54,1.57,2,2,0,0,1-1.51.56,2,2,0,0,1-1.49-.57A2.2,2.2,0,0,1,36.88,38a2.13,2.13,0,0,1,.54-1.55,2,2,0,0,1,1.52-.55,2.16,2.16,0,0,1,1.06.25,1.69,1.69,0,0,1,.71.74A2.33,2.33,0,0,1,41,38Zm-2.65,0a1.79,1.79,0,0,0,.14.81.48.48,0,0,0,.47.27.47.47,0,0,0,.46-.27,1.93,1.93,0,0,0,.14-.81,1.8,1.8,0,0,0-.14-.79.49.49,0,0,0-.47-.26.47.47,0,0,0-.46.26A1.67,1.67,0,0,0,38.32,38Z"/><path class="cls-4" d="M46.79,40V37.8a1.43,1.43,0,0,0-.11-.62.39.39,0,0,0-.36-.21.52.52,0,0,0-.48.28,1.94,1.94,0,0,0-.15.87V40H44.27V37.8a1.45,1.45,0,0,0-.1-.62.37.37,0,0,0-.35-.21.52.52,0,0,0-.49.3,2.3,2.3,0,0,0-.15,1V40H41.77V35.94h1.06l.18.5h.08a1.12,1.12,0,0,1,.48-.43,1.71,1.71,0,0,1,.7-.14,1.39,1.39,0,0,1,1.24.53h.11A1.24,1.24,0,0,1,46.1,36a1.56,1.56,0,0,1,.68-.14,1.38,1.38,0,0,1,1.07.37,1.56,1.56,0,0,1,.35,1.13V40Z"/><path class="cls-4" d="M51.13,40.1a2.19,2.19,0,0,1-1.58-.54A2.05,2.05,0,0,1,49,38a2.23,2.23,0,0,1,.53-1.59A1.94,1.94,0,0,1,51,35.87a2,2,0,0,1,1.43.48,1.85,1.85,0,0,1,.5,1.39v.62H50.41a.7.7,0,0,0,.25.54,1,1,0,0,0,.64.2A3.66,3.66,0,0,0,52,39a4,4,0,0,0,.68-.24v1A2.67,2.67,0,0,1,52,40,4.22,4.22,0,0,1,51.13,40.1Zm-.08-3.27a.64.64,0,0,0-.42.15.77.77,0,0,0-.19.5h1.21a.69.69,0,0,0-.17-.48A.53.53,0,0,0,51.05,36.83Z"/><path class="cls-4" d="M56.31,40V37.8a1.26,1.26,0,0,0-.12-.62.39.39,0,0,0-.37-.21.56.56,0,0,0-.52.29,2.09,2.09,0,0,0-.16,1V40H53.73V35.94h1.06l.18.5h.08a1.17,1.17,0,0,1,.5-.43,1.75,1.75,0,0,1,.74-.14,1.39,1.39,0,0,1,1.05.39,1.54,1.54,0,0,1,.38,1.11V40Z"/><path class="cls-4" d="M60,40.1a1.2,1.2,0,0,1-.76-.25,1.6,1.6,0,0,1-.51-.73A3.27,3.27,0,0,1,58.5,38a2.68,2.68,0,0,1,.4-1.56,1.28,1.28,0,0,1,1.1-.56,1.33,1.33,0,0,1,.61.13,1.46,1.46,0,0,1,.47.46h0a6,6,0,0,1-.07-1v-1.1h1.42V40H61.39l-.3-.52H61A1.22,1.22,0,0,1,60,40.1ZM60.53,39a.55.55,0,0,0,.48-.21,1.34,1.34,0,0,0,.15-.66V38a1.45,1.45,0,0,0-.16-.77.54.54,0,0,0-.49-.23.49.49,0,0,0-.43.26,1.56,1.56,0,0,0-.15.75,1.38,1.38,0,0,0,.15.72A.51.51,0,0,0,60.53,39Z"/><path class="cls-4" d="M66.1,40l-.27-.54h0a1.66,1.66,0,0,1-.58.48,1.85,1.85,0,0,1-.76.13,1.24,1.24,0,0,1-.92-.35,1.34,1.34,0,0,1-.33-1,1.11,1.11,0,0,1,.46-1A2.36,2.36,0,0,1,65,37.45l.68,0v-.05a.45.45,0,0,0-.5-.51,2.88,2.88,0,0,0-1.14.31l-.41-.94a4,4,0,0,1,1.81-.36,1.77,1.77,0,0,1,1.22.39,1.41,1.41,0,0,1,.43,1.09V40Zm-1-.93a.63.63,0,0,0,.44-.16.54.54,0,0,0,.18-.42V38.2l-.32,0c-.46,0-.7.18-.7.51S64.79,39.1,65.05,39.1Z"/><path class="cls-4" d="M69.9,40.1a2,2,0,0,1-1.52-.54A2.15,2.15,0,0,1,67.86,38,1.95,1.95,0,0,1,70,35.87a2.93,2.93,0,0,1,1.34.31l-.41,1a3.25,3.25,0,0,0-.48-.18A1.63,1.63,0,0,0,70,37a.61.61,0,0,0-.53.27,1.35,1.35,0,0,0-.19.76c0,.65.25,1,.73,1a2.2,2.2,0,0,0,1.19-.36v1.12A2.32,2.32,0,0,1,69.9,40.1Z"/><path class="cls-4" d="M71.92,41.8l-.4,0a2.08,2.08,0,0,1-.36-.07v-1.1a1.75,1.75,0,0,0,.43.07c.29,0,.43-.21.43-.62V35.94h1.41v4.42A1.43,1.43,0,0,1,73,41.42,1.58,1.58,0,0,1,71.92,41.8ZM72,34.92a.58.58,0,0,1,.17-.47.83.83,0,0,1,.57-.16.89.89,0,0,1,.58.16.6.6,0,0,1,.18.47c0,.41-.25.62-.76.62S72,35.33,72,34.92Z"/><path class="cls-4" d="M77.09,40l-.27-.54h0a1.76,1.76,0,0,1-.58.48,1.9,1.9,0,0,1-.77.13,1.2,1.2,0,0,1-.91-.35,1.34,1.34,0,0,1-.33-1,1.1,1.1,0,0,1,.45-1A2.41,2.41,0,0,1,76,37.45l.68,0v-.05a.44.44,0,0,0-.5-.51,2.88,2.88,0,0,0-1.13.31l-.41-.94a4,4,0,0,1,1.8-.36,1.75,1.75,0,0,1,1.22.39,1.38,1.38,0,0,1,.43,1.09V40Zm-1-.93a.63.63,0,0,0,.44-.16.54.54,0,0,0,.18-.42V38.2l-.33,0q-.69,0-.69.51C75.64,39,75.77,39.1,76,39.1Z"/><path class="cls-4" d="M36.36,45.3a1.74,1.74,0,0,1-.52,1.36,2.11,2.11,0,0,1-1.48.49H34V48.9H32.53V43.62h1.83a2.22,2.22,0,0,1,1.5.44A1.53,1.53,0,0,1,36.36,45.3ZM34,46h.26a.72.72,0,0,0,.51-.18.63.63,0,0,0,.19-.5c0-.35-.2-.53-.59-.53H34Z"/><path class="cls-4" d="M41,46.84a2.18,2.18,0,0,1-.53,1.57A2,2,0,0,1,39,49a1.94,1.94,0,0,1-1.49-.58,2.17,2.17,0,0,1-.55-1.55,2.13,2.13,0,0,1,.54-1.55A2,2,0,0,1,39,44.73a2.16,2.16,0,0,1,1.06.26,1.69,1.69,0,0,1,.71.74A2.3,2.3,0,0,1,41,46.84Zm-2.64,0a1.79,1.79,0,0,0,.14.81.48.48,0,0,0,.47.27.47.47,0,0,0,.46-.27,1.93,1.93,0,0,0,.14-.81,1.8,1.8,0,0,0-.14-.79.48.48,0,0,0-.47-.27.48.48,0,0,0-.46.27A1.67,1.67,0,0,0,38.38,46.84Z"/><path class="cls-4" d="M43.24,48.9H41.83V43.28h1.41Z"/><path class="cls-4" d="M47.38,47.64a1.15,1.15,0,0,1-.45,1,2.09,2.09,0,0,1-1.29.34,6.06,6.06,0,0,1-.79,0,3,3,0,0,1-.68-.18V47.61a3.8,3.8,0,0,0,.72.24,3.12,3.12,0,0,0,.7.09q.45,0,.45-.21a.24.24,0,0,0-.12-.19,5.44,5.44,0,0,0-.75-.33,1.82,1.82,0,0,1-.78-.52,1.22,1.22,0,0,1-.23-.75,1,1,0,0,1,.44-.89,2.14,2.14,0,0,1,1.25-.32,3.1,3.1,0,0,1,.76.09,5,5,0,0,1,.73.26L47,46a3.74,3.74,0,0,0-.59-.21,2,2,0,0,0-.52-.09c-.23,0-.34.05-.34.17a.21.21,0,0,0,.12.18c.08,0,.31.15.7.3a3,3,0,0,1,.64.34,1.17,1.17,0,0,1,.31.4A1.52,1.52,0,0,1,47.38,47.64Z"/><path class="cls-4" d="M49.53,46.6A6.29,6.29,0,0,1,50,46l.92-1.15h1.57L51,46.55l1.5,2.35H50.93L50,47.43l-.46.35V48.9H48.16V43.28h1.42v2.21a8.05,8.05,0,0,1-.08,1.11Z"/><path class="cls-4" d="M53,43.79a.58.58,0,0,1,.18-.47,1.1,1.1,0,0,1,1.14,0,.6.6,0,0,1,.18.47c0,.41-.25.62-.75.62S53,44.2,53,43.79Zm1.45,5.11H53V44.81h1.41Z"/><path class="cls-4" d="M57.41,49a2.18,2.18,0,0,1-1.59-.55,2,2,0,0,1-.56-1.54,2.22,2.22,0,0,1,.52-1.59,2,2,0,0,1,1.49-.56,2,2,0,0,1,1.43.49,1.8,1.8,0,0,1,.51,1.38v.63H56.68a.73.73,0,0,0,.25.54,1,1,0,0,0,.65.19,2.9,2.9,0,0,0,.68-.07,2.65,2.65,0,0,0,.68-.24v1a2.44,2.44,0,0,1-.69.23A4.06,4.06,0,0,1,57.41,49Zm-.08-3.28a.61.61,0,0,0-.42.16.76.76,0,0,0-.2.49h1.21a.72.72,0,0,0-.16-.47A.55.55,0,0,0,57.33,45.69Z"/><path class="cls-4" d="M63.86,44.81v.68l-.56.2a1,1,0,0,1,.12.49,1.25,1.25,0,0,1-.47,1,2.23,2.23,0,0,1-1.38.36,1.73,1.73,0,0,1-.36,0,.41.41,0,0,0-.05.18c0,.07.05.12.17.16a1.33,1.33,0,0,0,.44.06h.68c.92,0,1.38.38,1.38,1.15a1.34,1.34,0,0,1-.64,1.17,3.34,3.34,0,0,1-1.79.41,2.59,2.59,0,0,1-1.34-.29.93.93,0,0,1-.47-.84c0-.48.3-.8.91-.94a.75.75,0,0,1-.33-.26A.56.56,0,0,1,60,48a.55.55,0,0,1,.11-.33,1.4,1.4,0,0,1,.43-.35,1.18,1.18,0,0,1-.5-.44,1.41,1.41,0,0,1-.18-.73,1.25,1.25,0,0,1,.46-1,2,2,0,0,1,1.3-.37l.38,0,.41.05ZM60.78,49.4a.31.31,0,0,0,.19.28,1,1,0,0,0,.5.11,2.1,2.1,0,0,0,.82-.13c.21-.08.31-.19.31-.33s-.06-.18-.19-.23a1.82,1.82,0,0,0-.54-.06h-.55a.65.65,0,0,0-.38.1A.3.3,0,0,0,60.78,49.4Zm.44-3.25c0,.41.15.62.44.62a.36.36,0,0,0,.31-.15.76.76,0,0,0,.11-.47q0-.63-.42-.63C61.37,45.52,61.22,45.73,61.22,46.15Z"/><path class="cls-4" d="M68.39,46.84a2.19,2.19,0,0,1-.54,1.57,2,2,0,0,1-1.51.56,1.92,1.92,0,0,1-1.48-.58,2.13,2.13,0,0,1-.55-1.55,2.17,2.17,0,0,1,.53-1.55,2,2,0,0,1,1.52-.56,2.13,2.13,0,0,1,1.06.26,1.77,1.77,0,0,1,.72.74A2.42,2.42,0,0,1,68.39,46.84Zm-2.65,0a1.93,1.93,0,0,0,.14.81.54.54,0,0,0,.94,0,2,2,0,0,0,.13-.81,1.67,1.67,0,0,0-.14-.79.54.54,0,0,0-.93,0A1.8,1.8,0,0,0,65.74,46.84Z"/><path class="cls-4" d="M27.83,57.76H26.41V53.65H25.12V52.49h4v1.16H27.83Z"/><path class="cls-4" d="M33.69,55.71a2.19,2.19,0,0,1-.54,1.57,2,2,0,0,1-1.51.56,1.94,1.94,0,0,1-1.48-.58,2.48,2.48,0,0,1,0-3.1,2,2,0,0,1,1.51-.56,2.17,2.17,0,0,1,1.07.26,1.78,1.78,0,0,1,.71.73A2.37,2.37,0,0,1,33.69,55.71Zm-2.65,0a1.85,1.85,0,0,0,.14.8.5.5,0,0,0,.48.28.46.46,0,0,0,.46-.28,1.85,1.85,0,0,0,.14-.8,1.8,1.8,0,0,0-.14-.79.48.48,0,0,0-.47-.27.49.49,0,0,0-.47.27A1.8,1.8,0,0,0,31,55.71Z"/><path class="cls-4" d="M38,57.76l-.47-1.94-.1-.59-.08-.48h0c-.12.68-.2,1.1-.24,1.28l-.41,1.73H35.21L34.1,53.68h1.39l.33,1.57A9.47,9.47,0,0,1,36,56.59h0a7.78,7.78,0,0,1,.2-1.26l.37-1.65h1.56l.35,1.67c.11.53.18.94.21,1.24h0c0-.18,0-.41.07-.69s.07-.49.11-.65l.37-1.57h1.36l-1.13,4.08Z"/><path class="cls-4" d="M43.89,57.76l-.27-.54h0a1.6,1.6,0,0,1-.58.49,2,2,0,0,1-.76.13,1.2,1.2,0,0,1-.91-.35,1.32,1.32,0,0,1-.34-1,1.14,1.14,0,0,1,.46-1,2.53,2.53,0,0,1,1.32-.36l.68,0v0a.45.45,0,0,0-.5-.51,3,3,0,0,0-1.14.3l-.4-.93a3.94,3.94,0,0,1,1.8-.37,1.77,1.77,0,0,1,1.22.39,1.39,1.39,0,0,1,.43,1.09v2.68Zm-1-.92a.61.61,0,0,0,.44-.16.54.54,0,0,0,.18-.42v-.32h-.32c-.46,0-.7.19-.7.52S42.58,56.84,42.84,56.84Z"/><path class="cls-4" d="M48.3,53.6a2,2,0,0,1,.35,0l.08,0L48.6,55a2.09,2.09,0,0,0-.48,0,.91.91,0,0,0-.67.21.81.81,0,0,0-.21.6v2H45.83V53.68h1.05l.22.65h.07a1.47,1.47,0,0,1,.49-.53A1.2,1.2,0,0,1,48.3,53.6Z"/><path class="cls-4" d="M52.37,57.76H49V57l1.69-2.21h-1.6V53.68h3.21v.87l-1.62,2.14h1.7Z"/><path class="cls-4" d="M52.55,53.68H54l.7,2.34a3.59,3.59,0,0,1,.07.45h0a1.73,1.73,0,0,1,.08-.44l.71-2.35h1.44L55.45,58a2.6,2.6,0,0,1-.77,1.18,1.88,1.88,0,0,1-1.18.34,2.93,2.93,0,0,1-.58-.06V58.37a2,2,0,0,0,.44,0,.72.72,0,0,0,.33-.07.76.76,0,0,0,.24-.2,1.8,1.8,0,0,0,.23-.43Z"/><path class="cls-4" d="M60.71,56.51a1.15,1.15,0,0,1-.45,1,2.14,2.14,0,0,1-1.28.34,6.1,6.1,0,0,1-.8-.05,3,3,0,0,1-.68-.18V56.48a3.8,3.8,0,0,0,.72.24,3.12,3.12,0,0,0,.7.09c.3,0,.46-.07.46-.21s-.05-.13-.13-.19a5.44,5.44,0,0,0-.75-.33,1.8,1.8,0,0,1-.78-.53,1.17,1.17,0,0,1-.23-.74,1,1,0,0,1,.44-.89,2.14,2.14,0,0,1,1.25-.32,3.1,3.1,0,0,1,.76.09,5,5,0,0,1,.73.26l-.38.91a5.14,5.14,0,0,0-.59-.22,2.36,2.36,0,0,0-.52-.08c-.23,0-.34,0-.34.17a.19.19,0,0,0,.12.17,7,7,0,0,0,.7.31,2.63,2.63,0,0,1,.64.34,1.17,1.17,0,0,1,.31.4A1.52,1.52,0,0,1,60.71,56.51Z"/><path class="cls-4" d="M63.49,56.72a2.17,2.17,0,0,0,.68-.14v1a2.4,2.4,0,0,1-.54.17,2.64,2.64,0,0,1-.6.06,1.33,1.33,0,0,1-1-.35,1.55,1.55,0,0,1-.31-1.07V54.73h-.5v-.57l.63-.44.37-.86h.92v.82h1v1h-1v1.6A.34.34,0,0,0,63.49,56.72Z"/><path class="cls-4" d="M68.41,57.76,68,55.82l-.11-.59-.07-.48h0c-.11.68-.19,1.1-.23,1.28l-.42,1.73H65.61l-1.12-4.08h1.39l.33,1.57a9.47,9.47,0,0,1,.19,1.34h0a9.16,9.16,0,0,1,.2-1.26L67,53.68h1.56l.34,1.67c.11.53.18.94.21,1.24h0c0-.18,0-.41.08-.69a5.06,5.06,0,0,1,.11-.65l.36-1.57H71l-1.12,4.08Z"/><path class="cls-4" d="M74.28,57.76,74,57.22h0a1.6,1.6,0,0,1-.58.49,2,2,0,0,1-.76.13,1.2,1.2,0,0,1-.91-.35,1.36,1.36,0,0,1-.33-1,1.13,1.13,0,0,1,.45-1,2.53,2.53,0,0,1,1.32-.36l.68,0v0a.45.45,0,0,0-.5-.51,3,3,0,0,0-1.14.3l-.4-.93a3.94,3.94,0,0,1,1.8-.37,1.75,1.75,0,0,1,1.22.39,1.39,1.39,0,0,1,.43,1.09v2.68Zm-1-.92a.6.6,0,0,0,.43-.16.52.52,0,0,0,.19-.42v-.32h-.33c-.46,0-.69.19-.69.52S73,56.84,73.24,56.84Z"/><path class="cls-4" d="M25.33,63a1.79,1.79,0,0,1-.52,1.36,2.14,2.14,0,0,1-1.49.48h-.4v1.75H21.5V61.36h1.82a2.27,2.27,0,0,1,1.51.43A1.58,1.58,0,0,1,25.33,63Zm-2.41.68h.26a.69.69,0,0,0,.51-.18.65.65,0,0,0,.19-.5c0-.35-.19-.53-.59-.53h-.37Z"/><path class="cls-4" d="M28.06,66.71a2.22,2.22,0,0,1-1.59-.55,2.06,2.06,0,0,1-.56-1.54A2.21,2.21,0,0,1,26.43,63,2.31,2.31,0,0,1,29.35,63a1.84,1.84,0,0,1,.51,1.39V65H27.33a.73.73,0,0,0,.25.54,1,1,0,0,0,.65.19,2.9,2.9,0,0,0,.68-.07,3.72,3.72,0,0,0,.68-.24v1a2.44,2.44,0,0,1-.69.23A4.89,4.89,0,0,1,28.06,66.71ZM28,63.43a.57.57,0,0,0-.42.16.74.74,0,0,0-.2.49h1.21a.7.7,0,0,0-.16-.47A.55.55,0,0,0,28,63.43Z"/><path class="cls-4" d="M31.92,66.71a1.26,1.26,0,0,1-.76-.25,1.5,1.5,0,0,1-.5-.74,3.23,3.23,0,0,1-.18-1.13,2.6,2.6,0,0,1,.4-1.55,1.35,1.35,0,0,1,1.7-.43,1.28,1.28,0,0,1,.47.46h0a6.2,6.2,0,0,1-.07-1V61h1.42v5.61H33.37l-.31-.51H33A1.19,1.19,0,0,1,31.92,66.71Zm.58-1.12a.53.53,0,0,0,.48-.21,1.34,1.34,0,0,0,.15-.66v-.11a1.36,1.36,0,0,0-.16-.77.54.54,0,0,0-.48-.23.47.47,0,0,0-.43.26,1.39,1.39,0,0,0-.16.75,1.33,1.33,0,0,0,.16.72A.48.48,0,0,0,32.5,65.59Z"/><path class="cls-4" d="M35.38,61.53a.64.64,0,0,1,.17-.48.88.88,0,0,1,.57-.15.84.84,0,0,1,.58.16.58.58,0,0,1,.18.47c0,.41-.25.62-.76.62S35.38,61.94,35.38,61.53Zm1.44,5.1H35.41V62.54h1.41Z"/><path class="cls-4" d="M40.48,66.63l-.27-.54h0a1.68,1.68,0,0,1-.58.49,2.09,2.09,0,0,1-.77.13,1.21,1.21,0,0,1-.91-.35,1.37,1.37,0,0,1-.33-1,1.11,1.11,0,0,1,.45-1,2.59,2.59,0,0,1,1.32-.36L40,64V64a.44.44,0,0,0-.49-.5,3,3,0,0,0-1.14.3L38,62.84a3.89,3.89,0,0,1,1.81-.37,1.73,1.73,0,0,1,1.21.39A1.38,1.38,0,0,1,41.45,64v2.68Zm-1-.92a.63.63,0,0,0,.44-.16.55.55,0,0,0,.18-.43v-.31h-.32c-.47,0-.7.19-.7.51S39.16,65.71,39.43,65.71Z"/><path class="cls-4" d="M44.42,65.59a2.22,2.22,0,0,0,.68-.14v1a2.57,2.57,0,0,1-.54.17,2.8,2.8,0,0,1-.61.06,1.32,1.32,0,0,1-1-.35,1.57,1.57,0,0,1-.32-1.07V63.6h-.49V63l.63-.45.36-.86H44v.82h1V63.6H44v1.59A.35.35,0,0,0,44.42,65.59Z"/><path class="cls-4" d="M48.28,62.47a2,2,0,0,1,.35,0l.08,0-.12,1.33a2,2,0,0,0-.48-.05.94.94,0,0,0-.68.21.85.85,0,0,0-.21.61v2H45.81V62.54h1l.22.66h.07a1.41,1.41,0,0,1,.5-.53A1.2,1.2,0,0,1,48.28,62.47Z"/><path class="cls-4" d="M48.79,62.54h1.48l.7,2.35a3.71,3.71,0,0,1,.07.44h0a2.31,2.31,0,0,1,.09-.43l.71-2.36H53.3l-1.62,4.35a2.51,2.51,0,0,1-.76,1.18,1.94,1.94,0,0,1-1.18.34,2.93,2.93,0,0,1-.58-.06V67.24a2,2,0,0,0,.44,0,.72.72,0,0,0,.33-.07.91.91,0,0,0,.24-.2,2,2,0,0,0,.23-.43Z"/><path class="cls-4" d="M55.65,66.71a2,2,0,0,1-1.52-.55,2.15,2.15,0,0,1,1.63-3.69,3.06,3.06,0,0,1,1.34.31l-.41,1a2.88,2.88,0,0,0-.48-.18,1.33,1.33,0,0,0-.45-.07.61.61,0,0,0-.53.27,1.34,1.34,0,0,0-.19.75c0,.66.25,1,.73,1A2.2,2.2,0,0,0,57,65.22v1.12A2.32,2.32,0,0,1,55.65,66.71Z"/><path class="cls-4" d="M60.85,66.63H57.46v-.8l1.7-2.21h-1.6V62.54h3.21v.88l-1.62,2.13h1.7Z"/><path class="cls-4" d="M64.1,66.63V64.4a1.24,1.24,0,0,0-.12-.61.39.39,0,0,0-.37-.21.54.54,0,0,0-.52.29,2,2,0,0,0-.16,1v1.79H61.52V62.54h1.06l.18.51h.08a1.1,1.1,0,0,1,.5-.43,1.75,1.75,0,0,1,.74-.15,1.36,1.36,0,0,1,1,.4,1.53,1.53,0,0,1,.38,1.1v2.66Z"/><path class="cls-4" d="M68.44,66.71a2.18,2.18,0,0,1-1.58-.55,2,2,0,0,1-.57-1.54A2.21,2.21,0,0,1,66.82,63a2,2,0,0,1,1.49-.56,2,2,0,0,1,1.43.48,1.88,1.88,0,0,1,.5,1.39V65H67.72a.7.7,0,0,0,.25.54,1,1,0,0,0,.64.19,3,3,0,0,0,.69-.07,3.92,3.92,0,0,0,.67-.24v1a2.48,2.48,0,0,1-.68.23A5.11,5.11,0,0,1,68.44,66.71Zm-.08-3.28a.58.58,0,0,0-.42.16.74.74,0,0,0-.19.49H69a.66.66,0,0,0-.17-.47A.55.55,0,0,0,68.36,63.43Z"/><path class="cls-4" d="M74.9,62.54v.69l-.56.2a1.07,1.07,0,0,1,.11.49,1.21,1.21,0,0,1-.46,1,2.16,2.16,0,0,1-1.38.37,1.77,1.77,0,0,1-.37,0,.41.41,0,0,0,0,.18c0,.07.06.12.17.16a1.81,1.81,0,0,0,.45,0h.68c.91,0,1.37.39,1.37,1.16A1.29,1.29,0,0,1,74.22,68a3.21,3.21,0,0,1-1.78.42,2.65,2.65,0,0,1-1.35-.29.94.94,0,0,1-.47-.84c0-.49.31-.8.91-.94a.88.88,0,0,1-.32-.26.52.52,0,0,1-.14-.35.57.57,0,0,1,.1-.34,1.88,1.88,0,0,1,.44-.35,1.07,1.07,0,0,1-.5-.44,1.35,1.35,0,0,1-.18-.72,1.27,1.27,0,0,1,.45-1,2,2,0,0,1,1.3-.37l.39,0,.4,0Zm-3.09,4.6a.32.32,0,0,0,.19.28,1,1,0,0,0,.5.11,2.12,2.12,0,0,0,.83-.13q.3-.14.3-.33a.23.23,0,0,0-.18-.23,1.86,1.86,0,0,0-.54-.07h-.55a.69.69,0,0,0-.39.11A.33.33,0,0,0,71.81,67.14Zm.45-3.26c0,.42.14.63.44.63a.37.37,0,0,0,.31-.15.86.86,0,0,0,.11-.47c0-.42-.14-.64-.42-.64S72.26,63.46,72.26,63.88Z"/><path class="cls-4" d="M79.42,64.58a2.14,2.14,0,0,1-.54,1.56,2.23,2.23,0,0,1-3,0,2.48,2.48,0,0,1,0-3.1,2,2,0,0,1,1.51-.56,2.17,2.17,0,0,1,1.07.26,1.72,1.72,0,0,1,.71.73A2.34,2.34,0,0,1,79.42,64.58Zm-2.65,0a1.85,1.85,0,0,0,.14.8.5.5,0,0,0,.48.28.46.46,0,0,0,.46-.28,1.85,1.85,0,0,0,.14-.8,1.8,1.8,0,0,0-.14-.79.48.48,0,0,0-.47-.27.49.49,0,0,0-.47.27A1.77,1.77,0,0,0,76.77,64.58Z"/></g></svg>