<svg xmlns="http://www.w3.org/2000/svg" xmlns:xlink="http://www.w3.org/1999/xlink" viewBox="0 0 100 100"><defs><style>.cls-1{fill:url(#Gradient_bez_nazwy);}.cls-2{fill:url(#Gradient_bez_nazwy_2);}.cls-3{fill:#fff;}.cls-4{fill:#b02d70;}</style><radialGradient id="Gradient_bez_nazwy" cx="135.62" cy="-156.66" r="40" gradientTransform="matrix(0.71, 0.71, 0.71, -0.71, 64.88, -156.67)" gradientUnits="userSpaceOnUse"><stop offset="0.78" stop-color="#fff"/><stop offset="1" stop-color="#bbb"/></radialGradient><linearGradient id="Gradient_bez_nazwy_2" x1="95.59" y1="141.34" x2="175.64" y2="141.34" gradientTransform="matrix(0.71, 0.71, 0.71, -0.71, -145.84, 54.05)" gradientUnits="userSpaceOnUse"><stop offset="0" stop-color="#5f5f5f"/><stop offset="0.53" stop-color="#fff"/><stop offset="1" stop-color="#353535"/></linearGradient></defs><title>kolko_parabeny</title><g id="Warstwa_1" data-name="Warstwa 1"><circle class="cls-1" cx="50" cy="50" r="40"/><path class="cls-2" d="M77,23a38.18,38.18,0,1,1-54.1,0A38.2,38.2,0,0,1,77,23m1.3-1.3a40,40,0,1,0,0,56.6,39.9,39.9,0,0,0,0-56.6Z"/><polygon class="cls-3" points="27.8 74.7 22.5 79.5 17.1 85.4 22.8 79.9 27.8 74.7"/><polygon class="cls-3" points="24.1 74.8 22.5 79.3 21.5 84.5 23 79.5 24.1 74.8"/><polygon class="cls-3" points="21.5 74.8 22.5 79.5 24.1 84.5 22.9 79.4 21.5 74.8"/><polygon class="cls-3" points="17.7 74.6 22.2 79.5 27.7 84.5 22.5 79.2 17.7 74.6"/><polygon class="cls-3" points="18 78.3 22.5 79.9 27.7 81 22.6 79.5 18 78.3"/><polygon class="cls-3" points="18 81 22.6 80 27.7 78.3 22.5 79.6 18 81"/><polygon class="cls-3" points="85.2 18.2 79.9 23.1 74.5 28.9 80.2 23.4 85.2 18.2"/><polygon class="cls-3" points="81.5 18.4 79.9 22.9 78.9 28.1 80.4 23 81.5 18.4"/><polygon class="cls-3" points="78.9 18.4 79.9 23.1 81.5 28.1 80.3 22.9 78.9 18.4"/><polygon class="cls-3" points="75.1 18.2 79.6 23.1 85.1 28.1 79.9 22.8 75.1 18.2"/><polygon class="cls-3" points="75.4 21.9 79.9 23.4 85.1 24.5 80 23 75.4 21.9"/><polygon class="cls-3" points="75.4 24.5 80 23.6 85.1 21.9 79.9 23.2 75.4 24.5"/></g><g id="Warstwa_2" data-name="Warstwa 2"><path class="cls-4" d="M24.26,39.52a1.23,1.23,0,0,1,1,.56,2.62,2.62,0,0,1,.4,1.55,2.68,2.68,0,0,1-.4,1.56,1.26,1.26,0,0,1-1.1.57,1.62,1.62,0,0,1-.4,0,1.15,1.15,0,0,1-.32-.14,1.32,1.32,0,0,1-.32-.29h-.09l-.22.4h-1.1V38.07h1.41v1.27c0,.15,0,.41-.05.78h.05a1.19,1.19,0,0,1,1.09-.6Zm-.52,1.11a.47.47,0,0,0-.43.21,1.17,1.17,0,0,0-.14.64v.2a1.4,1.4,0,0,0,.14.72.47.47,0,0,0,.44.22.42.42,0,0,0,.39-.25,1.65,1.65,0,0,0,.13-.75C24.27,41,24.09,40.63,23.74,40.63Z"/><path class="cls-4" d="M28.48,43.76a2.16,2.16,0,0,1-1.58-.55,2,2,0,0,1-.57-1.54,2.23,2.23,0,0,1,.53-1.59A2.3,2.3,0,0,1,29.78,40a1.84,1.84,0,0,1,.5,1.38V42H27.76a.7.7,0,0,0,.25.54,1,1,0,0,0,.64.19,3,3,0,0,0,.69-.07,2.79,2.79,0,0,0,.68-.24v1a2.55,2.55,0,0,1-.69.23A5.11,5.11,0,0,1,28.48,43.76Zm-.08-3.28a.6.6,0,0,0-.41.16.72.72,0,0,0-.2.49H29a.68.68,0,0,0-.17-.47A.54.54,0,0,0,28.4,40.48Z"/><path class="cls-4" d="M34.15,43.68H30.77v-.8l1.69-2.21H30.87V39.6h3.21v.87l-1.62,2.14h1.69Z"/><path class="cls-4" d="M39.2,43.76a1.43,1.43,0,0,1-.56-.11,1.3,1.3,0,0,1-.48-.37h-.07c0,.29.07.47.07.54v1.64H36.75V39.6h1.14l.2.52h.07a1.28,1.28,0,0,1,2.15,0,2.74,2.74,0,0,1,.38,1.54,2.65,2.65,0,0,1-.4,1.56A1.27,1.27,0,0,1,39.2,43.76Zm-.47-3.13a.48.48,0,0,0-.44.22,1.42,1.42,0,0,0-.13.66v.11a1.5,1.5,0,0,0,.14.77.48.48,0,0,0,.44.23.41.41,0,0,0,.39-.23,1.64,1.64,0,0,0,.13-.77,1.59,1.59,0,0,0-.13-.76A.42.42,0,0,0,38.73,40.63Z"/><path class="cls-4" d="M44.17,43.68l-.28-.54h0a1.62,1.62,0,0,1-.59.49,2,2,0,0,1-.76.13,1.2,1.2,0,0,1-.91-.35,1.36,1.36,0,0,1-.33-1,1.13,1.13,0,0,1,.45-1,2.59,2.59,0,0,1,1.32-.36l.68,0V41a.44.44,0,0,0-.5-.5,3,3,0,0,0-1.13.3l-.41-.93a4,4,0,0,1,1.8-.37,1.75,1.75,0,0,1,1.22.39A1.39,1.39,0,0,1,45.14,41v2.68Zm-1.05-.92a.63.63,0,0,0,.44-.16.54.54,0,0,0,.18-.42v-.32h-.33c-.46,0-.69.19-.69.52S42.85,42.76,43.12,42.76Z"/><path class="cls-4" d="M48.57,39.52a2,2,0,0,1,.35,0l.08,0-.13,1.33a2,2,0,0,0-.48,0,.93.93,0,0,0-.67.21.81.81,0,0,0-.21.6v2H46.1V39.6h1l.22.65h.07a1.47,1.47,0,0,1,.49-.53A1.26,1.26,0,0,1,48.57,39.52Z"/><path class="cls-4" d="M52.24,43.68,52,43.14h0a1.68,1.68,0,0,1-.58.49,2.05,2.05,0,0,1-.77.13,1.21,1.21,0,0,1-.91-.35,1.36,1.36,0,0,1-.33-1,1.11,1.11,0,0,1,.46-1,2.52,2.52,0,0,1,1.31-.36l.68,0V41a.44.44,0,0,0-.49-.5,3,3,0,0,0-1.14.3l-.41-.93a4,4,0,0,1,1.81-.37,1.73,1.73,0,0,1,1.21.39A1.4,1.4,0,0,1,53.22,41v2.68Zm-1.05-.92a.63.63,0,0,0,.44-.16.54.54,0,0,0,.18-.42v-.32h-.32c-.47,0-.7.19-.7.52S50.92,42.76,51.19,42.76Z"/><path class="cls-4" d="M56.67,39.52a1.23,1.23,0,0,1,1.06.56,3.3,3.3,0,0,1,0,3.11,1.27,1.27,0,0,1-1.1.57,1.56,1.56,0,0,1-.4,0,1,1,0,0,1-.32-.14,1.32,1.32,0,0,1-.32-.29H55.5l-.22.4h-1.1V38.07h1.41v1.27c0,.15,0,.41-.05.78h.05a1.29,1.29,0,0,1,.47-.46A1.34,1.34,0,0,1,56.67,39.52Zm-.51,1.11a.5.5,0,0,0-.44.21,1.18,1.18,0,0,0-.13.64v.2a1.41,1.41,0,0,0,.13.72.49.49,0,0,0,.45.22.41.41,0,0,0,.38-.25,1.64,1.64,0,0,0,.14-.75C56.69,41,56.51,40.63,56.16,40.63Z"/><path class="cls-4" d="M60.9,43.76a2.14,2.14,0,0,1-1.58-.55,2,2,0,0,1-.57-1.54,2.23,2.23,0,0,1,.53-1.59,1.93,1.93,0,0,1,1.49-.56A2,2,0,0,1,62.2,40a1.84,1.84,0,0,1,.5,1.38V42H60.18a.7.7,0,0,0,.25.54,1,1,0,0,0,.64.19,3,3,0,0,0,.69-.07,2.73,2.73,0,0,0,.67-.24v1a2.48,2.48,0,0,1-.68.23A5.11,5.11,0,0,1,60.9,43.76Zm-.08-3.28a.61.61,0,0,0-.42.16.76.76,0,0,0-.19.49h1.21a.73.73,0,0,0-.17-.47A.55.55,0,0,0,60.82,40.48Z"/><path class="cls-4" d="M66.08,43.68V41.45a1.24,1.24,0,0,0-.12-.61.4.4,0,0,0-.38-.21.53.53,0,0,0-.51.29,2.07,2.07,0,0,0-.16,1v1.79H63.5V39.6h1.06l.18.5h.08a1.1,1.1,0,0,1,.5-.43,1.72,1.72,0,0,1,.74-.15,1.36,1.36,0,0,1,1,.4,1.53,1.53,0,0,1,.38,1.1v2.66Z"/><path class="cls-4" d="M72.35,41.63a2.19,2.19,0,0,1-.54,1.57,2,2,0,0,1-1.51.56,1.94,1.94,0,0,1-1.48-.58,2.17,2.17,0,0,1-.55-1.55,2.12,2.12,0,0,1,.54-1.55,2,2,0,0,1,1.51-.56,2.17,2.17,0,0,1,1.07.26,1.78,1.78,0,0,1,.71.73A2.37,2.37,0,0,1,72.35,41.63Zm-2.89-2.42V39.1c.37-.4.61-.65.71-.77s.18-.22.25-.31H72v.08l-.79.59-.77.52Zm.24,2.42a1.85,1.85,0,0,0,.14.8.5.5,0,0,0,.48.28.46.46,0,0,0,.46-.28,1.85,1.85,0,0,0,.14-.8,1.8,1.8,0,0,0-.14-.79.48.48,0,0,0-.47-.27.49.49,0,0,0-.47.27A1.8,1.8,0,0,0,69.7,41.63Z"/><path class="cls-4" d="M76.68,43.68l-.47-1.94-.1-.59L76,40.67h0c-.12.68-.2,1.1-.24,1.28l-.41,1.73H73.88L72.76,39.6h1.39l.33,1.57a9.28,9.28,0,0,1,.19,1.34h0a7.78,7.78,0,0,1,.2-1.26l.37-1.65h1.56l.35,1.67c.11.53.18.94.21,1.24h0c0-.18,0-.41.07-.69s.07-.49.11-.65L78,39.6h1.36l-1.13,4.08Z"/><path class="cls-4" d="M24.74,51.33a1.23,1.23,0,0,1,1.06.56,2.67,2.67,0,0,1,.4,1.55A2.73,2.73,0,0,1,25.8,55a1.27,1.27,0,0,1-1.1.56,1.25,1.25,0,0,1-.4-.05,1,1,0,0,1-.32-.13,1.94,1.94,0,0,1-.32-.29h-.09l-.22.4h-1.1V49.87h1.41v1.28c0,.15,0,.41-.05.78h.05a1.28,1.28,0,0,1,.47-.46A1.37,1.37,0,0,1,24.74,51.33Zm-.51,1.11a.49.49,0,0,0-.43.2,1.14,1.14,0,0,0-.14.65v.2a1.34,1.34,0,0,0,.14.72.49.49,0,0,0,.44.22.43.43,0,0,0,.39-.26,1.8,1.8,0,0,0,.13-.75C24.76,52.77,24.58,52.44,24.23,52.44Z"/><path class="cls-4" d="M29,55.56A2.18,2.18,0,0,1,27.39,55a2,2,0,0,1-.57-1.55,2.23,2.23,0,0,1,.53-1.59,1.94,1.94,0,0,1,1.49-.55,2,2,0,0,1,1.43.48,1.85,1.85,0,0,1,.5,1.39v.63H28.25a.69.69,0,0,0,.25.53,1,1,0,0,0,.64.2,3,3,0,0,0,.69-.07,3.64,3.64,0,0,0,.67-.24v1a2.51,2.51,0,0,1-.68.24A5.21,5.21,0,0,1,29,55.56Zm-.08-3.27a.58.58,0,0,0-.42.16.72.72,0,0,0-.19.49h1.21a.69.69,0,0,0-.17-.47A.55.55,0,0,0,28.89,52.29Z"/><path class="cls-4" d="M34.64,55.49H31.26v-.8L33,52.48H31.36V51.4h3.2v.87l-1.62,2.14h1.7Z"/><path class="cls-4" d="M40.39,54.23a1.18,1.18,0,0,1-.45,1,2.1,2.1,0,0,1-1.28.33,4.63,4.63,0,0,1-.79-.05,3.2,3.2,0,0,1-.69-.18V54.21a4.68,4.68,0,0,0,.72.23,2.74,2.74,0,0,0,.7.1c.31,0,.46-.07.46-.21a.25.25,0,0,0-.13-.2,7.9,7.9,0,0,0-.74-.33,1.77,1.77,0,0,1-.79-.52,1.21,1.21,0,0,1-.22-.75,1,1,0,0,1,.44-.88,2,2,0,0,1,1.24-.32,3.1,3.1,0,0,1,.76.09,4.11,4.11,0,0,1,.74.26l-.38.9a5.29,5.29,0,0,0-.6-.21,2,2,0,0,0-.51-.09c-.23,0-.35.06-.35.17a.21.21,0,0,0,.12.18,6.66,6.66,0,0,0,.7.3,2.76,2.76,0,0,1,.64.35.93.93,0,0,1,.31.4A1.32,1.32,0,0,1,40.39,54.23Z"/><path class="cls-4" d="M44.25,55.49H40.86v-.8l1.7-2.21H41V51.4h3.21v.87l-1.62,2.14h1.7Z"/><path class="cls-4" d="M46.92,54.45a2.28,2.28,0,0,0,.69-.14v1a2.71,2.71,0,0,1-.55.18,3.45,3.45,0,0,1-.6.05,1.3,1.3,0,0,1-1-.35,1.55,1.55,0,0,1-.31-1.07V52.46h-.5v-.58l.63-.44.37-.86h.92v.82h1v1.06h-1v1.59A.35.35,0,0,0,46.92,54.45Z"/><path class="cls-4" d="M51.23,55.49,51.06,55H51a1.14,1.14,0,0,1-.49.43,1.72,1.72,0,0,1-.74.15,1.39,1.39,0,0,1-1.05-.39,1.54,1.54,0,0,1-.38-1.11V51.4h1.41v2.23a1.24,1.24,0,0,0,.12.61.38.38,0,0,0,.37.21.55.55,0,0,0,.52-.29,2.21,2.21,0,0,0,.16-1V51.4H52.3v4.09Z"/><path class="cls-4" d="M55.13,55.56A2,2,0,0,1,53.61,55a2.18,2.18,0,0,1-.52-1.55,2.14,2.14,0,0,1,.56-1.58,2.19,2.19,0,0,1,1.6-.56,2.89,2.89,0,0,1,1.33.31l-.41,1-.47-.18a1.74,1.74,0,0,0-.45-.06.65.65,0,0,0-.54.26,1.36,1.36,0,0,0-.18.76c0,.65.24,1,.72,1a2.18,2.18,0,0,0,1.19-.36V55.2A2.32,2.32,0,0,1,55.13,55.56Z"/><path class="cls-4" d="M60.33,55.49H57v-.8l1.69-2.21H57V51.4h3.21v.87l-1.62,2.14h1.7Z"/><path class="cls-4" d="M63.58,55.49V53.26a1.28,1.28,0,0,0-.12-.62.39.39,0,0,0-.37-.2.55.55,0,0,0-.52.28,2.12,2.12,0,0,0-.16,1v1.79H61V51.4h1.07l.17.51h.09a1.07,1.07,0,0,1,.5-.44,1.83,1.83,0,0,1,.73-.14,1.43,1.43,0,0,1,1.06.39A1.54,1.54,0,0,1,65,52.83v2.66Z"/><path class="cls-4" d="M65.46,51.4h1.48l.7,2.35a3.71,3.71,0,0,1,.07.44h0a2.43,2.43,0,0,1,.09-.44l.71-2.35H70l-1.61,4.35a2.62,2.62,0,0,1-.77,1.17,1.88,1.88,0,0,1-1.18.35,2.36,2.36,0,0,1-.58-.07V56.1a2.87,2.87,0,0,0,.44,0,.72.72,0,0,0,.33-.07.79.79,0,0,0,.24-.21,1.62,1.62,0,0,0,.23-.43Z"/><path class="cls-4" d="M72.32,55.56A2,2,0,0,1,70.8,55a2.18,2.18,0,0,1-.52-1.55,2.14,2.14,0,0,1,.56-1.58,2.17,2.17,0,0,1,1.59-.56,2.93,2.93,0,0,1,1.34.31l-.41,1-.48-.18a1.63,1.63,0,0,0-.45-.06.64.64,0,0,0-.53.26,1.36,1.36,0,0,0-.18.76c0,.65.24,1,.72,1a2.2,2.2,0,0,0,1.19-.36V55.2A2.32,2.32,0,0,1,72.32,55.56Z"/><path class="cls-4" d="M77,55.49V53.26c0-.55-.17-.82-.49-.82a.54.54,0,0,0-.51.29,2,2,0,0,0-.16,1v1.8H74.44V49.87h1.42v.8c0,.36,0,.77-.06,1.24h.06a1.27,1.27,0,0,1,.48-.45,1.48,1.48,0,0,1,.65-.13,1.4,1.4,0,0,1,1.06.39,1.53,1.53,0,0,1,.39,1.11v2.66Z"/><path class="cls-4" d="M31.71,58.33a1.23,1.23,0,0,1,1.06.56,2.67,2.67,0,0,1,.39,1.55A2.73,2.73,0,0,1,32.77,62a1.29,1.29,0,0,1-1.1.56,1.32,1.32,0,0,1-.41-.05,1.07,1.07,0,0,1-.31-.13,2.42,2.42,0,0,1-.33-.29h-.08l-.23.4h-1.1V56.88h1.41v1.27a7.53,7.53,0,0,1-.05.78h.05a1.31,1.31,0,0,1,.48-.46A1.34,1.34,0,0,1,31.71,58.33Zm-.51,1.11a.5.5,0,0,0-.44.2,1.23,1.23,0,0,0-.14.65v.2a1.45,1.45,0,0,0,.14.72.5.5,0,0,0,.45.22.42.42,0,0,0,.38-.26,1.64,1.64,0,0,0,.14-.75C31.73,59.77,31.55,59.44,31.2,59.44Z"/><path class="cls-4" d="M36.63,62.49,36.36,62h0a1.56,1.56,0,0,1-.58.48,1.82,1.82,0,0,1-.76.13,1.19,1.19,0,0,1-.91-.34,1.38,1.38,0,0,1-.33-1,1.11,1.11,0,0,1,.45-1,2.53,2.53,0,0,1,1.32-.36l.68,0v-.06a.44.44,0,0,0-.5-.5,3,3,0,0,0-1.13.3l-.41-.93a3.84,3.84,0,0,1,1.8-.37,1.75,1.75,0,0,1,1.22.39,1.38,1.38,0,0,1,.43,1.09v2.68Zm-1-.92A.66.66,0,0,0,36,61.4a.53.53,0,0,0,.18-.42v-.32l-.33,0q-.69,0-.69.51C35.19,61.44,35.32,61.57,35.59,61.57Z"/><path class="cls-4" d="M41,58.33a2,2,0,0,1,.35,0h.08l-.13,1.33a2,2,0,0,0-.48,0,.93.93,0,0,0-.67.21.82.82,0,0,0-.21.61v2H38.57V58.4h1l.22.65h.07a1.44,1.44,0,0,1,.49-.52A1.23,1.23,0,0,1,41,58.33Z"/><path class="cls-4" d="M45.56,62.49l-.46-2L45,60l-.07-.47h0c-.11.67-.19,1.1-.23,1.27l-.42,1.74H42.76L41.64,58.4H43L43.36,60a9.67,9.67,0,0,1,.19,1.34h0a9.16,9.16,0,0,1,.2-1.26l.38-1.65h1.56l.34,1.67c.11.53.18,1,.21,1.24h0c0-.18,0-.41.08-.68a5.61,5.61,0,0,1,.11-.66l.36-1.57h1.36l-1.12,4.09Z"/><path class="cls-4" d="M51.35,62.49V60.26a1.28,1.28,0,0,0-.12-.62.42.42,0,0,0-.38-.2.53.53,0,0,0-.51.28,2.12,2.12,0,0,0-.16,1v1.79H48.77V58.4h1.06l.18.51h.08a1.12,1.12,0,0,1,.5-.44,1.86,1.86,0,0,1,.73-.14,1.4,1.4,0,0,1,1.06.39,1.54,1.54,0,0,1,.38,1.11v2.66Z"/><path class="cls-4" d="M53.69,57.38a.58.58,0,0,1,.18-.47.83.83,0,0,1,.56-.15.9.9,0,0,1,.58.15.61.61,0,0,1,.18.47c0,.42-.25.62-.76.62S53.69,57.8,53.69,57.38Zm1.44,5.11H53.72V58.4h1.41Z"/><path class="cls-4" d="M57.49,60.19a5.41,5.41,0,0,1,.44-.63l.91-1.16h1.58L59,60.14l1.51,2.35H58.89L58,61l-.46.36v1.11H56.12V56.88h1.42v2.2a8.05,8.05,0,0,1-.08,1.11Z"/><path class="cls-4" d="M64.9,60.44A2.14,2.14,0,0,1,64.36,62a2,2,0,0,1-1.51.56A2,2,0,0,1,61.37,62a2.13,2.13,0,0,1-.55-1.55,2.18,2.18,0,0,1,.53-1.56,2,2,0,0,1,1.52-.55,2.27,2.27,0,0,1,1.06.25,1.83,1.83,0,0,1,.72.74A2.47,2.47,0,0,1,64.9,60.44ZM62,58v-.1l.7-.77.25-.31H64.5v.07c-.19.16-.45.35-.79.59s-.59.41-.77.52Zm.24,2.43a1.71,1.71,0,0,0,.14.8.53.53,0,0,0,.94,0,1.87,1.87,0,0,0,.13-.8,1.64,1.64,0,0,0-.14-.79.48.48,0,0,0-.47-.27.49.49,0,0,0-.46.26A1.69,1.69,0,0,0,62.25,60.44Z"/><path class="cls-4" d="M69.22,62.49l-.46-2L68.65,60l-.07-.47h0c-.12.67-.2,1.1-.24,1.27l-.42,1.74H66.42L65.3,58.4h1.39L67,60a11.16,11.16,0,0,1,.18,1.34h0a11.13,11.13,0,0,1,.2-1.26l.38-1.65h1.56l.34,1.67a8.82,8.82,0,0,1,.21,1.24h0c0-.18,0-.41.07-.68a5.61,5.61,0,0,1,.11-.66l.36-1.57h1.36l-1.12,4.09Z"/></g></svg>