<svg id="Warstwa_1" data-name="Warstwa 1" xmlns="http://www.w3.org/2000/svg" xmlns:xlink="http://www.w3.org/1999/xlink" viewBox="0 0 200 200"><defs><style>.cls-1,.cls-131,.cls-3{fill:none;}.cls-2{fill:url(#Gradient_bez_nazwy_3);}.cls-3{stroke:#fff;stroke-miterlimit:10;stroke-width:3px;}.cls-4{fill:#174282;}.cls-5{clip-path:url(#clip-path);}.cls-6{fill:#dec5b3;}.cls-7{fill:#d2cdd8;}.cls-8{fill:#b59dc4;}.cls-9{fill:#af5b6b;}.cls-10{fill:#ece5f0;}.cls-11{fill:#9f4d36;}.cls-12{fill:#78777c;}.cls-13{fill:#5c6ba1;}.cls-14{fill:#ccaba0;}.cls-15{fill:#cec9d4;}.cls-16{fill:#9c7698;}.cls-17{fill:#7586b2;}.cls-18{clip-path:url(#clip-path-2);}.cls-19{fill:url(#Gradient_bez_nazwy_38);}.cls-20{fill:#94a9c9;}.cls-21{fill:#6f6f86;}.cls-22{clip-path:url(#clip-path-3);}.cls-23{fill:url(#Gradient_bez_nazwy_60);}.cls-24{clip-path:url(#clip-path-4);}.cls-25{fill:url(#Gradient_bez_nazwy_60-2);}.cls-26{clip-path:url(#clip-path-5);}.cls-27{fill:url(#Gradient_bez_nazwy_60-3);}.cls-28{clip-path:url(#clip-path-6);}.cls-29{fill:url(#Gradient_bez_nazwy_60-4);}.cls-30{clip-path:url(#clip-path-7);}.cls-31{fill:url(#Gradient_bez_nazwy_60-5);}.cls-32{clip-path:url(#clip-path-8);}.cls-33{fill:url(#Gradient_bez_nazwy_60-6);}.cls-34{clip-path:url(#clip-path-9);}.cls-35{fill:url(#Gradient_bez_nazwy_60-7);}.cls-36{clip-path:url(#clip-path-10);}.cls-37{fill:url(#Gradient_bez_nazwy_60-8);}.cls-38{clip-path:url(#clip-path-11);}.cls-39{fill:url(#Gradient_bez_nazwy_40);}.cls-40{clip-path:url(#clip-path-12);}.cls-41{fill:url(#Gradient_bez_nazwy_23);}.cls-42{clip-path:url(#clip-path-13);}.cls-43{fill:url(#Gradient_bez_nazwy_60-9);}.cls-44{clip-path:url(#clip-path-14);}.cls-45{fill:url(#Gradient_bez_nazwy_60-10);}.cls-46{clip-path:url(#clip-path-15);}.cls-47{fill:url(#Gradient_bez_nazwy_60-11);}.cls-48{clip-path:url(#clip-path-16);}.cls-49{fill:url(#Gradient_bez_nazwy_60-12);}.cls-50{clip-path:url(#clip-path-17);}.cls-51{fill:url(#Gradient_bez_nazwy_60-13);}.cls-52{clip-path:url(#clip-path-18);}.cls-53{fill:url(#Gradient_bez_nazwy_60-14);}.cls-54{clip-path:url(#clip-path-19);}.cls-55{fill:url(#Gradient_bez_nazwy_60-15);}.cls-56{clip-path:url(#clip-path-20);}.cls-57{fill:url(#Gradient_bez_nazwy_60-16);}.cls-58{clip-path:url(#clip-path-21);}.cls-59{fill:url(#Gradient_bez_nazwy_60-17);}.cls-60{clip-path:url(#clip-path-22);}.cls-61{fill:url(#Gradient_bez_nazwy_60-18);}.cls-62{clip-path:url(#clip-path-23);}.cls-63{fill:url(#Gradient_bez_nazwy_38-2);}.cls-64{fill:#bbc9d9;}.cls-65{fill:#d3d7e4;}.cls-66{fill:#bac7e2;}.cls-67{fill:#cccce4;}.cls-68{clip-path:url(#clip-path-24);}.cls-69{fill:url(#Gradient_bez_nazwy_38-3);}.cls-70{fill:#e5e5ed;}.cls-71{fill:#8fc3e2;}.cls-72{clip-path:url(#clip-path-25);}.cls-73{fill:url(#Gradient_bez_nazwy_36);}.cls-74{clip-path:url(#clip-path-26);}.cls-75{fill:url(#Gradient_bez_nazwy_38-4);}.cls-76{clip-path:url(#clip-path-27);}.cls-77{fill:url(#Gradient_bez_nazwy_38-5);}.cls-78{clip-path:url(#clip-path-28);}.cls-79{fill:url(#Gradient_bez_nazwy_40-2);}.cls-80{clip-path:url(#clip-path-29);}.cls-81{fill:url(#Gradient_bez_nazwy_40-3);}.cls-82{clip-path:url(#clip-path-30);}.cls-83{fill:url(#Gradient_bez_nazwy_60-19);}.cls-84{clip-path:url(#clip-path-31);}.cls-85{fill:url(#Gradient_bez_nazwy_60-20);}.cls-86{clip-path:url(#clip-path-32);}.cls-87{fill:url(#Gradient_bez_nazwy_60-21);}.cls-88{clip-path:url(#clip-path-33);}.cls-89{fill:url(#Gradient_bez_nazwy_60-22);}.cls-90{clip-path:url(#clip-path-34);}.cls-91{fill:url(#Gradient_bez_nazwy_60-23);}.cls-92{clip-path:url(#clip-path-35);}.cls-93{fill:url(#Gradient_bez_nazwy_60-24);}.cls-94{clip-path:url(#clip-path-36);}.cls-95{fill:url(#Gradient_bez_nazwy_60-25);}.cls-96{clip-path:url(#clip-path-37);}.cls-97{fill:url(#Gradient_bez_nazwy_60-26);}.cls-98{fill:#e0d1e3;}.cls-99{fill:#cacfe2;}.cls-100{clip-path:url(#clip-path-38);}.cls-101{fill:url(#Gradient_bez_nazwy_60-27);}.cls-102{clip-path:url(#clip-path-39);}.cls-103{fill:#fff;}.cls-104{clip-path:url(#clip-path-40);}.cls-105{fill:url(#Gradient_bez_nazwy_60-28);}.cls-106{clip-path:url(#clip-path-41);}.cls-107{fill:url(#Gradient_bez_nazwy_60-29);}.cls-108{clip-path:url(#clip-path-42);}.cls-109{clip-path:url(#clip-path-43);}.cls-110{fill:url(#Gradient_bez_nazwy_60-30);}.cls-111{clip-path:url(#clip-path-44);}.cls-112{fill:url(#Gradient_bez_nazwy_60-31);}.cls-113{clip-path:url(#clip-path-45);}.cls-114{fill:url(#Gradient_bez_nazwy_60-32);}.cls-115{clip-path:url(#clip-path-47);}.cls-116{fill:url(#Gradient_bez_nazwy_60-33);}.cls-117{clip-path:url(#clip-path-49);}.cls-118{fill:url(#Gradient_bez_nazwy_60-34);}.cls-119{clip-path:url(#clip-path-50);}.cls-120{fill:url(#Gradient_bez_nazwy_60-35);}.cls-121{clip-path:url(#clip-path-52);}.cls-122{fill:url(#Gradient_bez_nazwy_60-36);}.cls-123{fill:#edecf4;}.cls-124{clip-path:url(#clip-path-54);}.cls-125{fill:url(#Gradient_bez_nazwy_60-37);}.cls-126{clip-path:url(#clip-path-55);}.cls-127{fill:url(#Gradient_bez_nazwy_60-38);}.cls-128{fill:#d4e0ed;}.cls-129{fill:#cadce8;}.cls-130{fill:#5c90bc;}.cls-131{stroke:#6f6f86;stroke-width:1.13px;}.cls-132{fill:#c6b1bd;}</style><radialGradient id="Gradient_bez_nazwy_3" cx="100.65" cy="99.65" r="84.94" gradientUnits="userSpaceOnUse"><stop offset="0.54" stop-color="#fff"/><stop offset="1" stop-color="#636363"/></radialGradient><clipPath id="clip-path"><ellipse class="cls-1" cx="99.72" cy="100.26" rx="82.24" ry="81.5"/></clipPath><clipPath id="clip-path-2"><path class="cls-1" d="M93.43,126.69c-1.85.61-3.29,2.77-2.46,4.53.76,1.59,2.9,2,4.65,1.69s3.34-1.26,5.09-1.6c2.42-.49,4.9.15,7.35.52,1.12.17,7.27.58,5.88-2.44-.56-1.22-3.47-.84-6-.45a16.93,16.93,0,0,1-3.34.36,21.33,21.33,0,0,1-5.51-1.91,10.84,10.84,0,0,0-4-1,5.83,5.83,0,0,0-1.7.25"/></clipPath><linearGradient id="Gradient_bez_nazwy_38" x1="-236.44" y1="335.78" x2="-235.16" y2="335.78" gradientTransform="translate(-4214.55 6277.12) rotate(180) scale(18.31)" gradientUnits="userSpaceOnUse"><stop offset="0" stop-color="#25487e"/><stop offset="1" stop-color="#684385"/></linearGradient><clipPath id="clip-path-3"><path class="cls-1" d="M53,123.5c-2.77,3.08-1.55,8.36-1.55,8.36l.77.33a24.43,24.43,0,0,1,0-5.5,6.42,6.42,0,0,1,2.45-3.85,15.46,15.46,0,0,0,2.77-2.75c.07-.13,0-.19-.06-.19-.41,0-2.14,1.13-4.38,3.6"/></clipPath><linearGradient id="Gradient_bez_nazwy_60" x1="-267.74" y1="321.77" x2="-266.46" y2="321.77" gradientTransform="translate(-1261.33 1711.04) rotate(180) scale(4.93)" gradientUnits="userSpaceOnUse"><stop offset="0" stop-color="#394c9a"/><stop offset="1" stop-color="#382875"/></linearGradient><clipPath id="clip-path-4"><path class="cls-1" d="M56.24,121.85c-1.44,1-3.23,2.49-3.78,4.47a22.25,22.25,0,0,0-.22,5.87l1,.55a24.76,24.76,0,0,1-.33-5.06c.23-1.65.71-2.52,2.66-4.2,1.66-1.44,3.54-1.9,3.22-2.72a.22.22,0,0,0-.25-.16,6.56,6.56,0,0,0-2.3,1.25"/></clipPath><linearGradient id="Gradient_bez_nazwy_60-2" x1="-265.23" y1="322.88" x2="-263.96" y2="322.88" gradientTransform="translate(-1328.91 1815.99) rotate(180) scale(5.23)" xlink:href="#Gradient_bez_nazwy_60"/><clipPath id="clip-path-5"><path class="cls-1" d="M53.69,125.81c-.89,1.43-.28,7-.28,7l.83.45a22.88,22.88,0,0,1-.41-3.71A6.17,6.17,0,0,1,55.2,125c1.22-1.32,3.89-1.62,3.37-2.52a.47.47,0,0,0-.45-.25c-1.13,0-3.68,2.33-4.43,3.54"/></clipPath><linearGradient id="Gradient_bez_nazwy_60-3" x1="-274.8" y1="318.61" x2="-273.53" y2="318.61" gradientTransform="translate(-1108.09 1480.49) rotate(180) scale(4.25)" xlink:href="#Gradient_bez_nazwy_60"/><clipPath id="clip-path-6"><path class="cls-1" d="M54.91,126.24c-1.34,1.91-.67,7-.67,7l1.12.55a18.58,18.58,0,0,1-.49-4.05,4.64,4.64,0,0,1,1.87-3.68c1.45-1.2,3.27-1.91,2.72-2.5a.81.81,0,0,0-.62-.25c-1.16,0-3.09,1.67-3.93,2.88"/></clipPath><linearGradient id="Gradient_bez_nazwy_60-4" x1="-274.34" y1="318.79" x2="-273.06" y2="318.79" gradientTransform="translate(-1117.04 1495.85) rotate(180) scale(4.29)" xlink:href="#Gradient_bez_nazwy_60"/><clipPath id="clip-path-7"><path class="cls-1" d="M58.79,125.37c-.88.88-2.22,1.43-3,2.86s-.44,5.61-.44,5.61l1.21.44v-3.84c0-1.76.67-2.35,2.11-3.42,1.2-.89,1.66-1.57,1.44-2.19,0-.14-.11-.21-.24-.21s-.53.21-1.09.75"/></clipPath><linearGradient id="Gradient_bez_nazwy_60-5" x1="-280.49" y1="316.05" x2="-279.21" y2="316.05" gradientTransform="translate(-1012.53 1338.16) rotate(180) scale(3.82)" xlink:href="#Gradient_bez_nazwy_60"/><clipPath id="clip-path-8"><path class="cls-1" d="M61.24,124.14c-.71,1.13.11,1.12-.89,2.11S57.57,128.12,57,129s-.45,5.28-.45,5.28h.78a11.79,11.79,0,0,1,.06-4c.44-1.54,2.16-2.12,3.71-3.33a2.72,2.72,0,0,0,1.22-2.64s-.21-.58-.56-.58c-.16,0-.34.11-.54.45"/></clipPath><linearGradient id="Gradient_bez_nazwy_60-6" x1="-271.65" y1="320.02" x2="-270.37" y2="320.02" gradientTransform="translate(-1172.01 1583.2) rotate(180) scale(4.54)" xlink:href="#Gradient_bez_nazwy_60"/><clipPath id="clip-path-9"><path class="cls-1" d="M62.12,127c-.77,1.43-2.66,1.54-4,2.86s-.78,4.4-.78,4.4l.89.33a11.75,11.75,0,0,1,.29-3.05c.32-1.42,1.82-1.79,3.48-3s2.56-4.51,1.56-4.62h-.09c-.89,0-.61,1.7-1.36,3.08"/></clipPath><linearGradient id="Gradient_bez_nazwy_60-7" x1="-265.08" y1="322.93" x2="-263.81" y2="322.93" gradientTransform="translate(-1335.29 1833.9) rotate(180) scale(5.28)" xlink:href="#Gradient_bez_nazwy_60"/><clipPath id="clip-path-10"><path class="cls-1" d="M64.79,125.7c-.45.77.22,1.43-.67,2.42s-3.33,1.76-4.44,2.75-1.44,3.74-1.44,3.74l.55.55A9.47,9.47,0,0,1,60,132.1c1-1.61,2.21-2.22,4.31-3,1.9-.69,1.1-3.52.6-3.52a.16.16,0,0,0-.15.11"/></clipPath><linearGradient id="Gradient_bez_nazwy_60-8" x1="-262.04" y1="324.26" x2="-260.76" y2="324.26" gradientTransform="translate(-1430.7 1981.87) rotate(180) scale(5.71)" xlink:href="#Gradient_bez_nazwy_60"/><clipPath id="clip-path-11"><path class="cls-1" d="M105.36,112.4c-3.43.72-6.38.82-7.1,4.58s3.07,8.2,6.86,8.6c5.06.54,10.12-.18,12.11-4.48.77-1.66-2.86-2.88-3.8-4.83a6.6,6.6,0,0,0-6.21-4.07,9.35,9.35,0,0,0-1.86.2"/></clipPath><linearGradient id="Gradient_bez_nazwy_40" x1="-239.25" y1="334.77" x2="-237.97" y2="334.77" gradientTransform="translate(-3468.01 5135.95) rotate(180) scale(14.99)" gradientUnits="userSpaceOnUse"><stop offset="0" stop-color="#8c98c4"/><stop offset="1" stop-color="#ccaaca"/></linearGradient><clipPath id="clip-path-12"><path class="cls-1" d="M74,111.27c-1.62,2.69-.9,4.12,2.53,3.4s3.8.18,4.34,2.69,5.6,2.15,7.41.89c1-.65,2,.17,3,1s1.8,1.49,2.65,1.15c1.81-.71-.36-4.12.18-5.19s2.88.17,4,1.25c1.62,1.61,8.31-.54,6.14-2.86s-11-8.06-16.62-8.24h-.43c-5.49,0-11.54,3.29-13.13,5.91"/></clipPath><linearGradient id="Gradient_bez_nazwy_23" x1="-233.18" y1="337.25" x2="-231.9" y2="337.25" gradientTransform="translate(-5626.88 8402.48) rotate(180) scale(24.58)" gradientUnits="userSpaceOnUse"><stop offset="0" stop-color="#28569b"/><stop offset="1" stop-color="#3992c1"/></linearGradient><clipPath id="clip-path-13"><path class="cls-1" d="M47.37,111.08a15,15,0,0,1-.5,4.62,3.56,3.56,0,0,0,1.05-1.84,7.56,7.56,0,0,0,.06-4.29c-.33-1.32.06-3.44-.61-3.61h0c-.59,0-.11,2.87,0,5.12"/></clipPath><linearGradient id="Gradient_bez_nazwy_60-9" x1="-419.76" y1="257.09" x2="-418.48" y2="257.09" gradientTransform="translate(-409.4 391.14) rotate(180) scale(1.09)" xlink:href="#Gradient_bez_nazwy_60"/><clipPath id="clip-path-14"><path class="cls-1" d="M49.34,105.14c-.63,0-.79.9-1,2.23a9,9,0,0,0,.16,3.87c.34,1.49-1,3.8-1,3.8l.33,1.65A17.48,17.48,0,0,0,49.42,114c.67-1.49-.5-2.7-.66-5s1.32-3.79.61-3.82Z"/></clipPath><linearGradient id="Gradient_bez_nazwy_60-10" x1="-354.86" y1="284.98" x2="-353.58" y2="284.98" gradientTransform="translate(-529.98 576.39) rotate(180) scale(1.63)" xlink:href="#Gradient_bez_nazwy_60"/><clipPath id="clip-path-15"><path class="cls-1" d="M49.48,106.32c-.28,1.11.39,1.88.56,3.86.25,3.1-.52,4.12-1.17,5-.83,1.16-.17,1.32.33,1.65s.84-1.32,1.5-3,.39-2.55-.28-4.37,1.21-3.53.62-4.37a.28.28,0,0,0-.2-.08,1.83,1.83,0,0,0-1.36,1.26"/></clipPath><linearGradient id="Gradient_bez_nazwy_60-11" x1="-326.14" y1="297.26" x2="-324.86" y2="297.26" gradientTransform="translate(-632.36 734.11) rotate(180) scale(2.1)" xlink:href="#Gradient_bez_nazwy_60"/><clipPath id="clip-path-16"><path class="cls-1" d="M52.2,108.61c-1,1.31-.83,2.14-1,3.3s-2.83,4.28-2,4.94,1.67,1.32,2.17-.16-.4-5.52.94-7.18,2.28-3.84,2.11-4.51c0-.06,0-.09-.07-.09-.3,0-1.25,2.5-2.15,3.7"/></clipPath><linearGradient id="Gradient_bez_nazwy_60-12" x1="-274.89" y1="319.23" x2="-273.61" y2="319.23" gradientTransform="translate(-1105.74 1458.86) rotate(180) scale(4.22)" xlink:href="#Gradient_bez_nazwy_60"/><clipPath id="clip-path-17"><path class="cls-1" d="M52.86,109.43a21.82,21.82,0,0,0-1.49,5.28c-.33,1.65.33,3.3,1,3s.1-1.78.1-4.26a6.47,6.47,0,0,1,1.62-4.9c1.16-1.48,2.66-2.26,1.93-2.72a.75.75,0,0,0-.4-.12c-.91,0-1.89,1.75-2.76,3.75"/></clipPath><linearGradient id="Gradient_bez_nazwy_60-13" x1="-279.73" y1="317.22" x2="-278.45" y2="317.22" gradientTransform="translate(-1023.78 1336.57) rotate(180) scale(3.86)" xlink:href="#Gradient_bez_nazwy_60"/><clipPath id="clip-path-18"><path class="cls-1" d="M55.36,107.45c-.67,1.65-2,3.79-2.33,5.61s.33,4.12.83,3.79.11-1.94.11-3.6a5.52,5.52,0,0,1,1.89-4.56c1.66-1.65,2.19-2.68,1.5-3a.74.74,0,0,0-.36-.09c-.52,0-1.1.56-1.64,1.9"/></clipPath><linearGradient id="Gradient_bez_nazwy_60-14" x1="-282.45" y1="316.12" x2="-281.17" y2="316.12" gradientTransform="translate(-983.6 1276.74) rotate(180) scale(3.69)" xlink:href="#Gradient_bez_nazwy_60"/><clipPath id="clip-path-19"><path class="cls-1" d="M57.19,108c-.33,1.65-2.17,1.48-2.83,3.46a19.38,19.38,0,0,0-.5,5.44s.83.5,1.16-1.15,0-2.61,1.34-5.08,2.1-2.14,2.16-3a.74.74,0,0,0-.66-.61c-.26,0-.53.23-.67.94"/></clipPath><linearGradient id="Gradient_bez_nazwy_60-15" x1="-282.97" y1="315.86" x2="-281.69" y2="315.86" gradientTransform="translate(-976.41 1267.42) rotate(180) scale(3.66)" xlink:href="#Gradient_bez_nazwy_60"/><clipPath id="clip-path-20"><path class="cls-1" d="M58.08,109.24c-1.33,1-1.94,2.92-2.61,5.55s.22,2.72,1.22,2.23-.11-1,.73-4.32,1.85-3.19,2.49-3.68c.25-.19.09-.4-.31-.4a2.73,2.73,0,0,0-1.52.62"/></clipPath><linearGradient id="Gradient_bez_nazwy_60-16" x1="-281.68" y1="316.42" x2="-280.4" y2="316.42" gradientTransform="translate(-994.83 1298.01) rotate(180) scale(3.74)" xlink:href="#Gradient_bez_nazwy_60"/><clipPath id="clip-path-21"><path class="cls-1" d="M57.81,113c-.5,1.82-.45,4.32.21,2.67A11.45,11.45,0,0,1,59.8,112c1.19-1.61,2-2.2,1.39-2.56a.72.72,0,0,0-.38-.1c-1.08,0-2.56,2.08-3,3.7"/></clipPath><linearGradient id="Gradient_bez_nazwy_60-17" x1="-294.21" y1="310.99" x2="-292.93" y2="310.99" gradientTransform="translate(-844.96 1071.4) rotate(180) scale(3.08)" xlink:href="#Gradient_bez_nazwy_60"/><clipPath id="clip-path-22"><path class="cls-1" d="M59.8,113.31c-1.45,2.18-2.28,3.21-1.94,4.7s.11-1.67,1.78-3.33,3-1.92,2.71-2.77a.48.48,0,0,0-.49-.37c-.47,0-1.22.5-2.06,1.77"/></clipPath><linearGradient id="Gradient_bez_nazwy_60-18" x1="-284.13" y1="315.2" x2="-282.85" y2="315.2" gradientTransform="translate(-960.67 1250.42) rotate(180) scale(3.6)" xlink:href="#Gradient_bez_nazwy_60"/><clipPath id="clip-path-23"><path class="cls-1" d="M69.1,120.21c-4,2.52-2.47,5.91-1.56,5.37s1.62-2.15,5.78.71,10.29,1.62,10.12-.17c-.4-4.06-4.66-7.39-9.28-7.39a9.35,9.35,0,0,0-5.06,1.48"/></clipPath><linearGradient id="Gradient_bez_nazwy_38-2" x1="-240.68" y1="333.85" x2="-239.4" y2="333.85" gradientTransform="translate(-3107.01 4549.51) rotate(180) scale(13.26)" xlink:href="#Gradient_bez_nazwy_38"/><clipPath id="clip-path-24"><path class="cls-1" d="M39.8,117.61c0,1.34,8.94,1.25,10.84,2.78,1.12.89,2.59.17,4-.56a6.8,6.8,0,0,1,2.91-1c2.16.09,2.62,1.53,3.7.54.66-.6-2.8-4.92-6.14-4.12s-7.58,0-9.39-.4a3,3,0,0,0-.54,0c-2,0-5.43,1.55-5.43,2.77"/></clipPath><linearGradient id="Gradient_bez_nazwy_38-3" x1="-236.82" y1="335.49" x2="-235.54" y2="335.49" gradientTransform="translate(-3935.21 5779.68) rotate(180) scale(16.88)" xlink:href="#Gradient_bez_nazwy_38"/><clipPath id="clip-path-25"><path class="cls-1" d="M81.63,114.3c-.81,2.15,0,4.56,3.34,4.38s5.52-7.34,3.35-8.77a2.37,2.37,0,0,0-1.32-.4c-2.38,0-4.87,3.45-5.37,4.79"/></clipPath><linearGradient id="Gradient_bez_nazwy_36" x1="-236.85" y1="371.61" x2="-235.58" y2="371.61" gradientTransform="translate(-2608.12 -1598.21) rotate(-90) scale(7.25)" gradientUnits="userSpaceOnUse"><stop offset="0" stop-color="#5590b8"/><stop offset="1" stop-color="#d1a8c8"/></linearGradient><clipPath id="clip-path-26"><path class="cls-1" d="M120,119.19c-2.17.36-2.33,3.42-3.79,4.72-2.29,2-4.94,2.5-8.8,2.62a11,11,0,0,1-5-.82c-1.18-.52-1.62-1-1.88-.73-.45.56,1,1.79,4.22,2.39a19.65,19.65,0,0,0,12.17-2.15,10.71,10.71,0,0,1,6.8-1.43c2.3.38,3.92-.24,2.72-1.31s-3.5-3.33-5.88-3.33a3.64,3.64,0,0,0-.57,0"/></clipPath><linearGradient id="Gradient_bez_nazwy_38-4" x1="-235.17" y1="336.43" x2="-233.9" y2="336.43" gradientTransform="translate(-4725.81 7065.53) rotate(180) scale(20.63)" xlink:href="#Gradient_bez_nazwy_38"/><clipPath id="clip-path-27"><path class="cls-1" d="M88.86,120.47a9.25,9.25,0,0,0-4.7,1.89c-1.34,1.19-.43,2,1.9,1.43,2.14-.57,2-1.88,3.64-1.55,1.18.23,2.74,1.7,4,1.1s-2.75-2.87-4.67-2.87h-.12"/></clipPath><linearGradient id="Gradient_bez_nazwy_38-5" x1="-251.68" y1="329.34" x2="-250.4" y2="329.34" gradientTransform="translate(-1937.48 2780.63) rotate(180) scale(8.07)" xlink:href="#Gradient_bez_nazwy_38"/><clipPath id="clip-path-28"><path class="cls-1" d="M68.35,127.58c0,.31.38.29,1,.27a4.69,4.69,0,0,1,1.8.19,50.13,50.13,0,0,1,5,1.93c2.6,1.2,4.12.8,4.35.22.12-.3-.4-.56-2-.52-1.12,0-2.49-.39-5-1.58a9.19,9.19,0,0,0-3.81-.94c-.78,0-1.29.17-1.29.43"/></clipPath><linearGradient id="Gradient_bez_nazwy_40-2" x1="-247.35" y1="330.88" x2="-246.07" y2="330.88" gradientTransform="translate(-2255.25 3253.69) rotate(180) scale(9.44)" xlink:href="#Gradient_bez_nazwy_40"/><clipPath id="clip-path-29"><path class="cls-1" d="M87.53,124.5c-1.08,1.32-2.89.36-2.89,1.8s-2.81,2-2.53,2.86c.36,1.08,1.51.17,3.62,1.67,3,2.15,6.53,1.76,5.42-5.25a2,2,0,0,0-1.91-1.92,2.26,2.26,0,0,0-1.71.84"/></clipPath><linearGradient id="Gradient_bez_nazwy_40-3" x1="-209.65" y1="307.17" x2="-208.39" y2="307.17" gradientTransform="translate(2103.85 1500.21) rotate(90) scale(6.57)" xlink:href="#Gradient_bez_nazwy_40"/><clipPath id="clip-path-30"><path class="cls-1" d="M90.07,128c-1.1,3.08.35,10.42.35,10.42l.81,1.24s-.35-6.11-.45-8.42a10.09,10.09,0,0,1,.94-4.92c.19-.41.15-.62,0-.62s-1.09.79-1.64,2.3"/></clipPath><linearGradient id="Gradient_bez_nazwy_60-19" x1="-354.5" y1="284.75" x2="-353.22" y2="284.75" gradientTransform="translate(-513.77 619.11) rotate(180) scale(1.71)" xlink:href="#Gradient_bez_nazwy_60"/><clipPath id="clip-path-31"><path class="cls-1" d="M90.72,130.2c-.83,2-.74,9.49-.74,9.49l.74-.75a31,31,0,0,1,0-4.09c.17-1.81.23-4.23,1.39-6S94.76,126,94,125.61a.8.8,0,0,0-.33-.08c-1.13,0-2.19,2.87-3,4.67"/></clipPath><linearGradient id="Gradient_bez_nazwy_60-20" x1="-291.5" y1="311.97" x2="-290.23" y2="311.97" gradientTransform="translate(-870.76 1165.34) rotate(180) scale(3.31)" xlink:href="#Gradient_bez_nazwy_60"/><clipPath id="clip-path-32"><path class="cls-1" d="M92.22,130.53c-1,1.82-1.5,8.41-1.5,8.41l1.17-.65a30.39,30.39,0,0,1-.22-3.22A9.15,9.15,0,0,1,93.5,130c1.16-1.48,2.22-4.37,1.72-4.53h0c-.54,0-2,3.35-3,5.12"/></clipPath><linearGradient id="Gradient_bez_nazwy_60-21" x1="-285.88" y1="314.45" x2="-284.6" y2="314.45" gradientTransform="translate(-938.22 1269.05) rotate(180) scale(3.62)" xlink:href="#Gradient_bez_nazwy_60"/><clipPath id="clip-path-33"><path class="cls-1" d="M95.72,128.22c-.34,1.32-2,2.15-2.83,3.47s-1,6.6-1,6.6l1-.5s.11-2.78.28-4.1,1-2.33,2.38-3.65,1.67-4.62,1.17-4.95l-.1,0c-.42,0-.59,1.94-.9,3.16"/></clipPath><linearGradient id="Gradient_bez_nazwy_60-22" x1="-280.71" y1="316.73" x2="-279.43" y2="316.73" gradientTransform="translate(-1012.18 1383.14) rotate(180) scale(3.95)" xlink:href="#Gradient_bez_nazwy_60"/><clipPath id="clip-path-34"><path class="cls-1" d="M97.55,127.9c-.5,2-2.5,3.29-3.33,4.77a20.66,20.66,0,0,0-1.33,5.12l1.16.33a14.06,14.06,0,0,1,.11-3.6c.34-1.82,1.56-2.5,3.06-4.32s1.8-2,1.66-2.8c0-.2-.29-.64-.6-.64s-.51.27-.73,1.14"/></clipPath><linearGradient id="Gradient_bez_nazwy_60-23" x1="-271.7" y1="320.59" x2="-270.42" y2="320.59" gradientTransform="translate(-1179.75 1641.19) rotate(180) scale(4.71)" xlink:href="#Gradient_bez_nazwy_60"/><clipPath id="clip-path-35"><path class="cls-1" d="M99.21,128.39c-.33.82-2.16,2.31-3.16,3.3s-2,6.43-2,6.43l.9.63a22.61,22.61,0,0,1,.38-3.57A6,6,0,0,1,98,130.84c2.27-1.6,2-2.78,2-2.78a.54.54,0,0,0-.34-.15c-.15,0-.34.11-.5.48"/></clipPath><linearGradient id="Gradient_bez_nazwy_60-24" x1="-271.9" y1="320.49" x2="-270.62" y2="320.49" gradientTransform="translate(-1175.57 1636.89) rotate(180) scale(4.69)" xlink:href="#Gradient_bez_nazwy_60"/><clipPath id="clip-path-36"><path class="cls-1" d="M97.27,132.21c-1.15,1.2-3.22,5.91-3.22,5.91l1.06.75a11.15,11.15,0,0,1,.83-3.42c1.11-2.75,2.66-2.53,4.27-3.6.84-.55.68-.78.14-.78a5.47,5.47,0,0,0-3.08,1.14"/></clipPath><linearGradient id="Gradient_bez_nazwy_60-25" x1="-266.66" y1="322.68" x2="-265.38" y2="322.68" gradientTransform="translate(-1305.1 1836.25) rotate(180) scale(5.27)" xlink:href="#Gradient_bez_nazwy_60"/><clipPath id="clip-path-37"><path class="cls-1" d="M98.94,133.69a48.05,48.05,0,0,0-3.56,5.42l.5.74a16.42,16.42,0,0,0,1.51-2.74c.61-1.54,1-2,2.88-3.69s2.42-1.86,1.83-2.31l-.16-.05c-.63,0-2.13,1.69-3,2.63"/></clipPath><linearGradient id="Gradient_bez_nazwy_60-26" x1="-265.52" y1="323.18" x2="-264.25" y2="323.18" gradientTransform="translate(-1337.9 1888.38) rotate(180) scale(5.42)" xlink:href="#Gradient_bez_nazwy_60"/><clipPath id="clip-path-38"><path class="cls-1" d="M35.42,140.15a2.77,2.77,0,0,0,2.11,4.23c1.49,0,2.28-1.48,3.42-3.15s.94-2.62-.51-3.22a3.52,3.52,0,0,0-1.34-.27,4.31,4.31,0,0,0-3.68,2.41"/></clipPath><linearGradient id="Gradient_bez_nazwy_60-27" x1="-225.81" y1="362.26" x2="-224.54" y2="362.26" gradientTransform="matrix(-5.36, 9.52, 9.52, 5.36, -4617.48, 342.31)" xlink:href="#Gradient_bez_nazwy_60"/><clipPath id="clip-path-39"><polygon class="cls-1" points="15.99 104.72 15.99 110.55 27.83 143.94 53.87 170.19 80.52 180.07 142.84 189.77 142.84 170.15 142.84 104.72 15.99 104.72"/></clipPath><clipPath id="clip-path-40"><path class="cls-1" d="M68,134.33c-.16,1.16-.08,2,1.32,1.61s.06-1.53-.34-1.94c-.09-.09-.33-.34-.56-.34s-.35.16-.42.67"/></clipPath><linearGradient id="Gradient_bez_nazwy_60-28" x1="-129.85" y1="446.28" x2="-128.57" y2="446.28" gradientTransform="matrix(0.52, 1.61, 1.61, -0.52, -580.05, 575.42)" xlink:href="#Gradient_bez_nazwy_60"/><clipPath id="clip-path-41"><path class="cls-1" d="M62.13,148.56a8.22,8.22,0,0,0,1.48,6.14c1.4,1.56,3.54-.52,4-3.62.41-2.94-1.38-4.17-3-4.17a2.33,2.33,0,0,0-2.44,1.65"/></clipPath><linearGradient id="Gradient_bez_nazwy_60-29" x1="-209.45" y1="363.94" x2="-208.18" y2="363.94" gradientTransform="matrix(1.22, 8.67, 8.67, -1.22, -2838.5, 2402.56)" xlink:href="#Gradient_bez_nazwy_60"/><clipPath id="clip-path-42"><polygon class="cls-1" points="15.99 104.72 15.99 110.55 27.44 142.84 53.87 170.19 80.52 180.07 142.84 189.77 142.84 170.15 142.84 104.72 15.99 104.72"/></clipPath><clipPath id="clip-path-43"><path class="cls-1" d="M78.64,150.1a4.18,4.18,0,0,0-.75.06c-1.52.22-2.18,1.65-1.71,3.52s3.06,3.67,4,3.56,1-3.67.7-5.13c-.27-1.24-.78-2-2.19-2h0"/></clipPath><linearGradient id="Gradient_bez_nazwy_60-30" x1="-209.15" y1="356.39" x2="-207.87" y2="356.39" gradientTransform="matrix(3.79, 10.58, 10.58, -3.79, -2902.71, 3707.82)" xlink:href="#Gradient_bez_nazwy_60"/><clipPath id="clip-path-44"><path class="cls-1" d="M77,139.86c-.57.11-.69.83-.3,2s1.39.68,1.85.13-.75-2.17-1.47-2.17Z"/></clipPath><linearGradient id="Gradient_bez_nazwy_60-31" x1="-146.73" y1="420.44" x2="-145.46" y2="420.44" gradientTransform="matrix(0.75, 2.04, 2.04, -0.75, -668.46, 754.47)" xlink:href="#Gradient_bez_nazwy_60"/><clipPath id="clip-path-45"><path class="cls-1" d="M85.65,137.56c-.73,0-1.08.7-1.46,1.66s.46.05,1.48-.46.46-1.2,0-1.2Z"/></clipPath><linearGradient id="Gradient_bez_nazwy_60-32" x1="-160.7" y1="232.02" x2="-159.42" y2="232.02" gradientTransform="matrix(1.55, -1.13, -1.13, -1.55, 596.25, 318.42)" xlink:href="#Gradient_bez_nazwy_60"/><clipPath id="clip-path-47"><path class="cls-1" d="M23.86,136.1s-.19,0-.48.08l1.32,4.6a14.52,14.52,0,0,0,.95-2.42c.75-2.22-1.58-2.26-1.78-2.26Z"/></clipPath><linearGradient id="Gradient_bez_nazwy_60-33" x1="-219.33" y1="368.05" x2="-218.06" y2="368.05" gradientTransform="matrix(-2.17, 8.13, 8.13, 2.17, -3443.69, 1117.69)" xlink:href="#Gradient_bez_nazwy_60"/><clipPath id="clip-path-49"><path class="cls-1" d="M22.44,124.09c-.24,0-.58.25-.83.93-.31.85.22,1.53.61,2.58s.78-.55,1.33-1.31-.3-1.77-.94-2.16l-.16,0Z"/></clipPath><linearGradient id="Gradient_bez_nazwy_60-34" x1="-344.53" y1="396.05" x2="-343.25" y2="396.05" gradientTransform="matrix(-1.73, 0, 0, 1.73, -571.09, -557.4)" xlink:href="#Gradient_bez_nazwy_60"/><clipPath id="clip-path-50"><path class="cls-1" d="M24.79,126.85c-.83.06-1.47,1-2.25,1.61s-.54,1.42,0,1.28,1.12-1.09,2.06-1.84.66-1.05.29-1.05Z"/></clipPath><linearGradient id="Gradient_bez_nazwy_60-35" x1="-308.69" y1="379.7" x2="-307.41" y2="379.7" gradientTransform="matrix(-2.46, 0, 0, 2.46, -734.41, -805.97)" xlink:href="#Gradient_bez_nazwy_60"/><clipPath id="clip-path-52"><path class="cls-1" d="M23.19,134.65l-.25,0,.17.58h.21c.71-.05.21-.58-.07-.6Z"/></clipPath><linearGradient id="Gradient_bez_nazwy_60-36" x1="-414.04" y1="429.21" x2="-412.77" y2="429.21" gradientTransform="matrix(-1.09, 0, 0, 1.09, -429.65, -334.97)" xlink:href="#Gradient_bez_nazwy_60"/><clipPath id="clip-path-54"><path class="cls-1" d="M42.57,130.62c-.61.51-.08,2.31.31,2.91s.93.35,1.24-.8a2.09,2.09,0,0,0-.78-2,.91.91,0,0,0-.5-.2.37.37,0,0,0-.27.1"/></clipPath><linearGradient id="Gradient_bez_nazwy_60-37" x1="-189.58" y1="377.98" x2="-188.31" y2="377.98" gradientTransform="matrix(1.48, 4.35, 4.35, -1.48, -1323.75, 1512.76)" xlink:href="#Gradient_bez_nazwy_60"/><clipPath id="clip-path-55"><path class="cls-1" d="M35.07,126.88c-.43,0-.62.13-1.13.84s-.79,1.84-.37,2.08.67-1,1.61-1.88.35-1,0-1Z"/></clipPath><linearGradient id="Gradient_bez_nazwy_60-38" x1="-227.2" y1="374.43" x2="-225.92" y2="374.43" gradientTransform="matrix(-3.4, 5.99, 5.99, 3.4, -2979.06, 213.28)" xlink:href="#Gradient_bez_nazwy_60"/></defs><title>przyspiesza_transport</title><circle class="cls-2" cx="100.65" cy="99.65" r="84.94"/><path class="cls-3" d="M100,184.51A84.51,84.51,0,1,0,15.49,100,84.51,84.51,0,0,0,100,184.51"/><path class="cls-4" d="M63.34,57.17V47.76h2.21v.69a2.28,2.28,0,0,1,1.94-.9,3.35,3.35,0,0,1,0,6.69,2.51,2.51,0,0,1-2-.82v3.75Zm2.15-6.28a1.43,1.43,0,1,0,1.42-1.43A1.44,1.44,0,0,0,65.49,50.89Z"/><path class="cls-4" d="M74.14,47.76v1a2.22,2.22,0,0,1,2.06-1.12l.43,0v2.12a1.81,1.81,0,0,0-.94-.24c-1,0-1.55.6-1.55,1.77V54H71.92V47.76Z"/><path class="cls-4" d="M83.52,52.19V54H77.17l3-4.43H77.57V47.76h6.24l-2.93,4.43Z"/><path class="cls-4" d="M84.1,47.76h2.58L88.35,51,90,47.76h2.54l-5,9.41H85l2.13-4Z"/><path class="cls-4" d="M97.21,49.38a2.67,2.67,0,0,0-1.21-.3c-.38,0-.67.19-.67.44s.16.36,1,.54c1.23.25,1.83.84,1.83,1.85,0,1.43-1.18,2.36-3,2.36a4.81,4.81,0,0,1-2.5-.72l.8-1.57a3.49,3.49,0,0,0,1.77.64c.4,0,.69-.21.69-.49s-.19-.41-.94-.58c-1.33-.27-1.84-.76-1.84-1.74,0-1.4,1.07-2.27,2.8-2.27a4.83,4.83,0,0,1,2,.4Z"/><path class="cls-4" d="M99.44,57.17V47.76h2.21v.69a2.28,2.28,0,0,1,1.94-.9,3.35,3.35,0,0,1,0,6.69,2.5,2.5,0,0,1-1.95-.82v3.75Zm2.14-6.28A1.44,1.44,0,1,0,103,49.46,1.45,1.45,0,0,0,101.58,50.89Z"/><path class="cls-4" d="M110.37,45.35a1.25,1.25,0,1,1-1.24-1.24A1.23,1.23,0,0,1,110.37,45.35ZM110.23,54H108V47.76h2.21Z"/><path class="cls-4" d="M113.73,51.3c0,.94.46,1.41,1.35,1.41a1.12,1.12,0,0,0,1.09-.59h2.13a2.62,2.62,0,0,1-.55,1.11,3.5,3.5,0,0,1-2.67,1.05,3.26,3.26,0,0,1-3.59-3.34,3.46,3.46,0,0,1,6.91.14v.22ZM116.34,50a1.27,1.27,0,0,0-1.3-1,1.17,1.17,0,0,0-1.25,1Z"/><path class="cls-4" d="M123.82,49.38a2.6,2.6,0,0,0-1.2-.3c-.39,0-.68.19-.68.44s.17.36,1,.54c1.23.25,1.83.84,1.83,1.85,0,1.43-1.18,2.36-3,2.36a4.84,4.84,0,0,1-2.51-.72l.8-1.57a3.52,3.52,0,0,0,1.78.64c.4,0,.69-.21.69-.49s-.2-.41-.94-.58c-1.33-.27-1.84-.76-1.84-1.74,0-1.4,1.06-2.27,2.79-2.27a4.8,4.8,0,0,1,2,.4Z"/><path class="cls-4" d="M131.75,52.19V54H125.4l3-4.43H125.8V47.76h6.25l-2.94,4.43Z"/><path class="cls-4" d="M140.17,47.76V54H138v-.69a2.28,2.28,0,0,1-1.94.9,3.35,3.35,0,0,1,0-6.69,2.51,2.51,0,0,1,2,.82v-.61Zm-5,3.11a1.44,1.44,0,1,0,1.43-1.41A1.44,1.44,0,0,0,135.16,50.87Z"/><path class="cls-4" d="M80,74.17H79V69.34h-.59v-.91H79V66.35h1v2.08h1v.91H80Z"/><path class="cls-4" d="M82.93,68.43v.62c.51-.61.76-.76,1.3-.76a1.53,1.53,0,0,1,.87.25l-.46.88a1,1,0,0,0-.58-.19,1.05,1.05,0,0,0-.91.52,3,3,0,0,0-.22,1.39v3h-1V68.43Z"/><path class="cls-4" d="M91.23,68.43v5.74h-1v-.8a2.45,2.45,0,0,1-2,1,2.84,2.84,0,0,1-2.77-3.06,2.78,2.78,0,0,1,2.74-3,2.46,2.46,0,0,1,2,.95v-.81Zm-4.72,2.83a1.92,1.92,0,1,0,3.81,0,1.93,1.93,0,0,0-1.91-2.1A2,2,0,0,0,86.51,71.26Z"/><path class="cls-4" d="M94.1,68.43v.69a1.89,1.89,0,0,1,1.66-.83,1.94,1.94,0,0,1,1.64.79,2.77,2.77,0,0,1,.32,1.53v3.56h-1V70.78a1.87,1.87,0,0,0-.2-1.12,1.16,1.16,0,0,0-1-.47c-1,0-1.42.63-1.42,2.11v2.87h-1V68.43Z"/><path class="cls-4" d="M102,69.77a.89.89,0,0,0-.81-.57.68.68,0,0,0-.69.64c0,.33.2.51.93.81a4.44,4.44,0,0,1,1.09.56,1.48,1.48,0,0,1,.64,1.26,1.9,1.9,0,0,1-2,1.87,2,2,0,0,1-2-1.47l.87-.36c.32.69.62.93,1.15.93a.9.9,0,0,0,.94-.92c0-.43-.21-.63-.93-.94-1.33-.57-1.66-.91-1.66-1.67a1.61,1.61,0,0,1,1.68-1.61,1.66,1.66,0,0,1,1.57,1Z"/><path class="cls-4" d="M104.52,77.41v-9h1v.81a2.42,2.42,0,0,1,2-.95,3,3,0,0,1,0,6,2.46,2.46,0,0,1-2-1v4Zm.91-6.08a1.91,1.91,0,1,0,3.81,0,1.92,1.92,0,1,0-3.81,0Z"/><path class="cls-4" d="M117.47,71.32a3,3,0,1,1-3-3A3,3,0,0,1,117.47,71.32Zm-5.06,0a2,2,0,1,0,2-2.09A2,2,0,0,0,112.41,71.29Z"/><path class="cls-4" d="M120,68.43v.62c.52-.61.76-.76,1.3-.76a1.54,1.54,0,0,1,.88.25l-.46.88a1,1,0,0,0-.58-.19,1,1,0,0,0-.91.52,2.87,2.87,0,0,0-.23,1.39v3h-1V68.43Z"/><path class="cls-4" d="M124.42,74.17h-1V69.34h-.6v-.91h.6V66.35h1v2.08h1v.91h-1Z"/><path class="cls-4" d="M40.72,89.66a2.61,2.61,0,0,0-1.2-.31c-.39,0-.68.2-.68.45s.17.36,1,.54c1.23.25,1.83.84,1.83,1.85,0,1.43-1.18,2.35-3,2.35a4.75,4.75,0,0,1-2.51-.72l.8-1.56a3.49,3.49,0,0,0,1.77.64c.41,0,.7-.21.7-.49s-.2-.41-.94-.58c-1.33-.28-1.85-.76-1.85-1.74,0-1.4,1.07-2.27,2.8-2.27a4.8,4.8,0,0,1,2,.4ZM39.1,87.11l-1-.76,1.74-2.13,1.42,1Z"/><path class="cls-4" d="M45,94.31H42.79V84.16H45Z"/><path class="cls-4" d="M48.72,91.6a1,1,0,0,0,1.14,1.14A1,1,0,0,0,51,91.6V88h2.21v4c0,1.67-1.16,2.55-3.33,2.55s-3.35-.88-3.35-2.55V88h2.21Z"/><path class="cls-4" d="M60.57,92.47v1.84H54.22l3-4.43H54.62V88h6.24l-2.93,4.43Z"/><path class="cls-4" d="M69.11,91.17c0,2-1.56,3.37-3.8,3.37a3.39,3.39,0,1,1,0-6.74C67.55,87.8,69.11,89.2,69.11,91.17Zm-5.2,0a1.43,1.43,0,1,0,1.42-1.43A1.44,1.44,0,0,0,63.91,91.14Z"/><path class="cls-4" d="M73.35,91.35,74.92,88h1.39l1.58,3.4L79.46,88h2.47l-3.28,6.27h-1.5l-1.56-3.43-1.5,3.43H72.6L69.38,88h2.47Z"/><path class="cls-4" d="M89.71,91.17c0,2-1.57,3.37-3.81,3.37a3.39,3.39,0,1,1,0-6.74C88.14,87.8,89.71,89.2,89.71,91.17Zm-5.21,0a1.44,1.44,0,1,0,1.43-1.43A1.44,1.44,0,0,0,84.5,91.14Z"/><path class="cls-4" d="M93.72,90.11V92h-3.5V90.11Z"/><path class="cls-4" d="M96.7,88v1a2.21,2.21,0,0,1,2.06-1.12l.43,0v2.12a1.81,1.81,0,0,0-.94-.24c-1,0-1.55.6-1.55,1.77v2.69H94.48V88Z"/><path class="cls-4" d="M106.08,92.47v1.84H99.73l3-4.43h-2.56V88h6.24l-2.93,4.43Z"/><path class="cls-4" d="M109.42,91.58c0,.94.45,1.41,1.34,1.41a1.11,1.11,0,0,0,1.09-.59H114a2.65,2.65,0,0,1-1.66,1.89c-.72.34-.94.56-.94.95a.54.54,0,0,0,.54.55,1.37,1.37,0,0,0,.69-.24l-.29,1.18a1.86,1.86,0,0,1-1,.25,1.18,1.18,0,0,1-1.23-1.11,1.69,1.69,0,0,1,.7-1.31,4.07,4.07,0,0,1-1.57-.25,3.16,3.16,0,0,1-2.07-3.07,3.46,3.46,0,0,1,6.91.12v.22Zm2.6-1.29a1.28,1.28,0,0,0-1.3-1,1.18,1.18,0,0,0-1.25,1Z"/><path class="cls-4" d="M119.51,89.66a2.68,2.68,0,0,0-1.21-.31c-.39,0-.68.2-.68.45s.17.36,1,.54c1.23.25,1.83.84,1.83,1.85,0,1.43-1.18,2.35-3,2.35a4.78,4.78,0,0,1-2.51-.72l.81-1.56a3.46,3.46,0,0,0,1.77.64c.4,0,.69-.21.69-.49s-.19-.41-.94-.58c-1.33-.28-1.84-.76-1.84-1.74,0-1.4,1.06-2.27,2.79-2.27a4.8,4.8,0,0,1,2,.4Z"/><path class="cls-4" d="M124,90.29,126.27,88h3l-3.14,2.89,3.34,3.38h-3.12L124,91.76v2.55h-2.22V84.16H124Z"/><path class="cls-4" d="M137.18,91.17c0,2-1.56,3.37-3.8,3.37a3.39,3.39,0,1,1,0-6.74C135.62,87.8,137.18,89.2,137.18,91.17Zm-5.2,0a1.43,1.43,0,1,0,1.42-1.43A1.44,1.44,0,0,0,132,91.14Z"/><path class="cls-4" d="M141.42,91.35,143,88h1.39l1.58,3.4,1.57-3.4H150l-3.28,6.27h-1.5l-1.56-3.43-1.5,3.43h-1.49L137.44,88h2.48Z"/><path class="cls-4" d="M150,88h2.57l1.68,3.21L155.88,88h2.53l-5,9.41H150.9l2.13-4Z"/><path class="cls-4" d="M160.25,84a10.06,10.06,0,0,0,0,6.9l-.52.24a10.47,10.47,0,0,1,0-7.37Z"/><path class="cls-4" d="M162,84.86l.31-.56h1.18v5.39h-.6V84.86Z"/><path class="cls-4" d="M165.85,90.9a10.22,10.22,0,0,0,0-6.9l.51-.23a10.32,10.32,0,0,1,0,7.37Z"/><g class="cls-5"><path class="cls-6" d="M16,151.76a23.72,23.72,0,0,0,5.91.48c2-.32,5,.5,8,1.65s4.66,2,4.16,3.3a14.68,14.68,0,0,0-1,7.43,19.08,19.08,0,0,0,5.16,9.89,30.57,30.57,0,0,0,12.49,7.43,10,10,0,0,1,5.6,4.69H16Z"/><path class="cls-7" d="M16,152.36c2.37-.19,9.07-.64,11.79.07,3.33.88,7.33,2,6.88,4.18s-2.21,4.18-.44,8.58,7.77,14.3,10.43,13,6.44-1.32,5.33-7-2.16-11.7-.83-11.48,33.71,6.92,36.38,6.92,12.53,7.64,12.53,7.64-8.33,5.85-9.88,7.17-4.82,4.53-9.73,5.25H55.11a8.06,8.06,0,0,0-2.91-3c-2.22-.88-6.44-1.76-8.33-3s-9.32-4-10.48-8.74-2.28-9.41-4.06-9-2-1.32-3.1-3.08-7.77-2-9.1-2.86A3.69,3.69,0,0,1,16,155.39Z"/><path class="cls-8" d="M32.72,156.12A47.49,47.49,0,0,0,16,152.74v-2.41c2,.18,8.08.79,11,1.44,3.66.83,13.25,2.63,25.06,6.21,9.68,2.94,16.14,7.16,31.32,7.4,3.36.06,5.2,10.63,3.37,11.46s-2.74-9.17-7.47-9.55c-6-.48-12.77-.95-17.83-2.39C54.64,163,50.31,160,49.15,160.84s2.88,7.82,2.55,10.95-3.66,4.45-4.5,6.27-1.93,3.23-3.93,1.58-4.72-4-6.56-5.71-2.66-4.45-3.49-7.25-1.5-5.61-.83-7.43,2.3-2.39.33-3.13"/><path class="cls-6" d="M56.18,168.9c1.36-.12,3.84,2.06,3,4.7s-2.5,3.47-3.5,1.32-2.44-2.82-1.44-4,1.07-2,1.93-2"/><path class="cls-9" d="M56.52,171s1.67,2.15.84,2.65-1.67-.83-1.67-1.82.83-.83.83-.83"/><path class="cls-6" d="M71.51,175.26a2.3,2.3,0,0,1,.83,3.62c-1.66,2.48-3,4.29-3.66,1.49s-1.17-4.29.16-5.11a2.66,2.66,0,0,1,2.67,0"/><path class="cls-6" d="M74,179.71c.64.86,2.5,1.81,1.17,4.12s-2,4.13-3.16.83-1-5.61.33-5.78,1.39.46,1.66.83"/><path class="cls-9" d="M73.67,181s1,3.13,0,2.64-2.16-2.64-1.33-3.14,1.33.5,1.33.5"/><path class="cls-9" d="M58.69,180.2c.1.4-.33,2.64-1,1.32s-.67-2-.17-2.14,1.09.48,1.17.82"/><path class="cls-9" d="M58.52,183.83s1.17,2,0,1.16-1.66-1.32-1-1.65,1,.49,1,.49"/><path class="cls-9" d="M65,179.87c.6.38.33,1.16,1.66,2.31s1.5,3.47.5,2.15S66,183.67,65,181.85s-.43-2.24,0-2"/><path class="cls-10" d="M41.3,186.63l.13-.1c1.67-1.21,4.22-2.53,6.88-2a3.85,3.85,0,0,1,2.39,2.08Z"/><path class="cls-11" d="M43.65,186.63a3.72,3.72,0,0,1,2.54-1.48,4.18,4.18,0,0,1,3.68,1.48Z"/><path class="cls-11" d="M32.89,186.42l-.32.21h-9c.82-2,2.34-2.95,5.85-5.15,2.92-1.84,4.35-5.52,7.12-5.18,1.6.2,5.19,2.19,3.08,5.6s-4.86,3.31-6.74,4.52"/><path class="cls-12" d="M24.74,186.63c.23-1.4,1.16-2.34,1.94-2.31a5.34,5.34,0,0,1,3.05,2.31Z"/><path class="cls-12" d="M39.62,180c0-.38-.22-2.2-1.22-.88s-.88,2.64-2.66,3.3-2.78.66-2.78,2,1.27.82,1.68.64c1.15-.51,3.54-1.74,4.21-2.73a3.82,3.82,0,0,0,.77-2.31"/><path class="cls-11" d="M111.43,160s.7,9.42,0,10.08-1.66-.5-3.83-.17-4.66,1.82-8.49,3.79-13.15,6.6-15.65,8.58-3.77,1.71-4.88,1.6-1.61-8,.06-10,6.49-1,8.15-2.09,1.17-1.87,3-2S111.43,160,111.43,160"/><path class="cls-12" d="M16,155.37c1.12.36,3.48,1,6.74,1.74,4.67,1,8,1.49,5.33,3.3s-4.33,3.3-6.49,4.78-4,3-4.83,3a6.17,6.17,0,0,1-.75,0Z"/><path class="cls-12" d="M16,169.59c1.36-1,4.32-.49,6.58-2.58,2.66-2.48,4.33-4.89,6.32-4.79,2.7.15,6.66,5.28,4.5,9.74s-5,5.6-8.16,3.46a20.63,20.63,0,0,0-7.16-3.3,11.7,11.7,0,0,0-2.08-.35Z"/><path class="cls-13" d="M46,164.53c2.66,5.45,2.33,10.56.33,11.71s-6.32-.82-8.32-4-.67-4.79-2.33-7.76-2.58-3.46-1.67-4.78c1.36-2,9.32-.66,12,4.78"/><path class="cls-11" d="M46.54,174.24c-1.78,1.76-5.22.88-6.66-1.32s-1.19-4.78,0-5.39c3.41-1.76,8.43,4.95,6.66,6.71"/><path class="cls-14" d="M45.34,171.23c.64,0,1.5,2.75.21,2.75s-1.5-2.75-.21-2.75"/><path class="cls-14" d="M44.16,174.14c.06-1-1.34-4.66-2.83-4.66s-.59,1.06.48,1.91,1.12,2.07,1.5,2.75c.1.19.81.85.85,0"/><path class="cls-14" d="M42,172.5a3.7,3.7,0,0,1-1.71-2.76c0-1.69-2.36-1-.32,2.6s3.74,1.22,2,.16"/><path class="cls-14" d="M43,168.9c.87-.65,1.71.42,1.49,1.27s-2.35-.64-1.49-1.27"/><path class="cls-15" d="M111.2,165.58a44.81,44.81,0,0,0-1.22-5.93l32.64-9.27v5.4l0,.45-12.32,5.44s-.33-1.32-1.5-1.15-1.83,1.65-3,2.8-8.16,4.45-10.66,5.94a6.4,6.4,0,0,1-4.37,1.06s.45-3.42.45-4.74"/><path class="cls-16" d="M83.14,164.67c10.6-.48,25.55-6.77,32-9.08S141.94,147,141.94,147l.7-.26v4.09c-4.39,1.89-9.85,3.41-12.42,4.56-3.66,1.65-8.68,2.46-13,3.94A137.48,137.48,0,0,0,102,166.1c-4.16,2.14-14.24,6.79-16.24,6-1-.41-3.59-7.36-2.65-7.4"/><path class="cls-9" d="M70.68,176.41c.49.17,1.16,2.47,0,2.64s-1.84-1.65-1.5-2.47,1.5-.17,1.5-.17"/><path class="cls-12" d="M16,173.94a22,22,0,0,1,7.07,2c3,1.65,4.34,1.32,3.17,2.81S23.56,180,22.4,183c-.5,1.28-1.07,2.55-1.58,3.62H16Z"/><path class="cls-17" d="M16,108c1.57-.22,4-.57,6.8-1.08,4.88-.88,9.54,1.1,13.09,2.64a27.07,27.07,0,0,0,9.77,2.64c3.55.22,14,2,14,2a6.76,6.76,0,0,0,4.22.88c2.66-.22,7.12-2.83,9.65-4.68,4.16-3,10.3-8.24,20.31-4.12,4.54,1.87,10.88,5.94,11.55,6.16a12.21,12.21,0,0,1,4.88,2c2.66,1.76,5.39,4.37,7.1,3.74,3.22-1.18,5.88-1.4,8.66,1.24,2,1.94,2.66.52,6.88.08a56.61,56.61,0,0,1,9.74.17v7.82a42.32,42.32,0,0,1-5.52,5.43c-3.33,2.64-8.66,3.95-13.77,6.15s-9.54,4.4-12.87,4.18c0,0-9.32,4-13.54,4.4,0,0-7.7-2.24-10.11-5.18s-7.64-5.38-10-7.08c0,0-10.82,7.17-14.76,5.22s-3.1-3.85-7.76-2.86-3.39-1.23-4.72-5.19-10.6-4.27-13.71-1.4-3.77-4.4-5.24-7.81c-1.19-2.76-11,1-14.65,1.41Z"/><g class="cls-18"><rect class="cls-19" x="90.14" y="126.44" width="25.19" height="6.82"/></g><path class="cls-20" d="M138.05,119.31c-2,3-6,4.34-9.56,5.34l-16.89,4.66c-.65.18-1.39.43-1.64,1.06a1.5,1.5,0,0,0,1.09,1.79,4.42,4.42,0,0,0,2.33-.14,148.85,148.85,0,0,0,22.45-7.56c2.25-1,4.88-2.58,4.67-5l-.07,0Z"/><path class="cls-21" d="M16,123.43c2.41-.83,5.32.39,8.18,1.57,3.66,1.51,3.56-.3,7.47.72s11,.22,12.4.62a13.48,13.48,0,0,1,5.55,4.3c1.44,1.94,7.35,2.1,10.27,2.37s5.74-1.08,10.73-2.27,5.79,1.95,10.29,3.78,3.67,2,5,3.06,1.89,1.56,5.22,0,11-2.25,15.37-2.68,5.66,1.94,10-.21,9.48-2.68,13.32-3.46c6.57-1.33,10.13-1.12,11.13-1.76.66-.43,1-1.81,1.72-2.63v21.76c-1.07.49-1.88-.15-3.9.24-.74.14-3,.86-3.84,1-2.13.37-3.94,1.58-6.48,2.08-4.37.86-8.51,3.67-13,5.53-.75.31-2.93.49-3.66.84-3.31,1.57-5.39,1.71-7.93,2.66-1.74.66-3.32,1.2-4.76,1.64s-2.75.8-3.94,1.09c-2.18.54-4,.86-5.46,1.16-4.33.87-17.78,1.73-27.43-2.37s-21.31-7.83-30.47-9.28C23.86,152,17.6,150.67,16,150.31Z"/><g class="cls-22"><rect class="cls-23" x="50.25" y="119.9" width="7.28" height="12.29"/></g><g class="cls-24"><rect class="cls-25" x="51.9" y="120.6" width="7.22" height="12.14"/></g><g class="cls-26"><rect class="cls-27" x="52.8" y="122.27" width="6.29" height="11.02"/></g><g class="cls-28"><rect class="cls-29" x="53.57" y="123.36" width="6.43" height="10.48"/></g><g class="cls-30"><rect class="cls-31" x="55.02" y="124.62" width="5.32" height="9.66"/></g><g class="cls-32"><rect class="cls-33" x="56.46" y="123.69" width="6.22" height="10.59"/></g><g class="cls-34"><rect class="cls-35" x="56.79" y="123.94" width="7.77" height="10.67"/></g><g class="cls-36"><rect class="cls-37" x="58.24" y="125.59" width="8" height="9.57"/></g><g class="cls-38"><rect class="cls-39" x="97.53" y="112.2" width="20.47" height="13.92"/></g><g class="cls-40"><rect class="cls-41" x="72.34" y="105.36" width="33.97" height="15.38"/></g><g class="cls-42"><rect class="cls-43" x="46.73" y="105.96" width="1.69" height="9.74"/></g><g class="cls-44"><rect class="cls-45" x="47.54" y="105.14" width="2.55" height="11.55"/></g><g class="cls-46"><rect class="cls-47" x="48.04" y="105.06" width="3.59" height="12.13"/></g><g class="cls-48"><rect class="cls-49" x="48.37" y="104.91" width="6.22" height="13.26"/></g><g class="cls-50"><rect class="cls-51" x="51.04" y="105.68" width="5.72" height="12.33"/></g><g class="cls-52"><rect class="cls-53" x="52.7" y="105.55" width="5.36" height="11.64"/></g><g class="cls-54"><rect class="cls-55" x="53.7" y="107.01" width="4.84" height="10.34"/></g><g class="cls-56"><rect class="cls-57" x="54.81" y="108.62" width="5.35" height="8.89"/></g><g class="cls-58"><rect class="cls-59" x="57.31" y="109.33" width="4.53" height="8.02"/></g><g class="cls-60"><rect class="cls-61" x="57.52" y="111.54" width="5.1" height="7.96"/></g><g class="cls-62"><rect class="cls-63" x="65.12" y="118.73" width="18.49" height="10.43"/></g><path class="cls-64" d="M102,112.92c1.34,1.06,0,2.39-1.33,1.44s-4.57-4.78-9.27-6-12,4.28-14.7,3.58,3.13-4.66,7-5.13,8.91-1.32,18.31,6.08"/><path class="cls-65" d="M115.36,120.21c.92,1.05-1.44,5.25-8.67,3.82s5.78-7.17,8.67-3.82"/><path class="cls-66" d="M51,124.62c-.43,1.22-1.2-.72-7.11-2.14-4.45-1.08-8.58.56-10.12-.24-2-1.08-3.61-3.11-6.74-4.06-2.54-.77-7.11,1.07-7.83.12s4.78-4.22,9.15-2.87c3.86,1.2,6.38,5.21,8.56,4.78,6.62-1.32,14.81,2.38,14.09,4.41"/><path class="cls-67" d="M37.54,113.4c-5-1.61-6.67-4.62-11.39-4.83-2-.09-8.09,1.35-8,2.56.06.84,1.54,1.83,2.77,2.18s4.22.81,6.27-1,3.36,2.8,7.65,3.22c2.71.27,7.82.32,8-.8.09-.81-2.49-.46-5.24-1.35"/><g class="cls-68"><rect class="cls-69" x="39.8" y="114.48" width="22.16" height="6.81"/></g><path class="cls-70" d="M107.92,113.22c1.3-.85,5.33,2.24,4.7,3.94s-6.32-2.86-4.7-3.94"/><path class="cls-71" d="M70.7,115.46c.59.75-1.45,3.67-5,4.21-2.3.35-4.34-1.08-3.8-1.79s2,.44,4-.09c3-.81,4.16-3.13,4.79-2.33"/><g class="cls-72"><rect class="cls-73" x="80.82" y="109.51" width="9.67" height="9.36"/></g><g class="cls-74"><rect class="cls-75" x="100.09" y="119.15" width="27.56" height="8.96"/></g><g class="cls-76"><rect class="cls-77" x="82.82" y="120.47" width="11.99" height="3.94"/></g><g class="cls-78"><rect class="cls-79" x="68.35" y="127.15" width="12.18" height="4.02"/></g><g class="cls-80"><rect class="cls-81" x="81.83" y="123.66" width="10.43" height="9.32"/></g><g class="cls-82"><rect class="cls-83" x="88.97" y="125.68" width="2.93" height="13.96"/></g><g class="cls-84"><rect class="cls-85" x="89.89" y="125.53" width="4.87" height="14.16"/></g><g class="cls-86"><rect class="cls-87" x="90.72" y="125.41" width="5" height="13.53"/></g><g class="cls-88"><rect class="cls-89" x="91.89" y="125.06" width="5.33" height="13.23"/></g><g class="cls-90"><rect class="cls-91" x="92.89" y="126.76" width="6.13" height="11.36"/></g><g class="cls-92"><rect class="cls-93" x="94.05" y="127.91" width="6.22" height="10.84"/></g><g class="cls-94"><rect class="cls-95" x="94.05" y="131.07" width="6.99" height="7.8"/></g><g class="cls-96"><rect class="cls-97" x="95.38" y="131.06" width="7.31" height="8.79"/></g><path class="cls-98" d="M48.25,136.8a17.92,17.92,0,0,1-1.24,5c-1,2.26-1.87,3.62-1.95,6.49s.24,5.12-1.4,5.73-5.38-.4-6.32-1.41-.93-3.82.39-5.43,6-5.33,6.94-6.44,3.58-4,3.58-4"/><path class="cls-99" d="M35.55,152.19c1.79-1.06-.7-4.23,3.82-7.3,3.6-2.44,11.09-9.5,11-14.12s-3.14-4.13-6-5c-3.4-1-8.42-1.81-10.39-.4s-2.49,3.75-2.8,7.7,1.35,6.58,2,8.39a10.39,10.39,0,0,1,.68,5c-.21,1.94-.16,3.43-.37,4.1s-.52,1-.26,1.22a2.34,2.34,0,0,0,2.34.36"/><g class="cls-100"><polygon class="cls-101" points="44.96 139.34 40.21 147.69 31.41 142.78 36.16 134.42 44.96 139.34"/></g><g class="cls-102"><path class="cls-103" d="M43.55,126.21s1.87.6.63,1.21-2.29.8-2.39-.07,1.76-1.14,1.76-1.14"/><path class="cls-103" d="M40.85,125.54s1.14.94.21,1.21-1.67.2-1.46-.67,1.25-.54,1.25-.54"/><path class="cls-103" d="M45.94,127.48a.92.92,0,0,1-.21,1.68c-.93.27-2-.54-1.24-1.07s1.08-.75,1.45-.61"/><path class="cls-103" d="M48.13,128.62s1.35.2.62.88-1.87,1-1.77.2,1.15-1.08,1.15-1.08"/><path class="cls-103" d="M42.93,128.36s.73,1.47-.21,1.47-1.35-.87-.93-1.27a1.32,1.32,0,0,1,1.14-.2"/><path class="cls-103" d="M39.81,127.42s1.46.74,1,1.61-2.39,1.14-2.5,0,1.46-1.61,1.46-1.61"/><path class="cls-103" d="M38.36,126.41s.52,1.14-.21,1.21-1.25-1.21-.52-1.48.73.27.73.27"/><path class="cls-103" d="M45.63,130s1.25.88.31,1.14-1.66-.67-1.14-1,.83-.14.83-.14"/><path class="cls-103" d="M48.54,130.37c.57.16,1.56,1.47.1,1.61s-2-1.68-1.45-1.61,1-.09,1.35,0"/><path class="cls-103" d="M36.92,128.67s.1,1.34-.62,1.21-1.56-1.48-.63-1.65a1.11,1.11,0,0,1,1.25.44"/><path class="cls-103" d="M36.17,125.47c.37.11.63.81-.41,1s-2.7.67-1.77-.07,1.59-1.11,2.18-.94"/><path class="cls-103" d="M38,129.5s1,1.27,0,1.27-1.24-1-.83-1.21a1.2,1.2,0,0,1,.83-.06"/><path class="cls-103" d="M40.85,130.9s.83,1.55-.21,1.34-.72-1.74-.41-1.87.62.53.62.53"/><path class="cls-103" d="M45.94,132.45s1.77,1.4.52,1.4-2.18-.74-1.56-1.4,1,0,1,0"/><path class="cls-103" d="M48.75,132.38s.83,1.27-.21,1.07-1.66-.87-1-1.14a1.56,1.56,0,0,1,1.25.07"/><path class="cls-103" d="M38.56,131.37s1.25,1.88.21,1.74-1.87-1.74-1.14-1.94.93.2.93.2"/><path class="cls-103" d="M35.34,130.37s2,.93.94,1.07-2-.6-1.77-.8a1.82,1.82,0,0,1,.83-.27"/><path class="cls-103" d="M36.17,132.18s1.25,1,.52,1.14-1.76-.34-1.24-.87.72-.27.72-.27"/><path class="cls-103" d="M46.05,134.46s1.45,1.27.41,1.4-1.66-1.27-1.35-1.4a2,2,0,0,1,.94,0"/><path class="cls-103" d="M43.76,134.26c.28.19.42,1.47-.52,1s-.52-1.07-.21-1.07a1.63,1.63,0,0,1,.73.07"/><path class="cls-103" d="M41.68,132.51c.31.06.83,1.14-.2.81s-.1-.87.2-.81"/><path class="cls-103" d="M41.79,134s.72,1.27-.11.87-.93-1.21-.62-1.21a1.57,1.57,0,0,1,.73.34"/><path class="cls-103" d="M39.92,134.19c.24.23,1.66.87.52,1.07s-1.77-1.61-1.25-1.54.58.33.73.47"/><path class="cls-103" d="M38.3,133.77c.05.27-.26,1.42-.77.95s-.12-1.5.41-1.4c.13,0,.34.32.36.45"/><path class="cls-103" d="M35.86,134.19s.52,1.2-.31,1.07-1.45-1.27-.73-1.34a1.25,1.25,0,0,1,1,.27"/><path class="cls-103" d="M34,132s.94,1.14-.21.87-1.14-1.34-.72-1.34A1.86,1.86,0,0,1,34,132"/><path class="cls-103" d="M33.16,133.72c.42,0,1.14,1.41.31,1.07s-.73-1.06-.31-1.07"/><path class="cls-103" d="M33.68,135.53s.52,1.54-.21,1.14-1-1.07-.62-1.21a1.27,1.27,0,0,1,.83.07"/><path class="cls-103" d="M43.71,136.27a.74.74,0,0,1,0,1c-.47.54-.52,1.82-1,1A1.38,1.38,0,0,1,43,136.4c.57-.37.73-.13.73-.13"/><path class="cls-103" d="M37.32,136.9s.83.54-.57.74-1.72,1.24-2.08.57-.11-.94,1-1.24a2.84,2.84,0,0,1,1.67-.07"/><path class="cls-103" d="M40.8,136.5s1.14.74.21.74-1.62.57-1.35-.1,1.14-.64,1.14-.64"/><path class="cls-103" d="M45.76,138.39s.36-.6-.52-.4-1.66,1.64-1,1.61,1.56-1.21,1.56-1.21"/><path class="cls-103" d="M48.11,136.25s-.32-.7-.79-.27-.21,1.58.16,1.21a4.09,4.09,0,0,0,.63-.94"/><path class="cls-103" d="M37.94,135.63s.83.67-.15.64-1.72.16-1.36-.37,1.51-.27,1.51-.27"/><path class="cls-103" d="M42.1,135.56s1,.77,0,.64-1.46-.4-.93-.67a.81.81,0,0,1,.88,0"/><path class="cls-103" d="M45.42,136.47c.19.21,1.2.63.47.94s-1,.57-1.14-.27-.26-1.48.15-1.34.38.5.52.67"/><path class="cls-103" d="M48.18,133.89s.72.87,0,1-1,0-.83-.61a.66.66,0,0,1,.78-.43"/><path class="cls-103" d="M43.35,139.69s.88.36,0,1.07S41.89,142,42.1,141a2,2,0,0,1,1.25-1.34"/><path class="cls-103" d="M33.37,138.58s1.5,1,1,1.37-1.62-.47-1.67-1.1.68-.27.68-.27"/><path class="cls-103" d="M34.67,146.22c.48-.21,1,.17,1,1.37s-.63,2.15-1,1.28-.9-2.27,0-2.65"/><path class="cls-103" d="M37.68,145s.36.91-.41,1-1.2.1-.84-.6a1.08,1.08,0,0,1,1.25-.44"/><path class="cls-103" d="M35.08,144.21s1.72,1,.78,1-1.56-.71-1.35-1.08.57.07.57.07"/><path class="cls-103" d="M33.89,140.72s.83.71.36.71-1.19-.91-.88-1,.52.3.52.3"/><path class="cls-103" d="M41.61,142.14s.11,1-.52,1-.72-.3-.31-.8a.58.58,0,0,1,.83-.17"/><path class="cls-103" d="M35.3,149.79c.29.3,1,1.88.16,1.61s-1.14-.33-.94-1.14.62-.63.78-.47"/><path class="cls-103" d="M36.58,146.64s.26,1.14-.21.67-.67-1-.31-1a.66.66,0,0,1,.52.3"/><path class="cls-103" d="M33,129.73s1,.74.32.67-1.15-.37-.89-.74.57.07.57.07"/><path class="cls-8" d="M41.79,147.71c1.16.2,3,1,1.48,3s-2,2.86-3.28,1.91-1.87-3.22-.62-4.07,1.76-.92,2.42-.81"/><path class="cls-21" d="M41.86,145.45c.14.14.63.9-.15.65s-.94-.7-.55-.8a.67.67,0,0,1,.7.15"/><path class="cls-99" d="M78,132.63a11.83,11.83,0,0,0-8.81-2.41c-5.45.6-8.76,3.13-9.36,4.25-1,1.87-2.49,5.05-2,7s.47,7,.55,8.59,2.26,3.52,3,4.88.7,4.63.7,5.63,1.72,2.06,2.65,1.31,1-4.93,2.5-6,3.49-4.71,3.89-6.42a83.38,83.38,0,0,0,1-10.46c.08-2.06.52-4.29,2.32-5.29A9.61,9.61,0,0,1,78,132.63"/></g><g class="cls-104"><polygon class="cls-105" points="70.42 132.82 71.47 136.04 68.08 137.14 67.02 133.92 70.42 132.82"/></g><g class="cls-106"><polygon class="cls-107" points="67.88 146.07 69.29 156.08 61.94 157.1 60.52 147.09 67.88 146.07"/></g><g class="cls-108"><path class="cls-103" d="M65.64,156.16c.55.43.07,1.81-.71,2.21s-1.09-.2-.54-1.26.94-1.19,1.25-1"/><path class="cls-103" d="M68.23,151.13c.25-.57,1.33-.7,1,.61s-1.32,3.22-2,2.81-.15-1.25.24-1.91a12.39,12.39,0,0,0,.78-1.51"/><path class="cls-103" d="M61.66,150c0-.12-.55-.75-.7.26s.08,3.36.93,3.77.94-.31.71-.81a12.71,12.71,0,0,1-.86-2.36,6.25,6.25,0,0,0-.08-.86"/><path class="cls-103" d="M62.88,154.79a.86.86,0,0,1,.54,1.4.82.82,0,0,1-1.48-.45.76.76,0,0,1,.94-1"/><path class="cls-103" d="M72.73,132.18c.53,0,2.1.75,1,1.2s-1.63,1-2,.05.46-1.29,1-1.25"/><path class="cls-103" d="M74.13,131c.4.11,1.32.85.55,1.06s-1.64.25-1.72-.41.81-.74,1.17-.65"/><path class="cls-103" d="M71.79,130.77s1.17.9-.23.85-2.34,0-1.72-.65,2-.2,2-.2"/><path class="cls-103" d="M69.53,131.72c.35.19.94,1,.16,1.16s-2,.75-2.18.05.07-1.16.78-1.26a2,2,0,0,1,1.24.05"/><path class="cls-103" d="M70.78,133.58s1.79.71.7,1.11-1.79.15-1.64-.6a.7.7,0,0,1,.94-.51"/><path class="cls-103" d="M70.86,135.69s1.4,1.87.39,1.47-1.64-.86-1.25-1.26a.79.79,0,0,1,.86-.21"/><path class="cls-103" d="M68.91,136.5s1.56.15.94.75-.94,1.21-1.25.31.31-1.06.31-1.06"/><path class="cls-103" d="M66.78,134.27c.56,0,1.25,1,.47,1.41s-2,.91-1.87.15.7-1.58,1.4-1.56"/><path class="cls-103" d="M66.49,132.38s1.25.75.32,1-1.41.35-1.33-.4,1-.55,1-.55"/><path class="cls-103" d="M67.12,130.72s.78,1.05,0,1.16-1.41.25-1.25-.41,1.25-.75,1.25-.75"/><path class="cls-103" d="M64.7,131.47s.78,1.61-.31,1.56-1.79,0-1.33-.7a2.62,2.62,0,0,1,1.64-.86"/><path class="cls-103" d="M64.39,133.63s1.09.66.39,1.16-1.09,1.06-1.4.2-.71-1.2-.08-1.46a1.17,1.17,0,0,1,1.09.1"/><path class="cls-103" d="M62.21,133s.77,1.21,0,1.16-1,0-.86-.66a.71.71,0,0,1,.86-.5"/><path class="cls-103" d="M62.13,134.94s1.71.76.7,1.11-1.48.6-1.56-.2.86-.91.86-.91"/><path class="cls-103" d="M64.15,136.15s1.17,1,.08,1.1-1.56-.15-1.32-.6,1.24-.5,1.24-.5"/><path class="cls-103" d="M66.1,136.6s1,.56.55,1.06-1.17,1-1.33.45-.07-1.41.24-1.46a3.76,3.76,0,0,1,.54-.05"/><path class="cls-103" d="M67.66,137.86s2,1,.78,1-1.63-.3-1.48-.65.7-.35.7-.35"/><path class="cls-103" d="M66.34,138.86s1.17-.1.7.76-.63,1.41-1,.65a1.28,1.28,0,0,1,.32-1.41"/><path class="cls-103" d="M64.47,138.26s1.09.5.46.9-1.09.26-1.17-.4.71-.5.71-.5"/><path class="cls-103" d="M62.67,138.91c.63.36,1.64,1,.78,1.06s-1.55-.1-1.48-.6.7-.46.7-.46"/><path class="cls-103" d="M69.14,139.62s1.33.55.55.8-1.56.1-1.4-.55.85-.25.85-.25"/><path class="cls-103" d="M70.08,138.16c.31.15,1.4,1,.54,1.05s-1.24-.05-1.16-.55a.62.62,0,0,1,.62-.5"/><path class="cls-103" d="M61.66,137.1s1.17.71.39.91-1.56.25-1.4-.45,1-.46,1-.46"/><path class="cls-103" d="M59.87,138.46s1.64.4.78.81-1.48.4-1.56-.21.78-.6.78-.6"/><path class="cls-103" d="M60.18,135.9c.33,0,1.17.55.47.8s-1,.35-.94-.1.17-.69.47-.7"/><path class="cls-103" d="M61,139.92s1,.35.7.8-.86,1.41-1.4.51.7-1.31.7-1.31"/><path class="cls-103" d="M63.14,140.42s1.72,1.46.63,1.71-1.87.15-1.64-.65a1.65,1.65,0,0,1,1-1.06"/><path class="cls-103" d="M64.7,140.17s1.56.55.94,1-1.56.15-1.49-.51.55-.45.55-.45"/><path class="cls-103" d="M67.35,140.92s1.32.46.62,1-1.94.5-1.79-.3,1.17-.66,1.17-.66"/><path class="cls-103" d="M70.55,140.82s.62,1.26-.24,1.11-1.4-.65-.85-.9a2.31,2.31,0,0,1,1.09-.21"/><path class="cls-103" d="M71.17,139.57s.7,1.25,0,.8-1.09-.8-.78-.9a1.4,1.4,0,0,1,.78.1"/><path class="cls-103" d="M69.33,142.77c.1.16,1.15,1,.06.7s-1.79-.95-1-1.2.83.32,1,.5"/><path class="cls-103" d="M65.25,142s1.71.5.54.75-1.87.21-1.48-.3a1.14,1.14,0,0,1,.94-.45"/><path class="cls-103" d="M58.46,140.42c.49-.2,1.72.41,1.41,1.16s-.7.6-1.09,0-.7-1-.32-1.16"/><path class="cls-103" d="M61.12,142.23c.31,0,1.63.61.62.86s-2.11.35-1.87-.31,1.25-.55,1.25-.55"/><path class="cls-103" d="M61.12,143.64s1.48.8.46,1.2-2,.41-2-.35,1.56-.85,1.56-.85"/><path class="cls-103" d="M67,143.09c.24,0,1.48.3.62.8s-1.56,1-1.56.1a.91.91,0,0,1,.94-.9"/><path class="cls-103" d="M69.46,144s1.32,1.51,0,1.36-1.88-.7-1.25-1.11a1.74,1.74,0,0,1,1.25-.25"/><path class="cls-103" d="M64.7,144s.86.76.08.81-1.25.2-1.09-.46,1-.35,1-.35"/><path class="cls-103" d="M62.05,145.5s1.48,1,.23.9-1.55-.4-1.24-.7,1-.2,1-.2"/><path class="cls-103" d="M70.94,142.58s1.17,1.11.23,1-1.4-1-1-1.16a.86.86,0,0,1,.78.2"/><path class="cls-98" d="M58.39,151.53a22.34,22.34,0,0,1,2.18,2.77,9.49,9.49,0,0,1,1.17,4c.15,1.51-.16,2.36-.86,2.51s-2.73-.65-4.29-1.15-2.31-1.09-2.23-1.34,1.35-2.33,1.35-3.49a14.45,14.45,0,0,1,1.35-4.69c.78-1.91.78.57,1.33,1.37"/><path class="cls-8" d="M59.48,156.41c.73.46,1.87,2,.86,2.56s-1.17.46-2.27.15-2.1,0-2.18-.9,1.33-1.91,2.18-2,1.15,0,1.41.15"/><path class="cls-99" d="M80.7,164c1.55-1.44.06-4.55,1.3-6.87s5.23-7.08,6.08-10.6,2.11-7.24.78-9.86A8.16,8.16,0,0,0,82,132.18a12.94,12.94,0,0,0-5.69.8A5,5,0,0,0,73,136.6c-.32,1.9-.54,5.48-.78,7.24s.16,4.47-.46,5.58-.78,1.81-.55,2.36a9.76,9.76,0,0,0,2,3.22,16.94,16.94,0,0,1,2.8,3.07c.7,1.16,1.8,2.81,1.8,4.12s-1,1.68-.21,2.1A3.44,3.44,0,0,0,80.7,164"/></g><g class="cls-109"><polygon class="cls-110" points="80.56 148.37 83.51 156.53 76.33 159.08 73.38 150.92 80.56 148.37"/></g><g class="cls-111"><polygon class="cls-112" points="78.72 138.99 80.11 142.72 76.67 143.97 75.29 140.25 78.72 138.99"/></g><g class="cls-113"><polygon class="cls-114" points="82.54 138.46 85.68 136.2 87.93 139.27 84.79 141.53 82.54 138.46"/></g><g class="cls-108"><path class="cls-103" d="M83.25,143.34s1.64.55.94,1-1,.91-1.33-.1.39-.95.39-.95"/><path class="cls-103" d="M85,144.75s.85.85.15,1.1-1.32-.25-1.09-.7.94-.4.94-.4"/><path class="cls-103" d="M85.43,141.48s1.56.5,1,1.41-1.09,1.35-1.64.45-.55-1.51-.16-1.71a1.47,1.47,0,0,1,.78-.15"/><path class="cls-103" d="M87.93,141.63s.62,1.31,0,1.31a.8.8,0,0,1-.78-1.16.49.49,0,0,1,.78-.15"/><path class="cls-103" d="M87.38,135.8c.33.15,1.25,1,.63,1.3s-1.33.35-1.33-.55.47-.86.7-.75"/><path class="cls-103" d="M87.3,137.86s.94.85.16,1-1-.35-.78-.8a.42.42,0,0,1,.62-.2"/><path class="cls-103" d="M87.38,139.72s1.25.6.47.85-1.17.46-1.17-.3a.52.52,0,0,1,.7-.55"/><path class="cls-103" d="M85.59,139.67c.26.1,1.48,1.05.54,1.1s-1.09.06-1.16-.6.43-.58.62-.5"/><path class="cls-103" d="M85.35,134.94s1.1,1.21.47,1.41-.93,0-.93-1,.46-.41.46-.41"/><path class="cls-103" d="M83.8,136.4c.36.09,1.32.85.78,1.41s-.94,1.91-1.25,1.15-.7-1.3-.47-2,.63-.68.94-.6"/><path class="cls-103" d="M82.47,141.43s1,1.2.31,1.2-1.24-.25-.93-.9.62-.3.62-.3"/><path class="cls-103" d="M86.44,143.94c.39.08,1.48.65.86,1.31s-1,.34-1.11-.47,0-.88.25-.84"/><path class="cls-103" d="M85.67,146.15c.23,0,1.09.81.46,1.46s-1,.5-1.09-.35a1,1,0,0,1,.63-1.11"/><path class="cls-103" d="M82.94,145.15s1.17,2.06-.08,2.46-1.79-.05-1.4-1.26a1.63,1.63,0,0,1,1.48-1.2"/><path class="cls-103" d="M80.05,139.82c.51.07,1.25,1,.32,1.31s-1.56-.06-1.33-.56a1.1,1.1,0,0,1,1-.75"/><path class="cls-103" d="M80.13,135.44c.55,0,1.87.71,1,1.26s-1.87.4-1.79-.35.37-.93.77-.91"/><path class="cls-103" d="M81.61,137.76s1.56.7.55.75-1.32-.15-1.25-.55.7-.2.7-.2"/><path class="cls-103" d="M83.48,139.82c.24.1,1.33.6.71,1s-1,1-1.17,0,.46-1,.46-1"/><path class="cls-103" d="M82.63,135.14c.15.16,0,.86-.24,1.06s-1-.25-.62-.86a.55.55,0,0,1,.86-.2"/><path class="cls-103" d="M77.87,135.54s.94.61.62,1.26-.62.7-1.08.1-.71-1.1-.32-1.41a.63.63,0,0,1,.78,0"/><path class="cls-103" d="M76.39,137.05s1.17.66.62,1.11-.46,1.31-1.24.35S75,137.1,75.45,137a1.35,1.35,0,0,1,.94.1"/><path class="cls-103" d="M79.35,137.91c.19.05,1.33,0,.47.6s-1.09,1.81-1.48,1.11-.62-1.21-.16-1.66.89-.13,1.17-.05"/><path class="cls-103" d="M75.38,139.16s1.56.16.31.81-1.4.8-1.56.05,1.25-.86,1.25-.86"/><path class="cls-103" d="M75.61,141.07s1.33,1,.24,1.06-1.56.05-1.49-.55,1.25-.51,1.25-.51"/><path class="cls-103" d="M76.24,142.89c.23.2,1.32.5.93,1.05s-.7,1.06-1.32.5-.71-1.1-.4-1.45a.66.66,0,0,1,.79-.1"/><path class="cls-103" d="M79,142.18s1.56.5.62,1.06-1.48,1.2-1.32.2a1.59,1.59,0,0,1,.7-1.26"/><path class="cls-103" d="M81,143.34c.15.28,1.25.7.39,1.15s-1.64,1-1.56,0,.62-1.91,1-1.91,0,.58.15.76"/><path class="cls-103" d="M75.22,135s1.48.25.63.76-1.25.95-1.41.15.78-.91.78-.91"/><path class="cls-103" d="M78.18,144.39s1.33-.15.55.56-.7,1.56-1.09.85-.34-1.15.08-1.36a2.33,2.33,0,0,1,.46-.05"/><path class="cls-103" d="M79.74,145.9c.21.08,1.17-.05.39.8s-1.17,1.26-1.32.36a1.26,1.26,0,0,1,.39-1.36c.15-.15.41.15.54.2"/><path class="cls-103" d="M75.69,145.35s1.17.1.55.85-1,2-1.41.91-.54-1.51-.08-1.76a1.07,1.07,0,0,1,.94,0"/><path class="cls-103" d="M74.05,142.63c.44.07,1.33.81.55,1.11s-1.09-.2-1.09-.6a.47.47,0,0,1,.54-.51"/><path class="cls-103" d="M76.78,147.46s1,1.41.16,1.81-1.64.2-1.56-.55,1.4-1.26,1.4-1.26"/><path class="cls-103" d="M73.27,146.05s1.25.76.71,1.26-1-.2-1.09-.75.38-.51.38-.51"/><path class="cls-103" d="M77.72,146.35s1.24,1.16.46,1.06-1.32-.45-1.09-.9a.4.4,0,0,1,.63-.16"/><path class="cls-103" d="M78.5,148s1.24.31.62.76a.75.75,0,0,1-1.25-.45c0-.46.63-.31.63-.31"/><path class="cls-103" d="M84.58,148.92c.23,0,.54,1-.08,1.31a.77.77,0,0,1-.94-1.16.63.63,0,0,1,1-.15"/><path class="cls-103" d="M80.88,150.62c-.09-.33.08-1.25,1.25-.6s1.87.85,1,2S82.3,155,82,156.06c-.24.72-.52,1.8-.83,1.6s.08-2,.23-2.86a12.49,12.49,0,0,0,.16-2.82c-.08-.55-.53-1-.63-1.36"/><path class="cls-103" d="M72.49,148.06s1.49.26.86,1.11-1.17,1.06-1.24.5a4.26,4.26,0,0,1,.38-1.61"/><path class="cls-103" d="M74.68,150.53c.23.2,1.24.55.31.85s-1.25-.1-1.09-.65.78-.2.78-.2"/><path class="cls-103" d="M75.52,153s-.39-1.26-.86-.35-1.25,1.7.15,2.66a17.63,17.63,0,0,1,3.12,2.91c.78.86,1.25,1.21,1.48.61s-.54-1.21-.54-1.21a12,12,0,0,1-2-1.76A20.71,20.71,0,0,1,75.52,153"/><path class="cls-103" d="M80.13,159c.61.35,1.09,2.17.39,2.06s-1.16-1.35-1.16-1.76.6-.39.77-.3"/><path class="cls-98" d="M30.72,135.6s-.31.1-1.48,2.06c-1.41,2.35-1.86,2.86-1.8,5.18.08,2.71-1.16,4.57-1.55,5.68s-1.17,2,.23,2.11,4.34,1.41,5.84.9c.79-.26,1.17-.6,1.33-2.16a19.65,19.65,0,0,0,.08-5.23c-.31-1.25-1.32-3.62-1.95-5.43a13.72,13.72,0,0,1-.7-3.11"/><path class="cls-8" d="M29.55,145.2c1.44.15,4.36,2.16,3.19,3.16s-1.63,1.31-3.19.61-3.2-.35-2.73-1.81a2.64,2.64,0,0,1,2.73-2"/><path class="cls-21" d="M31.65,144s.55.76.08.71-.93-.51-.7-.76.62,0,.62,0"/><path class="cls-21" d="M29.39,140.32s.47,1-.08.81-1-.41-.69-.76.77-.05.77-.05"/><path class="cls-21" d="M31.42,141.33s.31.5-.15.45-1.1-.1-.79-.4.94,0,.94,0"/><path class="cls-21" d="M28.54,143.69s.7.6.15.7-.93-.1-.86-.45.71-.25.71-.25"/><path class="cls-99" d="M16,122.56a16.75,16.75,0,0,1,6.7-1.69c3.81.12,7,1.31,8.42,3.16,1,1.32.94,2.51.62,4.22s-1.1,4.28-.86,5.13-.31,2-1.4,3.37-2.65,3.17-2.42,5.38A10.15,10.15,0,0,1,26,147.76c-.7,1.36-.46,2.36-1.48,2.36s-2.31-.21-2.34-.57c-.15-2.17-.23-3.15-.38-5.11s-1.64-4-3.67-6.38a17.41,17.41,0,0,1-2.1-3Z"/></g><g class="cls-115"><polygon class="cls-116" points="27.58 136.41 26.2 141.53 22.2 140.47 23.58 135.35 27.58 136.41"/></g><g class="cls-108"><path class="cls-103" d="M24.48,142s.63.45-.39,1.06-1.4,1.45-1.55.6-.55-1.11.23-1.46a3.42,3.42,0,0,1,1.71-.2"/><path class="cls-103" d="M26.2,131.77s.54.31-.47,1.26-1.64,2.16-1.71,1.16-.08-1,.62-1.91a1.23,1.23,0,0,1,1.56-.51"/></g><g class="cls-117"><rect class="cls-118" x="21.3" y="124.09" width="2.8" height="4.56"/></g><g class="cls-119"><rect class="cls-120" x="21.76" y="126.85" width="3.7" height="3.03"/></g><g class="cls-108"><path class="cls-103" d="M26.9,129c.65.05,1.71,1.36.78,1.61s-1.79.5-1.79-.3.45-1.35,1-1.31"/><path class="cls-103" d="M29.47,130.77c.24.1,1.4.4.47.8s-2,.91-1.87.05,1.4-.85,1.4-.85"/><path class="cls-103" d="M29.38,129.45c.15.15.62,1,.08.76s-1.17-.31-.86-.66a.67.67,0,0,1,.78-.1"/><path class="cls-103" d="M28.54,127.3s1.24.25.7.81-1.17,1.3-1.33.45-.31-1.11-.08-1.21a1.92,1.92,0,0,1,.71,0"/><path class="cls-103" d="M30.1,126.24c.37.08,1.32.81.54,1s-1.33-.2-1.25-.55a.61.61,0,0,1,.71-.41"/><path class="cls-103" d="M28.15,125.09c.4.22,1.09,1,.54,1.31s-1,.7-1.25,0-.62-1.06-.23-1.26a1,1,0,0,1,.94,0"/><path class="cls-103" d="M29.71,124.33c.45.07,1.63.76,1,1s-1.48,0-1.64-.45.37-.59.63-.56"/><path class="cls-103" d="M27.68,123s1.63.85.94,1.25-1.64.76-2,0-.39-1,0-1.2a1.63,1.63,0,0,1,1.09,0"/><path class="cls-103" d="M26.05,125.22s1.09.7.31.7-1.24-.15-1-.5a.64.64,0,0,1,.7-.2"/><path class="cls-103" d="M24.74,123.8c.39.18,1.33,1.21.39,1.21s-1.4,0-1.32-.66a.63.63,0,0,1,.93-.55"/><path class="cls-103" d="M27.22,127.43c-.23.91-.55,1.53-1.26,1.13a1,1,0,0,1-.08-1.64c.55-.35,1.57-.39,1.34.51"/><path class="cls-103" d="M24.62,128.7c.32,0,1.4.55.54,1.15s-1.48.36-1.32-.3.49-.86.78-.85"/><path class="cls-103" d="M23.63,130.77c.23.1.78.55.46,1.1s-1.56,1.06-1.79.56-.39-1.56.16-1.81a1.39,1.39,0,0,1,1.17.15"/><path class="cls-103" d="M27.87,132.59s1.4.56.31.61-1.25.15-1-.31a.59.59,0,0,1,.7-.3"/><path class="cls-103" d="M26.4,134.94c-.59.44-1.48.4-1.09-.41s.85-1.66,1.17-.95.26,1.09-.08,1.36"/><path class="cls-103" d="M21.05,130.42s.94,1,.08,1.1-1.56.3-1.48-.5,1.4-.6,1.4-.6"/><path class="cls-103" d="M21.21,128.05s1,.81.31,1.21-1.56.86-1.63.05-.16-1.41.31-1.56,1,.3,1,.3"/><path class="cls-103" d="M18.64,129.21c.28,0,1.09.15.62,1s.39,1.75-.55,1.5a1.49,1.49,0,0,1-1.17-1.4,1.11,1.11,0,0,1,1.1-1.11"/><path class="cls-103" d="M19.57,131.92a1,1,0,0,1,.63,1.61c-.55.81-1.41.81-1.56-.05s-.39-1.25.07-1.4.66-.21.86-.16"/><path class="cls-103" d="M21.67,132.33s1.17.5.31.55-1.09.1-1-.4.7-.15.7-.15"/><path class="cls-103" d="M22.54,133.48s.62.76,0,.61-1-.51-.71-.66a.93.93,0,0,1,.71,0"/><path class="cls-103" d="M29.71,133.23c.24.17.62,1.16-.08.91s-.94-.61-.63-.81a.7.7,0,0,1,.71-.1"/><path class="cls-103" d="M19.89,125.14c.53.07,1.87.65,1,1.25s-1.72,1.36-2,.31-.36-1.24.08-1.46a2.24,2.24,0,0,1,.94-.1"/><path class="cls-103" d="M23.91,121.35s1.25.25.16.85-2.11,1.11-2,0,1.87-.9,1.87-.9"/><path class="cls-103" d="M25.42,122.47s1.25,1.06.23,1-2.1-.35-1.4-.81a1.2,1.2,0,0,1,1.17-.2"/><path class="cls-103" d="M20.9,121.67s1.17.45.31.75-1.79.36-1.48-.3,1.17-.45,1.17-.45"/><path class="cls-103" d="M18.4,122.17c.32,0,1.64.35.63.81s-1.8,1-2,.3.78-1.07,1.32-1.11"/><path class="cls-103" d="M20.33,123.48c.19.15,1,1.56.18,1.2s-1.31-.85-1.19-1.07a.71.71,0,0,1,1-.13"/><path class="cls-103" d="M17.47,123.73c.46,0,1.56.35.93.85s-1,1.06-1.4.26a.78.78,0,0,1,.47-1.11"/><path class="cls-103" d="M16,125.64a3,3,0,0,1,1.4,0c.23,0,1.09.4.47,1.41s-1,1.61-1.56.5l-.31-.64Z"/><path class="cls-103" d="M18.48,127.55c.33,0,1.33.66.47.81s-1,0-1-.31a.5.5,0,0,1,.54-.5"/><path class="cls-103" d="M17.39,128.61c.23,0,.78.75,0,.65s-1.25-.15-.94-.5.94-.15.94-.15"/><path class="cls-103" d="M19.73,134.84s1.25.15.31.85-1.48,1.06-1.48,0,1.17-.85,1.17-.85"/><path class="cls-103" d="M17.78,134c.75.24.7,1.25-.08.7s-.16-.78.08-.7"/></g><g class="cls-121"><rect class="cls-122" x="22.94" y="134.65" width="1.08" height="0.61"/></g><g class="cls-108"><path class="cls-103" d="M28.07,134.14s-1.72,1.05-.55,1.25,1.33-.5,1.41-.85-.86-.4-.86-.4"/><path class="cls-98" d="M16,135.65l.07.15a26.67,26.67,0,0,0,2.89,4c1.63,2,2.34,3,2.57,5.33s.18,4.1-.31,4.62c-.23.26-1.4.19-2.5.1s-2.16-.07-2.72-.14Z"/><path class="cls-8" d="M16,142.86c1.11.51,3.29,1.69,3.12,2.89-.24,1.61-1.49,2-2.26,2.41a8.91,8.91,0,0,1-.86.38Z"/><path class="cls-98" d="M70.68,151.43A6.42,6.42,0,0,0,73,155.19c2,1.71,2.18,2.34,3.53,4.55,1.57,2.57.21,4.26-.1,4.36a13.73,13.73,0,0,1-5.3-.38c-1.87-.68-5.3-1.48-5.56-2.08s.63-1.79.68-2.3.15-2.28,1-3a18.25,18.25,0,0,0,2.7-2.62,5.91,5.91,0,0,0,.73-2.28"/><path class="cls-8" d="M71.09,158.55s2.81.84,3.79,2.25-.46,2.18-2,1.74-4-.27-4.57-1.27.31-2.11,1.19-2.41a5.24,5.24,0,0,1,1.56-.31"/><path class="cls-21" d="M72.44,156.24s1.15,1.07.63,1-1-.17-1.1-.74.47-.3.47-.3"/><path class="cls-21" d="M70.1,155.44s.84.23.32.47-.83,0-.73-.31.41-.16.41-.16"/><path class="cls-21" d="M70.26,157.51s1,.37.26.41-.93.06-.83-.24.57-.17.57-.17"/><path class="cls-98" d="M53,157.92c1.54-.18,2-.51,2.26-3.37s1.56-5.13,2.26-7.14-1-5.63,0-8.75,2.13-4.16,2.58-5.48c.36-1.05-2.19-.15-4.92-1-2.32-.73-3.79-1.36-4.57-1.16s-.61.8-.85,1.76-1,2.87-1.05,3.42a13.38,13.38,0,0,1-.39,3.43c-.47,1.46-1,2.84-1.87,4.9a8.68,8.68,0,0,0-.83,5.29c.31,1.86-.7,3-.94,3.83s-1.19.85,1.62,1.9,4.56,2.62,6.7,2.37"/><path class="cls-8" d="M53.79,150.38c.25,2.51.54,4.87-1.48,4.62s-3.05-2.19-3.65-3.18-1.74-1.25-2.07-2.63a2.26,2.26,0,0,1,2.13-2.71c1.36-.2,4.75.64,5.07,3.9"/><path class="cls-123" d="M53.17,155.81c-.11.46-1,1.1-2.89.1s-4-2.51-3.56-3.36,1.17-.78,1.87.17a6.8,6.8,0,0,0,3.27,2.41c1,.26,1.38.35,1.31.68"/><path class="cls-21" d="M49.89,142.13s1,1.11-.15.86-1.48-.76-.86-1a.93.93,0,0,1,1,.15"/><path class="cls-21" d="M53.19,146.15c.55.07,2,.8,1.24,1.2a1,1,0,0,1-1.55-.55c-.24-.6,0-.69.31-.65"/><path class="cls-21" d="M56.28,135.9c.61,0,.94.6.16,1.56s-1.87,2.51-1.87,1.3.53-2.79,1.71-2.86"/><path class="cls-21" d="M53.94,133.48c.54.5.63,2.67-.07,2.42s-.94-.66-.78-1.66.65-1,.85-.76"/></g><g class="cls-124"><polygon class="cls-125" points="44.18 129.78 45.55 133.76 42.22 134.88 40.85 130.9 44.18 129.78"/></g><g class="cls-126"><polygon class="cls-127" points="37.44 127.65 35.36 131.27 31.79 129.26 33.86 125.64 37.44 127.65"/></g><path class="cls-21" d="M22.24,120.87a16.43,16.43,0,0,1,5.21.9,7.62,7.62,0,0,1,3.47,2.2c1.53,2,.77,5,.77,5s.57-4.27,6.41-4.12a31.57,31.57,0,0,1,6.48,1.21,11.83,11.83,0,0,1,2.94.64,4.78,4.78,0,0,1,2.67,4.51l.43-.19a5.38,5.38,0,0,0-3-4.92c-2.51-1.18-8.29-1.83-10.76-1.59-1.8.17-3,1-4.07.52s-1.86-2.3-4.27-3.3a11.24,11.24,0,0,0-6.25-.86"/><path class="cls-21" d="M60.26,133.43a7.23,7.23,0,0,0-.25.71,14.76,14.76,0,0,1,9.37-3.81c5.75-.19,8.41,2.17,8.41,2.17l.5-.11a11.71,11.71,0,0,0-7.6-2.72c-5-.08-9.5,1.93-10.43,3.76"/><path class="cls-103" d="M57.31,116.16c.18.08.37.24.32.43s-.26.26-.44.29a4.23,4.23,0,0,1-2.95-.62c.28-.39.78-.26,1.2-.29a3.61,3.61,0,0,1,1.87.19"/><path class="cls-103" d="M53.16,117.12a.47.47,0,0,1,0,.31c-.1.17-.35.14-.52,0a.83.83,0,0,1-.44-.75c0-.25.33-.61.61-.5s.31.68.36.9"/><path class="cls-103" d="M84.61,129.23a.37.37,0,0,1,0,.31c-.09.17-.35.14-.51,0a.83.83,0,0,1-.44-.75c0-.25.32-.61.61-.5s.3.68.35.9"/><path class="cls-128" d="M124.48,127.15a.45.45,0,0,1,.63.08.56.56,0,0,1,0,.66.76.76,0,0,1-.64.24.62.62,0,0,1-.56-.41.39.39,0,0,1,.37-.5Z"/><path class="cls-128" d="M116.56,129.53c-.17,0-.35,0-.52.07a.51.51,0,0,0-.38.33c-.06.25.22.47.47.48a1.65,1.65,0,0,0,.73-.26c.52-.28,2.38-.45,1.92-1.28s-1.6.51-2.22.66"/><path class="cls-129" d="M34.71,116.55a5.56,5.56,0,0,0,1.82,0c.62,0,1.34.55,1.08,1.1s-1.09.38-1.64.12c-.28-.13-.38-.42-.6-.62-.37-.35-1-.1-1.51-.15s.23-.68.85-.45"/><path class="cls-129" d="M31.08,114.88c.43.11.86.25,1.28.4.1,0,.21.09.24.2a.22.22,0,0,1-.1.22.51.51,0,0,1-.25.06,2.26,2.26,0,0,1-1-.32c-.17-.09-.35-.2-.38-.38s-.2-.29.24-.18"/><path class="cls-130" d="M75.16,121.81s0,.06,0,.09a2,2,0,0,0,.93,1.26,2.14,2.14,0,0,0,1.16.32,2.34,2.34,0,0,0,.91-.18,1.49,1.49,0,0,0,.53-.39,1.11,1.11,0,0,0,.13-1.06,1.9,1.9,0,0,0-.7-.84,2.81,2.81,0,0,0-.95-.43c-.34-.09-1.11-.47-1.51-.12a1.52,1.52,0,0,0-.51,1.35"/><path class="cls-130" d="M71.36,121.64s0,.09,0,.14a1.82,1.82,0,0,0,.34.89,1.3,1.3,0,0,0,.34.28,1.62,1.62,0,0,0,.78.17,1.24,1.24,0,0,0,.66-.15.88.88,0,0,0,.36-.72,1.42,1.42,0,0,0-.25-.79,2.15,2.15,0,0,0-.9-.79c-.36-.18-.46-.07-.67-.07a.71.71,0,0,0-.53.33,1,1,0,0,0-.15.71"/><path class="cls-103" d="M75.16,121.81s0,.06,0,.09a2,2,0,0,0,.93,1.26,2.14,2.14,0,0,0,1.16.32.43.43,0,0,0,.07-.2,1.07,1.07,0,0,0-.28-.77,2.85,2.85,0,0,0-.66-.53,1.55,1.55,0,0,0-1.23-.17"/><path class="cls-103" d="M71.38,121.78a1.82,1.82,0,0,0,.34.89l.12,0a.42.42,0,0,0,.32-.24.46.46,0,0,0-.06-.41.77.77,0,0,0-.36-.21.72.72,0,0,0-.36,0"/><path class="cls-64" d="M94.92,111.75a1.15,1.15,0,0,1,.48.42,1.24,1.24,0,0,1,.1.47.76.76,0,0,1,0,.4c-.12.25-.45.32-.73.34a15.56,15.56,0,0,1-1.93.06,2,2,0,0,1-.64-.11,1.67,1.67,0,0,1-.73-.86,1.31,1.31,0,0,1-.05-1.35,1.5,1.5,0,0,1,.65-.37c.54-.19.79.09,1.28.27a11.06,11.06,0,0,1,1.61.73"/><path class="cls-131" d="M95.13,140.42c0,.06,0,.13,0,.2s-.28.25-.47.06-.93-1.53.35-1.53a.86.86,0,0,1,.83.39C96,140,95.36,140.11,95.13,140.42Zm1.31,1a.65.65,0,0,0-.24.44c-.14,1.39-1.43.33-1-.58a2.55,2.55,0,0,1,2-1C98.36,140.45,96.71,141.15,96.44,141.4Zm36.4,7.08c.54.27,4-.22,6.46-1.9,1.34-.93-1.59-1.19-2.65-.86-.69.22-1.31.58-2,.84C133.09,147.21,132.12,148.13,132.84,148.48Zm-6-.76c0,.1-.24.29-.71.17s-.48-.39-.2-.5A1.44,1.44,0,0,1,126.8,147.72Zm-4.55,3.34a1.9,1.9,0,0,1,.44-.73,6.38,6.38,0,0,0,.72-1.14,1.21,1.21,0,0,1,.33-.44c.68-.52,3-.62,3.1,0C127.1,149.89,121.9,153.21,122.25,151.06Zm-3.85-2.34c.33-.08.7,0,.74.21s-.75.65-1.31.27c-.14-.09-.23-.22-.15-.36C117.91,148.49,118.14,148.77,118.4,148.72Zm-3,.41c.14.12.06.32-.16.45-.53.31-1.34.15-1.4-.1s.33-.4.68-.4S115.19,148.92,115.43,149.13Zm1.85,2.09c-.72.4-.76.25-1.3,1.12a6,6,0,0,1-1.34,1.54c-.56.27-2.41.39-2.93-.12-.33-.33-.06-1.23.1-1.68.31-.83.79-1.11,2.4-1.74a7.24,7.24,0,0,1,1.78-.55C117.43,149.63,118.49,150.53,117.28,151.22Zm-12-.13c.43-.17,1.87-.46,1.76-.06s-1.42.42-1.66.38S105.17,151.14,105.28,151.09Zm1.69-1.71c-.19-.34.84-2.74,1-3.08,1-2.11,4-1.78,4.75-1.18s-.07,1.74-.65,2.45C110,150.08,107.36,150.06,107,149.38Zm5.36-6.66c0,.28-.76.36-1.08.27s-.66-.56,0-.68S112.35,142.53,112.33,142.72Zm0,1.47a3.77,3.77,0,0,1-.94.11c-.42-.13-.24-.71,1.08-.89S113.73,143.91,112.35,144.19Zm15.74-3.14c-1,.51-1.67-1-.49-1C128.31,140,128.63,140.78,128.09,141.05Zm-1.68,1.19c-.51.09-1.42,0-.75-.37C126.64,141.39,127.49,142.06,126.41,142.24Zm-3,3.38a2.33,2.33,0,0,1-.35.44,3.11,3.11,0,0,1-2.6.21,5.61,5.61,0,0,1-.71-1.1c-.42-.72-.54-1.25.64-2,3.26-2,6.54-.35,4.87,1.26C124.77,144.92,123.8,145.15,123.39,145.62Zm8.38.41c-.75.94-2.19.8-3.22.16-.61-.37-.61-.59-.4-1a.82.82,0,0,1,.21-.3c.47-.38,2.87-.42,3.47-.43C133,144.43,132.45,145.18,131.77,146Zm5.71-3.29c1.12,0,2.31.67,3.34.15.36-.17.13-.66.08-1a5.49,5.49,0,0,1,.08-1.56c0-.28.11-.79-.2-1a.78.78,0,0,0-1,.32c-.11.22-.1.43-.3.64C138.8,141,134.76,142.62,137.48,142.74Zm-.49-11.4c-.65-.12-1.38-.32-1.52-.73s.21-.4.51-.53c1-.45,1-1.32,1.71-1.89a2,2,0,0,1,1.55-.34,1.08,1.08,0,0,1,.75.78C140.84,131,140.68,132.06,137,131.34Zm-1.28,8c-1,.68-1.18.11-2.15-1-.23-.26-.46-.56-.28-.86.42-.71,5.52-2.78,6-1.28C139.56,136.94,137.5,138.11,135.71,139.37Zm4.08-4.2c-1,.1-.88-.71-.22-1C140.47,133.85,141.52,135,139.79,135.17Zm-3.44.51c-.81,0-1-1.26.17-1.19C137.42,134.55,137.23,135.69,136.35,135.68ZM131.92,133c-.44-.06-.51-.31-.3-.44C132.38,132.1,133.45,133.2,131.92,133Zm-8,4.61c-.72,0-.36-.84.16-.57C124.29,137.16,124.48,137.6,123.88,137.6Zm5.2-.89a3.77,3.77,0,0,1-2.38-.48c-.48-.32-1.1-1.09-.85-1.61a3.36,3.36,0,0,1,.72-.75c.32-.3.53-.63.88-.92a2.31,2.31,0,0,1,3.48.78,1.14,1.14,0,0,1,0,.58,4.47,4.47,0,0,0,0,.82C131.07,136.64,131.08,136.67,129.08,136.71Zm-10.55-3.07c-.21,0-.37-.06-.38-.26s.9-.52,1.21-.42C119.9,133.14,119.55,133.75,118.53,133.64Zm1.28,1.85c1,.9.53,1.22-.58,1.77-.73.36-2,1.6-4.27,1.2C110.62,137.68,117.6,133.42,119.81,135.49Zm-14.7,2.65c.2.56-1.56.64-2,.41-.74-.4.48-1.73,1.46-1.2A3.34,3.34,0,0,1,105.11,138.14Zm.2,3.21c-.58.07-1,.08-1.28-.39s-.09-.6.3-.67C105.31,140.12,106.21,141.25,105.31,141.35Zm-5.22,5.43c-.83-.23-1.08-.83-1-2.67.1-1.4.84-1.83,2.8-2.41,1.73-.51,3.23.57,3.09,1.4A4.28,4.28,0,0,1,100.09,146.78Zm7.14,10.58c-.15.74-1.93,1-2.65,1.18-2.38.43-3.33.68-4,.56-.78-.15-.68-.72-.73-1.85a1.6,1.6,0,0,1,1.22-1.86,2.28,2.28,0,0,1,2.07.21C104.57,156.16,107.41,156.49,107.23,157.36ZM97,156.48c-.08.22-.06.43-.12.65a1,1,0,0,1-.63.6c-2.63,1-4.59-3.94-4.27-4.7.16-.38.67-.73.78-1.11,0-.2,0-.42.23-.6a1.75,1.75,0,0,1,.86-.27c1.37-.12,3.08.72,3.23,1.37A19,19,0,0,1,97,156.48Zm-3.9-10.14c-.87.11-1.68-.36-.83-.75C93.39,145.1,94.91,146.12,93.12,146.34Zm2.07,2.2c.35.18.4.51.3.62a5.91,5.91,0,0,1-1.58.55C90.28,150.62,93.83,147.84,95.19,148.54ZM90.4,150a1.67,1.67,0,0,1,1.46.23c.47.54-1.57,1-2.18.71-.34-.14-.39-.62,0-.67C89.81,150.26,89.84,150.15,90.4,150Zm.45,2.14c-.36,0-1.2.08-1.28-.27,0-.11-.16-.28-.08-.37a1.65,1.65,0,0,1,.69-.22C91.21,151.18,92.35,152,90.85,152.15Zm-3.94,3.93c-.34.06-.66.09-.79-.23C85.48,154.37,90.17,155.52,86.91,156.08Zm-1.86,1.62c-.19-.44.76-1,1.6-.71C87.93,157.4,85.45,158.6,85.05,157.7Zm4.77-1.17c.24.07.51.16.48.32s-.85.41-1.1.41c-.49,0-1.47-.52-1-.85S89.42,156.42,89.82,156.53Zm-2.15,6.86c-2.34.55-3.92-.55-3.72-1.46.1-.41.63-.83.76-1.25.2-.61-.36-1.25.46-1.77,1.7-1.1,5.29-.19,5.09.86S90.41,162.75,87.67,163.39Zm-4.34-5.73c-.63,1.89-1.08,1.36-1.24,5.63,0,.56,0,.81,1.07,1.42a3.63,3.63,0,0,0,2.61.12c1.64-.31,5.15-.71,5.68-2.27.47-1.4.92-2.4-.48-5.1-.83-1.62-3.45-4.77-4.29-4.47C85.29,153.49,83.8,156.27,83.33,157.66Zm8.06-18.9C90.65,142,93,142,88.85,149.39c-1.71,3-1.14,3.46.48,4.74a8.14,8.14,0,0,1,3.46,5.9c0,.36.18,1.86.56,2.11a2.67,2.67,0,0,0,2.49,0c.71-.49.64-2.35.85-3,1-2.93,2.3-6.95,2.17-8.44-.2-2.47-3.11-4.63-2.47-7.2.34-1.33,1.62-2.61,2.27-3.93s0-2.82-2.67-3.14S91.66,137.59,91.39,138.76Zm5.83,4.52a11.21,11.21,0,0,1,1.21-1.65c1.73-2.36.94-7.39,9.07-7.36a2,2,0,0,1,1.35.34c1.57.85,1.31,2.28.72,5.08-.12.56.06,1.53-.29,2-.86,1.19-1.71,1.15-2.42,2.69-.37.82-.68,2-1,2.83a7.8,7.8,0,0,1-2.41,3,7,7,0,0,1-2.93,1.2c-1.34.34-1.39-.64-1.41-1.91C99.1,148,96.26,145.37,97.22,143.28Zm9,12.51c.87.46,2.23.93,2.32,1.64a1.82,1.82,0,0,1-1.17,1.68c-.72.38-1.43.53-5.78,1.73a8,8,0,0,1-1.59.32c-1.15.06-1.94-.45-2.08-1a3,3,0,0,1,.46-1.8,6.52,6.52,0,0,0,.48-2.33,7.66,7.66,0,0,1,.07-1.17c.07-.32.38-.55.45-.83C99.71,152.55,102.08,153.6,106.17,155.79Zm14.31-6.51a24.84,24.84,0,0,1-1.71,1.9c-1.62,2-1,3.47-5.4,4.84-1.49.47-1.74,2.24-3.19,1.82a2.32,2.32,0,0,1-1.39-1.64c-.12-.55-1.29-.82-1.75-1.3s.46-2.41,1.35-3.1a29.1,29.1,0,0,1,3.18-1.82,42.17,42.17,0,0,0,4-2.83C117.41,146.36,121.9,147.13,120.48,149.28Zm4,3c-.89.43-1.65,1-2.58,1.35s-2.29,2-3.52,1.79c-.58-.09-1-.74-.46-1.52A15.23,15.23,0,0,1,119,151.7c1.65-1.66,1.2-2.5,2.45-3,.87-.39,2.44-.32,4.18-1.43,1.22-.78,4,.09,4.21.91C130.27,150,125.21,151.94,124.49,152.29Zm8.76-6.93c-1.47,1.41-2.68,2-4.67,1.55-.18,0-1.57-.36-1.72-.45-.42-.26-.34-1.24.89-1.86.21-.11.44-.2.63-.31a6.47,6.47,0,0,1,1.25-.75,8.3,8.3,0,0,1,4,.58C134.24,144.5,133.75,144.88,133.25,145.36Zm8.23-.65c.34.54.05,1.25-.71,1.75a7.56,7.56,0,0,1-1.21.59L133,149.78c-1.28.53-2.94,2.13-4.07,1.37-.25-.17-.23-.62-.09-.91a.84.84,0,0,1,.62-.56,2.14,2.14,0,0,0,1.32-1.09c.24-.71-.12-.68.86-1.46a12.57,12.57,0,0,1,4.38-2.57C137.93,144,140.65,143.38,141.48,144.71Zm-4.72-4.66c.62-.4,3.29-3,4.25-2.81s.54,2,.82,3a3.87,3.87,0,0,1,.19,1.27,2.51,2.51,0,0,1-.52,1.35,1.84,1.84,0,0,1-.64.59,1.93,1.93,0,0,1-.88.3c-2.06,0-4.24.5-6,0C129.63,142.71,135.85,140.64,136.76,140.05Zm-8.85-1.5a3.47,3.47,0,0,1,1.83-.92c.88-.07,1.41.51,1.24,1-.35,1-3.3,2.23-3.94,4.42-.37,1.29.31,2.56-1.61,3.92a5.48,5.48,0,0,1-2.05.87c-2.7.51-2.47-1-3.64-1.29s-3.66.87-3.87-1.46c-.13-1.46.13-2,2.55-3.35C120.56,140.52,122.69,142.29,127.91,138.55Zm-9.63,2.59c-.55.71-4.28,2.37-3,5.14.58,1.31-1.25.95-6.15,4.25-1.47,1-2.37,3.25-3.51,3.92-.79.46-1.55-.65-2.33-1-.34-.13-2.28-1-2.17-1.35.05-.15.31-.28.55-.39a12.27,12.27,0,0,0,4.68-4.08c1.77-3.21,1-4.49,4.08-5.64C116.7,139.64,119.13,140,118.28,141.14Zm21.15-8.26a2.19,2.19,0,0,1,2.15.41c.35.36.17.83,0,1.26-2.17,4.4-5,4.83-7.55,6.24-1.12.63-1.59,2.14-2.43,2.46-.81,0-2.72-.32-3.69.4-.91.44,0-1.28.61-2s1.45-1.19,2-1.86,1.89-4.11,3.36-4.88C137.32,134.27,137.5,133.69,139.43,132.88Zm-21-.81c-2.2,1-5.14,1.66-6.75,3-1.39,1.17-1.93,4.87-1,6,.47.61,1.81-1,3-.95,2.37.1,7.45-2.72,9.06-4.72.89-1.1,1.29-2.2,2.13-3.3.12-.16.26-.34.22-.5-.09-.34-.83-.42-1.43-.42C119.25,131.23,119.39,131.63,118.46,132.07Zm13.27,4.52a3.86,3.86,0,0,1-1.23.57c-4.42,1.37-9.6,5.08-11.91,2.8-.42-.43.59-1.21,1.14-1.56,7.56-4.81,3.13-7.25,10.09-8.83,4.66-1,3.78,1.2,3.49,4A3.76,3.76,0,0,1,131.73,136.59ZM142,128.51c.45,1.07-.2,2.12-.73,3.33-.16.37,0,.6-1.34.75-2.17.22-4.41,2.46-5.92,1.78s.25-3,.37-4.56c.1-1.19.32-1.68,2.72-3,3-1.65,3.2-1.94,3.92-1.64,1.07.45,1,1.26,1,2.17C142.08,127.93,141.85,128.25,142,128.51Z"/><path class="cls-132" d="M142,128.51c.45,1.07-.2,2.12-.73,3.33-.16.37,0,.6-1.34.75-2.17.22-4.41,2.46-5.92,1.78s.25-3,.37-4.56c.1-1.19.32-1.68,2.72-3,3-1.65,3.2-1.94,3.92-1.64,1.07.45,1,1.26,1,2.17.05.57-.18.89-.06,1.15"/><path class="cls-132" d="M131.73,136.59a3.86,3.86,0,0,1-1.23.57c-4.42,1.37-9.6,5.08-11.91,2.8-.42-.43.59-1.21,1.14-1.56,7.56-4.81,3.13-7.25,10.09-8.83,4.66-1,3.78,1.2,3.49,4a3.76,3.76,0,0,1-1.58,3"/><path class="cls-132" d="M118.46,132.07c-2.2,1-5.14,1.66-6.75,3-1.39,1.17-1.93,4.87-1,6,.47.61,1.81-1,3-.95,2.37.1,7.45-2.72,9.06-4.72.89-1.1,1.29-2.2,2.13-3.3.12-.16.26-.34.22-.5-.09-.34-.83-.42-1.43-.42-4.45,0-4.31.39-5.24.83"/><path class="cls-132" d="M139.43,132.88a2.19,2.19,0,0,1,2.15.41c.35.36.17.83,0,1.26-2.17,4.4-5,4.83-7.55,6.24-1.12.63-1.59,2.14-2.43,2.46-.81,0-2.72-.32-3.69.4-.91.44,0-1.28.61-2s1.45-1.19,2-1.86,1.89-4.11,3.36-4.88c3.5-.69,3.68-1.27,5.61-2.08"/><path class="cls-132" d="M118.28,141.14c-.54.71-4.28,2.37-3,5.14.58,1.31-1.25.95-6.15,4.25-1.47,1-2.37,3.25-3.51,3.92-.79.46-1.55-.65-2.33-1-.34-.13-2.28-1-2.17-1.35.05-.15.31-.28.55-.39a12.27,12.27,0,0,0,4.68-4.08c1.77-3.21,1-4.49,4.08-5.64,6.32-2.37,8.75-2,7.9-.87"/><path class="cls-132" d="M127.91,138.55a3.47,3.47,0,0,1,1.83-.92c.88-.06,1.41.51,1.24,1-.35,1-3.3,2.23-3.93,4.42-.38,1.29.3,2.56-1.62,3.91a5.33,5.33,0,0,1-2.05.88c-2.7.51-2.47-1-3.64-1.29s-3.66.87-3.87-1.45c-.13-1.47.13-2,2.55-3.36,2.14-1.23,4.27.54,9.49-3.2"/><path class="cls-132" d="M136.76,140.05c.62-.4,3.29-3,4.25-2.81s.54,2,.81,3a3.63,3.63,0,0,1,.2,1.27,2.51,2.51,0,0,1-.52,1.35,1.84,1.84,0,0,1-.64.59,1.93,1.93,0,0,1-.88.3c-2.06,0-4.24.5-6,0-4.31-1.11,1.91-3.18,2.82-3.77"/><path class="cls-132" d="M141.48,144.71c.34.54.05,1.25-.71,1.75a7.56,7.56,0,0,1-1.21.59L133,149.78c-1.28.53-2.94,2.13-4.07,1.37-.25-.17-.23-.62-.09-.91a.84.84,0,0,1,.62-.56,2.14,2.14,0,0,0,1.32-1.09c.24-.71-.12-.68.86-1.46a12.57,12.57,0,0,1,4.38-2.57c1.9-.55,4.62-1.18,5.45.15"/><path class="cls-132" d="M133.25,145.36c-1.47,1.41-2.68,2-4.67,1.55-.18,0-1.58-.36-1.72-.45-.42-.26-.34-1.24.89-1.86.21-.11.44-.2.63-.31a5.73,5.73,0,0,1,1.25-.74,8.18,8.18,0,0,1,4,.57c.57.38.08.76-.42,1.24"/><path class="cls-132" d="M124.49,152.29c-.89.43-1.65,1-2.58,1.35s-2.29,2-3.52,1.79c-.58-.09-1-.74-.46-1.51A14.84,14.84,0,0,1,119,151.7c1.65-1.66,1.2-2.5,2.45-3,.87-.38,2.44-.32,4.18-1.43,1.22-.78,4,.09,4.21.91.39,1.86-4.67,3.8-5.39,4.15"/><path class="cls-132" d="M120.48,149.28a24.84,24.84,0,0,1-1.71,1.9c-1.62,2-1,3.47-5.4,4.84-1.49.46-1.74,2.24-3.19,1.82a2.32,2.32,0,0,1-1.39-1.64c-.12-.55-1.29-.82-1.75-1.3s.46-2.41,1.35-3.09a26.16,26.16,0,0,1,3.18-1.82,43.42,43.42,0,0,0,4-2.84c1.85-.79,6.34,0,4.92,2.13"/><path class="cls-132" d="M106.17,155.79c.87.46,2.23.93,2.32,1.63a1.82,1.82,0,0,1-1.17,1.69c-.72.38-1.43.53-5.78,1.73a7.32,7.32,0,0,1-1.6.32c-1.14.06-1.93-.45-2.07-1a3,3,0,0,1,.46-1.8,6.52,6.52,0,0,0,.48-2.33,7.66,7.66,0,0,1,.07-1.17c.07-.32.38-.55.45-.83.38-1.46,2.75-.41,6.84,1.78"/><path class="cls-132" d="M97.22,143.28a11.21,11.21,0,0,1,1.21-1.65c1.73-2.36.94-7.39,9.07-7.36a2,2,0,0,1,1.35.34c1.57.85,1.31,2.28.72,5.08-.12.56.06,1.53-.29,2-.86,1.19-1.71,1.15-2.42,2.69-.37.82-.68,2-1,2.83a7.8,7.8,0,0,1-2.41,3,7,7,0,0,1-2.93,1.2c-1.34.34-1.39-.64-1.4-1.91,0-1.54-2.86-4.14-1.9-6.23"/><path class="cls-132" d="M91.39,138.76C90.65,142,93,142,88.85,149.39c-1.71,3-1.14,3.46.48,4.74a8.14,8.14,0,0,1,3.46,5.9c0,.36.18,1.86.57,2.11a2.65,2.65,0,0,0,2.48,0c.71-.48.64-2.35.85-3,1-2.93,2.3-6.95,2.17-8.44-.2-2.47-3.11-4.63-2.47-7.2.34-1.33,1.62-2.61,2.27-3.93s0-2.82-2.67-3.14c-2.56-.3-4.33,1.13-4.6,2.31"/><path class="cls-132" d="M83.33,157.66c-.63,1.89-1.08,1.36-1.24,5.63,0,.56,0,.81,1.07,1.42a3.63,3.63,0,0,0,2.61.12c1.64-.31,5.15-.71,5.68-2.27.47-1.4.91-2.4-.48-5.1-.83-1.62-3.45-4.77-4.29-4.47-1.39.5-2.88,3.28-3.35,4.67"/><path class="cls-16" d="M87.67,163.39c-2.34.55-3.92-.55-3.72-1.45.1-.42.63-.84.76-1.26.2-.61-.36-1.25.46-1.77,1.7-1.1,5.29-.19,5.09.86s.15,3-2.59,3.62"/><path class="cls-16" d="M89.82,156.53c.24.07.51.16.48.32s-.85.41-1.1.41c-.49,0-1.47-.52-1-.85s1.22,0,1.62.12"/><path class="cls-16" d="M85.05,157.7c-.19-.44.76-1,1.6-.71,1.28.41-1.2,1.61-1.6.71"/><path class="cls-16" d="M86.91,156.08c-.34.06-.66.09-.79-.23-.64-1.48,4-.33.79.23"/><path class="cls-16" d="M90.85,152.15c-.36,0-1.2.08-1.28-.27,0-.11-.16-.28-.08-.37a1.65,1.65,0,0,1,.69-.22c1-.11,2.17.67.67.86"/><path class="cls-16" d="M90.4,150a1.67,1.67,0,0,1,1.46.23c.47.54-1.57,1-2.18.71-.33-.14-.39-.62,0-.67.17,0,.2-.13.76-.27"/><path class="cls-16" d="M95.2,148.54c.34.18.39.51.29.62a5.91,5.91,0,0,1-1.58.55c-3.63.91-.08-1.87,1.29-1.17"/><path class="cls-16" d="M93.12,146.34c-.87.11-1.68-.36-.83-.75,1.1-.49,2.62.53.83.75"/><path class="cls-16" d="M97,156.48c-.08.22-.06.43-.12.65a1,1,0,0,1-.63.6c-2.63,1-4.59-3.94-4.26-4.7.15-.38.66-.73.77-1.11,0-.2,0-.42.23-.6a1.75,1.75,0,0,1,.86-.27c1.37-.12,3.08.72,3.23,1.37a19,19,0,0,1-.08,4.06"/><path class="cls-16" d="M107.23,157.36c-.15.74-1.93,1-2.65,1.18-2.38.43-3.33.68-4,.56-.78-.15-.68-.72-.73-1.85a1.6,1.6,0,0,1,1.22-1.86,2.28,2.28,0,0,1,2.07.21c1.38.56,4.22.89,4,1.76"/><path class="cls-16" d="M100.09,146.78c-.83-.23-1.08-.83-1-2.67.1-1.4.84-1.82,2.8-2.41,1.73-.51,3.23.57,3.09,1.4a4.28,4.28,0,0,1-4.94,3.68"/><path class="cls-16" d="M105.31,141.35c-.57.07-1,.09-1.28-.39s-.09-.6.3-.67c1-.17,1.88,1,1,1.06"/><path class="cls-16" d="M105.11,138.14c.2.56-1.56.64-2,.41-.74-.4.48-1.73,1.45-1.2a3.05,3.05,0,0,1,.54.79"/><path class="cls-16" d="M119.81,135.49c1,.9.53,1.22-.58,1.77-.73.36-2,1.6-4.27,1.2-4.34-.78,2.64-5,4.85-3"/><path class="cls-16" d="M118.53,133.64c-.21,0-.37-.07-.38-.26s.9-.52,1.21-.42c.54.18.19.79-.83.68"/><path class="cls-16" d="M129.08,136.71a3.77,3.77,0,0,1-2.38-.48c-.48-.32-1.1-1.09-.85-1.61a3.36,3.36,0,0,1,.72-.75c.32-.3.53-.63.88-.92a2.31,2.31,0,0,1,3.48.78,1.14,1.14,0,0,1,0,.58,4.47,4.47,0,0,0,0,.82c.09,1.51.09,1.54-1.91,1.58"/><path class="cls-16" d="M123.88,137.6c-.72,0-.35-.84.16-.57.25.13.44.57-.16.57"/><path class="cls-16" d="M131.92,133c-.44-.06-.51-.31-.3-.44.76-.45,1.83.65.3.44"/><path class="cls-16" d="M136.35,135.68c-.81,0-1-1.26.17-1.19.9.06.71,1.2-.17,1.19"/><path class="cls-16" d="M139.79,135.17c-1,.1-.88-.71-.22-1,.9-.35,2,.79.22,1"/><path class="cls-16" d="M135.71,139.37c-1,.68-1.18.11-2.15-1-.23-.26-.46-.56-.28-.86.42-.71,5.52-2.78,6-1.28.25.71-1.81,1.89-3.6,3.14"/><path class="cls-16" d="M137,131.34c-.65-.12-1.38-.32-1.52-.73s.2-.4.51-.53c1-.45,1-1.32,1.71-1.89a2,2,0,0,1,1.55-.34,1.08,1.08,0,0,1,.75.78c.85,2.33.69,3.43-3,2.71"/><path class="cls-16" d="M137.48,142.74c1.12,0,2.31.67,3.34.15.36-.17.13-.66.08-1a5.49,5.49,0,0,1,.08-1.56c0-.28.11-.79-.2-1a.78.78,0,0,0-1,.32c-.12.22-.1.43-.3.64-.65.72-4.69,2.31-2,2.43"/><path class="cls-16" d="M131.77,146c-.75.94-2.19.8-3.22.16-.61-.37-.61-.59-.4-1a.82.82,0,0,1,.21-.3c.46-.38,2.87-.42,3.47-.43,1.14,0,.62.75-.06,1.6"/><path class="cls-16" d="M123.39,145.62a1.79,1.79,0,0,1-.35.43,3.07,3.07,0,0,1-2.6.22,5.61,5.61,0,0,1-.71-1.1c-.41-.72-.54-1.25.64-2,3.26-2,6.54-.35,4.87,1.26-.47.46-1.44.69-1.85,1.16"/><path class="cls-16" d="M126.41,142.24c-.51.09-1.42,0-.75-.37,1-.48,1.83.19.75.37"/><path class="cls-16" d="M128.09,141.05c-1,.51-1.67-1-.49-1,.71,0,1,.77.49,1"/><path class="cls-16" d="M112.35,144.2a4.29,4.29,0,0,1-.94.1c-.42-.13-.24-.72,1.08-.89s1.24.5-.14.79"/><path class="cls-16" d="M112.33,142.72c0,.28-.76.36-1.08.27s-.66-.56,0-.68,1.12.22,1.1.41"/><path class="cls-16" d="M107,149.38c-.19-.34.84-2.74,1-3.08,1-2.11,4-1.78,4.74-1.18s-.06,1.74-.64,2.45c-2.08,2.51-4.71,2.49-5.1,1.81"/><path class="cls-16" d="M105.28,151.09c.43-.17,1.87-.46,1.76-.06s-1.42.42-1.66.38-.21-.27-.1-.32"/><path class="cls-16" d="M117.28,151.21c-.72.42-.76.26-1.3,1.13a6,6,0,0,1-1.34,1.54c-.56.27-2.41.4-2.93-.12-.33-.33-.06-1.23.1-1.68.31-.83.79-1.11,2.4-1.74a6.84,6.84,0,0,1,1.78-.55c1.44-.16,2.5.74,1.29,1.42"/><path class="cls-16" d="M115.43,149.13c.14.12.06.32-.16.45-.53.3-1.34.15-1.4-.1s.33-.4.68-.4.65-.16.88,0"/><path class="cls-16" d="M118.4,148.72c.33-.08.7,0,.74.21s-.75.65-1.31.27c-.14-.09-.23-.22-.15-.36.23-.35.46-.07.72-.12"/><path class="cls-16" d="M122.25,151.06a1.9,1.9,0,0,1,.44-.73,7.07,7.07,0,0,0,.73-1.14,1,1,0,0,1,.32-.44c.68-.51,3-.62,3.1,0,.26,1.12-5,4.44-4.59,2.29"/><path class="cls-16" d="M126.8,147.72c0,.1-.24.29-.71.17s-.48-.39-.2-.5a1.44,1.44,0,0,1,.91.33"/><path class="cls-16" d="M132.84,148.48c.54.27,4-.22,6.46-1.9,1.34-.93-1.59-1.19-2.65-.86-.69.22-1.31.58-2,.84-1.6.65-2.57,1.57-1.85,1.92"/><path class="cls-16" d="M96.44,141.39a.7.7,0,0,0-.24.45c-.14,1.39-1.43.33-1-.58a2.55,2.55,0,0,1,2-1c1.17.22-.48.92-.75,1.16"/><path class="cls-16" d="M95.13,140.42c0,.06,0,.13,0,.2s-.28.25-.47.06-.93-1.53.35-1.53a.86.86,0,0,1,.83.39c.18.41-.46.57-.69.88"/></g></svg>