<?xml version="1.0" encoding="utf-8"?>
<!-- Generator: Adobe Illustrator 23.1.1, SVG Export Plug-In . SVG Version: 6.00 Build 0)  -->
<svg version="1.1" xmlns="http://www.w3.org/2000/svg" xmlns:xlink="http://www.w3.org/1999/xlink" x="0px" y="0px"
	 viewBox="0 0 100 100" style="enable-background:new 0 0 100 100;" xml:space="preserve">
<style type="text/css">
	.st0{display:none;}
	.st1{display:inline;}
	.st2{opacity:0.2;fill:#FFFFFF;enable-background:new    ;}
	.st3{fill:url(#SVGID_1_);}
	.st4{fill:#FFD01E;}
	.st5{fill:#B4B4B4;}
	.st6{fill:#F9AF17;}
	.st7{opacity:0.18;fill:#EE751B;enable-background:new    ;}
	.st8{fill:#F9B116;}
	.st9{opacity:0.5;}
	.st10{fill:#FFBBFF;}
	.st11{fill:#FAFAFA;}
	.st12{fill:#F2F2F2;}
	.st13{fill:#EAE9E8;}
	.st14{fill:#F99B1D;}
	.st15{fill:#FDC00F;}
</style>
<g id="Warstwa_1" class="st0">
	<g class="st1">
		<circle class="st2" cx="48.3" cy="49" r="34.6"/>
		<circle class="st2" cx="48.3" cy="49" r="29.3"/>
		<ellipse class="st2" cx="48.3" cy="49" rx="25" ry="25"/>
		<g>
			
				<radialGradient id="SVGID_1_" cx="48.6" cy="649.1" r="21.2291" gradientTransform="matrix(1 0 0 1 0 -600)" gradientUnits="userSpaceOnUse">
				<stop  offset="0" style="stop-color:#FFD01E"/>
				<stop  offset="1" style="stop-color:#F9AE17"/>
			</radialGradient>
			<circle class="st3" cx="48.6" cy="49.1" r="21.2"/>
			<path class="st4" d="M47.6,28.5c12.1,0,21.9,9.8,21.9,21.9c0,2-0.3,4-0.8,5.9c0.8-2.2,1.2-4.6,1.2-7.1c0-11.7-9.5-21.2-21.2-21.2
				c-3.8,0-7.3,1-10.4,2.7C41,29.3,44.2,28.5,47.6,28.5z"/>
			<path class="st5" d="M68.3,47.5c0,0.7-0.6,1.3-1.3,1.3c-0.7,0-1.3-0.6-1.3-1.3s0.6-1.3,1.3-1.3C67.7,46.2,68.3,46.8,68.3,47.5z"
				/>
			<g>
				<path class="st6" d="M43.6,59.1c0,2.8-2.2,5-5,5s-5-2.2-5-5s2.2-5,5-5C41.4,54.1,43.6,56.3,43.6,59.1z"/>
			</g>
			<g>
				<path class="st6" d="M51.3,64.9c0,1.6-1.3,2.9-2.9,2.9c-1.6,0-2.9-1.3-2.9-2.9s1.3-2.9,2.9-2.9S51.3,63.3,51.3,64.9z"/>
			</g>
			<path class="st7" d="M54.1,66.4c-11.7,0-21.2-9.5-21.2-21.2c0-5.8,2.3-11.1,6.2-14.9c-6.9,3.5-11.6,10.7-11.6,19
				c0,11.7,9.5,21.2,21.2,21.2c5.9,0,11.2-2.4,15.1-6.3C60.8,65.5,57.5,66.4,54.1,66.4z"/>
			<g>
				<g>
					<path class="st6" d="M66.2,54.7c0,2.5-2,4.6-4.6,4.6c-2.5,0-4.6-2-4.6-4.6c0-2.5,2-4.6,4.6-4.6C64.1,50.1,66.2,52.1,66.2,54.7z
						"/>
				</g>
			</g>
			<g>
				<g>
					<path class="st8" d="M58.5,65.1c0,0.4-0.4,0.8-0.8,0.8c-0.4,0-0.8-0.4-0.8-0.8s0.4-0.8,0.8-0.8C58.1,64.3,58.5,64.7,58.5,65.1z
						"/>
				</g>
			</g>
			<g>
				<g>
					<ellipse class="st6" cx="39.3" cy="48.9" rx="1.7" ry="1.7"/>
				</g>
			</g>
			<g>
				<g>
					<path class="st8" d="M68.3,47.6c0,0.7-0.6,1.3-1.3,1.3c-0.7,0-1.3-0.6-1.3-1.3s0.6-1.3,1.3-1.3C67.7,46.2,68.3,46.8,68.3,47.6z
						"/>
				</g>
			</g>
			<g>
				<g>
					<path class="st6" d="M54.3,34.6c0,1-0.8,1.9-1.9,1.9c-1,0-1.9-0.8-1.9-1.9c0-1,0.8-1.9,1.9-1.9C53.5,32.7,54.3,33.5,54.3,34.6z
						"/>
				</g>
			</g>
			<g>
				<g>
					<path class="st6" d="M47,37c0,2.3-1.9,4.2-4.2,4.2s-4.2-1.9-4.2-4.2s1.9-4.2,4.2-4.2S47,34.7,47,37z"/>
				</g>
			</g>
			<g>
				<g>
					<path class="st6" d="M53.7,42.8c0,1.6-1.3,2.9-2.9,2.9c-1.6,0-2.9-1.3-2.9-2.9c0-1.6,1.3-2.9,2.9-2.9
						C52.4,39.9,53.7,41.2,53.7,42.8z"/>
				</g>
			</g>
			<g>
				<g>
					<path class="st6" d="M64.5,43c0,1.2-1,2.2-2.2,2.2s-2.2-1-2.2-2.2s1-2.2,2.2-2.2C63.6,40.7,64.5,41.7,64.5,43z"/>
				</g>
			</g>
		</g>
	</g>
	<g class="st1">
		<g class="st9">
			<path class="st10" d="M93.8,76c-0.2-0.3-0.5-0.6-0.9-0.8c-0.2-0.1-0.4-0.2-0.6-0.3c-0.5-0.3-1.1-0.5-1.7-0.6
				c-1.8-3-5-4.9-8.5-4.9c-1.5,0-2.9,0.3-4.2,1c-1.3-0.6-2.8-1-4.2-1c-3,0-5.8,1.4-7.7,3.7C65.7,73,65.3,73,65,73
				c-3.7,0-6.7,3-6.7,6.7s3,6.7,6.7,6.7c0.6,0,1.2-0.1,1.8-0.2c1.9,1.9,4.3,2.9,7,2.9c1.5,0,2.9-0.3,4.2-1c1.3,0.6,2.8,1,4.2,1
				c3,0,5.9-1.4,7.8-3.9c2.9-0.1,5.3-2.5,5.3-5.5C95.3,78.3,94.7,77,93.8,76z"/>
			<g>
				<path class="st10" d="M67.8,71.4c-0.1,0.1-0.3,0.2-0.4,0.3h0.1C67.6,71.6,67.7,71.5,67.8,71.4z"/>
				<path class="st10" d="M91.5,83.8c-0.4,0.5-0.9,1-1.4,1.4c1.7-0.1,3.1-1,4.1-2.3C93.4,83.4,92.5,83.7,91.5,83.8z"/>
				<path class="st10" d="M83.7,87.6c-1.5,0-2.9-0.3-4.2-1c-1.3,0.6-2.8,1-4.2,1c-2.7,0-5.1-1-7-2.9c-0.6,0.2-1.2,0.2-1.8,0.2
					c-3.7,0-6.7-3-6.7-6.7c0-1.5,0.5-2.9,1.4-4.1c-1.8,1.2-3,3.2-3,5.5c0,3.7,3,6.7,6.7,6.7c0.6,0,1.2-0.1,1.8-0.2
					c1.9,1.9,4.3,2.9,7,2.9c1.5,0,2.9-0.3,4.2-1c1.3,0.6,2.8,1,4.2,1c2.9,0,5.6-1.3,7.5-3.4C87.9,86.9,85.9,87.6,83.7,87.6z"/>
			</g>
		</g>
		<g class="st9">
			<path class="st10" d="M44.9,67.4c-0.1,0-0.2,0-0.3,0c0.2-0.7,0.3-1.4,0.3-2.1c0-0.2,0-0.4,0-0.6c0-0.5-0.1-1-0.2-1.5
				c-0.1-0.4-0.2-0.8-0.4-1.2c-1.5-4.1-5.8-7-10.8-7c-4.2,0-8,2-10,5.4c-0.7-0.4-1.5-0.5-2.2-0.5c-2.6,0-4.8,1.9-5.7,4.8
				c-1.1-0.4-2.3-0.6-3.6-0.6c-4.4,0-8,2.5-8,5.6c0,2.6,2.6,4.8,6.3,5.4c-0.1,0.2-0.1,0.3-0.1,0.5c0,3.3,8.6,5.3,17,5.3s17-2,17-5.3
				l0,0c0.3,0,0.5,0.1,0.7,0.1c2.7,0,4.9-1.8,4.9-4.1C49.7,69.2,47.6,67.4,44.9,67.4z"/>
			<path class="st10" d="M29.1,79.6c-8.4,0-17-2-17-5.3c0-0.2,0-0.4,0.1-0.5c-3.7-0.6-6.3-2.8-6.3-5.4c0-1.3,0.6-2.5,1.7-3.4
				c-2.2,1-3.7,2.7-3.7,4.7c0,2.6,2.6,4.8,6.3,5.4c-0.1,0.2-0.1,0.3-0.1,0.5c0,3.3,8.7,5.3,17,5.3c3.1,0,6.2-0.3,8.9-0.8
				C33.8,79.9,31.4,79.6,29.1,79.6z"/>
		</g>
	</g>
	<g id="Warstwa_2_kopia" class="st1">
		<g>
			<path class="st11" d="M93.8,72.7c-0.2-0.3-0.5-0.6-0.9-0.8c-0.2-0.1-0.4-0.2-0.6-0.3c-0.5-0.3-1.1-0.5-1.7-0.6
				c-1.8-3-5-4.9-8.5-4.9c-1.5,0-2.9,0.3-4.2,1c-1.3-0.6-2.8-1-4.2-1c-3,0-5.8,1.4-7.7,3.7c-0.3-0.1-0.7-0.1-1-0.1
				c-3.7,0-6.7,3-6.7,6.7s3,6.7,6.7,6.7c0.6,0,1.2-0.1,1.8-0.2c1.9,1.9,4.3,2.9,7,2.9c1.5,0,2.9-0.3,4.2-1c1.3,0.6,2.8,1,4.2,1
				c3,0,5.9-1.4,7.8-3.9c2.9-0.1,5.3-2.5,5.3-5.5C95.3,75,94.7,73.7,93.8,72.7z"/>
			<g>
				<path class="st12" d="M67.8,68.1c-0.1,0.1-0.3,0.2-0.4,0.3h0.1C67.6,68.3,67.7,68.2,67.8,68.1z"/>
				<path class="st12" d="M91.5,80.5c-0.4,0.5-0.9,1-1.4,1.4c1.7-0.1,3.1-1,4.1-2.3C93.4,80.1,92.5,80.4,91.5,80.5z"/>
				<path class="st13" d="M83.7,84.3c-1.5,0-2.9-0.3-4.2-1c-1.3,0.6-2.8,1-4.2,1c-2.7,0-5.1-1-7-2.9c-0.6,0.2-1.2,0.2-1.8,0.2
					c-3.7,0-6.7-3-6.7-6.7c0-1.5,0.5-2.9,1.4-4.1c-1.8,1.2-3,3.2-3,5.5c0,3.7,3,6.7,6.7,6.7c0.6,0,1.2-0.1,1.8-0.2
					c1.9,1.9,4.3,2.9,7,2.9c1.5,0,2.9-0.3,4.2-1c1.3,0.6,2.8,1,4.2,1c2.9,0,5.6-1.3,7.5-3.4C87.9,83.6,85.9,84.3,83.7,84.3z"/>
			</g>
		</g>
		<g>
			<path class="st11" d="M44.9,64.1c-0.1,0-0.2,0-0.3,0c0.2-0.7,0.3-1.4,0.3-2.1c0-0.2,0-0.4,0-0.6c0-0.5-0.1-1-0.2-1.5
				c-0.1-0.4-0.2-0.8-0.4-1.2c-1.5-4.1-5.8-7-10.8-7c-4.2,0-8,2-10,5.4c-0.7-0.4-1.5-0.5-2.2-0.5c-2.6,0-4.8,1.9-5.7,4.8
				c-1.1-0.4-2.3-0.6-3.6-0.6c-4.4,0-8,2.5-8,5.6c0,2.6,2.6,4.8,6.3,5.4c-0.1,0.2-0.1,0.3-0.1,0.5c0,3.3,8.6,5.3,17,5.3s17-2,17-5.3
				l0,0c0.3,0,0.5,0.1,0.7,0.1c2.7,0,4.9-1.8,4.9-4.1C49.7,65.9,47.6,64.1,44.9,64.1z"/>
			<path class="st13" d="M29.1,76.3c-8.4,0-17-2-17-5.3c0-0.2,0-0.4,0.1-0.5c-3.7-0.6-6.3-2.8-6.3-5.4c0-1.3,0.6-2.5,1.7-3.4
				c-2.2,1-3.7,2.7-3.7,4.7c0,2.6,2.6,4.8,6.3,5.4c-0.1,0.2-0.1,0.3-0.1,0.5c0,3.3,8.7,5.3,17,5.3c3.1,0,6.2-0.3,8.9-0.8
				C33.8,76.6,31.4,76.3,29.1,76.3z"/>
		</g>
	</g>
</g>
<g id="Warstwa_2">
	<g id="Sun_1_">
		<path class="st14" d="M14.8,41.2c-0.2,0.3-0.5,0.6-0.8,0.8L3.7,48c-1.6,0.9-1.6,3.1,0,4L14,58c0.3,0.2,0.6,0.5,0.8,0.8
			c-0.7-2.8-1.1-5.8-1.1-8.8S14.1,44.1,14.8,41.2z"/>
		<path class="st14" d="M23.9,24.8c-0.3,0.2-0.7,0.3-1.1,0.3H10.9c-1.8,0-2.9,1.9-2,3.5l5.9,10.3c0.2,0.3,0.3,0.7,0.3,1.1
			c0.4-1.4,0.9-2.8,1.4-4.1C18.3,31.7,20.8,28,23.9,24.8z"/>
		<path class="st14" d="M15.1,60c0,0.4-0.1,0.8-0.3,1.1L8.9,71.4c-0.9,1.6,0.2,3.5,2,3.5h11.9c0.4,0,0.8,0.1,1.1,0.3
			c-3.1-3.2-5.6-7-7.3-11.1C16,62.8,15.5,61.4,15.1,60z"/>
		<path class="st14" d="M24.8,76.1c0.2,0.3,0.3,0.7,0.3,1.1v11.9c0,1.8,1.9,2.9,3.5,2l10.3-5.9c0.3-0.2,0.7-0.3,1.1-0.3
			c-1.4-0.4-2.8-0.9-4.1-1.4C31.7,81.7,28,79.2,24.8,76.1z"/>
		<path class="st14" d="M41.2,85.2c0.3,0.2,0.6,0.5,0.8,0.8L48,96.3c0.9,1.6,3.1,1.6,4,0L58,86c0.2-0.3,0.5-0.6,0.8-0.8
			c-2.8,0.7-5.8,1.1-8.8,1.1S44.1,85.9,41.2,85.2z"/>
		<path class="st14" d="M58.8,14.8c-0.3-0.2-0.6-0.5-0.8-0.8L52,3.7c-0.9-1.6-3.1-1.6-4,0L42,14c-0.2,0.3-0.5,0.6-0.8,0.8
			c2.8-0.7,5.8-1.1,8.8-1.1S55.9,14.1,58.8,14.8z"/>
		<path class="st14" d="M84.9,40c0-0.4,0.1-0.8,0.3-1.1l5.9-10.3c0.9-1.6-0.2-3.5-2-3.5H77.2c-0.4,0-0.8-0.1-1.1-0.3
			c3.1,3.2,5.6,7,7.3,11.1C84,37.2,84.5,38.6,84.9,40z"/>
		<path class="st14" d="M75.2,23.9c-0.2-0.3-0.3-0.7-0.3-1.1V10.9c0-1.8-1.9-2.9-3.5-2l-10.3,5.9c-0.3,0.2-0.7,0.3-1.1,0.3
			c1.4,0.4,2.8,0.9,4.1,1.4C68.3,18.3,72,20.8,75.2,23.9z"/>
		<path class="st14" d="M40,15.1c-0.4,0-0.8-0.1-1.1-0.3L28.6,8.9c-1.6-0.9-3.5,0.2-3.5,2v11.9c0,0.4-0.1,0.8-0.3,1.1
			c3.2-3.1,7-5.6,11.1-7.3C37.2,16,38.6,15.5,40,15.1z"/>
		<path class="st14" d="M76.1,75.2c0.3-0.2,0.7-0.3,1.1-0.3h11.9c1.8,0,2.9-1.9,2-3.5l-5.9-10.3c-0.2-0.3-0.3-0.7-0.3-1.1
			c-0.4,1.4-0.9,2.8-1.4,4.1C81.7,68.3,79.2,72,76.1,75.2z"/>
		<path class="st14" d="M60,84.9c0.4,0,0.8,0.1,1.1,0.3l10.3,5.9c1.6,0.9,3.5-0.2,3.5-2V77.2c0-0.4,0.1-0.8,0.3-1.1
			c-3.2,3.1-7,5.6-11.1,7.3C62.8,84,61.4,84.5,60,84.9z"/>
		<path class="st14" d="M96.3,48L86,42c-0.3-0.2-0.6-0.5-0.8-0.8c0.7,2.8,1.1,5.8,1.1,8.8s-0.4,5.9-1.1,8.8c0.2-0.3,0.5-0.6,0.8-0.8
			L96.3,52C97.9,51.1,97.9,48.9,96.3,48z"/>
		<circle class="st15" cx="50" cy="50" r="32.4"/>
	</g>
</g>
</svg>
