<?xml version="1.0" encoding="utf-8"?>
<!-- Generator: Adobe Illustrator 23.1.1, SVG Export Plug-In . SVG Version: 6.00 Build 0)  -->
<svg version="1.1" id="Warstwa_1" xmlns="http://www.w3.org/2000/svg" xmlns:xlink="http://www.w3.org/1999/xlink" x="0px" y="0px"
	 viewBox="0 0 100 100" style="enable-background:new 0 0 100 100;" xml:space="preserve">
<style type="text/css">
	.st0{fill:#FFFFFF;}
	.st1{fill:#E5117F;}
	.st2{fill:none;stroke:#FFFFFF;stroke-width:0.399;stroke-miterlimit:10;}
	.st3{fill:#1C1712;}
	.st4{fill:none;stroke:#E5117F;stroke-width:0.399;stroke-miterlimit:10;}
</style>
<g>
	<path class="st0" d="M100,50c0-27.6-23-50-50.4-50C22.2,0,0,22.4,0,50c0,27.6,22.2,50,49.6,50C77,100,100,77.6,100,50"/>
	<path class="st1" d="M79.8,50.2c0,16.3-13.2,29.5-29.5,29.5c-16.3,0-29.5-13.2-29.5-29.5c0-16.3,13.2-29.5,29.5-29.5
		C66.6,20.7,79.8,33.9,79.8,50.2"/>
	<path class="st2" d="M77.9,50.2c0,15.2-12.4,27.6-27.6,27.6c-15.2,0-27.6-12.4-27.6-27.6c0-15.2,12.4-27.6,27.6-27.6
		C65.6,22.6,77.9,35,77.9,50.2z"/>
	<path class="st1" d="M89.9,55.8c0,1.8-1.5,3.2-3.2,3.2c-1.8,0-3.2-1.5-3.2-3.2c0-1.8,1.5-3.2,3.2-3.2C88.4,52.5,89.9,54,89.9,55.8"
		/>
	<path class="st1" d="M17.4,55.8c0,1.8-1.4,3.2-3.2,3.2S11,57.6,11,55.8c0-1.8,1.4-3.2,3.2-3.2S17.4,54,17.4,55.8"/>
	<path class="st3" d="M12.8,35.6c0.1-0.6,0.4-1.4,0.7-2.2c0.5-1.1,1-1.8,1.6-2.1c0.5-0.3,1.2-0.3,1.8,0c1,0.4,1.4,1.4,1.4,2.2l0,0
		c0.4-0.5,1.1-0.6,1.9-0.5c1.1,0.2,2,0.3,2.4,0.3L22,34.7c-0.3,0-1-0.1-2-0.2c-1.1-0.2-1.6,0-1.9,0.8L17.8,36l3.2,1.3l-0.6,1.4
		L12.8,35.6z M16.7,35.6l0.3-0.8c0.4-0.9,0.1-1.7-0.6-2.1c-0.8-0.4-1.5,0.1-1.9,1c-0.2,0.4-0.3,0.7-0.3,0.9L16.7,35.6z"/>
</g>
<polygon class="st3" points="22.6,26.7 20.8,29.3 22.8,30.7 24.8,27.8 25.8,28.5 23,32.7 16.1,28 18.8,24 19.9,24.7 18,27.5 
	19.8,28.7 21.5,26.1 "/>
<g>
	<path class="st3" d="M20.6,21.9l1.1-1.1l2.7,2.7l0,0c-0.1-0.4-0.1-0.7-0.2-1.1l-0.5-3.6l1.3-1.3l0.5,4.5l5.5,1.2l-1.3,1.3l-4.4-1.1
		l0.1,1.2l2.1,2.1l-1.1,1.1L20.6,21.9z"/>
	<path class="st3" d="M35,15.8c1.5,2.4,0.9,4.6-1.1,5.8c-2,1.2-4.2,0.5-5.5-1.6c-1.4-2.2-0.9-4.5,1.1-5.8C31.6,13,33.8,13.8,35,15.8
		 M29.8,19.2c0.9,1.4,2.3,2.1,3.6,1.4c1.2-0.8,1.2-2.4,0.3-3.8c-0.8-1.3-2.3-2.2-3.6-1.4C28.8,16.1,28.9,17.7,29.8,19.2"/>
	<path class="st3" d="M43.8,13.9c-0.3-1-0.8-2.3-1-3.3l0,0c0,1,0,2.2-0.1,3.3l-0.2,3.8L41.3,18l-2-3.1c-0.6-0.9-1.2-1.9-1.7-2.9l0,0
		c0.3,1.1,0.6,2.3,0.8,3.5l0.7,3.3l-1.4,0.4L36,10.9l1.9-0.5l2,2.9c0.6,0.9,1.1,1.7,1.5,2.6l0,0c0-0.9,0-2,0-3l0.2-3.5l1.9-0.5
		l2.7,7.9l-1.4,0.4L43.8,13.9z"/>
</g>
<polygon class="st3" points="51.9,12.9 48.8,13 48.9,15.5 52.4,15.4 52.4,16.6 47.4,16.8 47.1,8.5 52,8.3 52,9.6 48.7,9.7 
	48.8,11.8 51.9,11.7 "/>
<g>
	<path class="st3" d="M53.3,16.6l1.5-8.2l1.7,0.3l1.5,3.9c0.4,1,0.7,2,0.9,3l0,0c0.1-1.1,0.3-2.2,0.5-3.4l0.5-2.9l1.4,0.3l-1.5,8.2
		l-1.5-0.3l-1.5-4c-0.4-1-0.7-2.1-0.9-3.1l0,0c-0.1,1.1-0.3,2.1-0.6,3.5l-0.6,2.9L53.3,16.6z"/>
	<path class="st3" d="M64.4,10.8c0.7,0.2,1.4,0.5,2.3,0.9c1.4,0.7,2.2,1.4,2.7,2.3c0.4,0.9,0.5,2-0.1,3.3c-0.6,1.3-1.6,2.1-2.6,2.5
		c-1.1,0.3-2.4,0.1-3.9-0.6c-0.8-0.4-1.4-0.7-1.8-1L64.4,10.8z M62.8,17.8c0.2,0.1,0.5,0.3,0.7,0.4c1.8,0.8,3.3,0.4,4.2-1.6
		c0.8-1.7,0.3-3.1-1.5-3.9c-0.4-0.2-0.8-0.3-1-0.4L62.8,17.8z"/>
	<path class="st3" d="M70.7,20.9l-2,1.4l-1.2-1l7.3-4.9l1.5,1.2l-3.1,8.2l-1.3-1l0.9-2.3L70.7,20.9z M73.3,21.4l0.8-2
		c0.2-0.5,0.4-1,0.6-1.5l0,0c-0.4,0.3-0.9,0.7-1.3,1l-1.8,1.2L73.3,21.4z"/>
	<path class="st3" d="M77.4,30.7c-0.4-0.2-1-0.7-1.6-1.4c-1.7-2-1.4-4.3,0.6-5.9c2.1-1.7,4.6-1.3,6.2,0.7c0.6,0.8,0.9,1.5,1,1.8
		l-1.1,0.5c-0.1-0.4-0.3-0.9-0.8-1.5c-1.1-1.3-2.7-1.6-4.2-0.3c-1.4,1.2-1.6,2.7-0.5,4.1c0.4,0.5,0.9,0.9,1.3,1.1L77.4,30.7z"/>
	<path class="st3" d="M85.7,29.2l0.7,1.3l-4.7,2.6c-2,1.1-3.2,0.5-4-0.9c-0.2-0.4-0.4-0.9-0.4-1.2l1.2-0.4c0.1,0.3,0.1,0.6,0.3,0.9
		c0.4,0.8,1,1,2.3,0.3L85.7,29.2z"/>
	<path class="st3" d="M82.6,36.5l-2.5,0l-0.5-1.5l8.7,0l0.6,1.8L81.9,42l-0.5-1.6l2-1.4L82.6,36.5z M84.4,38.4l1.7-1.3
		c0.4-0.3,0.9-0.6,1.4-0.9l0,0c-0.5,0-1.1,0.1-1.6,0.1l-2.1,0L84.4,38.4z"/>
	<path class="st3" d="M18.3,62.7c0.4,0.5,0.8,1.2,1.2,1.9c0.6,1.1,0.8,1.9,0.6,2.6c-0.1,0.6-0.5,1.1-1.1,1.4
		c-0.9,0.5-1.9,0.2-2.6-0.3l0,0c0.1,0.6-0.3,1.2-0.9,1.8c-0.8,0.7-1.5,1.4-1.7,1.7l-0.7-1.4c0.2-0.2,0.7-0.7,1.5-1.4
		c0.8-0.7,1-1.2,0.6-2l-0.4-0.7l-3,1.6l-0.7-1.3L18.3,62.7z M15.8,65.8l0.4,0.8c0.5,0.9,1.3,1.2,2,0.8c0.8-0.4,0.9-1.2,0.4-2.1
		c-0.2-0.4-0.4-0.7-0.5-0.8L15.8,65.8z"/>
</g>
<polygon class="st3" points="20.9,74.9 18.9,72.4 17,73.9 19.2,76.7 18.2,77.4 15.1,73.5 21.6,68.3 24.6,72.1 23.6,72.9 21.6,70.3 
	19.9,71.6 21.8,74.1 "/>
<g>
	<path class="st3" d="M25.3,72.9l1.1,1l-2.5,2.9l0,0c0.4-0.1,0.7-0.2,1.1-0.3l3.6-0.8l1.4,1.2l-4.5,0.8l-0.9,5.6l-1.3-1.2l0.8-4.4
		l-1.1,0.2l-1.9,2.2l-1.1-1L25.3,72.9z"/>
	<path class="st3" d="M34.4,84.3c-1.4,2.4-3.7,2.9-5.6,1.8c-2-1.2-2.4-3.5-1.2-5.6c1.3-2.2,3.6-3,5.6-1.8
		C35.2,79.9,35.6,82.2,34.4,84.3 M28.9,81.3c-0.8,1.5-0.8,3.1,0.5,3.8c1.3,0.7,2.7,0,3.5-1.5c0.8-1.4,0.9-3-0.5-3.8
		C31.2,79,29.8,79.8,28.9,81.3"/>
	<path class="st3" d="M42.4,87.7c0.2-1,0.5-2.3,0.9-3.4l0,0c-0.5,0.9-1.2,1.9-1.8,2.8l-2.1,3.1l-1.1-0.3L38,86.2
		c0-1.1,0-2.3,0.1-3.3l0,0c-0.3,1-0.7,2.3-1.1,3.4l-1.1,3.2L34.5,89l2.8-7.9l1.9,0.5l0.1,3.5c0,1,0,2-0.1,3l0,0
		c0.5-0.8,1-1.7,1.6-2.6l2-2.9l1.9,0.5L43,91.4L41.6,91L42.4,87.7z"/>
</g>
<polygon class="st3" points="50.6,88.2 47.5,88 47.4,90.5 50.9,90.7 50.8,91.9 45.8,91.6 46.3,83.3 51.1,83.6 51,84.8 47.7,84.7 
	47.6,86.8 50.7,87 "/>
<g>
	<path class="st3" d="M53.2,91.9l-1.1-8.2l1.7-0.2l2.6,3.3c0.7,0.8,1.3,1.7,1.8,2.6l0,0c-0.2-1.1-0.4-2.1-0.6-3.4L57.2,83l1.4-0.2
		l1.1,8.2l-1.6,0.2l-2.6-3.3c-0.6-0.8-1.3-1.8-1.9-2.7l0,0c0.2,1.1,0.4,2.1,0.5,3.5l0.4,2.9L53.2,91.9z"/>
	<path class="st3" d="M59.8,82.6c0.6-0.3,1.4-0.7,2.2-1c1.5-0.5,2.6-0.6,3.5-0.3c1,0.3,1.8,1.1,2.3,2.4c0.5,1.4,0.4,2.6-0.1,3.6
		c-0.5,1-1.6,1.8-3.1,2.4c-0.8,0.3-1.5,0.5-2,0.6L59.8,82.6z M63.6,88.7c0.2,0,0.5-0.1,0.8-0.3c1.9-0.7,2.6-2.1,1.8-4.1
		c-0.6-1.7-2-2.3-3.8-1.7c-0.5,0.2-0.8,0.3-0.9,0.4L63.6,88.7z"/>
	<path class="st3" d="M71.4,83.9l0.7,2.4l-1.3,0.8l-2.2-8.5l1.6-1l6.7,5.6L75.6,84l-1.9-1.6L71.4,83.9z M72.8,81.6l-1.7-1.4
		c-0.4-0.3-0.8-0.7-1.2-1.1l0,0c0.2,0.5,0.4,1,0.5,1.5l0.6,2.1L72.8,81.6z"/>
	<path class="st3" d="M82.6,77.6c-0.1,0.4-0.6,1.1-1.3,1.7c-1.9,1.8-4.2,1.7-6-0.1c-1.9-2-1.6-4.5,0.2-6.2c0.7-0.7,1.4-1,1.7-1.1
		l0.6,1.1c-0.4,0.1-0.9,0.4-1.4,0.9c-1.2,1.2-1.4,2.8,0,4.2c1.3,1.3,2.8,1.4,4.2,0.2c0.4-0.4,0.8-1,1-1.4L82.6,77.6z"/>
	<path class="st3" d="M78.6,69.7l0.9-1.2l4.3,3.3c1.8,1.4,1.7,2.7,0.7,4.1c-0.3,0.3-0.6,0.7-0.9,0.9l-0.9-0.9
		c0.2-0.2,0.5-0.4,0.7-0.7c0.5-0.7,0.5-1.3-0.6-2.2L78.6,69.7z"/>
	<path class="st3" d="M86.3,68.8l1.7,1.7L87.3,72l-6.1-6.3l0.9-1.7l8.6,1.5L90,67l-2.4-0.4L86.3,68.8z M86.4,66.2l-2.1-0.4
		c-0.5-0.1-1.1-0.2-1.6-0.4l0,0c0.4,0.3,0.8,0.7,1.2,1.1l1.5,1.5L86.4,66.2z"/>
	<path class="st0" d="M29,59.2l-3.6-17h3.7l1.1,7c0.3,2,0.7,4.2,0.9,6h0c0.2-1.9,0.6-3.9,1-6l1.3-6.9h3.6l1.2,7.2
		c0.3,2,0.6,3.8,0.8,5.7h0c0.2-1.9,0.6-3.9,0.9-5.9l1.2-6.9h3.5l-3.9,17h-3.7l-1.3-7.3c-0.3-1.7-0.5-3.3-0.7-5.3h0
		c-0.3,1.9-0.5,3.5-0.9,5.3l-1.4,7.3H29z"/>
</g>
<polygon class="st0" points="50,42.1 50,48.7 55.6,48.7 55.6,42.1 59,42.1 59,59.2 55.6,59.2 55.6,52.1 50,52.1 50,59.2 46.5,59.2 
	46.5,42.1 "/>
<g>
	<path class="st0" d="M68.4,59.4c-4.5,0-7.1-3.8-7.1-8.7c0-5.1,2.9-8.9,7.4-8.9c4.6,0,7.2,3.9,7.2,8.6
		C75.8,56.1,72.8,59.4,68.4,59.4L68.4,59.4z M68.6,56.4c2.3,0,3.6-2.5,3.6-5.8c0-3.1-1.3-5.7-3.6-5.7c-2.4,0-3.7,2.6-3.7,5.8
		C64.9,53.9,66.2,56.4,68.6,56.4L68.6,56.4z"/>
	<path class="st4" d="M97.5,50c0-26.2-21.9-47.5-47.9-47.5C23.6,2.5,2.5,23.8,2.5,50c0,26.2,21.1,47.5,47.1,47.5
		C75.6,97.5,97.5,76.2,97.5,50z"/>
</g>
</svg>
