<svg xmlns="http://www.w3.org/2000/svg" xmlns:xlink="http://www.w3.org/1999/xlink" viewBox="0 0 200 200"><defs><style>.cls-1,.cls-4{fill:none;}.cls-2{fill:url(#Gradient_bez_nazwy_10);}.cls-3{clip-path:url(#clip-path);}.cls-4{stroke:#fff;stroke-miterlimit:10;stroke-width:3px;}.cls-5{fill:#174282;}</style><radialGradient id="Gradient_bez_nazwy_10" cx="7.83" cy="99.9" r="66.64" gradientTransform="translate(90.35 -27.43) scale(1.27 1.28)" gradientUnits="userSpaceOnUse"><stop offset="0.39" stop-color="#fff"/><stop offset="1" stop-color="#636363"/></radialGradient><clipPath id="clip-path"><polygon class="cls-1" points="103.49 24.48 103.49 172.05 107.69 172.05 160.89 160.62 180.98 127.89 184.93 93.91 175.78 62.27 165.01 44.19 137.03 23.4 103.49 24.48"/></clipPath></defs><title>zwieksza</title><g id="Warstwa_2" data-name="Warstwa 2"><ellipse class="cls-2" cx="100.26" cy="100" rx="84.34" ry="85"/><path class="cls-1" d="M100,183.92c46.52,0,84.23-37.44,84.23-83.63S146.52,16.67,100,16.67,15.77,54.11,15.77,100.29,53.48,183.92,100,183.92"/><path class="cls-4" d="M100,184.68c46.94,0,85-37.78,85-84.39s-38.06-84.38-85-84.38S15,53.69,15,100.29s38.06,84.39,85,84.39"/><path class="cls-5" d="M43.44,79v2.09H36.22l3.36-5H36.67V74h7.1l-3.34,5Z"/><path class="cls-5" d="M48.61,77.74,50.41,74H52l1.79,3.87L55.57,74h2.8l-3.73,7.13h-1.7l-1.78-3.9-1.7,3.9h-1.7L44.1,74h2.81Z"/><path class="cls-5" d="M61.91,71.24a1.42,1.42,0,1,1-2.83,0,1.42,1.42,0,0,1,2.83,0Zm-.16,9.87H59.23V74h2.52Z"/><path class="cls-5" d="M65.73,78c0,1.07.52,1.6,1.53,1.6a1.27,1.27,0,0,0,1.24-.67h2.42A3,3,0,0,1,69,81.09c-.82.38-1.07.63-1.07,1.07a.61.61,0,0,0,.62.63,1.65,1.65,0,0,0,.78-.27L69,83.86a2.13,2.13,0,0,1-1.11.28,1.33,1.33,0,0,1-1.4-1.25,1.91,1.91,0,0,1,.8-1.5,4.74,4.74,0,0,1-1.79-.28,3.58,3.58,0,0,1-2.35-3.5,3.93,3.93,0,0,1,7.85.15V78Zm3-1.46a1.46,1.46,0,0,0-1.48-1.15,1.34,1.34,0,0,0-1.42,1.15Z"/><path class="cls-5" d="M75,76.55,77.62,74h3.45L77.5,77.27l3.79,3.84H77.75L75,78.21v2.9H72.46V69.58H75Z"/><path class="cls-5" d="M86.9,75.82a3.07,3.07,0,0,0-1.36-.34c-.44,0-.77.22-.77.5s.18.41,1.13.61c1.4.29,2.07,1,2.07,2.11,0,1.62-1.33,2.68-3.39,2.68a5.48,5.48,0,0,1-2.85-.82l.91-1.78a4,4,0,0,0,2,.72c.45,0,.78-.23.78-.55s-.22-.47-1.07-.66c-1.51-.31-2.09-.86-2.09-2,0-1.59,1.21-2.58,3.18-2.58a5.27,5.27,0,0,1,2.29.46Z"/><path class="cls-5" d="M95.92,79v2.09H88.7l3.36-5H89.15V74h7.1l-3.34,5Z"/><path class="cls-5" d="M105.48,74v7.13H103v-.79a2.57,2.57,0,0,1-2.21,1,3.8,3.8,0,0,1,0-7.59,2.87,2.87,0,0,1,2.22.92V74Zm-5.69,3.54a1.63,1.63,0,1,0,1.62-1.6A1.64,1.64,0,0,0,99.79,77.52Z"/><path class="cls-5" d="M114,76.1a1,1,0,0,0-.91-.64.77.77,0,0,0-.79.72c0,.38.22.59,1.06.93a5.55,5.55,0,0,1,1.24.63,1.71,1.71,0,0,1,.72,1.43,2.15,2.15,0,0,1-2.23,2.13,2.31,2.31,0,0,1-2.28-1.67l1-.41c.36.79.71,1,1.3,1a1,1,0,0,0,1.07-1c0-.49-.23-.73-1.05-1.07-1.51-.65-1.89-1-1.89-1.91a1.82,1.82,0,0,1,1.91-1.82,1.88,1.88,0,0,1,1.79,1.18Z"/><path class="cls-5" d="M118.05,81.11h-1.11V75.62h-.68v-1h.68V72.22h1.11v2.36h1.17v1h-1.17Z"/><path class="cls-5" d="M125.29,83.72a1.54,1.54,0,0,1-.83.22,1.32,1.32,0,0,1-1.39-1.29c0-.5.24-.87.92-1.46a3.13,3.13,0,0,1-.82.11,3.44,3.44,0,0,1-.1-6.86c1.87,0,3.12,1.37,3.12,3.44v.19h-5.1a2.08,2.08,0,0,0,2.08,2.2c.86,0,1.38-.36,2-1.37l.94.54A5.78,5.78,0,0,1,125,80.82a3.4,3.4,0,0,0-.71.81,1.79,1.79,0,0,0-.3.83.62.62,0,0,0,.61.61,1.69,1.69,0,0,0,.82-.22ZM125,77.13a2,2,0,0,0-1.92-1.69,2,2,0,0,0-1.92,1.69Z"/><path class="cls-5" d="M133.64,80.07v1h-6.76l4.74-5.49h-3.86v-1h6.09l-4.7,5.49Zm-2.17-7.76a.8.8,0,1,1-1.6,0,.8.8,0,0,1,1.6,0Z"/><path class="cls-5" d="M135.75,78.07a2.09,2.09,0,0,0,2.08,2.2c.86,0,1.38-.36,2-1.37l.95.54a3.26,3.26,0,0,1-3,1.86,3.44,3.44,0,0,1-.05-6.86c1.88,0,3.12,1.37,3.12,3.44v.19Zm3.92-.94a2,2,0,0,0-1.92-1.69,2,2,0,0,0-1.92,1.69Z"/><path class="cls-5" d="M143.68,74.58v.79a2.16,2.16,0,0,1,1.89-1,2.23,2.23,0,0,1,1.87.9,3.14,3.14,0,0,1,.36,1.74v4h-1.11V77.25a2.25,2.25,0,0,0-.22-1.27,1.34,1.34,0,0,0-1.17-.54c-1.13,0-1.62.73-1.62,2.41v3.26h-1.12V74.58Z"/><path class="cls-5" d="M151.31,72.11a.8.8,0,1,1-.8-.8A.8.8,0,0,1,151.31,72.11Zm-.25,9h-1.12V74.58h1.12Z"/><path class="cls-5" d="M154,78.07a2.08,2.08,0,0,0,2.08,2.2c.86,0,1.38-.36,2-1.37l.94.54a3.23,3.23,0,0,1-3,1.86,3.44,3.44,0,0,1-.05-6.86c1.87,0,3.12,1.37,3.12,3.44v.19Zm3.92-.94A2,2,0,0,0,156,75.44a2,2,0,0,0-1.92,1.69Z"/><path class="cls-5" d="M43.15,98.71a3.1,3.1,0,0,0-1.36-.34c-.45,0-.78.22-.78.5s.19.41,1.14.61c1.4.29,2.07,1,2.07,2.11,0,1.62-1.33,2.68-3.39,2.68a5.45,5.45,0,0,1-2.85-.82l.91-1.78a4,4,0,0,0,2,.72c.46,0,.79-.23.79-.55s-.22-.47-1.07-.66c-1.51-.31-2.09-.86-2.09-2,0-1.59,1.21-2.58,3.18-2.58a5.42,5.42,0,0,1,2.29.46Z"/><path class="cls-5" d="M48.46,104H45.73V93.5h2.73Z"/><path class="cls-5" d="M58.4,103.51a3.51,3.51,0,0,1-1,2.94,4.26,4.26,0,0,1-3.18,1.15A4.16,4.16,0,0,1,51,106.34a2.52,2.52,0,0,1-.77-1.48h2.83a1.11,1.11,0,0,0,1.19.73,1.61,1.61,0,0,0,1.34-.62,2,2,0,0,0,.3-1.1v-.66a3,3,0,0,1-2.25.93,3.41,3.41,0,0,1-3.49-3.6,3.66,3.66,0,0,1,3.62-3.87,2.54,2.54,0,0,1,2.12.94v-.74H58.4Zm-5.63-3.11a1.62,1.62,0,1,0,1.62-1.61A1.62,1.62,0,0,0,52.77,100.4Z"/><path class="cls-5" d="M63,102.17,62.25,104H59.37l4-10.5h3L70.32,104H67.41l-.67-1.83Zm1.9-5.42-1.15,3.35H66Z"/><path class="cls-5" d="M77.69,101.89l2-4.92,2,4.92,1.95-4.42H85l-3.24,7-2-4.86-2,4.86-3.21-7h1.26Z"/><path class="cls-5" d="M92.35,101.89l2-4.92,2,4.92,2-4.42h1.26l-3.24,7-2-4.86-2,4.86-3.21-7h1.26Z"/><path class="cls-5" d="M99.88,97.47h1.29l2.32,4.67,2.1-4.67h1.28L102,107.68h-1.26l2.11-4.3Z"/><path class="cls-5" d="M114.17,92.53V104H113v-.9a2.71,2.71,0,0,1-2.25,1.09,3.21,3.21,0,0,1-3.13-3.46,3.16,3.16,0,0,1,3.11-3.4,2.81,2.81,0,0,1,2.28,1.07V92.53Zm-5.37,8.16a2.24,2.24,0,0,0,2.14,2.47,2.18,2.18,0,0,0,2.17-2.43,2.2,2.2,0,0,0-.66-1.78,2.24,2.24,0,0,0-1.49-.6A2.21,2.21,0,0,0,108.8,100.69Z"/><path class="cls-5" d="M122.13,103v1h-6.77l4.74-5.49h-3.85v-1h6.08l-4.7,5.49Z"/><path class="cls-5" d="M124.91,95a.8.8,0,1,1-.8-.8A.8.8,0,0,1,124.91,95Zm-.25,9h-1.12V97.47h1.12Z"/><path class="cls-5" d="M127.57,101a2.08,2.08,0,0,0,2.08,2.2c.86,0,1.38-.36,2-1.36l1,.53a3.26,3.26,0,0,1-3,1.86,3.44,3.44,0,0,1,0-6.86c1.88,0,3.12,1.37,3.12,3.44V101Zm3.92-.94a2,2,0,0,0-1.92-1.69,2,2,0,0,0-1.92,1.69Z"/><path class="cls-5" d="M135.5,104h-1.12V92.53h1.12Z"/><path class="cls-5" d="M139,95a.8.8,0,0,1-.8.8.8.8,0,1,1,0-1.6A.8.8,0,0,1,139,95Zm-.25,9h-1.12V97.47h1.12Z"/><path class="cls-5" d="M142,97.47v.79a2.16,2.16,0,0,1,1.89-1,2.24,2.24,0,0,1,1.87.9,3.17,3.17,0,0,1,.36,1.75v4H145v-3.86a2.16,2.16,0,0,0-.22-1.27,1.32,1.32,0,0,0-1.16-.54c-1.13,0-1.62.73-1.62,2.41V104h-1.12V97.47Z"/><path class="cls-5" d="M149.66,95a.8.8,0,0,1-.8.8.8.8,0,1,1,0-1.6A.8.8,0,0,1,149.66,95Zm-.25,9h-1.12V97.47h1.12Z"/><path class="cls-5" d="M152.32,101a2.08,2.08,0,0,0,2.07,2.2c.87,0,1.39-.36,2-1.36l.94.53a3.23,3.23,0,0,1-3,1.86,3.44,3.44,0,0,1,0-6.86c1.87,0,3.12,1.37,3.12,3.44V101Zm3.92-.94a1.94,1.94,0,0,0-3.84,0Z"/><path class="cls-5" d="M40,115.42v11.47H38.89V126a2.7,2.7,0,0,1-2.25,1.09,3.22,3.22,0,0,1-3.13-3.46,3.16,3.16,0,0,1,3.11-3.4,2.85,2.85,0,0,1,2.29,1.07v-5.87Zm-5.36,8.16a2.24,2.24,0,0,0,2.14,2.47A2.18,2.18,0,0,0,39,123.62a2.16,2.16,0,1,0-4.31,0Z"/><path class="cls-5" d="M43.28,120.36v.71c.58-.69.86-.87,1.48-.87a1.76,1.76,0,0,1,1,.28l-.52,1a1.12,1.12,0,0,0-.66-.22,1.19,1.19,0,0,0-1,.6,3.39,3.39,0,0,0-.25,1.57v3.45H42.16v-6.53Z"/><path class="cls-5" d="M53,123.65a3.45,3.45,0,1,1-3.44-3.43A3.4,3.4,0,0,1,53,123.65Zm-5.75,0a2.3,2.3,0,1,0,2.29-2.38A2.27,2.27,0,0,0,47.28,123.62Zm2.21-4.39-.69-.4,1.65-2.26,1.17.52Z"/><path class="cls-5" d="M60.85,126.75a3.82,3.82,0,0,1-.63,2.56,3.14,3.14,0,0,1-2.59,1.21,2.93,2.93,0,0,1-3.18-3h1.1a2.29,2.29,0,0,0,.31,1.1,2.1,2.1,0,0,0,1.78.87c1.37,0,2.09-.88,2.09-2.57v-1a3,3,0,0,1-2.31,1.08,3.44,3.44,0,0,1,.06-6.86,2.76,2.76,0,0,1,2.25,1.09v-.93h1.12Zm-5.38-3.12A2.18,2.18,0,0,0,57.59,126a2.43,2.43,0,1,0-2.12-2.41Z"/><path class="cls-5" d="M73.42,123.65A3.45,3.45,0,1,1,70,120.22,3.4,3.4,0,0,1,73.42,123.65Zm-5.76,0a2.31,2.31,0,1,0,2.3-2.38A2.28,2.28,0,0,0,67.66,123.62Z"/><path class="cls-5" d="M81.24,115.42v11.47H80.11V126a2.71,2.71,0,0,1-2.25,1.09,3.21,3.21,0,0,1-3.13-3.46,3.16,3.16,0,0,1,3.11-3.4,2.81,2.81,0,0,1,2.28,1.07v-5.87Zm-5.36,8.16A2.24,2.24,0,0,0,78,126.05a2.18,2.18,0,0,0,2.17-2.43A2.17,2.17,0,0,0,78,121.24,2.21,2.21,0,0,0,75.88,123.58Z"/><path class="cls-5" d="M89.48,115.42v11.47H88.35V126a2.7,2.7,0,0,1-2.25,1.09A3.22,3.22,0,0,1,83,123.62a3.17,3.17,0,0,1,3.12-3.4,2.84,2.84,0,0,1,2.28,1.07v-5.87Zm-5.36,8.16a2.24,2.24,0,0,0,2.14,2.47,2.18,2.18,0,0,0,2.17-2.43,2.16,2.16,0,1,0-4.31,0Z"/><path class="cls-5" d="M92.38,123.85a2.08,2.08,0,0,0,2.08,2.2c.86,0,1.38-.36,2-1.36l.94.53a3.23,3.23,0,0,1-3,1.86,3.44,3.44,0,0,1,0-6.86c1.87,0,3.12,1.37,3.12,3.44v.19Zm3.92-.94a2,2,0,0,0-1.92-1.69,2,2,0,0,0-1.92,1.69Z"/><path class="cls-5" d="M104.27,122.31a2.54,2.54,0,0,0-2.06-1.07,2.41,2.41,0,0,0,0,4.81,2.63,2.63,0,0,0,2.12-1.13v1.48a3.57,3.57,0,0,1-2.09.68,3.43,3.43,0,1,1,2-6.25Z"/><path class="cls-5" d="M107.15,115.42v5.71a2.39,2.39,0,0,1,3.74,0,2.94,2.94,0,0,1,.38,1.73v4h-1.11v-4c0-1.19-.4-1.68-1.36-1.68a1.44,1.44,0,0,0-1.38.77,3.53,3.53,0,0,0-.27,1.62v3.26H106V115.42Z"/><path class="cls-5" d="M119.89,123.65a3.45,3.45,0,1,1-3.44-3.43A3.4,3.4,0,0,1,119.89,123.65Zm-5.75,0a2.31,2.31,0,1,0,2.29-2.38A2.27,2.27,0,0,0,114.14,123.62Z"/><path class="cls-5" d="M123.62,124.78l2-4.92,2,4.92,2-4.42h1.26l-3.24,7-2-4.86-2,4.86-3.21-7h1.26Z"/><path class="cls-5" d="M131.16,120.36h1.29l2.31,4.67,2.11-4.67h1.27l-4.83,10.21h-1.26l2.11-4.3Z"/><path class="cls-5" d="M144.14,122.31a2.54,2.54,0,0,0-2.06-1.07,2.33,2.33,0,0,0-2.3,2.41,2.3,2.3,0,0,0,2.28,2.4,2.61,2.61,0,0,0,2.12-1.13v1.48a3.55,3.55,0,0,1-2.09.68,3.43,3.43,0,1,1,0-6.86,3.43,3.43,0,0,1,2,.61Z"/><path class="cls-5" d="M147,115.42v5.71a2.19,2.19,0,0,1,1.87-.91,2.23,2.23,0,0,1,1.87.89,2.94,2.94,0,0,1,.38,1.73v4H150v-4c0-1.19-.39-1.68-1.35-1.68a1.46,1.46,0,0,0-1.39.77,3.55,3.55,0,0,0-.26,1.62v3.26H145.9V115.42Z"/><path class="cls-5" d="M154.28,115.18a11.48,11.48,0,0,0,0,7.84l-.59.27a11.93,11.93,0,0,1,0-8.38Z"/><path class="cls-5" d="M159.26,121v.63h-3.94l2.22-2.57c.82-1,1.06-1.37,1.06-1.84a1.19,1.19,0,0,0-1.22-1.17,1.21,1.21,0,0,0-1,.53,1.33,1.33,0,0,0-.2.73h-.69a2,2,0,0,1,.31-1.06,1.88,1.88,0,0,1,1.59-.82,1.83,1.83,0,0,1,1.9,1.81c0,.67-.23,1.09-1.32,2.33L156.71,121Z"/><path class="cls-5" d="M160.64,123a11.48,11.48,0,0,0,0-7.84l.58-.27a11.79,11.79,0,0,1,0,8.38Z"/></g></svg>